<svg xmlns="http://www.w3.org/2000/svg" width="236.018" height="56.433" viewBox="0 0 236.018 56.433"><defs><style>.a{fill:#47ca98;}.b{fill:#1c9868;}.c{fill:#7affcc;}</style></defs><g transform="translate(15940.921 -6075.369)"><path class="a" d="M1331.135,769.926h.088a.087.087,0,0,1,.023.051c-.016.514-.007,1.028-.007,1.542q0,2.122,0,4.244a3.217,3.217,0,0,0,.016.4c.013.108-.086.163-.123.248-.507,1.168-1.031,2.327-1.549,3.49q-.955,2.147-1.914,4.293-.877,1.965-1.753,3.93-1.061,2.381-2.123,4.762-.812,1.825-1.628,3.648l-1.393,3.126-1.514,3.394q-1.009,2.26-2.016,4.52-.814,1.824-1.628,3.648c-.212.474-.418.95-.635,1.421-.1.206-.058.264.172.264q1.734,0,3.467,0h1.91c.259,0,.3-.024.393-.267.6-1.486,1.185-2.975,1.786-4.459.439-1.085.869-2.173,1.308-3.258.1-.238.105-.244.354-.244q3.305,0,6.611,0c.081,0,.2-.055.234.083a.76.76,0,0,1,.026.247q0,10.516,0,21.031c0,.083-.01.166-.014.248s-.049.076-.108.065a1.258,1.258,0,0,1-.4-.16c-1.339-.746-2.681-1.485-4.021-2.229q-2.375-1.319-4.753-2.634-1.971-1.094-3.944-2.184-2.107-1.167-4.214-2.335c-1.341-.741-2.679-1.488-4.023-2.225-.266-.146-.53-.3-.8-.442a.29.29,0,0,1-.157-.245q-.159-1.348-.312-2.7-.2-1.728-.4-3.456c-.111-.972-.226-1.944-.338-2.916q-.184-1.6-.367-3.193-.153-1.327-.308-2.654-.168-1.451-.334-2.9c-.113-.992-.229-1.983-.343-2.975q-.183-1.6-.367-3.193-.153-1.327-.308-2.654-.168-1.451-.334-2.9c-.124-1.069-.242-2.139-.373-3.208-.058-.471-.087-.944-.112-1.417a2.2,2.2,0,0,0-.027-.372V779.3a.35.35,0,0,1,.227-.171q1.3-.462,2.6-.926c1.5-.538,3.007-1.07,4.509-1.608,1.189-.425,2.38-.846,3.569-1.272,1.474-.529,2.951-1.051,4.426-1.58,1.037-.372,2.076-.737,3.113-1.108,1.489-.533,2.979-1.061,4.467-1.594q1.431-.513,2.864-1.018C1330.821,769.969,1330.983,769.973,1331.135,769.926Z" transform="translate(-17245.814 5305.443)"/><path class="b" d="M1416.789,770.043c.511.179,1.024.354,1.534.536q12.258,4.372,24.517,8.742c.125.044.156.089.139.226-.1.8-.185,1.612-.278,2.417s-.191,1.611-.284,2.417c-.083.723-.161,1.447-.245,2.17-.093.806-.191,1.611-.284,2.417-.083.718-.161,1.437-.244,2.156s-.171,1.446-.255,2.169-.161,1.437-.244,2.156c-.073.636-.15,1.271-.223,1.907s-.144,1.272-.217,1.908-.149,1.272-.223,1.907c-.063.548-.125,1.1-.188,1.646q-.111.961-.224,1.922-.094.815-.187,1.631-.1.837-.194,1.675t-.188,1.646l-.189,1.646q-.1.83-.193,1.66c-.04.349-.081.7-.118,1.049-.008.081-.07.1-.124.13l-2.823,1.564-18.992,10.52c-.1.054-.2.1-.3.154a.633.633,0,0,1-.037-.317q0-10.628,0-21.257c0-.064.049-.064.091-.069a1.178,1.178,0,0,1,.147,0q3.247,0,6.494,0a.333.333,0,0,1,.362.24c.554,1.371,1.1,2.746,1.649,4.119q.719,1.793,1.435,3.587c.107.266.135.285.424.285h5.407c.181-.005.213-.051.139-.216l-.853-1.92-1.718-3.866-1.575-3.544-1.712-3.853-1.694-3.812-1.831-4.121-1.587-3.57L1420.084,784q-.793-1.785-1.587-3.571c-.576-1.3-1.156-2.594-1.728-3.894a.253.253,0,0,1-.018-.249.979.979,0,0,1-.025-.262q0-2.867,0-5.734C1416.728,770.2,1416.707,770.109,1416.789,770.043Z" transform="translate(-17331.377 5305.354)"/><path class="c" d="M1363.38,796.613c.244.555.485,1.111.731,1.665l15.534,34.955c.02.044.037.089.057.138a.206.206,0,0,1-.145.023q-2.909,0-5.818,0a.182.182,0,0,1-.2-.138q-1.59-3.98-3.185-7.958a.185.185,0,0,0-.2-.146q-3.343.006-6.685,0c-.039,0-.078,0-.117.007s-.107-.007-.161-.007q-3.327,0-6.655,0a.23.23,0,0,0-.253.174q-1.575,3.946-3.154,7.89a.236.236,0,0,1-.262.179c-1.91-.006-3.819,0-5.729,0-.2,0-.2,0-.12-.192l12.823-28.751q1.713-3.84,3.427-7.68C1363.3,796.715,1363.3,796.631,1363.38,796.613Z" transform="translate(-17278.006 5285.025)"/><path class="a" d="M1405.974,859.018c.016.022.026.049-.01.054a.981.981,0,0,1-.146.005h-9.21a.2.2,0,0,0-.029,0c-.126.017-.164-.013-.1-.146.147-.331.28-.668.419-1l4.241-10.2a.6.6,0,0,1,.062-.132c.02-.026.041,0,.043.027a5.834,5.834,0,0,1,.046,1.109q0,4.876,0,9.752a2.268,2.268,0,0,0,.006.264.218.218,0,0,0,.223.226,1.957,1.957,0,0,0,.235.006h3.921A.7.7,0,0,1,1405.974,859.018Z" transform="translate(-17315.861 5246.029)"/><path class="b" d="M1421.5,859.142a.467.467,0,0,1-.216.032h-4.318c-.21,0-.228-.017-.228-.225q0-5.5,0-11a.521.521,0,0,1,.026-.2c.289.689.58,1.378.867,2.068q1.911,4.6,3.821,9.192C1421.469,859.049,1421.483,859.1,1421.5,859.142Z" transform="translate(-17331.387 5245.905)"/><g transform="translate(-15880.91 6087.614)"><path class="b" d="M1560.37,852.855V823.967h1.939l11.262,17.069a93.283,93.283,0,0,1,5.422,9.1l.086-.064c-.3-3.879-.332-7.179-.332-11.722v-14.38h1.982v28.888h-1.907L1567.8,836.043a93.348,93.348,0,0,1-5.594-9.344l-.118.064c.236,3.558.268,6.665.268,11.476v14.615Z" transform="translate(-1560.37 -823.517)"/><path class="b" d="M1691.358,850.638a22.819,22.819,0,0,1-8.411,1.564,13.965,13.965,0,0,1-10.223-3.783c-2.389-2.325-3.975-6.2-3.975-10.854,0-8,5.261-14.83,15.076-14.83a16.928,16.928,0,0,1,6.729,1.286l-.664,1.693a13.988,13.988,0,0,0-6.172-1.243c-7.972,0-12.848,5.165-12.848,12.987,0,8.154,4.779,13.008,12.408,13.008a13.8,13.8,0,0,0,6.043-1.007V839.29h-6.7v-1.682h8.733Z" transform="translate(-1643.291 -822.575)"/><path class="b" d="M1792.68,823.966V841.4c0,7.34,3.44,10.19,7.693,10.19,4.758,0,8.079-3.086,8.079-10.19V823.966h2.036v17.252c0,8.862-4.768,12.108-10.233,12.108-5.036,0-9.611-2.947-9.611-11.8V823.966h2.036Z" transform="translate(-1736.553 -823.517)"/><path class="b" d="M1904.86,823.967h2.036v27.174h12.88v1.715H1904.86Z" transform="translate(-1823.939 -823.517)"/><path class="b" d="M1982.872,842.751l-3.568,10.1h-2.09l10.448-28.888h1.982l10.4,28.888h-2.111l-3.633-10.1Zm10.81-1.714-3.515-9.654c-.707-2-1.093-3.45-1.511-5.09h-.107a51.722,51.722,0,0,1-1.5,5l-3.536,9.74Z" transform="translate(-1879.297 -823.517)"/><path class="b" d="M2093.349,823.631a31.49,31.49,0,0,1,6.247-.622c3.761,0,6.129.814,7.769,2.432a7.256,7.256,0,0,1,2.014,5.143c0,3.879-2.3,6.386-5.657,7.522v.086c2.325.75,3.782,2.936,4.468,6.14.986,4.511,1.553,6.654,2.154,7.79h-2.132a39.323,39.323,0,0,1-1.843-7.029c-.889-4.168-2.668-6.054-6.472-6.215h-4.511v13.244h-2.036V823.631Zm2.034,13.6h4.586c4.458,0,7.351-2.5,7.351-6.3,0-4.436-3.257-6.236-7.779-6.236a18.067,18.067,0,0,0-4.157.4Z" transform="translate(-1968.152 -822.784)"/><path class="b" d="M2181.2,823.967h2.036v19.952c0,7.372-3.654,9.408-7.779,9.408a9.657,9.657,0,0,1-3.515-.665l.428-1.682a7.757,7.757,0,0,0,3.054.579c3.686,0,5.775-1.693,5.775-8.079Z" transform="translate(-2028.281 -823.517)"/><path class="b" d="M2242.047,848.2a11.4,11.4,0,0,0,6.311,1.907c4.319,0,6.965-2.454,6.965-6.011,0-3.236-1.682-5.143-5.85-6.751-4.651-1.65-7.436-4.04-7.436-7.972,0-4.233,3.493-7.318,8.4-7.318a10.96,10.96,0,0,1,5.754,1.361l-.793,1.715a9.377,9.377,0,0,0-5.1-1.372c-4.661,0-6.247,2.99-6.247,5.261,0,3.2,1.854,4.843,5.99,6.461,4.768,1.929,7.3,4.093,7.3,8.422,0,4.19-3,7.94-9.162,7.94a12.857,12.857,0,0,1-6.9-1.94Z" transform="translate(-2081.331 -822.053)"/></g></g></svg>