<svg xmlns="http://www.w3.org/2000/svg" width="174.87" height="167.274" viewBox="0 0 174.87 167.274"><defs><style>.a{fill:#d3f6e5;fill-rule:evenodd;}.b{fill:#3bc49a;}</style></defs><g transform="translate(0 0)"><path class="a" d="M1188.278,1787.174a15.049,15.049,0,0,0-.209,2.7c.006.36.023.715.052,1.069-.256-.041-.511-.087-.767-.134l-4.266-.709a57.957,57.957,0,0,1-23.953-7.568,56.977,56.977,0,0,1-12.741-9.957,58.1,58.1,0,0,1-15.92-37.421c-.227-5.469.447-11.264,3.7-15.67,4.522-6.149,12.729-8.038,20.221-9.486q1.805-.349,3.621-.7,2.606-.506,5.225-1.017v68.436a10.454,10.454,0,0,0,10.457,10.457Z" transform="translate(-1130.433 -1630.355)"/><path class="a" d="M1388.672,1654.217c-.314,17.484-7.01,34.41-16.554,49.063-9.428,14.467-21.57,26.952-34.032,38.914-.157.151-.32.3-.476.453a54.866,54.866,0,0,1-8.068,6.772,10.45,10.45,0,0,0,3.325-7.632V1641.011c1.75-1.32,3.482-2.656,5.225-3.976a77.065,77.065,0,0,1,14.24-9.021c8.486-3.883,19.158-4.766,26.673.768C1386.6,1634.379,1388.846,1644.783,1388.672,1654.217Z" transform="translate(-1213.812 -1595.424)"/><path class="b" d="M1253.11,1715.2v4.365h1.1a5.227,5.227,0,0,0,5.227-5.228V1695.61a5.227,5.227,0,0,0-5.227-5.228h-26.137a5.227,5.227,0,0,0-5.227,5.228v18.727a5.227,5.227,0,0,0,4.731,5.228v-4.2a12.777,12.777,0,0,1,.522-3.776V1695.61h26.111v18.727h-1.15C1253.071,1714.624,1253.11,1714.911,1253.11,1715.2Z" transform="translate(-1169.131 -1622.859)"/><path class="b" d="M1291.7,1749.581h-4.287l.314.366a12.792,12.792,0,0,1,6.534,2.013A2.614,2.614,0,0,0,1291.7,1749.581Z" transform="translate(-1196.171 -1647.649)"/><path class="b" d="M1257.131,1673.137h-47.046a5.228,5.228,0,0,0-5.228,5.228v39.2a5.227,5.227,0,0,0,5.228,5.227h10.049v-5.227h-10.049v-39.2h47.046a2.614,2.614,0,0,0,0-5.228Z" transform="translate(-1161.599 -1615.638)"/><path class="b" d="M1274.7,1719.813v-59.435a5.227,5.227,0,0,0-5.227-5.227h-57.5a2.614,2.614,0,1,0,0,5.227h57.5v55.841A12.91,12.91,0,0,1,1274.7,1719.813Z" transform="translate(-1163.482 -1608.106)"/><path class="b" d="M1258.9,1574.212h-65.337a15.679,15.679,0,0,0-15.682,15.682v130.681a15.5,15.5,0,0,0,1.122,5.818,15.668,15.668,0,0,0,14.56,9.864h14.607c-.081-.482-.145-.965-.18-1.453-.029-.354-.046-.709-.052-1.069a15.037,15.037,0,0,1,.209-2.7h-14.583a10.454,10.454,0,0,1-10.457-10.457V1589.894a10.454,10.454,0,0,1,10.457-10.456h8.451a3.441,3.441,0,0,0,.116.343l2.133,4.755c1.831,4.3,4.807,6.678,8.4,6.678h27.051a10.184,10.184,0,0,0,9.149-6.795c.849-2.616,1.54-4.586,1.552-4.6a2.937,2.937,0,0,0,.116-.378h8.364a10.453,10.453,0,0,1,10.457,10.456v130.681a10.449,10.449,0,0,1-3.325,7.632,10.333,10.333,0,0,1-1.273,1.023,15.331,15.331,0,0,1,.674,4.324v1.308a15.685,15.685,0,0,0,9.143-13.88c.006-.134.006-.273.006-.407V1589.894A15.682,15.682,0,0,0,1258.9,1574.212Zm-14.99,8.608a4.96,4.96,0,0,1-4.208,3.15h-27.051c-1.825,0-3.028-2.18-3.6-3.54l-1.349-2.993h37.339C1244.748,1580.274,1244.359,1581.448,1243.911,1582.82Z" transform="translate(-1150.303 -1574.212)"/><path class="b" d="M1227.668,1794.814c0,4.378,2.692,7.841,6.012,7.841h35.141a5.134,5.134,0,0,0,3.646-1.608,9.553,9.553,0,0,0-.248-12.6c3.633-22.347,2.182-31.364,1.764-33.3a7.618,7.618,0,0,0-7.592-7.214,7.844,7.844,0,0,0-2.98.6,7.619,7.619,0,0,0-7.318-5.62h0a7.528,7.528,0,0,0-2.614.484,7.619,7.619,0,0,0-7.305-5.541h0a7.711,7.711,0,0,0-2.509.419l-.091-10.455a7.632,7.632,0,0,0-7.593-7.54h0a7.475,7.475,0,0,0-7.489,7.461c0,.035,0,.07,0,.105l.262,31.024a15.274,15.274,0,0,0-6.417-5.136,7.449,7.449,0,0,0-5.828.313,6.022,6.022,0,0,0-3.515,3.555c-1.307,3.489.078,8.233,4.3,14.493l10.964,19.328a10.291,10.291,0,0,0-.549,3.358Zm41.022,2.613h-34.905a3.616,3.616,0,0,1-.889-2.613,3.669,3.669,0,0,1,.784-2.614h34.931a3.7,3.7,0,0,1,.875,2.614A3.63,3.63,0,0,1,1268.69,1797.427Zm-46.942-28.044-.117-.17c-4.326-6.417-4.025-9.044-3.829-9.684a.916.916,0,0,1,.379-.562,1.224,1.224,0,0,0,.5-.209,2.182,2.182,0,0,1,1.895-.117c3.189,1.11,6.874,7.214,8.455,10.794a2.614,2.614,0,0,0,4.979-.81,1.32,1.32,0,0,0,0-.262h0l-.327-40.616a2.247,2.247,0,0,1,.64-1.62,2.275,2.275,0,0,1,1.634-.666,2.43,2.43,0,0,1,2.378,2.352l.353,40.6a2.614,2.614,0,0,0,2.614,2.614h0a2.613,2.613,0,0,0,2.613-2.614v-.2l-.209-22.869a2.074,2.074,0,0,1,.64-1.5,2.535,2.535,0,0,1,1.816-.745h0a2.379,2.379,0,0,1,2.418,2.313v5.057l.144,17.995a2.613,2.613,0,0,0,2.614,2.614h0a2.613,2.613,0,0,0,2.613-2.614v-1.228c0-.092-.117-16.989-.117-16.989a2.235,2.235,0,0,1,2.261-2.091,2.379,2.379,0,0,1,2.379,2.366v5.11l.117,12.715a2.614,2.614,0,0,0,2.614,2.614h0a2.614,2.614,0,0,0,2.4-1.634,2.752,2.752,0,0,0,.209-1.045l-.1-12.794a2.27,2.27,0,0,1,.679-1.411,2.875,2.875,0,0,1,1.973-.875,2.392,2.392,0,0,1,2.379,2.352,2.341,2.341,0,0,0,.091.666c0,.092,1.96,7.946-1.712,30.8h-33.546a4.855,4.855,0,0,0-1.66.327Z" transform="translate(-1164.807 -1635.381)"/></g></svg>