<svg xmlns="http://www.w3.org/2000/svg" width="165.635" height="46.773" viewBox="0 0 165.635 46.773"><defs><style>.a{fill:#1c9868;}.b{fill:#47ca98;}</style></defs><g transform="translate(15638.133 -6087.594)"><g transform="translate(-15499.031 6104.195)"><path class="a" d="M1117.609,709.585a2.3,2.3,0,0,0-1.142.279l-10.982,6.342a2.315,2.315,0,0,0-1.143,2.006v12.66a2.316,2.316,0,0,0,1.143,2l2.868,1.656a4.69,4.69,0,0,0,2.541.676c2.063,0,3.241-1.252,3.241-3.427v-12.5a.313.313,0,0,0-.326-.3h-1.375a.312.312,0,0,0-.326.3v12.5c0,.964-1,1.934-2.635,1.119l-2.984-1.749a.329.329,0,0,1-.187-.28V718.211a.37.37,0,0,1,.187-.3l10.958-6.318a.323.323,0,0,1,.326,0l10.958,6.318a.373.373,0,0,1,.187.3v12.66a.352.352,0,0,1-.163.3l-10.982,6.318a.337.337,0,0,1-.326,0l-2.821-1.679a.294.294,0,0,0-.28,0,7.266,7.266,0,0,1-1.656.746c-.18.063-.453.16.093.467l3.684,2.168a2.3,2.3,0,0,0,2.285,0l10.982-6.319a2.319,2.319,0,0,0,1.142-2V718.212a2.315,2.315,0,0,0-1.142-2l-10.982-6.342a2.287,2.287,0,0,0-1.142-.28Z" transform="translate(-1104.343 -709.585)"/><path class="a" d="M1155.853,748.1c-3.127,0-4.99,1.331-4.99,3.544,0,2.4,1.849,3.06,4.85,3.357,3.59.352,3.87.879,3.87,1.586,0,1.226-.977,1.749-3.287,1.749-2.9,0-3.54-.725-3.754-2.168a.317.317,0,0,0-.3-.28h-1.422a.333.333,0,0,0-.326.327c0,1.848,1.005,4.033,5.806,4.033,3.475,0,5.479-1.364,5.479-3.754,0-2.369-1.619-3-4.99-3.45-3.406-.451-3.73-.671-3.73-1.469,0-.658.276-1.539,2.8-1.539,2.253,0,3.086.486,3.427,2.006a.319.319,0,0,0,.3.256h1.422a.344.344,0,0,0,.233-.117.306.306,0,0,0,.093-.233c-.22-2.616-1.965-3.847-5.479-3.847Z" transform="translate(-1139.651 -739.05)"/></g><path class="b" d="M599.976,638.913a.7.7,0,0,0-.7.7v17.836a.471.471,0,0,1-.233.419.486.486,0,0,1-.49,0l-2.915-1.679a1.4,1.4,0,0,0-1.4,0L582.605,662.9a1.433,1.433,0,0,0-.7,1.236v13.43a1.4,1.4,0,0,0,.7,1.212L594.24,685.5a1.393,1.393,0,0,0,1.4,0l11.634-6.715a1.4,1.4,0,0,0,.7-1.212V644.089a1.422,1.422,0,0,0-.723-1.236l-6.925-3.87a.681.681,0,0,0-.349-.07Zm-74.843,16.764a1.313,1.313,0,0,0-.629.163l-11.635,6.715a1.394,1.394,0,0,0-.7,1.212l.023,18.023a.688.688,0,0,0,.35.606.679.679,0,0,0,.7,0l6.9-3.964a1.424,1.424,0,0,0,.723-1.213V668.8a1.392,1.392,0,0,1,.7-1.213l2.937-1.7a1.4,1.4,0,0,1,1.4,0l2.938,1.7a1.392,1.392,0,0,1,.7,1.213v8.417a1.427,1.427,0,0,0,.723,1.213l6.9,3.964a.678.678,0,0,0,.7,0,.7.7,0,0,0,.35-.606l.023-18.023a1.387,1.387,0,0,0-.7-1.212L525.9,655.84a1.307,1.307,0,0,0-.629-.163h-.14Zm104.548.163a1.394,1.394,0,0,0-.7.187l-11.634,6.715a1.4,1.4,0,0,0-.7,1.212v13.43a1.4,1.4,0,0,0,.723,1.213l11.541,6.575a1.4,1.4,0,0,0,1.376.023l6.995-3.893a.707.707,0,0,0,.373-.606.689.689,0,0,0-.35-.606l-11.7-6.715a.753.753,0,0,1-.373-.63v-4.2a.719.719,0,0,1,.373-.606l3.637-2.1a.7.7,0,0,1,.7,0l3.637,2.1a.7.7,0,0,1,.35.606v3.311a.7.7,0,0,0,1.049.606l6.972-4.056a1.4,1.4,0,0,0,.7-1.213v-3.24a1.4,1.4,0,0,0-.7-1.213l-11.564-6.715a1.388,1.388,0,0,0-.7-.186h0Zm-34.788,10.026a.39.39,0,0,1,.187.046l3.987,2.308a.362.362,0,0,1,.187.3v4.616a.36.36,0,0,1-.187.3l-3.987,2.308a.353.353,0,0,1-.349,0l-3.987-2.308a.361.361,0,0,1-.187-.3v-4.616a.362.362,0,0,1,.187-.3l3.987-2.308a.307.307,0,0,1,.163-.046h0Z" transform="translate(-16150.302 5448.681)"/><path class="a" d="M673.692,710.676a1.394,1.394,0,0,0-.7.187l-11.634,6.692a1.431,1.431,0,0,0-.7,1.236v13.43a1.4,1.4,0,0,0,.7,1.213l11.634,6.715a1.392,1.392,0,0,0,1.4,0l11.634-6.715a1.4,1.4,0,0,0,.7-1.213V718.79a1.431,1.431,0,0,0-.7-1.236l-11.634-6.692a1.393,1.393,0,0,0-.7-.187Zm69.574,11.984a.287.287,0,0,0-.14.023l-2.238,1.306a.272.272,0,0,0-.14.233v2.565a.272.272,0,0,0,.14.233l2.238,1.282a.243.243,0,0,0,.256,0l2.238-1.283a.274.274,0,0,0,.14-.233v-2.565a.274.274,0,0,0-.14-.233l-2.238-1.306a.2.2,0,0,0-.117-.023h0Z" transform="translate(-16263.911 5393.775)"/></g></svg>