<svg xmlns="http://www.w3.org/2000/svg" width="112.543" height="142.849" viewBox="0 0 112.543 142.849"><defs><style>.a{fill:#1c9868;}</style></defs><g transform="translate(15884.441 -5846.502)"><path class="a" d="M56.282,44.148a10,10,0,1,0,10.007,10.07A9.9,9.9,0,0,0,56.282,44.148Zm0,0a10,10,0,1,0,10.007,10.07A9.9,9.9,0,0,0,56.282,44.148Zm0,0a10,10,0,1,0,10.007,10.07A9.9,9.9,0,0,0,56.282,44.148Zm0,0a10,10,0,1,0,10.007,10.07A9.9,9.9,0,0,0,56.282,44.148Zm0,0a10,10,0,1,0,10.007,10.07A9.9,9.9,0,0,0,56.282,44.148Zm0,0a10,10,0,1,0,10.007,10.07A9.9,9.9,0,0,0,56.282,44.148Zm0,0a10,10,0,1,0,10.007,10.07A9.9,9.9,0,0,0,56.282,44.148Zm0,0a10,10,0,1,0,10.007,10.07A9.9,9.9,0,0,0,56.282,44.148Zm0,0a10,10,0,1,0,10.007,10.07A9.9,9.9,0,0,0,56.282,44.148Zm0,0a10,10,0,1,0,10.007,10.07A9.9,9.9,0,0,0,56.282,44.148ZM110.046,47.5a20.879,20.879,0,0,0-3.916-3.862,48.8,48.8,0,0,0-15.75-7.665c-1.092-.336-1.393-.78-1.12-1.926A48.275,48.275,0,0,0,90.714,22c.059-4.487-.439-8.7-2.582-12.548a9.483,9.483,0,0,0-8.677-5.248,20.349,20.349,0,0,0-8.71,2.109A51.973,51.973,0,0,0,57.156,15.85c-.622.571-1.055.62-1.67.016a49.876,49.876,0,0,0-6.713-5.5c-3.864-2.659-7.918-4.912-12.6-5.8C30.03,3.4,25.607,5.752,23.38,11.382a23.362,23.362,0,0,0-1.51,7.446,53.453,53.453,0,0,0,1.536,15.365c.242,1,0,1.369-.982,1.637A51.647,51.647,0,0,0,15.9,38.137c-4.574,1.94-8.865,4.315-12.325,7.982-3.829,4.054-4.632,8.86-2.149,13.218a18.652,18.652,0,0,0,4.216,5c4.9,4.155,10.625,6.716,16.68,8.614,1.022.319,1.273.738,1.019,1.764a52.015,52.015,0,0,0-1.5,14.547,24.339,24.339,0,0,0,1.426,7.578c1.976,5.353,5.9,7.9,11.534,7.42a21.6,21.6,0,0,0,6.455-1.682,49.155,49.155,0,0,0,14.432-9.718c.622-.576.989-.66,1.616-.021a44.58,44.58,0,0,0,4.987,4.275c4.308,3.267,8.856,6.152,14.3,7.012,5.337.843,9.356-.385,12.212-6.2a23.978,23.978,0,0,0,2.112-9.8A52.053,52.053,0,0,0,89.45,74.286c-.2-.876.009-1.292.867-1.555,1.421-.437,2.831-.923,4.209-1.478,5.452-2.189,10.6-4.846,14.66-9.264C113.318,57.491,113.671,52.234,110.046,47.5Zm-49.752-28c4.515-4.087,9.213-7.9,15.128-9.821A10.217,10.217,0,0,1,80.261,9.1a4.721,4.721,0,0,1,3.321,2.18,14.885,14.885,0,0,1,2.142,6.756,19.252,19.252,0,0,1,.256,3.857A59.666,59.666,0,0,1,84.543,33.27c-.153.674-.392,1.019-1.2.832a115.84,115.84,0,0,0-13.192-2.109,2,2,0,0,1-1.539-.9,104.543,104.543,0,0,0-8.353-10.427C59.853,20.214,59.851,19.895,60.295,19.5ZM33.671,60.767c1.86,3.6,3.944,7.073,6.23,10.751a90.051,90.051,0,0,1-9.408-1.431c-.55-.108-.85-.334-.655-.956.886-2.833,1.943-5.6,3.061-8.351C33.135,60.2,33.415,60.272,33.671,60.767ZM29.88,39.584c-.122-.388-.047-.7.409-.81A83.87,83.87,0,0,1,39.811,37.2c-2.365,3.829-4.484,7.444-6.572,11.376A93.3,93.3,0,0,1,29.88,39.584Zm6.326,15.6a1.9,1.9,0,0,1,.045-1.79A133.511,133.511,0,0,1,45.5,37.341a2.057,2.057,0,0,1,1.764-.935c4.689-.287,9.38-.284,14.07-.209,1.445.023,2.887.162,4.332.223a1.585,1.585,0,0,1,1.353.773,158.662,158.662,0,0,1,9.471,16.33,1.58,1.58,0,0,1-.049,1.548,156.738,156.738,0,0,1-9.276,16.171,1.8,1.8,0,0,1-1.527.886c-3.2.254-6.406.228-9.866.24-2.715-.049-5.689.066-8.654-.225a1.877,1.877,0,0,1-1.555-.839A139.962,139.962,0,0,1,36.206,55.182Zm37.187,15.21c1.318-2.264,2.676-4.505,3.991-6.772.662-1.142,1.266-2.318,2.051-3.765a92.138,92.138,0,0,1,3.547,9.032c.176.517.026.808-.519.942a78.354,78.354,0,0,1-8.778,1.517C72.61,71.481,73.176,70.765,73.393,70.391ZM78.969,47.86c-1.86-3.549-3.93-6.981-6.166-10.65a79.938,79.938,0,0,1,9.438,1.569c.564.122.646.46.491.961-.85,2.722-1.865,5.382-2.974,8.008C79.561,48.214,79.27,48.435,78.969,47.86ZM55.759,24.2c.305-.317.573-.709,1.034-.2a86.417,86.417,0,0,1,6.042,7.376,27.261,27.261,0,0,1-4.806-.1c-2.347-.113-4.686.124-7.031.179-.3.007-.684.136-.864-.179-.193-.338.153-.571.336-.8A80.591,80.591,0,0,1,55.759,24.2Zm-28-10.744c1.32-3.592,3.556-4.839,7.319-4.179a23.6,23.6,0,0,1,7.425,2.828,51.112,51.112,0,0,1,9.579,7.139c.651.6.763,1.048.11,1.734a90.863,90.863,0,0,0-7.977,9.838,2.565,2.565,0,0,1-1.987,1.207,102.424,102.424,0,0,0-12.741,2c-.806.186-1.207,0-1.4-.867a59.411,59.411,0,0,1-1.534-11.808A23.955,23.955,0,0,1,27.761,13.456Zm-2.38,53.917c-.336,1.092-.832,1.3-1.882.947-5.219-1.764-10.244-3.885-14.531-7.463a15.926,15.926,0,0,1-2.842-3.108A5.506,5.506,0,0,1,6.176,50.6c2.1-2.906,5.05-4.75,8.135-6.406A55.826,55.826,0,0,1,23.9,40.383c.735-.235,1.137-.146,1.4.672A107.632,107.632,0,0,0,29.981,53.2c.16.352.254.733.388,1.128-.12.341-.214.679-.357,1A101.975,101.975,0,0,0,25.381,67.373ZM52.489,89.3c-4.512,4.118-9.309,7.787-15.266,9.6a11.033,11.033,0,0,1-4.851.54,5.071,5.071,0,0,1-3.911-2.856,19.726,19.726,0,0,1-1.912-9.438,54.524,54.524,0,0,1,1.414-11.278c.211-.975.644-1.278,1.64-1.066A90.632,90.632,0,0,0,42.369,76.6a2.12,2.12,0,0,1,1.668.942,117.579,117.579,0,0,0,8.478,10.491C52.956,88.523,52.975,88.852,52.489,89.3Zm4.667-4.83c-.519.585-.841.679-1.353.052-1.781-2.175-3.585-4.329-5.372-6.5-.183-.223-.547-.444-.31-.789.164-.237.5-.139.773-.108a80.9,80.9,0,0,0,10.646-.033c.395-.033.954-.237,1.17.23.174.383-.289.686-.514.982C60.586,80.412,58.923,82.482,57.156,84.467ZM84.25,96.31a5.537,5.537,0,0,1-6.307,3.164c-4.278-.63-7.869-2.751-11.327-5.151a57.2,57.2,0,0,1-5.9-4.834c-.651-.6-.749-1.038-.11-1.731a95.017,95.017,0,0,0,8.066-10.22,1.907,1.907,0,0,1,1.492-.972,105.868,105.868,0,0,0,13.215-2c.775-.169,1.224-.141,1.431.782a64.577,64.577,0,0,1,1.426,11.278C86.035,89.867,85.87,93.231,84.25,96.31Zm21.23-37.438a27.482,27.482,0,0,1-8.135,5.882,57.176,57.176,0,0,1-8.374,3.373c-.827.268-1.212.056-1.47-.756a106.423,106.423,0,0,0-4.865-12.2,2.06,2.06,0,0,1-.049-1.889,106.341,106.341,0,0,0,4.7-12.013c.277-.874.679-1.088,1.536-.81,5.508,1.771,10.805,3.951,15.3,7.726a11.717,11.717,0,0,1,3.127,3.911,6.477,6.477,0,0,1,.568,2.126A8.2,8.2,0,0,1,105.48,58.872ZM56.3,64.157A10,10,0,1,0,46.283,54.24,9.818,9.818,0,0,0,56.3,64.157Zm-.019-20.009a10,10,0,1,0,10.007,10.07A9.9,9.9,0,0,0,56.282,44.148Zm0,0a10,10,0,1,0,10.007,10.07A9.9,9.9,0,0,0,56.282,44.148Zm0,0a10,10,0,1,0,10.007,10.07A9.9,9.9,0,0,0,56.282,44.148Zm0,0a10,10,0,1,0,10.007,10.07A9.9,9.9,0,0,0,56.282,44.148Zm0,0a10,10,0,1,0,10.007,10.07A9.9,9.9,0,0,0,56.282,44.148Zm0,0a10,10,0,1,0,10.007,10.07A9.9,9.9,0,0,0,56.282,44.148Zm0,0a10,10,0,1,0,10.007,10.07A9.9,9.9,0,0,0,56.282,44.148Zm0,0a10,10,0,1,0,10.007,10.07A9.9,9.9,0,0,0,56.282,44.148Z" transform="translate(-15884.441 5842.295)"/><path class="a" d="M216.975,184.312a10,10,0,1,1-10.007-10.07A9.818,9.818,0,0,1,216.975,184.312Z" transform="translate(-16035.143 5712.201)"/><path class="a" d="M216.975,184.312a10,10,0,1,1-10.007-10.07A9.818,9.818,0,0,1,216.975,184.312Z" transform="translate(-16035.143 5712.201)"/><g transform="translate(-15873.824 5968.732)"><path class="a" d="M45.2,525.651a21.8,21.8,0,0,1,4.321-.43c2.6,0,4.239.563,5.373,1.682a5.018,5.018,0,0,1,1.393,3.558,5.278,5.278,0,0,1-3.913,5.2v.059c1.608.519,2.616,2.031,3.091,4.247a25.84,25.84,0,0,0,1.49,5.388H55.478A27.188,27.188,0,0,1,54.2,540.5c-.615-2.883-1.845-4.188-4.477-4.3h-3.12v9.161H45.2Zm1.408,9.405h3.172c3.083,0,5.084-1.727,5.084-4.358,0-3.068-2.253-4.313-5.381-4.313a12.511,12.511,0,0,0-2.876.274v8.4Z" transform="translate(-45.198 -525.065)"/><path class="a" d="M105.215,556.287c0,4.543,2.475,6.344,5.41,6.344a8.256,8.256,0,0,0,3.958-.808l.363,1.112a9.582,9.582,0,0,1-4.491.912c-4.091,0-6.633-2.979-6.633-7.145,0-4.751,2.72-7.723,6.4-7.723,4.662,0,5.544,4.38,5.544,6.433a4.863,4.863,0,0,1-.044.875h-10.5Zm9.071-1.126c.037-1.986-.793-5.01-4.254-5.01-3.127,0-4.484,2.816-4.743,5.01Z" transform="translate(-90.051 -543.243)"/><path class="a" d="M173.776,563.536l-.208-2.038H173.5a5.375,5.375,0,0,1-4.536,2.364,3.881,3.881,0,0,1-4.187-3.913c0-3.283,2.89-5.262,8.679-5.2v-.378c0-1.408-.274-4.217-3.639-4.195a6.252,6.252,0,0,0-3.572,1.06l-.445-1.023a7.62,7.62,0,0,1,4.173-1.23c4.106,0,4.892,3.083,4.892,5.625v5.551a23.161,23.161,0,0,0,.208,3.38h-1.3Zm-.319-7.6c-3.1-.089-7.189.378-7.189,3.795a2.71,2.71,0,0,0,2.831,2.965,4.284,4.284,0,0,0,4.21-2.853,2.713,2.713,0,0,0,.148-.852v-3.054Z" transform="translate(-136.689 -543.244)"/><path class="a" d="M233.321,562.921a9.338,9.338,0,0,1-4.158.926c-4.1,0-6.833-2.987-6.833-7.263,0-4.528,3.083-7.6,7.337-7.6a7.365,7.365,0,0,1,3.735.882l-.5,1.171a6.622,6.622,0,0,0-3.372-.83c-3.817,0-5.773,2.92-5.773,6.27,0,3.728,2.349,6.159,5.625,6.159a8.061,8.061,0,0,0,3.558-.823Z" transform="translate(-180.722 -543.244)"/><path class="a" d="M279.558,532.825v4.121h4.054v1.141h-4.054v9.249c0,1.808.563,2.942,2.09,2.942a4.962,4.962,0,0,0,1.616-.222l.171,1.089a5.085,5.085,0,0,1-1.964.341,3.026,3.026,0,0,1-2.453-1.008,5.21,5.21,0,0,1-.867-3.395v-9h-2.4v-1.141h2.4v-3.661Z" transform="translate(-221.593 -530.883)"/><path class="a" d="M347.4,525.884h1.408v13.8c0,5.1-2.527,6.507-5.381,6.507a6.679,6.679,0,0,1-2.431-.459l.3-1.164a5.367,5.367,0,0,0,2.112.4c2.55,0,3.995-1.171,3.995-5.588Z" transform="translate(-271.513 -525.573)"/><path class="a" d="M389.486,542.643a7.883,7.883,0,0,0,4.365,1.319c2.987,0,4.818-1.7,4.818-4.158,0-2.238-1.164-3.558-4.047-4.669-3.216-1.141-5.143-2.794-5.143-5.514,0-2.928,2.416-5.062,5.81-5.062a7.582,7.582,0,0,1,3.98.941l-.548,1.186a6.488,6.488,0,0,0-3.528-.949c-3.224,0-4.321,2.068-4.321,3.639,0,2.216,1.282,3.35,4.143,4.469,3.3,1.334,5.047,2.831,5.047,5.826,0,2.9-2.075,5.492-6.337,5.492a8.892,8.892,0,0,1-4.773-1.342Z" transform="translate(-308.204 -524.559)"/></g></g></svg>