<svg xmlns="http://www.w3.org/2000/svg" width="197.824" height="62.913" viewBox="0 0 197.824 62.913"><defs><style>.a{fill:#47ca98;}.b{fill:#1c9868;}</style></defs><g transform="translate(15327.498 -6133.671)"><path class="a" d="M357.956,977.387c-1.037-2.66-.415-5.411-.365-8.116.02-1.051,1.175-1.5,2.071-1.855,10.849-4.266,21.624-8.725,32.642-12.551a9.777,9.777,0,0,1,6.9.066q14.836,5.743,29.658,11.522c1,.392,2.262.732,2.086,2.283a5.472,5.472,0,0,1-3.363,3.56c-7.357,3.431-14.862,6.523-22.3,9.766-2.605,1.136-5.073,2.548-7.73,3.582a10.2,10.2,0,0,1-8.254-.385c-8.889-3.983-18-7.438-26.912-11.374-2.768-1.223-2.807-1.143-3.348,1.775C358.91,976.389,358.833,977.136,357.956,977.387Z" transform="translate(-15684.858 5179.403)"/><path class="b" d="M959.62,996.979c0-5.268.024-10.541-.015-15.814-.015-2.456-1.228-3.909-3.08-3.894s-3.007,1.448-3.06,3.928c-.049,2.188-.1,4.386.01,6.569.1,1.983-.117,2.914-2.412,1.735a10.722,10.722,0,0,0-6.642-.95,14.008,14.008,0,0,0-7.052,24.478c4.332,3.767,9.279,4.3,14.522,1.891.643-.3,1.3-1.17,2.076-.088a2.907,2.907,0,0,0,3.831,1.15c1.672-.765,1.837-2.305,1.832-3.918C959.61,1007.035,959.62,1002.006,959.62,996.979Zm-13.406,13.23a7.836,7.836,0,1,1,7.212-7.909A7.555,7.555,0,0,1,946.214,1010.209Z" transform="translate(-16124.813 5161.803)"/><path class="b" d="M431.876,1120.622a12.67,12.67,0,0,0,.1,1.939c.946,4.7-1.41,6.961-5.557,8.666-9.212,3.787-18.262,7.97-27.365,12.022a9.76,9.76,0,0,1-8.224.116c-9.381-4.022-18.8-7.966-28.187-11.962-1.4-.6-2.911-1.051-3.844-2.408a24.25,24.25,0,0,1-.175-5.313c-.022-2.25.524-2.6,2.621-1.656,4.8,2.16,9.69,4.125,14.543,6.168,5.077,2.138,10.17,4.24,15.229,6.419a8.99,8.99,0,0,0,7.763-.071c10.158-4.862,20.7-8.855,30.825-13.794C430.341,1120.387,431.083,1120.03,431.876,1120.622Z" transform="translate(-15685.776 5052.367)"/><path class="b" d="M361.206,1079.146c-.778-.622-1.867-.848-2.349-1.847-.388-1.849-.054-3.721-.183-5.577s.708-2.1,2.227-1.472c4.2,1.741,8.377,3.537,12.569,5.3,5.763,2.421,11.573,4.729,17.274,7.3a9.847,9.847,0,0,0,8.7-.251c10.1-4.842,20.6-8.82,30.686-13.7a1.642,1.642,0,0,1,1.825-.015,38.779,38.779,0,0,0,.114,4.311,4.309,4.309,0,0,1-2.752,4.982c-.448,1.48-1.686,2.1-2.952,2.654-6.677,2.912-13.335,5.869-20.049,8.694-2.761,1.162-5.341,2.7-8.174,3.721a9.251,9.251,0,0,1-7.1-.224c-9.19-4.036-18.584-7.59-27.735-11.718A3.567,3.567,0,0,1,361.206,1079.146Z" transform="translate(-15685.853 5091.917)"/><path class="b" d="M359.871,1024.512c0-1.783,0-3.566-.008-5.349,0-1.122.365-1.44,1.479-.908,9.873,4.72,20.2,8.385,30.144,12.937a9.64,9.64,0,0,0,8.427.109q14.735-6.63,29.5-13.2a15.293,15.293,0,0,0,3.457-2.237c.03,1.622-.052,3.255.116,4.863a3.694,3.694,0,0,1-2.874,4.4,5.436,5.436,0,0,1-3.2,2.976c-8.879,3.954-17.927,7.52-26.685,11.747a9.7,9.7,0,0,1-8.457.209c-8.832-3.861-17.757-7.5-26.641-11.239a4.824,4.824,0,0,1-2.894-2.729A4.224,4.224,0,0,1,359.871,1024.512Z" transform="translate(-15686.773 5132.278)"/><path class="b" d="M820.125,1040.551c2.593.093,5.19.024,7.788.024v-.02c2.675,0,5.351.039,8.031-.01a2.63,2.63,0,0,0,2.89-3.094,14.316,14.316,0,0,0-.424-2.88,13.235,13.235,0,0,0-12.388-9.951,13.686,13.686,0,0,0-13.207,8.947,14.13,14.13,0,0,0,4.147,15.872c5.088,4.181,13.328,4.113,17.992-.122,1.15-1.043,1.745-2.2.755-3.621-.95-1.355-2.266-1.433-3.67-.755-.507.244-.955.609-1.462.867-4.22,2.159-9.844.575-11.667-3.241C818.268,1041.223,818.307,1040.483,820.125,1040.551Zm-1.277-6.836a7.365,7.365,0,0,1,6.686-3.7,8.831,8.831,0,0,1,7.466,4.3c.677,1.092.063,1.452-.96,1.457-2.105.01-4.206,0-6.306,0v.01c-1.94,0-3.884-.029-5.824.01C818.068,1035.83,818.034,1034.977,818.848,1033.716Z" transform="translate(-16032.623 5125.588)"/><path class="a" d="M360.377,1056.251c9.99,4.273,19.989,8.525,29.963,12.834a8.42,8.42,0,0,0,7.3-.068c9.364-4.49,19-8.356,28.492-12.558.738-.326,1.42-.778,2.127-1.172-.079,1.037.882,1.008,1.439,1.362.771.49,1.547.93,1.323,2.044-3.8,3.067-8.5,4.311-12.837,6.292-6.488,2.965-13.061,5.743-19.538,8.729a10.863,10.863,0,0,1-9.171.161q-14.905-6.279-29.754-12.689c-1.359-.588-1.738-.338-1.722,1.055.019,1.621-.044,3.243-.071,4.865-.823-2.59-.352-5.244-.314-7.865C357.633,1057.564,360.107,1057.869,360.377,1056.251Z" transform="translate(-15684.919 5102.113)"/><path class="b" d="M1117.387,1024.627a14.323,14.323,0,0,1,8.8,3.137,2.847,2.847,0,0,1,.758,4.1c-.934,1.424-2.373,1.589-3.87.791-1.427-.761-2.753-1.742-4.421-1.958a5.59,5.59,0,0,0-3.76.661c-1.566.963-1.553,2.05.11,2.8a20.846,20.846,0,0,0,3.482,1.062,26.626,26.626,0,0,1,5.535,1.825c2.743,1.38,4.539,3.493,4.666,6.617.122,3.011-1.423,5.269-3.883,6.889-4.889,3.219-12.927,2.264-16.891-1.979a2.754,2.754,0,0,1-.236-3.953,2.713,2.713,0,0,1,3.908-.582c1.508.961,2.955,2.061,4.771,2.334a9.831,9.831,0,0,0,2.9.021c1.457-.223,3.121-.6,3.273-2.36.144-1.681-1.586-1.861-2.731-2.283a43.08,43.08,0,0,0-4.233-1.113c-5.691-1.459-8.376-4.55-7.75-8.919C1108.4,1027.671,1112.825,1024.563,1117.387,1024.627Z" transform="translate(-16258.371 5125.572)"/><path class="a" d="M360.243,1110.3c9.843,4.147,19.727,8.2,29.508,12.491,3.6,1.58,6.7.735,9.984-.749,9.511-4.3,19.073-8.48,28.614-12.708.9.946,2.934.854,2.639,2.89-5.971,4.027-12.905,6.008-19.324,9.087-4.09,1.962-8.311,3.652-12.408,5.6a11.328,11.328,0,0,1-10.035.28c-9.8-4.292-19.7-8.356-29.524-12.588-1.45-.625-1.721-.146-1.726,1.129-.006,1.621-.041,3.243-.063,4.864-.861-2.563-.373-5.2-.334-7.8C357.6,1111.3,359.339,1111.14,360.243,1110.3Z" transform="translate(-15684.891 5060.759)"/><path class="b" d="M745.547,1038.983c0-3.484.011-6.968-.005-10.452-.007-1.516.457-2.756,2.014-3.226a2.76,2.76,0,0,1,3.656,1.536c.562,1.336,1.078.713,1.765.267a11.928,11.928,0,0,1,5.916-2c1.892-.1,3.493.408,3.7,2.577.192,1.976-1.029,2.855-2.882,3.211a10.631,10.631,0,0,0-8.2,9.83c-.068,2.916-.022,5.833-.026,8.75,0,2.011-.929,3.363-3,3.357-2.085-.006-2.95-1.406-2.95-3.4Q745.548,1044.207,745.547,1038.983Z" transform="translate(-15981.855 5125.214)"/><path class="b" d="M1067.526,1039.033c0-3.328-.015-6.657,0-9.985.012-2.014.729-3.606,3-3.654,2.3-.048,3.075,1.546,3.084,3.553q.05,10.35,0,20.7c-.01,1.936-.885,3.324-2.984,3.462-1.805.118-3.048-1.311-3.09-3.605C1067.479,1046.017,1067.526,1042.524,1067.526,1039.033Z" transform="translate(-16228.193 5124.985)"/><path class="b" d="M1070.538,977.269c1.747-.073,3.039,1.276,3.148,3.287.118,2.177-1,3.712-2.808,3.84-1.881.134-3.2-1.228-3.281-3.376S1068.725,977.345,1070.538,977.269Z" transform="translate(-16228.258 5161.808)"/><path class="b" d="M421.407,1008.92a17.2,17.2,0,0,1-7.377-1.442c-.884-.438-1.8-.964-1.844-2.072-.046-1.136.857-1.743,1.753-2.117a18.35,18.35,0,0,1,14.419-.056c.9.364,1.793.93,1.812,2.077.02,1.274-.98,1.776-1.941,2.239A17.125,17.125,0,0,1,421.407,1008.92Z" transform="translate(-15726.803 5143.048)"/><path class="b" d="M474.51,1034.991l16-2.44c-1.792,2.613-3.221,4.713-4.67,6.8-.479.69-1.1.482-1.734.216q-4.8-2.012-9.606-4C474.5,1035.374,474.507,1035.184,474.51,1034.991Z" transform="translate(-15774.48 5119.509)"/><path class="b" d="M485.108,975.974c1.343-1.842,6.039-.26,3.019-5.048,3.178,1.4,5.753,2.339,8.462.891.45-.241,1.174.059.862.665-1.116,2.17.571,2.4,1.874,2.955a7.983,7.983,0,0,1,1.125.845c-2.664.728-6.051-.272-6.568,3.91C492.42,975.536,488.545,976.437,485.108,975.974Z" transform="translate(-15782.598 5166.658)"/><path class="b" d="M555.392,1006.379a3.188,3.188,0,0,1-2.8.184c-2.267-.841-4.53-1.7-6.768-2.612-.585-.239-1.773-.939-.568-1.4,3.342-1.272,6.449-3.277,10.139-3.559A9.732,9.732,0,0,1,555.392,1006.379Z" transform="translate(-15828.216 5145.183)"/><path class="b" d="M588.225,1006.381a12.061,12.061,0,0,1,0-7.384l8.657,3.4q0,.292,0,.585Q592.552,1004.682,588.225,1006.381Z" transform="translate(-15861.049 5145.181)"/></g></svg>