<svg xmlns="http://www.w3.org/2000/svg" xmlns:xlink="http://www.w3.org/1999/xlink" width="227.04" height="204.821" viewBox="0 0 227.04 204.821"><defs><style>.a{fill:#fcd0be;}.a,.b,.c{stroke:#fff;stroke-miterlimit:10;}.b{fill:#47c98e;}.c{fill:#ffd638;}.d{fill:#abc2db;}.e{fill:#eef3f8;}.f{fill:#d0ddee;}.g{fill:#3d2559;}.h{fill:#42526e;}.i{fill:#ff5745;}.j{fill:#f94b3e;}.k{fill:url(#a);}.l{fill:#3dc7dc;}.m{fill:#58cfe1;}.n{fill:#c1edf4;}.o{fill:#9ae2ed;}.p{fill:#ace7f0;}.q{fill:#f0d0b4;}.r{fill:#f5e0cd;}.s{fill:#172b4d;}.t{fill:url(#b);}.u{fill:#a27f68;}.v{fill:#e23b6f;}.w{fill:#091e42;}.x{fill:url(#c);}.y{fill:#8c715d;}</style><linearGradient id="a" x1="-13.852" y1="-84.913" x2="-12.852" y2="-84.913" gradientUnits="objectBoundingBox"><stop offset="0" stop-color="#81dbe8"/><stop offset="0.41" stop-color="#81dbe8"/><stop offset="0.66" stop-color="#75d7e6"/><stop offset="0.87" stop-color="#6ed5e5"/><stop offset="1" stop-color="#58cfe1"/></linearGradient><linearGradient id="b" x1="-27.805" y1="9.429" x2="-26.813" y2="9.429" gradientUnits="objectBoundingBox"><stop offset="0" stop-color="#72594b"/><stop offset="0.56" stop-color="#8c715d"/></linearGradient><linearGradient id="c" y1="0.5" x2="1" y2="0.5" gradientUnits="objectBoundingBox"><stop offset="0" stop-color="#ff991f"/><stop offset="0.77" stop-color="#ffc400"/></linearGradient></defs><g transform="translate(1.575 0.507)"><g transform="translate(0.878)"><path class="a" d="M948.949,396.486v.127L907.4,404.069l-29.7-7.583,37.74-6.1Z" transform="translate(-877.705 -379.74)"/><path class="a" d="M1065.584,379.046l-31.682,5.686-.7.127v-.127l-33.5-6.1,32.586-5.265Z" transform="translate(-961.956 -367.986)"/><path class="a" d="M1172.167,361.472l-33.839,5.556-33.3-5.677,33.3-5.383Z" transform="translate(-1034.7 -355.969)"/><path class="a" d="M1278.134,378.9l-33,6.212h0l-32.459-5.8,33.839-5.556Z" transform="translate(-1109.047 -368.255)"/><path class="a" d="M1390.041,396.8l-30.649,7.267-41.786-7.468,33-6.212Z" transform="translate(-1181.515 -379.74)"/><path class="b" d="M916.365,623.607l-27.843-12.164-2.416-44.994,28.74,10.048Z" transform="translate(-883.507 -501.333)"/><path class="b" d="M909.044,468.516,880.3,458.468l-2.6-48.369,29.7,7.583Z" transform="translate(-877.705 -393.353)"/><path class="b" d="M1130.468,814.107v50.55l-37.743-20.038V797.909Z" transform="translate(-1026.206 -661.187)"/><path class="b" d="M1017.578,765.656v46.711l-32.787-17.408-.875-43.751Z" transform="translate(-951.058 -628.935)"/><path class="a" d="M1283.173,417.937l-33.489,8.214-42.439-9.253,34.139-6.429h0Z" transform="translate(-1105.297 -393.608)"/><path class="a" d="M1174.406,397.519l-34.139,6.429h0l-30-6.543,31.682-5.686Z" transform="translate(-1038.319 -380.659)"/><path class="c" d="M1479.678,411.119l-2.84,48.054-29.443,10,1.634-50.792Z" transform="translate(-1271.153 -394.057)"/><path class="c" d="M1375.366,434.609l-1.634,50.792-33,11.215,1.142-53.793Z" transform="translate(-1197.49 -410.28)"/><path class="c" d="M1473.44,566.449l-2.661,44.994-28.3,12.418L1444,576.454Z" transform="translate(-1267.755 -501.333)"/><path class="c" d="M1467.685,711.889l-2.4,40.6L1438,767.429l1.386-43.123Z" transform="translate(-1264.661 -601.779)"/><path class="c" d="M1366.886,752.029l-1.386,43.123-32.474,17.782,1.315-46.628Z" transform="translate(-1192.165 -629.501)"/><path class="c" d="M1252.638,798.179l-1.315,46.628-36.6,20.038v-50.55Z" transform="translate(-1110.463 -661.374)"/><path class="b" d="M922.634,767.8l-26.469-14.051-2.249-41.863,27.843,12.164Z" transform="translate(-888.901 -601.779)"/><path class="c" d="M1371.343,598.789l-1.522,47.407-32.545,14.277,1.07-50.47Z" transform="translate(-1195.1 -523.668)"/><path class="d" d="M1015.949,500.268,976.864,515.91l-1.519-47.11-1.64-50.835,41.545-7.456.365,46.789Z" transform="translate(-944.006 -393.636)"/><path class="e" d="M1181.139,425.9,1180,479.688l-1.07,50.47-40.23-17.281v0l-30-12.888-.334-42.971L1108,410.226l.7-.127,30,6.543h0Z" transform="translate(-1036.752 -393.353)"/><path class="f" d="M1093.233,730.821l-37.913,16.115-37.743-16.2L983.916,716.29,1023,700.649l30,12.888v0Z" transform="translate(-951.058 -594.016)"/><path class="d" d="M1120.109,435.46v26.066l20.8,7.3V440.915Z" transform="translate(-1045.118 -410.868)"/><path class="d" d="M1204.71,534.094l.052-5.286a.787.787,0,0,1,1.037-.739l35.184,11.758a.787.787,0,0,1,.538.739l.057,6.175a.787.787,0,0,1-1.053.748l-35.293-12.647A.788.788,0,0,1,1204.71,534.094Z" transform="translate(-1103.546 -474.798)"/><path class="d" d="M1204.717,488.273l.047-4.777a1.053,1.053,0,0,1,1.338-1l19.782,5.547a1.053,1.053,0,0,1,.768,1.039l-.13,5.557a1.053,1.053,0,0,1-1.375.978l-19.7-6.327A1.053,1.053,0,0,1,1204.717,488.273Z" transform="translate(-1103.551 -443.323)"/><path class="d" d="M1120.109,546.5l63.848,22.606-.563,49.458-62.9-27.129Z" transform="translate(-1045.118 -487.555)"/><path class="f" d="M1215.915,656.148l10.005-9.948,13.744,19.749Z" transform="translate(-1111.284 -556.412)"/><ellipse class="f" cx="2.261" cy="3.175" rx="2.261" ry="3.175" transform="translate(110 77.571)"/><ellipse class="e" cx="5.389" cy="7.569" rx="5.389" ry="7.569" transform="translate(79.691 31.049) rotate(-2.392)"/><ellipse class="e" cx="7.135" cy="8.939" rx="7.135" ry="8.939" transform="translate(73.411 54.531) rotate(-52.288)"/><path class="e" d="M1145.787,668.287l43.893,17.874a.433.433,0,0,1,.27.4v4.516a.433.433,0,0,1-.6.4l-43.893-18.319a.433.433,0,0,1-.266-.4v-4.07A.433.433,0,0,1,1145.787,668.287Z" transform="translate(-1062.44 -571.644)"/><path class="e" d="M1145.192,619.386l13.164-13.756,19.273,26.886Z" transform="translate(-1062.44 -528.393)"/></g><g transform="translate(168.76 82.092)"><path class="g" d="M1486.136,778.665a106.8,106.8,0,0,1-2.59,19.38c-.8,3.519-1.792,7.043-1.807,10.653-.013,3.021.659,6.009.74,9.029.1,3.818.73,5.182.466,8.992-.135,1.937-.87,5.011-.316,6.872s-1.849,5.641-.158,6.6c1.36.768,5.8.259,7.357.255a5.711,5.711,0,0,0,3.235-.757c1.811-1.231,1.972-3.792,1.949-5.981l-.122-12.073a22.126,22.126,0,0,0-.374-4.639c-.329-1.463-.952-2.844-1.344-4.292-1.7-6.256,1.055-12.836.815-19.313-.865,4.832,1.794,9.54,2.478,14.4.355,2.527.182,5.156,1.015,7.569,1.365,3.954,5.219,6.71,6.379,10.729.411,1.423.588,4.2,1.677,5.2,1.54,1.423,3.939-.413,5.857-1.262,1.4-.62,4.241-1.274,4.451-2.792.1-.717-1.41-1.671-1.646-2.356l-2.438-7.1a36.086,36.086,0,0,0-1.777-4.509c-1.011-2.016-2.411-3.869-2.993-6.048-.676-2.528-.176-5.205-.291-7.82-.1-2.394-.727-4.733-1.049-7.108a69.108,69.108,0,0,1-.2-10.878,2.755,2.755,0,0,0-.184-1.3c-.5-1-1.906-1.021-3.022-.893l-5.222.6c-3.946.454-8.357.786-11.472-1.679l.223.958" transform="translate(-1462.754 -729.624)"/><path class="h" d="M1498.675,960.981l-.135,1.494c-.179,2.211-.254,3.316-.4,5.348-.045.642-.134,1.7-.239,2.988l-4.049-.508q-.09-1.614-.209-3.272-.254-3.167-.613-6.155C1494.91,960.891,1496.792,960.876,1498.675,960.981Z" transform="translate(-1470.549 -855.83)"/><path class="h" d="M1570.324,932.867l.687,1.389c.911,1.987,1.494,2.958,2.405,4.781l1.36,2.749-3.735,1.643q-.9-1.33-1.853-2.689-1.838-2.6-3.675-4.96C1567.127,934.824,1568.74,933.838,1570.324,932.867Z" transform="translate(-1520.61 -836.486)"/><path class="g" d="M1514.342,815.9c2.017,5.035,3.511,9.173,4.482,11.952l-7.828,4.2q-2.316-4.632-4.6-9.487-2.764-5.857-5.274-11.549c-.7-2.749-1.359-5.647-1.942-8.725q-.762-4.078-1.27-7.828c-.523,5.767-.911,11.847-1.076,18.241-.239,9.382-.015,18.182.523,26.279a14.745,14.745,0,0,1-8.426.941c-.851-7.978-1.18-14.97-1.285-20.692-.06-3.914-.075-9.905.329-17.106.314-5.752.807-10.578,1.18-14.372.359-3.511.7-6.484.971-8.7a20.123,20.123,0,0,0,18.241.4c.359,3.227.807,7.38,1.27,12.191.777,8.023-.03,11.115,1.6,16.568C1511.862,810.327,1512.056,810.237,1514.342,815.9Z" transform="translate(-1466.81 -730.26)"/><path class="i" d="M1493.773,674.105a2.988,2.988,0,0,0-3.106,2.865,10.71,10.71,0,0,0-.149,1.091,9.334,9.334,0,0,0,0,2.346,60.343,60.343,0,0,1,.1,6.08c.06,4.751-1.554,19.063-1.748,20.781a20.422,20.422,0,0,0,12.475,3.122,20.079,20.079,0,0,0,9.218-3.152c.045-2.9.149-5.319.239-7.082.179-2.39.523-8.336,1.494-16.075.045-.329.254-1.494.4-2.988a15.013,15.013,0,0,0,.164-2.45q-1.135-.792-2.376-1.584c-1.823-1.105-3.586-2.106-5.289-2.988l-1.912,1.18a5.244,5.244,0,0,1-6.8-1.135h-2.555C1493.884,674.112,1493.829,674.108,1493.773,674.105Z" transform="translate(-1467.681 -657.754)"/><path class="j" d="M1456.927,690.971c.688-1.614,1.629-1.494,4.392-4.243a29.4,29.4,0,0,0,5.259-6.335,26.1,26.1,0,0,1,2.644-3.182l.329,12.206c-1.389,1.494-3.078,3.3-5.363,5.692a7.29,7.29,0,0,1-4.183,2.734,5.32,5.32,0,0,1-2.211-.164A8.2,8.2,0,0,1,1456.927,690.971Z" transform="translate(-1445.37 -659.922)"/><g transform="translate(0 15.206)"><path class="k" d="M1447.5,717.1l-3.4,21.844c-.2,1.313-4.746,2.334-10.154,2.334s-9.949-1.021-10.154-2.334l-3.4-21.844Z" transform="translate(-1420.382 -702.675)"/><path class="l" d="M1433.943,712.445c-7.878,0-13.917.739-13.558,1.527s6.429,1.391,13.558,1.391,13.2-.613,13.558-1.391C1447.879,713.165,1441.82,712.445,1433.943,712.445Z" transform="translate(-1420.37 -699.461)"/><path class="m" d="M1431.194,687.475l.126,5.329-1.255-.107-1.819-12.235,1.858-.272Z" transform="translate(-1425.81 -677.185)"/><path class="n" d="M1439.243,688.094v3.54l-1.819-.126-.127-5.33-.185-7.781h1.877Z" transform="translate(-1431.933 -675.947)"/><path class="o" d="M1477.883,679.31l1.858.272-1.858,12.76-1.945.078Z" transform="translate(-1458.747 -676.577)"/><path class="p" d="M1445.691,686.29l-1.877-.088v-3.54l-.068-12.186h1.877Z" transform="translate(-1436.514 -670.476)"/><path class="m" d="M1468.7,696.271h-1.877l-.068-11.428h1.945Z" transform="translate(-1452.407 -680.398)"/></g><path class="q" d="M1511,659.9c.329-.329.463-.7.463-1.823a19.309,19.309,0,0,0-.119-2.644l8.62-2.122a17.689,17.689,0,0,0,0,10.264,6.259,6.259,0,0,1-6.469,1.031,6.5,6.5,0,0,1-3.6-4.482A1.494,1.494,0,0,0,1511,659.9Z" transform="translate(-1482.2 -643.417)"/><path class="r" d="M1512.274,635.951a5.121,5.121,0,0,1,.94-.65,7.794,7.794,0,0,0,2.457-2.906h0l.115-.275h0q.132-.209.249-.428a6.992,6.992,0,0,0-2.861-9.465q-.271-.147-.555-.268a6.573,6.573,0,0,0-8.625,3.469,7.285,7.285,0,0,0-.517,2.264l-.037.416a14.448,14.448,0,0,1-.8,1.953c-.285.5-.531.747-.332,1.035s.946.159,1.205.108c.076.487.179,1.186.331,2.009a7.3,7.3,0,0,0,.744,2.751c.4.4.888.567,4.683.4C1511.165,636.261,1511.508,636.317,1512.274,635.951Z" transform="translate(-1476.906 -621.398)"/><path class="s" d="M1518.844,631.978l-.115.275h0c-.159.106-1.357.914-2.084.489-.958-.521-.305-2.8-1.059-3.095-.319-.118-.768.2-1.146.573l-1.131-.1a10.289,10.289,0,0,0-.229-2.481c-.3-1.391-.739-2.646-1.319-2.863s-.933.2-3.422,1.03a9.949,9.949,0,0,1-1.538.433,6.229,6.229,0,0,1,.307-.918q.121-.283.268-.555a6.573,6.573,0,0,1,8.912-2.646q.218.117.427.249a6.992,6.992,0,0,1,2.185,9.644Z" transform="translate(-1480.063 -621.324)"/><path class="s" d="M1467.988,990.117c1-1.509,3.75-.389,5.707-1.793.792-.538,1.718-1.733,1.912-4.482l4.885-.194a.405.405,0,0,1,.314,0q1.031.3-.314,8.68h-12.714A2.674,2.674,0,0,1,1467.988,990.117Z" transform="translate(-1453.01 -871.535)"/><path class="s" d="M1567.2,959.024c-.089-1.867,2.779-2.555,3.511-4.856.329-.956.329-2.45-1.165-4.781l3.795-3.078a.4.4,0,0,1,.209-.239q1-.314,4.93,7.156l-10.2,7.589A2.675,2.675,0,0,1,1567.2,959.024Z" transform="translate(-1521.773 -845.596)"/><path class="q" d="M1498.441,700.766a23.381,23.381,0,0,1-4.482,4.392c-.762.508-2.42,1.569-8.038,3.242-2.062.6-4.885,1.375-8.307,2.092l-1.972-2.286c4.8-2.316,8.351-4.034,9.516-4.572.254-.119.852-.4,1.4-.627s1.18-.463,1.882-.7h0a86.428,86.428,0,0,0,7.32-9.487c.583-.881,2.555-3.914,5.349-4.736a3.122,3.122,0,0,1,2.51.1,2.881,2.881,0,0,1,1.06,1.613C1505.522,692.728,1498.964,700.273,1498.441,700.766Z" transform="translate(-1458.543 -667.282)"/><path class="q" d="M1457.47,754.671l-1.972.852-.269.089a6.649,6.649,0,0,0-.956.448,18.366,18.366,0,0,1-1.882,1.076,6.049,6.049,0,0,1-1.643.373,7.213,7.213,0,0,1-1.151,0c-.269-.075-3.122-.851-3.122-1.389a.786.786,0,0,1,.1-.3,1.5,1.5,0,0,1,.463-.464c.643-.373,1.375-.747,2.136-1.12q.956-.463,1.853-.837a4.87,4.87,0,0,1-2.465-.284c-.06-.045-.209-.015-.179-.239s.672-.329.911-.329c1.972-.269,2.062-.777,3.466-.777a6.572,6.572,0,0,1,2.734.583Z" transform="translate(-1438.398 -711.416)"/><path class="j" d="M1545.1,690.766a14.2,14.2,0,0,1-1.33,4.3A21.5,21.5,0,0,1,1542.68,697a26.368,26.368,0,0,1-2.316,3.152c-.911-.777-1.867-1.539-2.988-2.39s-2.226-1.629-3.3-2.346c2.48-4.153,5.05-6.648,6.379-7.141a5.629,5.629,0,0,1,2.121-.359,2.392,2.392,0,0,1,1.4.314,2.709,2.709,0,0,1,.642.643,2.976,2.976,0,0,1,.418.911A3.807,3.807,0,0,1,1545.1,690.766Z" transform="translate(-1498.898 -667.306)"/></g><g transform="translate(0 76.045)"><path class="t" d="M918.369,643.227a3.351,3.351,0,0,1-.361-1.807,11.928,11.928,0,0,1,.181-2.529l-8.13-1.987a17.9,17.9,0,0,1,0,9.756,5.907,5.907,0,0,0,6.143.9,5.7,5.7,0,0,0,3.433-4.155C919.272,643.589,918.911,643.408,918.369,643.227Z" transform="translate(-899.171 -626.037)"/><path class="u" d="M1036.928,681.789c-.723,1.445-.9,2.529-.542,2.891,0,.181.361.361,1.265-.181.181.361.542.542.723.723a3.641,3.641,0,0,0,1.987.542h2.891c.181,0,.361-.181.542-.361a.664.664,0,0,0,.181-.542c.723.181,1.265,0,1.265-.361a.664.664,0,0,0-.181-.542c.362-.181.542-.361.542-.723,0-.181-.181-.361-.361-.542.181-.181.181-.181.181-.361a.479.479,0,0,0-.542-.542l-4.7-1.084Z" transform="translate(-986.293 -656.288)"/><path class="u" d="M978.832,692.991c1.445,1.626,5.059.361,6.5-.181a13.679,13.679,0,0,0,3.252-1.626,90.181,90.181,0,0,0,9.214-7.227l-.361-3.252a16.9,16.9,0,0,1-2.71,1.445c-3.252,1.445-4.878,1.626-7.95,2.891a24.288,24.288,0,0,0-4.336,2.168,1.843,1.843,0,0,0-1.626-.361C978.832,687.39,977.387,691.365,978.832,692.991Z" transform="translate(-946.265 -656.288)"/><path class="v" d="M965.38,673.857a6.414,6.414,0,0,0-3.252-3.613c-.362-.181-.542-.361-.9-.361-2.168-.542-3.071-3.071-5.059-5.962a20.794,20.794,0,0,0-2.529-3.071l-.361,11.563c1.265,1.445,2.891,3.071,5.059,5.42a6.647,6.647,0,0,0,3.975,2.53,8.8,8.8,0,0,0,2.168-.181A7.276,7.276,0,0,0,965.38,673.857Z" transform="translate(-929.019 -642.574)"/><path class="w" d="M950.767,975.308c-1.445-.181-2.71-.361-3.975-.542a1.521,1.521,0,0,0-1.265-.723c-.361,0-.542.181-.9.361l-3.613-.181a12.5,12.5,0,0,1,.9-5.059l3.975-.542a27.8,27.8,0,0,0,8.492,5.962l.181.723A26.563,26.563,0,0,1,950.767,975.308Z" transform="translate(-920.549 -855.134)"/><path class="w" d="M892.95,979.4c-1.445-.181-2.71-.361-3.975-.542a1.521,1.521,0,0,0-1.265-.723c-.362,0-.542.181-.9.361l-3.613-.181a12.5,12.5,0,0,1,.9-5.059l3.975-.542a27.8,27.8,0,0,0,8.491,5.962l.181.723A26.4,26.4,0,0,1,892.95,979.4Z" transform="translate(-880.618 -857.957)"/><path class="g" d="M889.2,750.118c-.542,4.336-1.084,8.672-1.445,13.009-.723,7.046-1.265,13.731-1.807,20.416l-2.168,35.231a14.7,14.7,0,0,0,6.866,0c1.626-12.828,3.252-21.681,4.336-27.643.181-.9.542-2.349.9-4.7.9-4.878,1.084-7.227,1.807-12.286.181-1.626.542-4.155,1.084-7.046l2.529,23.307c-.18,2.71-.18,5.239-.18,7.408v3.975c0,4.517,0,9.757.18,15.9a7.577,7.577,0,0,0,5.962-.181,306.182,306.182,0,0,0,.723-46.433c-.542-7.769-1.265-15.177-2.168-22.042Z" transform="translate(-881.021 -703.478)"/><path class="x" d="M908.047,657.928a2.854,2.854,0,0,1,2.891,2.891,9.826,9.826,0,0,1,0,3.252,37.005,37.005,0,0,1-.9,4.336c-1.084,4.878,1.264,6.323.181,10.841a7.017,7.017,0,0,0-.362,2.71c0,.723.181,1.265.181,2.168v2.349l-4.878,3.252-1.807-2.349-.9,2.891-9.214-2.71a44.3,44.3,0,0,0-.361-4.878c-.361-2.168-.723-4.336-1.265-6.5-.361-1.807-.542-4.155-1.265-8.672-.361-2.168-.542-3.794-.723-5.059l7.407-4.517,5.42,3.433,2.71-3.433h2.891Z" transform="translate(-885.055 -640.557)"/><path class="v" d="M928.481,668.4l-.9-.542L929.2,695.5l.361-1.084.542.723-1.445-27.1Z" transform="translate(-911.271 -647.414)"/><path class="u" d="M1037.372,680.718h0l1.626,1.445,3.613-2.168,1.265-.181a1.235,1.235,0,0,0,1.265-1.265h0l-3.433-.181a4.96,4.96,0,0,0-2.349.361l-.9.361A1.581,1.581,0,0,0,1037.372,680.718Z" transform="translate(-987.099 -654.675)"/><path class="u" d="M882.611,723.255a3.934,3.934,0,0,0-5.42-1.626c-1.265,1.084-.181,4.336.181,5.6a14.405,14.405,0,0,0,1.445,2.891c1.987,2.71,4.155,5.42,6.323,7.95l2.891-.361a12.43,12.43,0,0,1-1.265-2.349c-1.265-2.71-1.445-4.336-2.529-6.866a36.11,36.11,0,0,0-1.807-3.794,3.98,3.98,0,0,0,.181-1.445Z" transform="translate(-876.06 -684.204)"/><path class="u" d="M906.109,768.47h0l-.723,1.626,2.891,2.349.542,1.084a1.211,1.211,0,0,0,1.445.542h0l-.9-2.891a5.65,5.65,0,0,0-.9-1.807l-.542-.542A1.4,1.4,0,0,0,906.109,768.47Z" transform="translate(-895.945 -716.772)"/><path class="v" d="M912.449,657.037l-1.084-1.445-.723,1.265,4.878,5.239,1.265-2.349Z" transform="translate(-899.575 -638.944)"/><path class="v" d="M932.889,652.672l1.084.361,1.084,1.084L932.889,659l-1.807-1.445,2.349-2.891c-.181,0-.361,0-.361-.181s-.181-.181-.181-.9C932.708,653.395,932.708,653.214,932.889,652.672Z" transform="translate(-913.691 -636.927)"/><path class="y" d="M912.1,615.9c-.362-.542-.181-1.265-.9-1.807-.361-.181-.542-.181-1.265-.542a2.979,2.979,0,0,1-.9-1.084V612.1h0a12.147,12.147,0,0,1-.723-4.336,6.443,6.443,0,0,1,10.84-4.336,6.144,6.144,0,0,1,2.349,5.42v.361a8.152,8.152,0,0,0,.542,1.988c.181.542.542.723.181,1.084s-1.084,0-1.265,0c-.181.542-.361,1.265-.542,1.987a4.438,4.438,0,0,1-.9,2.71c-.362.361-.723.361-4.517-.181C913.184,616.62,912.462,616.439,912.1,615.9Z" transform="translate(-897.962 -601.779)"/><path class="s" d="M908.444,612.687l.361.181c.181.181,1.084,1.265,1.987.723s.542-2.891,1.265-3.072c.361,0,.723.361,1.084.723h1.084a10.575,10.575,0,0,1,.361-2.349c.542-1.265,1.084-2.529,1.626-2.71s.9.181,3.252,1.265a12.459,12.459,0,0,0,1.445.542,1.629,1.629,0,0,0-.181-.9,9.443,9.443,0,0,0-2.168-3.071,6.443,6.443,0,0,0-10.841,4.336,12.149,12.149,0,0,0,.723,4.336Z" transform="translate(-897.557 -602.182)"/><path class="v" d="M885.032,673.966c-2.529,8.311-2.529,11.382-1.987,12.647a3.11,3.11,0,0,1,.362,2.168,3.189,3.189,0,0,1-1.445,1.626,7.366,7.366,0,0,0-6.685-2.71c-.181-.361-.181-.9-.361-1.265a11.1,11.1,0,0,1,.9-5.42c1.084-3.252,1.084-4.878,2.529-8.853a4.625,4.625,0,0,1,1.807-2.349,3.668,3.668,0,0,1,3.072-.181A3.329,3.329,0,0,1,885.032,673.966Z" transform="translate(-874.868 -648.465)"/><path class="u" d="M900.714,771.811l.361,1.807,3.975,1.084-.181-1.987Z" transform="translate(-892.718 -719.208)"/></g></g></svg>