<svg xmlns="http://www.w3.org/2000/svg" xmlns:xlink="http://www.w3.org/1999/xlink" width="3321.641" height="2959.327" viewBox="0 0 3321.641 2959.327"><defs><style>.a{opacity:0.8;fill:url(#a);}</style><linearGradient id="a" x1="-0.06" y1="-0.299" x2="0.701" y2="1.075" gradientUnits="objectBoundingBox"><stop offset="0" stop-color="#e1eeff"/><stop offset="1" stop-color="#f9e9e3"/></linearGradient></defs><path class="a" d="M18804,774.908l1.543-.813c7.941-278.9,635.9-504.1,1409.383-504.1,778.426,0,1409.465,228.094,1409.465,509.461q0,4.122-.18,8.222c.105.037.168.058.18.064v1337.1c-.078-.046-9.664-5.17-27.734-12.669a750.606,750.606,0,0,0-81-27.881,1021.961,1021.961,0,0,0-130.934-27.873,1222.893,1222.893,0,0,0-177.582-12.669c-129.828,0-265.5,19.305-403.258,57.4-39.223,10.844-79.176,23.383-118.754,37.266-41.453,14.548-83.645,30.974-125.41,48.835-43.609,18.648-87.965,39.366-131.812,61.581-45.684,23.154-92.1,48.568-137.953,75.548-30.1,17.709-59.969,34.3-88.773,49.324-27.973,14.594-55.777,28.133-82.641,40.252-26.027,11.73-51.945,22.474-77.023,31.928-24.238,9.141-48.43,17.343-71.906,24.4-22.594,6.789-45.238,12.722-67.3,17.633-21.121,4.7-42.375,8.614-63.184,11.638-19.785,2.871-39.832,5.025-59.57,6.415-18.621,1.306-37.621,1.963-56.48,1.963-21,0-41.887-.779-63.84-2.383-19.566-1.428-39.527-3.482-61.016-6.277-40.574-5.284-79.4-12.287-116.941-19.061l-.02-.008-1.926-.344c-37.387-6.75-76.035-13.723-114.93-18.847-20.922-2.764-40.273-4.788-59.176-6.193-21.2-1.581-41.289-2.344-61.418-2.344-66.223,0-130.73,8.606-197.207,26.315-18.266,4.864-36.973,10.515-55.613,16.785-19.238,6.468-39.008,13.807-58.773,21.81-20.328,8.24-41.258,17.426-62.219,27.316-21.512,10.156-43.715,21.359-66,33.3Z" transform="matrix(0.966, -0.259, 0.259, 0.966, -18233.15, 5336.005)"/></svg>