<svg id="Layer_1" data-name="Layer 1" xmlns="http://www.w3.org/2000/svg" viewBox="0 0 1136.65 368.7"><defs><style>.cls-1{fill:#47ca98;}.cls-2{fill:#8388a1;}</style></defs><title>betking</title><path class="cls-1" d="M205.17,135.91c-10.07-13.24-16.42-28.6-19.6-45a11.95,11.95,0,1,0-12.71-11.13c.53,5.83,5.3,11.13,11.12,11.13h0c-3.18,7.41-6.35,14.82-9.53,21.71-6.36,13.77-14.3,26.48-25.95,36.54-10.59,8.48-22.25,12.18-36,7.95-9.53-3.18-17.47-9-24.89-15.36C72.23,128,59.52,111,48.4,93.54c-2.65-3.7-4.77-7.94-7.41-11.65,5.29-2.12,8.47-7.41,6.88-13.24-1.06-6.35-7.41-11.12-13.77-9.53C27.75,60.18,23,66.53,24.57,72.89,25.63,79.24,32,84,38.34,82.42c7.94,33.37,17.48,69.91,26,103.28a77,77,0,0,1,2.65,10.59L62.17,132.2l3.18,3.71c10.59,11.12,21.71,21.19,35.48,28.6,22.25,11.65,44.49,6.89,60.38-12.18,7.41-9,13.24-19.6,18-30.72,1.59-3.18,2.65-5.82,4.24-9.53,11.65,28.6,29.66,48.19,61.44,51.37A70.08,70.08,0,0,1,205.17,135.91Z"/><path class="cls-1" d="M129.43,81.36c-1.06,23.83-4.77,46.08-21.71,64.09,17.47-9.54,25.42-25.43,27.54-45,6.88,9.53,14.83,17.48,24.89,23.3-5.83-7.41-11.65-14.3-16.42-21.71a68.43,68.43,0,0,1-12.71-35V65.47c6.36,0,11.12-5.29,11.12-11.65s-5.82-11.65-11.65-11.65H130a13.25,13.25,0,0,0-9.53,4.24,8.49,8.49,0,0,0-2.65,5.82v1.59a11,11,0,0,0,11.65,11.12v2.12A64.5,64.5,0,0,1,129.43,81.36Z"/><path class="cls-1" d="M338.63,66a11.41,11.41,0,0,0-8.48,21.19c-.53,1.06-.53,2.12-1,2.65a348.36,348.36,0,0,1-15.89,31.24,52.47,52.47,0,0,1-20.13,20.13c-7.41,4.24-14.83,5.82-22.77,2.65-9-3.71-14.3-11.13-18-20.13-7.94-19.59-8.47-42.37-7.41-63v-.53c6.35.53,12.71-3.71,13.24-10.59s-3.71-12.72-10.6-13.25c-6.35-.52-12.71,3.71-13.24,10.6a12.63,12.63,0,0,0,9,13.24h0c-4.77,22.24-14.83,47.13-32.84,62.49,0,.53.53,1.06.53,1.59,9,19.6,27,37.6,51.9,36a106.85,106.85,0,0,0,13.77-2.11C291,155,301.56,146.5,310,134.85c10.06-13.24,16.42-31.24,20.65-46.6,0-.53,0-.53.53-1.06,5.83,2.12,12.18-1.06,14.3-7.42S344.45,68.12,338.63,66Z"/><path class="cls-2" d="M205.17,135.91c-10.07-13.24-16.42-28.6-19.6-45a11.95,11.95,0,1,0-12.71-11.13c.53,5.83,5.3,11.13,11.12,11.13h0c-3.18,7.41-6.35,14.82-9.53,21.71-6.36,13.77-14.3,26.48-25.95,36.54-10.59,8.48-22.25,12.18-36,7.95-9.53-3.18-17.47-9-24.89-15.36C72.23,128,59.52,111,48.4,93.54c-2.65-3.7-4.77-7.94-7.41-11.65,5.29-2.12,8.47-7.41,6.88-13.24-1.06-6.35-7.41-11.12-13.77-9.53C27.75,60.18,23,66.53,24.57,72.89,25.63,79.24,32,84,38.34,82.42c7.94,33.37,17.48,69.91,26,103.28a77,77,0,0,1,2.65,10.59L62.17,132.2l3.18,3.71c10.59,11.12,21.71,21.19,35.48,28.6,22.25,11.65,44.49,6.89,60.38-12.18,7.41-9,13.24-19.6,18-30.72,1.59-3.18,2.65-5.82,4.24-9.53,11.65,28.6,29.66,48.19,61.44,51.37A70.08,70.08,0,0,1,205.17,135.91Z"/><path class="cls-2" d="M129.43,81.36c-1.06,23.83-4.77,46.08-21.71,64.09,17.47-9.54,25.42-25.43,27.54-45,6.88,9.53,14.83,17.48,24.89,23.3-5.83-7.41-11.65-14.3-16.42-21.71a68.43,68.43,0,0,1-12.71-35V65.47c6.36,0,11.12-5.29,11.12-11.65s-5.82-11.65-11.65-11.65H130a13.25,13.25,0,0,0-9.53,4.24,8.49,8.49,0,0,0-2.65,5.82v1.59a11,11,0,0,0,11.65,11.12v2.12A64.5,64.5,0,0,1,129.43,81.36Z"/><path class="cls-2" d="M338.63,66a11.41,11.41,0,0,0-8.48,21.19c-.53,1.06-.53,2.12-1,2.65a348.36,348.36,0,0,1-15.89,31.24,52.47,52.47,0,0,1-20.13,20.13c-7.41,4.24-14.83,5.82-22.77,2.65-9-3.71-14.3-11.13-18-20.13-7.94-19.59-8.47-42.37-7.41-63v-.53c6.35.53,12.71-3.71,13.24-10.59s-3.71-12.72-10.6-13.25c-6.35-.52-12.71,3.71-13.24,10.6a12.63,12.63,0,0,0,9,13.24h0c-4.77,22.24-14.83,47.13-32.84,62.49,0,.53.53,1.06.53,1.59,9,19.6,27,37.6,51.9,36a106.85,106.85,0,0,0,13.77-2.11C291,155,301.56,146.5,310,134.85c10.06-13.24,16.42-31.24,20.65-46.6,0-.53,0-.53.53-1.06,5.83,2.12,12.18-1.06,14.3-7.42S344.45,68.12,338.63,66Z"/><path class="cls-2" d="M406.42,299.56H332.8a30.13,30.13,0,0,1-6.88-.53c-9-2.12-15.89-12.71-15.36-20.12h94.8V248.72h-94.8c2.12-12.71,10.06-19.07,22.77-19.07h73.09V196.82h-85.8c-25.42,0-42.9,13.24-49.78,36.54-4.77,15.89-4.77,32.31-2.65,48.2A71.43,71.43,0,0,0,276.13,307c9.54,16.94,24.9,24.36,44,24.89,25.42.53,59.32,0,86.33,0Z"/><path class="cls-2" d="M953.51,243.42v-7.94c0-11.12-3.71-21.19-12.71-28.07-9.54-7.94-20.66-10.59-32.31-10.59H804.69V332.4h42.9V231.24h49.78c8.47,0,13.24,4.24,13.24,12.71V332.4h42.9v-89Z"/><path class="cls-2" d="M416,196.82v33.89h55.61V331.87H515V230.71h56.14V196.29C524.52,196.82,462.56,196.82,416,196.82Z"/><rect class="cls-2" x="746.96" y="196.82" width="42.9" height="135.58"/><path class="cls-2" d="M682.35,331.34l1.06,1.06h55.08L667,259.31c21.71-20.12,45-42.37,66.73-62.49H683.41l-1.06,1.06c-15.36,14.3-33.37,30.71-48.2,45.54a11.09,11.09,0,0,1-3.18,2.12h-7.41V196.82H581.19V332.4h42.37v-54h6.36"/><path class="cls-2" d="M1024.48,232.3a65,65,0,0,1,10.59-1.06h77.32V196.82H1009.65c-19.6,2.65-33.37,13.24-39.72,32.3-7.42,22.78-7.42,46.08-1.06,68.85,5.82,19.6,19.59,32.31,39.19,33.9h103.8V250.31H1034v26.48h37.6V298h0v.53h-43.43a18.11,18.11,0,0,1-17.47-13.24,65.27,65.27,0,0,1,0-40.25A17,17,0,0,1,1024.48,232.3Z"/><path class="cls-2" d="M240.12,261.43c5.3-2.12,9-5.83,10.59-11.12a47.28,47.28,0,0,0,2.12-22.77c-1.06-9-6.35-16.95-14.3-22.25-8.47-5.82-18.54-7.94-28.6-8.47H103V332.4H215.76a59.13,59.13,0,0,0,23.3-4.77c12.18-6.35,18-16.42,19.07-29.66C260.25,283.14,256.54,268.84,240.12,261.43ZM145.85,227h51.37c9,0,13.77,6.35,11.65,15.35a10.31,10.31,0,0,1-10.59,8.48h-53Zm67.79,63.55c-1.06,5.3-4.77,8.47-11.12,8.47H145.85V275.2h55.08c9.53.53,14.3,6.36,12.71,15.36Z"/></svg>