<svg id="Layer_1" data-name="Layer 1" xmlns="http://www.w3.org/2000/svg" viewBox="0 0 2047.65 702.65"><defs><style>.cls-1{fill:#8388a1;}.cls-2{fill:#b7bdd5;}.cls-3{fill:#9ca2ba;}</style></defs><title>fitcircle</title><path class="cls-1" d="M598,523.65C541.7,609.58,444.59,666.33,334.22,666.33a314.33,314.33,0,0,1-107.4-18.79l1.26.82H50.93l56-79h0A313.89,313.89,0,0,1,19.23,351.33c0-174,141-315,315-315v76.52c-131.7,0-238.47,106.78-238.47,238.49S202.52,589.8,334.22,589.8A238.3,238.3,0,0,0,534.31,481.14Z"/><path class="cls-2" d="M523.91,99.83,475.4,159.11a237.36,237.36,0,0,0-141.18-46.27V36.32A313.52,313.52,0,0,1,523.91,99.83Z"/><path class="cls-3" d="M649.23,351.33A313.52,313.52,0,0,1,598,523.65l-63.64-42.51a238.57,238.57,0,0,0-58.91-322l48.51-59.28A314.49,314.49,0,0,1,649.23,351.33Z"/><polygon class="cls-1" points="308.32 253.75 308.32 318.8 422.43 318.8 422.43 370.07 308.32 370.07 308.32 500.17 246.02 500.17 246.02 202.48 422.43 202.48 422.43 253.75 308.32 253.75"/><path class="cls-1" d="M764.05,252.62H883.33v22.95H790.69v56.52h86.83v23H790.69v80.24H764.05Z"/><path class="cls-1" d="M935.81,252.62V435.28H908.7V252.62Z"/><path class="cls-1" d="M1016.6,275.57H958.26V252.62h144v22.95h-58.36V435.28H1016.6Z"/><path class="cls-1" d="M1263.89,382.63c-8,31.59-31.56,55-73.83,55-55.26,0-82.78-41.36-82.78-93.05,0-49.71,27.72-94.58,83.88-94.58,44.13,0,67.54,25.32,72.75,55.85H1236.8c-6-18.8-18.55-33.62-46.67-33.62-38.83,0-54.56,35.24-54.56,71.49,0,34.91,14.75,71.68,55.61,71.68,27.71,0,39.26-16.35,45.48-32.76Z"/><path class="cls-1" d="M1320.31,252.62V435.28H1293.2V252.62Z"/><path class="cls-1" d="M1390.19,356.21v79.07h-26.77V252.62h73.06c38,0,58.24,20.65,58.24,49.1,0,23.89-13.58,38.07-30.26,43,13.79,3.87,26.89,14.68,26.89,46.57v8.06c0,12.53-.45,28.09,2.49,35.91h-26.18c-3.3-7.89-3.23-22-3.23-39.59V392c0-24.87-6.91-35.82-39-35.82Zm0-22.47h38.47c26.74,0,38.26-10.07,38.26-29.6,0-18.55-12.1-29.05-35.86-29.05h-40.87Z"/><path class="cls-1" d="M1675,382.63c-8,31.59-31.56,55-73.83,55-55.25,0-82.77-41.36-82.77-93.05,0-49.71,27.71-94.58,83.87-94.58,44.13,0,67.54,25.32,72.75,55.85h-27.11c-6-18.8-18.55-33.62-46.67-33.62-38.83,0-54.56,35.24-54.56,71.49,0,34.91,14.75,71.68,55.61,71.68,27.71,0,39.26-16.35,45.48-32.76Z"/><path class="cls-1" d="M1704.26,252.62h27.12V412.33h94.46l-3.59,22.95h-118Z"/><path class="cls-1" d="M1962.72,351.14h-90.19v61.19h99.13l-3.42,22.95H1846V252.62h121v22.95h-94.45v52.62h90.19Z"/></svg>