<svg id="Layer_1" data-name="Layer 1" xmlns="http://www.w3.org/2000/svg" xmlns:xlink="http://www.w3.org/1999/xlink" viewBox="0 0 1711.33 661.01"><defs><style>.cls-1{fill:url(#linear-gradient);}.cls-2{fill:url(#linear-gradient-2);}.cls-3{fill:url(#linear-gradient-3);}.cls-4{fill:url(#linear-gradient-4);}.cls-5{fill:url(#linear-gradient-5);}.cls-6{fill:url(#linear-gradient-6);}.cls-7{fill:url(#linear-gradient-7);}.cls-8{fill:url(#linear-gradient-8);}.cls-9{fill:url(#linear-gradient-9);}.cls-10{fill:url(#linear-gradient-10);}.cls-11{fill:#8388a1;fill-rule:evenodd;}.cls-12{clip-path:url(#clip-path);}.cls-13{fill:url(#linear-gradient-12);}.cls-14{clip-path:url(#clip-path-2);}.cls-15{fill:url(#linear-gradient-14);}.cls-16{clip-path:url(#clip-path-3);}.cls-17{fill:url(#linear-gradient-16);}.cls-18{clip-path:url(#clip-path-4);}.cls-19{fill:url(#linear-gradient-18);}.cls-20{clip-path:url(#clip-path-5);}.cls-21{fill:url(#linear-gradient-20);}.cls-22{clip-path:url(#clip-path-6);}.cls-23{fill:url(#linear-gradient-22);}.cls-24{clip-path:url(#clip-path-7);}.cls-25{fill:url(#linear-gradient-24);}.cls-26{clip-path:url(#clip-path-8);}.cls-27{fill:url(#linear-gradient-26);}.cls-28{clip-path:url(#clip-path-9);}.cls-29{fill:url(#linear-gradient-28);}.cls-30{clip-path:url(#clip-path-10);}.cls-31{fill:url(#linear-gradient-30);}.cls-32{fill:url(#linear-gradient-31);}</style><linearGradient id="linear-gradient" x1="382.78" y1="353.78" x2="428.33" y2="353.78" gradientUnits="userSpaceOnUse"><stop offset="0.05" stop-color="#6a6e82"/><stop offset="0.35" stop-color="#9ca2ba"/><stop offset="0.57" stop-color="#b7bdd5"/><stop offset="1" stop-color="#cad0eb"/></linearGradient><linearGradient id="linear-gradient-2" x1="379.24" y1="324.59" x2="391.92" y2="324.59" xlink:href="#linear-gradient"/><linearGradient id="linear-gradient-3" x1="64.56" y1="236.58" x2="502.33" y2="236.58" xlink:href="#linear-gradient"/><linearGradient id="linear-gradient-4" x1="62.49" y1="269.29" x2="570.53" y2="269.29" xlink:href="#linear-gradient"/><linearGradient id="linear-gradient-5" x1="41.88" y1="259.29" x2="388.22" y2="259.29" xlink:href="#linear-gradient"/><linearGradient id="linear-gradient-6" x1="52.65" y1="260.6" x2="347.84" y2="260.6" xlink:href="#linear-gradient"/><linearGradient id="linear-gradient-7" x1="77.62" y1="279.02" x2="353.24" y2="279.02" xlink:href="#linear-gradient"/><linearGradient id="linear-gradient-8" x1="87.69" y1="421.95" x2="363.91" y2="421.95" xlink:href="#linear-gradient"/><linearGradient id="linear-gradient-9" x1="52.87" y1="389.58" x2="395.29" y2="389.58" xlink:href="#linear-gradient"/><linearGradient id="linear-gradient-10" x1="38.92" y1="443.78" x2="330.74" y2="443.78" xlink:href="#linear-gradient"/><clipPath id="clip-path"><path class="cls-1" d="M384.09,77.68a1.34,1.34,0,0,0-1.3,1.47l25.55,541.26a.91.91,0,0,1,0,.33A10,10,0,1,0,428.29,619L385.56,79a1.42,1.42,0,0,0-1.42-1.29h-.05"/></clipPath><linearGradient id="linear-gradient-12" x1="4156.39" y1="2845.82" x2="4171.96" y2="2845.82" gradientTransform="matrix(2.01, 34.88, -34.88, 2.01, 91290.69, -150597)" xlink:href="#linear-gradient"/><clipPath id="clip-path-2"><path class="cls-2" d="M379.24,95.39,380,549.14v.14a6,6,0,0,0,12-.28l-10-453.64a1.32,1.32,0,1,0-2.64,0"/></clipPath><linearGradient id="linear-gradient-14" x1="4144.29" y1="2870.8" x2="4159.87" y2="2870.8" gradientTransform="translate(82564.57 -123703.74) rotate(88.87) scale(29.47)" xlink:href="#linear-gradient"/><clipPath id="clip-path-3"><path class="cls-3" d="M64.56,186.51a.45.45,0,0,0,.3.49l431.66,99.85h.06a4.79,4.79,0,1,0,1.89-9.4L65,186.22h-.08a.41.41,0,0,0-.37.3"/></clipPath><linearGradient id="linear-gradient-16" x1="4095.74" y1="2630.47" x2="4111.33" y2="2630.47" gradientTransform="translate(-115064.36 -73704.07) scale(28.11)" xlink:href="#linear-gradient"/><clipPath id="clip-path-4"><path class="cls-4" d="M62.55,188.56a1.34,1.34,0,0,0,.86,1.66L545.33,350c.41.15.89.29,1.24.38a19.17,19.17,0,1,0,9.51-37.14l-492-125.57a1,1,0,0,0-.31,0,1.34,1.34,0,0,0-1.26.94"/></clipPath><linearGradient id="linear-gradient-18" x1="4102.54" y1="2685.77" x2="4118.11" y2="2685.77" gradientTransform="matrix(32.49, 9.27, -9.27, 32.49, -108342.54, -125100.08)" xlink:href="#linear-gradient"/><clipPath id="clip-path-5"><path class="cls-5" d="M373.69,34.51,42,486.4a.66.66,0,0,0,.16.93.71.71,0,0,0,.95-.14L386.63,43.94l.11-.16a8,8,0,1,0-13.05-9.27"/></clipPath><linearGradient id="linear-gradient-20" x1="4238.28" y1="2591.92" x2="4253.85" y2="2591.92" gradientTransform="translate(-165362.21 66752.32) rotate(-53.28) scale(35.87)" xlink:href="#linear-gradient"/><clipPath id="clip-path-6"><path class="cls-6" d="M339,54.33,52.69,468.62c-.06.11-.06.29.06.34s.28.07.33,0L347,59.74a.16.16,0,0,0,.05-.09A4.74,4.74,0,0,0,345.72,53,4.8,4.8,0,0,0,339,54.33"/></clipPath><linearGradient id="linear-gradient-22" x1="4242.66" y1="2573.96" x2="4258.23" y2="2573.96" gradientTransform="translate(-144910.96 64710.81) rotate(-55.15) scale(31.95)" xlink:href="#linear-gradient"/><clipPath id="clip-path-7"><path class="cls-7" d="M342.58,114.31,77.72,445.14a.58.58,0,0,0,.07.73.51.51,0,0,0,.7-.09L351.85,121.92a.21.21,0,0,0,0-.12,6,6,0,0,0-4.66-9.74,5.88,5.88,0,0,0-4.66,2.25"/></clipPath><linearGradient id="linear-gradient-24" x1="4227.24" y1="2547.89" x2="4242.81" y2="2547.89" gradientTransform="translate(-126845.42 45376.45) rotate(-50.57) scale(27.28)" xlink:href="#linear-gradient"/><clipPath id="clip-path-8"><path class="cls-8" d="M89.79,258.1a6,6,0,0,0-.66,8.43l271.24,320a2,2,0,0,0,2.76.25,2,2,0,0,0,.31-2.82L98.33,258.85s-.07-.07-.07-.09a6,6,0,0,0-4.56-2.12,5.91,5.91,0,0,0-3.91,1.46"/></clipPath><linearGradient id="linear-gradient-26" x1="4419.97" y1="2681.48" x2="4435.55" y2="2681.48" gradientTransform="matrix(-17.55, -20.98, 20.98, -17.55, 21669.66, 140385.92)" xlink:href="#linear-gradient"/><clipPath id="clip-path-9"><path class="cls-9" d="M56.88,175.64a10.77,10.77,0,0,0-1.59,15.18L392.23,605.31a1.75,1.75,0,0,0,2.39.27,1.69,1.69,0,0,0,.33-2.37L72.25,177.51a2.09,2.09,0,0,0-.24-.31,10.73,10.73,0,0,0-15.13-1.56"/></clipPath><linearGradient id="linear-gradient-28" x1="4380.52" y1="2689.37" x2="4396.1" y2="2689.37" gradientTransform="matrix(-21.63, -27.59, 27.59, -21.63, 20949.72, 179624.96)" xlink:href="#linear-gradient"/><clipPath id="clip-path-10"><path class="cls-10" d="M325.08,379.27,39.12,508a.3.3,0,0,0-.15.44.34.34,0,0,0,.47.15l288.84-122s.06,0,.12-.08a4,4,0,0,0-1.66-7.62,4.06,4.06,0,0,0-1.66.35"/></clipPath><linearGradient id="linear-gradient-30" x1="4016.81" y1="2588.59" x2="4032.38" y2="2588.59" gradientTransform="translate(-75229.34 -48061.99) scale(18.74)" xlink:href="#linear-gradient"/><linearGradient id="linear-gradient-31" x1="54.25" y1="499.83" x2="552.61" y2="330.68" xlink:href="#linear-gradient"/></defs><title>hotstar_1</title><path class="cls-11" d="M1570.46,307.21a29.76,29.76,0,0,0-7.23-3.7,31.9,31.9,0,0,0-10.36-1.42c-6.81,0-12,1.58-15.65,4.7a20.88,20.88,0,0,0-6.87,12.66V427.21H1485V268.26h45.38v8.24q10.89-11.1,29.2-11.09a49.91,49.91,0,0,1,13.55,1.84,32.06,32.06,0,0,1,11.43,5.83l-14.07,34.12ZM1415.65,418.39q-6,4.85-16.36,8.25a77,77,0,0,1-47.49-.72,63.58,63.58,0,0,1-20.24-11.66,52.87,52.87,0,0,1-13.72-18.19,57,57,0,0,1-4.93-24.05q0-27.86,19.37-41.78t51-13.92a115,115,0,0,1,17.06,1.29,45.12,45.12,0,0,1,15.67,5.23c-1.64-7.58-4.84-12.91-9.53-16s-11.49-4.69-20.39-4.69q-10.92,0-18.65,3a72.13,72.13,0,0,0-15.11,8.12L1331.92,285a74.84,74.84,0,0,1,25-14.35,95,95,0,0,1,32-5.26,96.25,96.25,0,0,1,29.54,4.28,65.82,65.82,0,0,1,22.71,12.07,53.12,53.12,0,0,1,14.42,19,59.42,59.42,0,0,1,5.1,24.9V427.2h-45Zm-.36-59.41q-2.8-4-9.49-6.68a39.1,39.1,0,0,0-14.78-2.72q-33.06,0-33.06,21.62c0,6.25,2.85,11.23,8.61,14.91s12.6,5.56,20.59,5.56q17.56,0,28.13-10.25Zm-142.13,20.19c0,5.3,1.51,9,4.59,11.06s7.25,3.14,12.65,3.14a39.65,39.65,0,0,0,12.15-2,42.79,42.79,0,0,0,11.09-5.4l-7.05,39.53a46.32,46.32,0,0,1-10.37,3.13q-6.87,1.41-19.17,1.41-23.6,0-36.08-12.64T1228.49,384V304.38h-20v-36.1h20.06V238.71l44.67-15.66v45.21h33.77v36.11h-33.77v74.8Zm-107.3-72.79a86.52,86.52,0,0,0-22.53-2.86c-9.36,0-15.7.91-19,2.7s-4.95,4.13-4.95,7c0,3,1.88,5.44,5.64,7.26a72.86,72.86,0,0,0,13.54,4.67c5.28,1.32,10.92,2.47,16.89,3.41a145.72,145.72,0,0,1,16,3.42q17.94,5.69,28.32,16.34c6.91,7.14,10.38,16.92,10.38,29.42q0,14.53-6,24.47a46.26,46.26,0,0,1-16.37,16.08,78.28,78.28,0,0,1-24.62,8.94,154.45,154.45,0,0,1-30.44,2.84,157.93,157.93,0,0,1-29.9-3.13,103.19,103.19,0,0,1-31-11.35l15.49-33q7,4,19.34,7.39a101.57,101.57,0,0,0,27.1,3.41q16.89,0,24.26-4.41c5-2.93,7.42-6.69,7.42-11.24,0-3.58-1.78-6.52-5.3-8.79s-9.14-4.27-16.89-6q-14.53-3.09-28.84-7.1a98.7,98.7,0,0,1-22.17-8.94,39.84,39.84,0,0,1-14.06-13q-4.95-7.65-4.94-19,0-12.76,5.64-22a45.46,45.46,0,0,1,15.29-15.23,70.28,70.28,0,0,1,23.23-8.67,150.72,150.72,0,0,1,29.37-2.69q31.32,0,54.89,13.93l-13,35.54A109.23,109.23,0,0,0,1165.86,306.38ZM1035,390.23c3,2.11,7.27,3.14,12.67,3.14a39.48,39.48,0,0,0,12.13-2,42.42,42.42,0,0,0,11.08-5.4l-7,39.53a46.27,46.27,0,0,1-10.38,3.13c-4.59.94-11,1.41-19.19,1.41q-23.57,0-36-12.64T985.74,384V304.38h-20v-36.1h20.06V238.71l44.68-15.66v45.21h33.77v36.11h-33.77v74.77c0,5.32,1.52,9,4.57,11.07Zm-95.52,15.93a74.58,74.58,0,0,1-25.14,17.5,87,87,0,0,1-65.45,0,74.52,74.52,0,0,1-25.15-17.5A79.46,79.46,0,0,1,807.55,380a89.24,89.24,0,0,1-5.81-32.4,88,88,0,0,1,5.81-32.27,79.87,79.87,0,0,1,16.18-26,74.33,74.33,0,0,1,25.15-17.48,86.87,86.87,0,0,1,65.45,0,74.68,74.68,0,0,1,25.14,17.48,80.17,80.17,0,0,1,16.19,26,88.19,88.19,0,0,1,5.81,32.27,89.31,89.31,0,0,1-5.81,32.4A79.92,79.92,0,0,1,939.47,406.16Zm-31.83-90.71q-9.17-12.19-26-12.21t-26,12.21q-9.15,12.24-9.16,32.15t9.16,32.25q9.13,12.39,26,12.36t26-12.36q9.17-12.36,9.15-32.25T907.64,315.45ZM739.12,327.69a26,26,0,0,0-6.85-18.05q-6.88-7.54-22.35-7.54a33.14,33.14,0,0,0-17.77,4.69,24.24,24.24,0,0,0-10.37,12.37v108H636.39V231.87L681.78,216v64q14.78-14.48,40.45-14.49a75.87,75.87,0,0,1,26.4,4.28,53.16,53.16,0,0,1,19.51,12.07,50.63,50.63,0,0,1,12,18.76,69.43,69.43,0,0,1,4,24.31V427.2h-45Z"/><path class="cls-1" d="M384.09,77.68a1.34,1.34,0,0,0-1.3,1.47l25.55,541.26a.91.91,0,0,1,0,.33A10,10,0,1,0,428.29,619L385.56,79a1.42,1.42,0,0,0-1.42-1.29h-.05"/><g class="cls-12"><polygon class="cls-13" points="428.62 75.03 460.51 628.49 382.87 632.96 350.99 79.5 428.62 75.03"/></g><path class="cls-2" d="M379.24,95.39,380,549.14v.14a6,6,0,0,0,12-.28l-10-453.64a1.32,1.32,0,1,0-2.64,0"/><g class="cls-14"><polygon class="cls-15" points="392 93.8 401.12 555.03 379.24 555.45 370.12 94.24 392 93.8"/></g><path class="cls-3" d="M64.56,186.51a.45.45,0,0,0,.3.49l431.66,99.85h.06a4.79,4.79,0,1,0,1.89-9.4L65,186.22h-.08a.41.41,0,0,0-.37.3"/><g class="cls-16"><rect class="cls-17" x="64.53" y="186.21" width="438.22" height="101.19"/></g><path class="cls-4" d="M62.55,188.56a1.34,1.34,0,0,0,.86,1.66L545.33,350c.41.15.89.29,1.24.38a19.17,19.17,0,1,0,9.51-37.14l-492-125.57a1,1,0,0,0-.31,0,1.34,1.34,0,0,0-1.26.94"/><g class="cls-18"><polygon class="cls-19" points="100.74 53.02 616.15 200.08 534.12 487.59 18.71 340.55 100.74 53.02"/></g><path class="cls-5" d="M373.69,34.51,42,486.4a.66.66,0,0,0,.16.93.71.71,0,0,0,.95-.14L386.63,43.94l.11-.16a8,8,0,1,0-13.05-9.27"/><g class="cls-20"><polygon class="cls-21" points="-176.97 324.38 166.02 -135.42 608.05 194.3 265.07 654.11 -176.97 324.38"/></g><path class="cls-6" d="M339,54.33,52.69,468.62c-.06.11-.06.29.06.34s.28.07.33,0L347,59.74a.16.16,0,0,0,.05-.09A4.74,4.74,0,0,0,345.72,53,4.8,4.8,0,0,0,339,54.33"/><g class="cls-22"><polygon class="cls-23" points="-142.87 332.9 149.26 -86.57 544 188.34 251.87 607.8 -142.87 332.9"/></g><path class="cls-7" d="M342.58,114.31,77.72,445.14a.58.58,0,0,0,.07.73.51.51,0,0,0,.7-.09L351.85,121.92a.21.21,0,0,0,0-.12,6,6,0,0,0-4.66-9.74,5.88,5.88,0,0,0-4.66,2.25"/><g class="cls-24"><polygon class="cls-25" points="-86.26 311.32 189.08 -23.54 517.84 246.77 242.51 581.63 -86.26 311.32"/></g><path class="cls-8" d="M89.79,258.1a6,6,0,0,0-.66,8.43l271.24,320a2,2,0,0,0,2.76.25,2,2,0,0,0,.31-2.82L98.33,258.85s-.07-.07-.07-.09a6,6,0,0,0-4.56-2.12,5.91,5.91,0,0,0-3.91,1.46"/><g class="cls-26"><polygon class="cls-27" points="201.08 723.92 -75.86 392.84 250.07 120.23 527 451.32 201.08 723.92"/></g><path class="cls-9" d="M56.88,175.64a10.77,10.77,0,0,0-1.59,15.18L392.23,605.31a1.75,1.75,0,0,0,2.39.27,1.69,1.69,0,0,0,.33-2.37L72.25,177.51a2.09,2.09,0,0,0-.24-.31,10.73,10.73,0,0,0-15.13-1.56"/><g class="cls-28"><polygon class="cls-29" points="182.47 773.15 -158.68 338.02 264.55 6.19 605.71 441.32 182.47 773.15"/></g><path class="cls-10" d="M325.08,379.27,39.12,508a.3.3,0,0,0-.15.44.34.34,0,0,0,.47.15l288.84-122s.06,0,.12-.08a4,4,0,0,0-1.66-7.62,4.06,4.06,0,0,0-1.66.35"/><g class="cls-30"><rect class="cls-31" x="38.85" y="378.92" width="292.45" height="129.78"/></g><path class="cls-32" d="M541.47,311.71,24.33,516.84a.64.64,0,0,0-.39.82.67.67,0,0,0,.81.45L555.82,352.35a11.89,11.89,0,0,0,1.53-.55,21.57,21.57,0,0,0-7.92-41.61,21.22,21.22,0,0,0-8,1.52"/></svg>