<svg id="Layer_1" data-name="Layer 1" xmlns="http://www.w3.org/2000/svg" viewBox="0 0 2087.13 681.98"><defs><style>.cls-1{fill:#b7bdd5;fill-rule:evenodd;}.cls-2{fill:#8388a1;}</style></defs><title>khelomore_1</title><path class="cls-1" d="M500.82,599.5C462.47,488.69,369,395.86,257.47,341c111.5-54.91,205-147.7,243.35-258.52a316,316,0,0,1,0,517ZM55.33,287.67c-6-.26-30.08-.26-36.06,0-1.95-.14-3.88-.31-5.81-.45C38.81,138.91,167.25,26,322,26c8,0,15.92.39,23.74,1-24.4,142.34-144,252.29-290.38,260.71Zm0,106.59c146.33,8.41,266,118.37,290.38,260.73q-11.85.93-23.74,1C167.25,656,38.81,543.06,13.46,394.69c1.93-.15,3.86-.34,5.84-.43,5.95.23,30,.23,36,0Z"/><path class="cls-2" d="M736.84,234.89h38.74V315.8c11.95-14,49.27-54.85,72.19-80.91h47l-72.86,75.36,75.51,106h-47l-55.64-80.55L775.58,354v62.26H736.84Z"/><path class="cls-2" d="M946.07,224.23v71.92c6-8.81,17-19.23,39-19.23,25.39,0,45.61,15,45.61,51.95v87.34H993.21v-81.7c0-17.7-6.28-27.1-22.09-27.1-20.94,0-25,15.58-25,36.58v72.22H908.38v-192Z"/><path class="cls-2" d="M1089.06,356.2c0,17,8.56,33.67,27.32,33.67,15.69,0,20.17-6.3,23.75-14.53h37.72c-4.82,16.66-19.69,44-62.46,44-44.84,0-64.29-33.52-64.29-69.24,0-42.7,21.92-73.2,65.64-73.2,46.75,0,62.65,33.82,62.65,67.81a82.69,82.69,0,0,1-.5,11.47Zm52.57-23.14c-.26-15.85-6.59-29.19-25-29.19-18.06,0-25.33,12.45-26.84,29.19Z"/><path class="cls-2" d="M1199.51,416.21v-192h37.7v192Z"/><path class="cls-2" d="M1392.18,347.88c0,41.19-24.65,71.48-67.77,71.48-42.22,0-66.86-30.11-66.86-70.75,0-42,25.41-71.69,68.64-71.69C1366.26,276.92,1392.18,305.2,1392.18,347.88Zm-96.38.26c0,26.21,11.28,41.73,29.43,41.73,18.45,0,28.7-15.53,28.7-41.5,0-28.48-10.45-41.95-29.23-41.95C1307.22,306.42,1295.8,319.36,1295.8,348.14Z"/><path class="cls-2" d="M1569.18,348.19c0-30.94.49-65.62,1.28-86.11h-1.25c-8.52,37-26.65,97.39-44,154.13h-33.39c-13.22-49.6-32-118.42-39.92-154.63h-1.22c1.54,21.27,2.3,58.59,2.3,89.68v64.95h-35.73V234.89h58.35c14.13,47.37,30,106.8,35.43,133.83h.29c4.44-23.83,24.36-87.37,39.48-133.83H1607V416.21h-37.82Z"/><path class="cls-2" d="M1763.53,347.88c0,41.19-24.65,71.48-67.77,71.48-42.22,0-66.86-30.11-66.86-70.75,0-42,25.41-71.69,68.64-71.69C1737.61,276.92,1763.53,305.2,1763.53,347.88Zm-96.38.26c0,26.21,11.28,41.73,29.43,41.73,18.45,0,28.7-15.53,28.7-41.5,0-28.48-10.45-41.95-29.23-41.95C1678.57,306.42,1667.15,319.36,1667.15,348.14Z"/><path class="cls-2" d="M1783.89,317c0-13.52,0-25.54-.26-36.92h37c.5,3.05,1,16.56,1,23.9,6-15.56,20.52-26.93,43.68-27.06v36c-27.35-.71-43.68,6.65-43.68,44v59.35h-37.69Z"/><path class="cls-2" d="M1909.6,356.2c0,17,8.56,33.67,27.33,33.67,15.69,0,20.17-6.3,23.75-14.53h37.72c-4.83,16.66-19.69,44-62.46,44-44.84,0-64.29-33.52-64.29-69.24,0-42.7,21.91-73.2,65.64-73.2,46.75,0,62.65,33.82,62.65,67.81a82.69,82.69,0,0,1-.5,11.47Zm52.58-23.14c-.26-15.85-6.59-29.19-25-29.19-18.06,0-25.32,12.45-26.83,29.19Z"/></svg>