<svg id="Layer_1" data-name="Layer 1" xmlns="http://www.w3.org/2000/svg" viewBox="0 0 2112.09 733.88"><defs><style>.cls-1{fill:#8388a1;}.cls-2{fill:none;stroke:#8388a1;stroke-miterlimit:10;stroke-width:25px;}</style></defs><title>radframe</title><path class="cls-1" d="M643.51,367.23v74.44H607.44V261.47h73.41c34,0,58.32,16.87,58.32,48.74,0,24.57-13,36.37-28,42.14,17.87,6.91,24.3,21,24.3,43.4v4.69c0,16,.92,31.11,2.4,41.23H702.44c-2.6-7.56-3.36-19.68-3.36-41.83v-4.75c0-20.63-7.51-27.86-31.05-27.86Zm0-29.17h27.43c17.46,0,31.84-4.68,31.84-24.61,0-16.68-12.06-22.82-26.78-22.82H643.51Z"/><path class="cls-1" d="M812.67,398.86,800,441.67h-36.1c2.36-7,52.45-172.24,55.09-180.2h47.5l57.92,180.2H885.83l-13.67-42.81ZM865,368.47c-11.21-36.51-19-62.31-23.09-79.13h-.3c-4.36,20-12.54,48.15-21.94,79.13Z"/><path class="cls-1" d="M954.86,261.47h62.62c54.77,0,84.86,33.5,84.86,86.29,0,58.58-31.63,93.91-86.29,93.91H954.86Zm37,151.27h23.85c31.89,0,48.68-23.89,48.68-64.42,0-33.49-15-57.46-48.42-57.46H991.82Z"/><path class="cls-1" d="M1142.63,261.47h115.49v30.35h-79.45v45.65h74.62v29.89h-74.62v74.31h-36Z"/><path class="cls-1" d="M1328.09,367.23v74.44H1292V261.47h73.4c34,0,58.33,16.87,58.33,48.74,0,24.57-13,36.37-28,42.14,17.88,6.91,24.3,21,24.3,43.4v4.69c0,16,.93,31.11,2.4,41.23H1387c-2.59-7.56-3.35-19.68-3.35-41.83v-4.75c0-20.63-7.51-27.86-31.05-27.86Zm0-29.17h27.42c17.46,0,31.84-4.68,31.84-24.61,0-16.68-12-22.82-26.78-22.82h-32.48Z"/><path class="cls-1" d="M1497.24,398.86l-12.7,42.81h-36.11c2.36-7,52.45-172.24,55.09-180.2H1551L1609,441.67H1570.4l-13.66-42.81Zm52.28-30.39c-11.2-36.51-19-62.31-23.09-79.13h-.29c-4.37,20-12.54,48.15-21.94,79.13Z"/><path class="cls-1" d="M1783.1,374.41c0-30.64.5-67.28,1.29-87.54H1783c-8,37.32-26.47,103.79-42.15,154.8h-31.74c-11.61-43-30.41-118.66-37.83-155.3h-1.45c1.55,21,2.3,60.05,2.3,91.11v64.19h-33.72V261.47h54.92c12.92,42.09,29,104.9,34,132.24h.3c3.88-23.37,24.5-89.66,38-132.24h52.83v180.2H1783.1Z"/><path class="cls-1" d="M1981.34,363H1903v48.51h86.49l-4.42,30.12H1867.19V261.47h117.43v30.35H1903v40.83h78.34Z"/><path class="cls-2" d="M48.77,144.2H319.25a175,175,0,0,1,175,175V589.68a0,0,0,0,1,0,0H223.78a175,175,0,0,1-175-175V144.2a0,0,0,0,1,0,0Z" transform="translate(338.99 -84.51) rotate(45)"/><path class="cls-2" d="M274.43,517.9,120.55,364,274.43,210.15,382.77,318.5c4.79,5.32,18.29,21.76,18.86,45.53.54,22.48-10.67,44.14-29.52,58.93a41.37,41.37,0,0,1-25.55,8.74H273.38Z"/></svg>