<svg xmlns="http://www.w3.org/2000/svg" width="260.859" height="167.276" viewBox="0 0 260.859 167.276"><defs><style>.a{fill:#e0e4ea;}.b{fill:#00aeef;}.c,.d{fill:#0c81ed;}.c{fill-rule:evenodd;}</style></defs><g transform="translate(0 0)"><path class="a" d="M206.038,1670.534c1.744-.081,3.487-.116,5.231-.122V1768.1a47.219,47.219,0,0,0-4.319-3.307c-.3-.2-.6-.412-.913-.61-5.365-3.534-11.195-6.394-16.205-10.422-10.526-8.445-16.56-21.326-20.158-34.334-3.04-10.974-4.394-23.453,1.575-33.154,4.138-6.714,11.317-11.131,18.879-13.374A65.508,65.508,0,0,1,206.038,1670.534Z" transform="translate(-167.084 -1614.497)"/><path class="b" d="M288.042,1737.248a2.611,2.611,0,0,1,2.61-2.615h1.965a2.613,2.613,0,0,1,0,5.225h-1.965A2.61,2.61,0,0,1,288.042,1737.248Z" transform="translate(-217.736 -1641.389)"/><path class="b" d="M288.042,1709.2a2.611,2.611,0,0,1,2.61-2.616h1.965a2.613,2.613,0,0,1,0,5.225h-1.965A2.61,2.61,0,0,1,288.042,1709.2Z" transform="translate(-217.736 -1629.643)"/><path class="b" d="M290.262,1765.3a2.615,2.615,0,0,1,2.61-2.616h1.965a2.616,2.616,0,0,1,0,5.231h-1.965A2.615,2.615,0,0,1,290.262,1765.3Z" transform="translate(-218.665 -1653.135)"/><path class="b" d="M285.822,1672.633a2.552,2.552,0,0,1,.413-1.4c3.377.093,6.754.18,10.125.226l-2.261,1.174,6,3.115a2.616,2.616,0,0,1-1.209,4.935,2.556,2.556,0,0,1-1.2-.3l-10.457-5.435A2.607,2.607,0,0,1,285.822,1672.633Z" transform="translate(-216.806 -1614.84)"/><path class="b" d="M315.935,1739.857h-3.918a2.613,2.613,0,1,1,0-5.225h3.918a2.613,2.613,0,1,1,0,5.225Z" transform="translate(-226.68 -1641.389)"/><path class="b" d="M312.018,1706.582h3.918a2.613,2.613,0,1,1,0,5.225h-3.918a2.613,2.613,0,1,1,0-5.225Z" transform="translate(-226.68 -1629.643)"/><path class="b" d="M313.081,1765.3a2.62,2.62,0,0,1,2.616-2.616h4.237a2.616,2.616,0,0,1,0,5.231H315.7A2.62,2.62,0,0,1,313.081,1765.3Z" transform="translate(-228.221 -1653.135)"/><path class="b" d="M326.082,1684.975a1.88,1.88,0,0,1-1.912-2.011,1.906,1.906,0,0,1,3.807.192A1.9,1.9,0,0,1,326.082,1684.975Z" transform="translate(-232.863 -1619.01)"/><path class="b" d="M324.362,1675.213c-.058-.454-.238-2-.43-3.656,1.36-.023,2.725-.058,4.086-.1-.053.384-.1.773-.151,1.162-.1.866-.221,1.732-.331,2.6-.023.232-.041.244-.337.244-.832.006-1.662.006-2.5,0C324.409,1675.457,324.385,1675.439,324.362,1675.213Z" transform="translate(-232.765 -1614.932)"/><path class="b" d="M334.142,1737.248a2.611,2.611,0,0,1,2.61-2.615h3.923a2.613,2.613,0,0,1,0,5.225h-3.923A2.61,2.61,0,0,1,334.142,1737.248Z" transform="translate(-237.04 -1641.389)"/><path class="b" d="M334.142,1709.2a2.611,2.611,0,0,1,2.61-2.616h3.923a2.613,2.613,0,0,1,0,5.225h-3.923A2.61,2.61,0,0,1,334.142,1709.2Z" transform="translate(-237.04 -1629.643)"/><path class="b" d="M343.192,1672.1a2.588,2.588,0,0,1,.639-1.709c1.79-.128,3.58-.291,5.365-.477a2.615,2.615,0,0,1-1.43,4.8h-1.959A2.616,2.616,0,0,1,343.192,1672.1Z" transform="translate(-240.83 -1614.287)"/><path class="b" d="M349.3,1765.3a2.615,2.615,0,0,1-2.616,2.616h-4.237a2.616,2.616,0,1,1,0-5.231h4.237A2.615,2.615,0,0,1,349.3,1765.3Z" transform="translate(-239.423 -1653.135)"/><path class="b" d="M358.871,1737.248a2.616,2.616,0,0,1,2.616-2.615H365.4a2.613,2.613,0,1,1,0,5.225h-3.918A2.615,2.615,0,0,1,358.871,1737.248Z" transform="translate(-247.396 -1641.389)"/><path class="b" d="M358.871,1709.2a2.616,2.616,0,0,1,2.616-2.616H365.4a2.613,2.613,0,1,1,0,5.225h-3.918A2.615,2.615,0,0,1,358.871,1709.2Z" transform="translate(-247.396 -1629.643)"/><path class="b" d="M376.049,1765.3a2.619,2.619,0,0,1-2.616,2.616H369.2a2.616,2.616,0,1,1,0-5.231h4.237A2.619,2.619,0,0,1,376.049,1765.3Z" transform="translate(-250.625 -1653.135)"/><path class="b" d="M366.642,1671.788a2.619,2.619,0,0,1,2.616-2.615h4.377a2.616,2.616,0,0,1,0,5.231h-4.377A2.62,2.62,0,0,1,366.642,1671.788Z" transform="translate(-250.65 -1613.977)"/><path class="b" d="M383.612,1737.248a2.61,2.61,0,0,1,2.61-2.615h3.923a2.613,2.613,0,1,1,0,5.225h-3.923A2.609,2.609,0,0,1,383.612,1737.248Z" transform="translate(-257.756 -1641.389)"/><path class="b" d="M383.612,1709.2a2.611,2.611,0,0,1,2.61-2.616h3.923a2.613,2.613,0,1,1,0,5.225h-3.923A2.609,2.609,0,0,1,383.612,1709.2Z" transform="translate(-257.756 -1629.643)"/><path class="b" d="M402.8,1765.3a2.619,2.619,0,0,1-2.616,2.616h-4.237a2.616,2.616,0,0,1,0-5.231h4.237A2.619,2.619,0,0,1,402.8,1765.3Z" transform="translate(-261.826 -1653.135)"/><path class="b" d="M394.252,1671.788a2.619,2.619,0,0,1,2.616-2.615h4.377a2.616,2.616,0,1,1,0,5.231h-4.377A2.62,2.62,0,0,1,394.252,1671.788Z" transform="translate(-262.212 -1613.977)"/><path class="b" d="M408.342,1737.248a2.616,2.616,0,0,1,2.616-2.615h3.923a2.613,2.613,0,0,1,0,5.225h-3.923A2.615,2.615,0,0,1,408.342,1737.248Z" transform="translate(-268.112 -1641.389)"/><path class="b" d="M410.958,1706.582h3.923a2.613,2.613,0,0,1,0,5.225h-3.923a2.613,2.613,0,1,1,0-5.225Z" transform="translate(-268.112 -1629.643)"/><path class="b" d="M420.081,1765.3a2.615,2.615,0,0,1,2.61-2.616h1.959a2.616,2.616,0,1,1,0,5.231h-1.959A2.615,2.615,0,0,1,420.081,1765.3Z" transform="translate(-273.028 -1653.135)"/><path class="b" d="M421.862,1671.788a2.619,2.619,0,0,1,2.616-2.615h1.959a2.616,2.616,0,1,1,0,5.231h-1.959A2.62,2.62,0,0,1,421.862,1671.788Z" transform="translate(-273.774 -1613.977)"/><path class="b" d="M442.23,1737.248a2.611,2.611,0,0,1-2.616,2.61h-3.923a2.613,2.613,0,0,1,0-5.225h3.923A2.612,2.612,0,0,1,442.23,1737.248Z" transform="translate(-278.472 -1641.389)"/><path class="b" d="M433.081,1709.2a2.611,2.611,0,0,1,2.61-2.616h3.923a2.613,2.613,0,1,1,0,5.225h-3.923A2.61,2.61,0,0,1,433.081,1709.2Z" transform="translate(-278.472 -1629.643)"/><path class="b" d="M377.449,1853a13.868,13.868,0,0,1-4.923,2.133c-19.111,5.126-39.28-.366-59.066-.57-12.294-.134-24.505,1.8-36.735,3.075-2.645.279-5.336.517-8.015.593h-3.493a32.885,32.885,0,0,1-10.834-2.023l1.767.482a19.993,19.993,0,0,0-1.436-3.691Z" transform="translate(-203.64 -1690.957)"/><path class="b" d="M442.388,1670.958l6-3.116-6-3.115a2.614,2.614,0,0,1,2.412-4.638l10.457,5.435a2.615,2.615,0,0,1,0,4.638L444.8,1675.6a2.558,2.558,0,0,1-1.2.3,2.615,2.615,0,0,1-1.209-4.935Z" transform="translate(-281.78 -1610.049)"/><path class="b" d="M465,1737.248a2.611,2.611,0,0,1-2.616,2.61h-1.959a2.613,2.613,0,1,1,0-5.225h1.959A2.612,2.612,0,0,1,465,1737.248Z" transform="translate(-288.828 -1641.389)"/><path class="b" d="M465,1709.2a2.611,2.611,0,0,1-2.616,2.61h-1.959a2.613,2.613,0,1,1,0-5.225h1.959A2.612,2.612,0,0,1,465,1709.2Z" transform="translate(-288.828 -1629.643)"/><path class="b" d="M458.98,1761.412a2.611,2.611,0,0,1-1.395,2.313l-10.323,5.435a2.614,2.614,0,0,1-2.436-4.627l5.929-3.121-5.929-3.127a2.612,2.612,0,0,1,2.436-4.621l10.323,5.435A2.611,2.611,0,0,1,458.98,1761.412Z" transform="translate(-282.806 -1649.232)"/><path class="a" d="M567.137,1626.638a47.459,47.459,0,0,1-1.523,12.683,37.014,37.014,0,0,1-5.5,10.567c-12.27,17.3-31.852,27.964-47.575,42.123-1.8,1.616-3.546,3.284-5.225,5.01v-96.451h-7.754c4.272-2.168,8.584-4.214,12.979-6.057a133.7,133.7,0,0,1,12.892-4.685c9.724-2.947,20.965-4.383,29.463,1.18C565.888,1598.209,567.44,1613.5,567.137,1626.638Z" transform="translate(-306.311 -1579.662)"/><g transform="translate(38.954 0)"><path class="c" d="M390.927,1574.212H244.559a10.486,10.486,0,0,0-10.457,10.451v146.369a10.491,10.491,0,0,0,10.457,10.457H390.927a10.486,10.486,0,0,0,10.451-10.457V1584.663A10.481,10.481,0,0,0,390.927,1574.212Zm-151.594,10.451a5.229,5.229,0,0,1,5.225-5.225H390.927a5.229,5.229,0,0,1,5.225,5.225v5.231H239.333Zm156.819,10.457v135.912a5.229,5.229,0,0,1-5.225,5.225H244.559a5.229,5.229,0,0,1-5.225-5.225V1595.119Z" transform="translate(-234.102 -1574.212)"/><circle class="d" cx="2.614" cy="2.614" r="2.614" transform="translate(148.985 7.84)"/><circle class="d" cx="2.614" cy="2.614" r="2.614" transform="translate(138.531 7.84)"/><path class="c" d="M458.98,1761.412a2.611,2.611,0,0,1-1.395,2.313l-10.323,5.435a2.614,2.614,0,0,1-2.436-4.627l5.929-3.121-5.929-3.127a2.612,2.612,0,0,1,2.436-4.621l10.323,5.435A2.611,2.611,0,0,1,458.98,1761.412Z" transform="translate(-321.76 -1649.232)"/><path class="c" d="M465,1709.2a2.611,2.611,0,0,1-2.616,2.61h-1.959a2.613,2.613,0,1,1,0-5.225h1.959A2.612,2.612,0,0,1,465,1709.2Z" transform="translate(-327.782 -1629.643)"/><path class="c" d="M417.49,1709.2a2.609,2.609,0,0,1-2.609,2.61h-3.923a2.613,2.613,0,1,1,0-5.225h3.923A2.61,2.61,0,0,1,417.49,1709.2Z" transform="translate(-307.066 -1629.643)"/><path class="c" d="M368.02,1709.2a2.611,2.611,0,0,1-2.616,2.61h-3.918a2.613,2.613,0,1,1,0-5.225H365.4A2.612,2.612,0,0,1,368.02,1709.2Z" transform="translate(-286.35 -1629.643)"/><path class="c" d="M343.284,1709.2a2.609,2.609,0,0,1-2.609,2.61h-3.923a2.613,2.613,0,0,1,0-5.225h3.923A2.61,2.61,0,0,1,343.284,1709.2Z" transform="translate(-275.994 -1629.643)"/><path class="c" d="M318.551,1709.2a2.615,2.615,0,0,1-2.616,2.61h-3.918a2.613,2.613,0,1,1,0-5.225h3.918A2.616,2.616,0,0,1,318.551,1709.2Z" transform="translate(-265.634 -1629.643)"/><path class="c" d="M442.23,1709.2a2.611,2.611,0,0,1-2.616,2.61h-3.923a2.613,2.613,0,0,1,0-5.225h3.923A2.612,2.612,0,0,1,442.23,1709.2Z" transform="translate(-317.426 -1629.643)"/><path class="c" d="M392.761,1709.2a2.615,2.615,0,0,1-2.616,2.61h-3.923a2.613,2.613,0,0,1,0-5.225h3.923A2.616,2.616,0,0,1,392.761,1709.2Z" transform="translate(-296.71 -1629.643)"/><path class="c" d="M295.226,1709.2a2.61,2.61,0,0,1-2.61,2.61h-1.965a2.613,2.613,0,0,1,0-5.225h1.965A2.611,2.611,0,0,1,295.226,1709.2Z" transform="translate(-256.69 -1629.643)"/><path class="c" d="M465,1737.248a2.611,2.611,0,0,1-2.616,2.61h-1.959a2.613,2.613,0,1,1,0-5.225h1.959A2.612,2.612,0,0,1,465,1737.248Z" transform="translate(-327.782 -1641.389)"/><path class="c" d="M318.551,1737.248a2.615,2.615,0,0,1-2.616,2.61h-3.918a2.613,2.613,0,1,1,0-5.225h3.918A2.616,2.616,0,0,1,318.551,1737.248Z" transform="translate(-265.634 -1641.389)"/><path class="c" d="M417.49,1737.248a2.609,2.609,0,0,1-2.609,2.61h-3.923a2.613,2.613,0,1,1,0-5.225h3.923A2.61,2.61,0,0,1,417.49,1737.248Z" transform="translate(-307.066 -1641.389)"/><path class="c" d="M368.02,1737.248a2.611,2.611,0,0,1-2.616,2.61h-3.918a2.613,2.613,0,1,1,0-5.225H365.4A2.612,2.612,0,0,1,368.02,1737.248Z" transform="translate(-286.35 -1641.389)"/><path class="c" d="M442.23,1737.248a2.611,2.611,0,0,1-2.616,2.61h-3.923a2.613,2.613,0,0,1,0-5.225h3.923A2.612,2.612,0,0,1,442.23,1737.248Z" transform="translate(-317.426 -1641.389)"/><path class="c" d="M392.761,1737.248a2.615,2.615,0,0,1-2.616,2.61h-3.923a2.613,2.613,0,0,1,0-5.225h3.923A2.616,2.616,0,0,1,392.761,1737.248Z" transform="translate(-296.71 -1641.389)"/><path class="c" d="M343.284,1737.248a2.609,2.609,0,0,1-2.609,2.61h-3.923a2.613,2.613,0,0,1,0-5.225h3.923A2.61,2.61,0,0,1,343.284,1737.248Z" transform="translate(-275.994 -1641.389)"/><path class="c" d="M295.226,1737.248a2.61,2.61,0,0,1-2.61,2.61h-1.965a2.613,2.613,0,0,1,0-5.225h1.965A2.611,2.611,0,0,1,295.226,1737.248Z" transform="translate(-256.69 -1641.389)"/><path class="c" d="M427.266,1765.3a2.616,2.616,0,0,1-2.616,2.616h-1.959a2.616,2.616,0,0,1,0-5.231h1.959A2.616,2.616,0,0,1,427.266,1765.3Z" transform="translate(-311.982 -1653.135)"/><path class="c" d="M402.8,1765.3a2.619,2.619,0,0,1-2.616,2.616h-4.237a2.616,2.616,0,0,1,0-5.231h4.237A2.619,2.619,0,0,1,402.8,1765.3Z" transform="translate(-300.78 -1653.135)"/><path class="c" d="M376.049,1765.3a2.619,2.619,0,0,1-2.616,2.616H369.2a2.616,2.616,0,1,1,0-5.231h4.237A2.619,2.619,0,0,1,376.049,1765.3Z" transform="translate(-289.578 -1653.135)"/><path class="c" d="M349.3,1765.3a2.615,2.615,0,0,1-2.616,2.616h-4.237a2.616,2.616,0,1,1,0-5.231h4.237A2.615,2.615,0,0,1,349.3,1765.3Z" transform="translate(-278.377 -1653.135)"/><path class="c" d="M322.549,1765.3a2.615,2.615,0,0,1-2.616,2.616H315.7a2.616,2.616,0,1,1,0-5.231h4.237A2.615,2.615,0,0,1,322.549,1765.3Z" transform="translate(-267.175 -1653.135)"/><path class="c" d="M297.446,1765.3a2.614,2.614,0,0,1-2.609,2.616h-1.965a2.616,2.616,0,0,1,0-5.231h1.965A2.614,2.614,0,0,1,297.446,1765.3Z" transform="translate(-257.619 -1653.135)"/><path class="c" d="M301.207,1674.486a2.612,2.612,0,0,1-2.319,1.406,2.558,2.558,0,0,1-1.2-.3l-10.457-5.435a2.607,2.607,0,0,1-1.407-2.319,2.645,2.645,0,0,1,1.407-2.319l10.457-5.435a2.614,2.614,0,0,1,2.412,4.638l-3.737,1.941-2.261,1.174,6,3.116A2.616,2.616,0,0,1,301.207,1674.486Z" transform="translate(-255.76 -1610.049)"/><path class="c" d="M456.664,1667.842a2.606,2.606,0,0,1-1.407,2.319L444.8,1675.6a2.558,2.558,0,0,1-1.2.3,2.615,2.615,0,0,1-1.209-4.935l6-3.116-6-3.115a2.614,2.614,0,0,1,2.412-4.638l10.457,5.435A2.614,2.614,0,0,1,456.664,1667.842Z" transform="translate(-320.734 -1610.049)"/><path class="c" d="M350.376,1671.788a2.615,2.615,0,0,1-2.61,2.616h-1.959a2.616,2.616,0,0,1-2.616-2.616,2.623,2.623,0,0,1,2.616-2.615h1.959a2.573,2.573,0,0,1,1.43.43A2.614,2.614,0,0,1,350.376,1671.788Z" transform="translate(-279.784 -1613.977)"/><path class="c" d="M376.25,1671.788a2.62,2.62,0,0,1-2.616,2.616h-4.377a2.616,2.616,0,1,1,0-5.231h4.377A2.619,2.619,0,0,1,376.25,1671.788Z" transform="translate(-289.604 -1613.977)"/><path class="c" d="M403.86,1671.788a2.62,2.62,0,0,1-2.616,2.616h-4.377a2.616,2.616,0,1,1,0-5.231h4.377A2.619,2.619,0,0,1,403.86,1671.788Z" transform="translate(-301.166 -1613.977)"/><path class="c" d="M429.052,1671.788a2.616,2.616,0,0,1-2.616,2.616h-1.959a2.616,2.616,0,0,1,0-5.231h1.959A2.616,2.616,0,0,1,429.052,1671.788Z" transform="translate(-312.728 -1613.977)"/><path class="c" d="M327.977,1683.156a1.906,1.906,0,1,1-3.807-.192,1.906,1.906,0,0,1,3.807.192Z" transform="translate(-271.817 -1619.01)"/><path class="c" d="M328.177,1661.976a14.61,14.61,0,0,1-.221,1.808c-.111.907-.227,1.813-.349,2.726-.053.384-.1.773-.151,1.162-.1.866-.221,1.732-.331,2.6-.023.232-.041.244-.337.244-.832.006-1.662.006-2.5,0-.291,0-.314-.017-.337-.244-.058-.453-.238-2-.43-3.656-.273-2.354-.57-4.941-.57-4.941a2.422,2.422,0,0,1,2.552-2.023,2.467,2.467,0,0,1,2.662,2.023C328.172,1661.779,328.177,1661.878,328.177,1661.976Z" transform="translate(-271.309 -1609.99)"/></g></g></svg>