<?xml version="1.0" encoding="utf-8"?>
<!-- Generator: Adobe Illustrator 23.0.0, SVG Export Plug-In . SVG Version: 6.00 Build 0)  -->
<svg version="1.1" id="Layer_1" xmlns="http://www.w3.org/2000/svg" xmlns:xlink="http://www.w3.org/1999/xlink" x="0px" y="0px"
	 viewBox="0 0 120.2 30" style="enable-background:new 0 0 120.2 30;" xml:space="preserve">
<style type="text/css">
	.st0{fill:#55A7A2;}
	.st1{fill:#4EA39E;}
	.st2{fill:#4F9B96;}
	.st3{font-family:'Roboto-Regular';}
	.st4{font-size:13px;}
</style>
<g>
	<g transform="translate(278 34)">
		<path class="st0" d="M-253.5-27.6c-0.6,1.4-1.9,1.5-3.2,1.5c-6.1,0-6.1,0-7.9,5.7c-1,3.1-1.9,6.2-3,9.3c-0.2,0.6,0,2-1.1,1.5
			c-1-0.2-1.7-1.3-1.4-2.3c0-0.1,0-0.2,0.1-0.3c1.3-3.8,2.4-7.6,3.6-11.3c0.3-0.8,0.5-1.6,0.8-2.7c-2.4,0-4.5,0-6.7,0
			c-0.5,0-1.2,0.2-1.3-0.6c0-0.7,0.2-1.4,1.1-1.6c0.4,0,0.8-0.1,1.2,0c5.3,0,10.6,0,15.9,0c0.7,0.1,1.4,0.2,2.1,0.3
			C-253.5-27.9-253.5-27.8-253.5-27.6z"/>
		<path class="st0" d="M-265.7-11.2c0-2.4,1.3-4.6,3.4-5.8c1.3-0.8,1.7-1.6,0.3-2.6c-0.7-0.4-1-1.3-0.6-2c0.4-1,0.5-1.5,1.6-0.5
			c4.5,3.8,4.5,3.8-0.1,7.4C-262.6-13.6-264-12.4-265.7-11.2z"/>
		<path class="st1" d="M-272.1-12.7c-0.4-0.4-1-0.9-1.4-1.3c-3.4-3.3-3.4-3.3,0.4-6.3c1-0.8,1.9-1.6,2.9-2.3
			c0.5-0.3,0.9-1.1,1.5-0.6c0.5,0.5,0,1.1-0.1,1.7c-0.3,1.5-1.6,2.1-2.6,2.8c-1.2,0.9-2.2,1.7-0.3,2.9c0.8,0.5,0.7,1.3,0.4,2.1
			C-271.4-13.2-271.5-12.8-272.1-12.7z"/>
	</g>
	<text transform="matrix(1 0 0 1 30.897 17.5693)" class="st2 st3 st4">Codalyze</text>
	<text transform="matrix(1 0 0 1 90.1019 17.5693)" class="st2 st3 st4">Tech</text>
</g>
</svg>
