<svg xmlns="http://www.w3.org/2000/svg" width="82.943" height="30" viewBox="0 0 82.943 30"><defs><style>.a{fill:#55a7a2;}.b{fill:#4ea39e;}.c{fill:#4f9b96;font-size:13px;font-family:Roboto-Regular, Roboto;}</style></defs><g transform="translate(-278 -34)"><g transform="translate(278 34)"><path class="a" d="M25.053.8c-.634,1.446-1.851,1.486-3.211,1.478-6.093-.037-6.1-.012-7.932,5.706-1,3.11-1.924,6.244-2.989,9.33-.194.563,0,1.963-1.144,1.492a1.911,1.911,0,0,1-1.34-2.56C9.729,12.49,10.864,8.686,12.054,4.9c.252-.8.472-1.614.774-2.653-2.38,0-4.542.016-6.7-.012-.485-.006-1.215.211-1.253-.623C4.841.882,5.048.19,5.935.05A7.5,7.5,0,0,1,7.1.005C12.4,0,17.7-.009,23,.018a13.942,13.942,0,0,1,2.055.31Q25.053.561,25.053.8Z" transform="translate(-2.589 -0.001)"/><path class="a" d="M22.085,23.782a6.749,6.749,0,0,1,3.369-5.823c1.253-.767,1.674-1.554.253-2.59a1.549,1.549,0,0,1-.6-2.017c.379-1.027.527-1.47,1.634-.535,4.5,3.8,4.538,3.764-.13,7.442C25.174,21.387,23.731,22.5,22.085,23.782Z" transform="translate(-11.739 -6.54)"/><path class="b" d="M3.949,21.472C3.5,21.054,2.983,20.6,2.5,20.125c-3.386-3.33-3.383-3.331.359-6.263C3.83,13.1,4.782,12.3,5.79,11.581c.452-.322.9-1.148,1.538-.587.516.455,0,1.148-.112,1.74-.284,1.482-1.564,2.07-2.583,2.84-1.244.94-2.2,1.735-.285,2.937.836.524.668,1.281.354,2.052C4.559,20.917,4.531,21.328,3.949,21.472Z" transform="translate(-0.001 -5.743)"/></g><text class="c" transform="translate(306.942 46)"><tspan x="0" y="0">Codalyze</tspan><tspan x="0" y="15"></tspan></text></g></svg>