<svg xmlns="http://www.w3.org/2000/svg" width="150.228" height="143.121" viewBox="0 0 150.228 143.121"><defs><style>.a{fill:#47ca98;}.b{fill:#1c9868;}</style></defs><g transform="translate(15643.949 -5864.502)"><g transform="translate(-15616.15 5864.502)"><path class="a" d="M1620.312,11.422a46.929,46.929,0,0,1,20.55-6.9c17.194-1.711,31.935,3.639,44.145,15.889.642.644,1.224,1.349,1.817,2.041,2.16,2.52,2.191,2.56-.327,4.855-4.175,3.806-9.067,6.315-14.732,6.421-11.128.207-22.262.055-33.394.052a5.055,5.055,0,0,1-2.145-2.1,56.115,56.115,0,0,0-14.853-18.36C1620.749,12.814,1620.1,12.373,1620.312,11.422Z" transform="translate(-1593.96 -4.207)"/><path class="b" d="M1554.54,195.848q-21.3.016-42.594.056a1.7,1.7,0,0,1-1.991-1.539,53.953,53.953,0,0,1,.01-26.853c.247-.974.615-1.436,1.684-1.433q21.3.053,42.594.053a1.92,1.92,0,0,1,.382.078,3.184,3.184,0,0,1,1.5,2.386,56.743,56.743,0,0,1,1.157,15.9c-.25,2.855-.453,5.709-.972,8.529C1556.093,194.189,1555.835,195.347,1554.54,195.848Z" transform="translate(-1508.264 -128.055)"/><path class="a" d="M1642.995,328.123c10.689-.011,21.381-.166,32.066.021,6.537.114,12.056,2.961,16.714,7.519a1.546,1.546,0,0,1,.112,2.484c-9.218,11.084-20.921,17.636-35.269,19.292a50.929,50.929,0,0,1-31.291-6.2,1.736,1.736,0,0,1,.834-1.458,56.994,56.994,0,0,0,15.206-20.036C1641.729,328.962,1642.41,328.62,1642.995,328.123Z" transform="translate(-1597.827 -251.981)"/><path class="a" d="M1705.27,196.02a57.223,57.223,0,0,0,1.44-21.983c-.292-2.57-.894-5.105-1.355-7.656,8.138-.014,16.28-.169,24.414,0,6.968.146,13.107,6.371,13.541,13.316.5,7.964-4.488,14.687-11.891,16a18.162,18.162,0,0,1-3.1.343C1720.637,196.056,1712.953,196.031,1705.27,196.02Z" transform="translate(-1658.993 -128.227)"/><path class="b" d="M1572.156,328.1a50.922,50.922,0,0,1-11.35,17.741c-1.9,2-3.576,4.335-6.318,5.374a52.267,52.267,0,0,1-21.406-21.637c-.657-1.2-.4-1.561.95-1.556Q1553.092,328.091,1572.156,328.1Z" transform="translate(-1526.988 -251.956)"/><path class="b" d="M1553.659,34.922a54.539,54.539,0,0,1,16.658,19.562c.486.92.934,1.861,1.4,2.792q-18.558.036-37.116.074c-1.077,0-1.913-.14-1.158-1.531A51.2,51.2,0,0,1,1553.659,34.922Z" transform="translate(-1527.307 -27.707)"/></g><g transform="translate(-15643.949 5987.165)"><path class="b" d="M1981.843,536.492c0-3.058.016-6.116-.013-9.174-.006-.632.121-.9.822-.868,1.476.071,1.3-.184,1.312,1.333s0,3.031,0,4.547c0,.985,0,.987.89.646a8.81,8.81,0,0,1,5.161-.477,3.1,3.1,0,0,1,2.421,2.184,11.858,11.858,0,0,1,.54,3.613c.027,2.526,0,5.052.03,7.578.007.57-.176.714-.723.708-1.388-.016-1.37.01-1.392-1.387-.042-2.684.135-5.372-.125-8.051a8.538,8.538,0,0,0-.246-1.329,1.98,1.98,0,0,0-1.816-1.55,9.039,9.039,0,0,0-4.3.593c-.5.185-.439.528-.439.892,0,3.3,0,6.595-.008,9.892,0,.3.163.778-.179.865a3.306,3.306,0,0,1-1.807-.022c-.25-.082-.125-.483-.125-.739Q1981.837,541.119,1981.843,536.492Z" transform="translate(-1842.78 -526.436)"/><path class="b" d="M1488.357,564.192a1.355,1.355,0,0,1-1.108-1.522c.035-1.2.008-2.393.008-3.591h-.013c0-1.277.048-2.556-.01-3.83a3.576,3.576,0,0,0-3.6-3.8,23.455,23.455,0,0,0-5.869.465c-.375.067-.46.244-.463.594-.01,1.1-.022,1.1,1.06,1.014.292-.022.581-.07.873-.086,1.194-.064,2.39-.166,3.586-.166a2.087,2.087,0,0,1,2.321,2.183c.024.265-.018.536.019.8.1.68-.156.9-.857.961a28.374,28.374,0,0,0-5.138.626,3.228,3.228,0,0,0-2.545,2.574,6.25,6.25,0,0,0,.107,3.08,3.161,3.161,0,0,0,2.563,2.345,9.715,9.715,0,0,0,5.239-.631,1.452,1.452,0,0,1,1.657.155,3.225,3.225,0,0,0,1.806.559c.292.029.824.259.8-.294C1488.777,565.15,1489.308,564.431,1488.357,564.192Zm-3.2-3.109c0,.212,0,.425,0,.637,0,1.715,0,1.721-1.656,2.13a10.5,10.5,0,0,1-2.757.345,1.862,1.862,0,0,1-2-1.67c-.466-2.114.383-3.249,2.555-3.431,1.084-.093,2.167-.195,3.249-.313.439-.05.635.077.611.551C1485.132,559.915,1485.158,560.5,1485.158,561.083Z" transform="translate(-1456.148 -545.538)"/><path class="b" d="M1838.5,564.213a1.364,1.364,0,0,1-1.1-1.531c.03-1.221.008-2.446.008-3.671h-.014c0-1.25.042-2.5-.01-3.749a3.592,3.592,0,0,0-3.763-3.794,29.134,29.134,0,0,0-5.4.406c-1.009.132-.741.747-.731,1.312.011.752.572.388.878.362,1.51-.126,3.021-.265,4.537-.256a2.14,2.14,0,0,1,2.4,2.358,5.294,5.294,0,0,0,.01.637c.107.688-.171.894-.862.953a29.286,29.286,0,0,0-5.06.607,3.272,3.272,0,0,0-2.647,2.756,6.34,6.34,0,0,0,.12,2.848,3.191,3.191,0,0,0,2.593,2.416,9.667,9.667,0,0,0,5.162-.61,1.5,1.5,0,0,1,1.731.131,3.15,3.15,0,0,0,1.8.559c.289.029.822.265.792-.3C1838.914,565.167,1839.454,564.451,1838.5,564.213Zm-3.185-4.744c-.045.554-.01,1.114-.01,1.672q0,.517,0,1.035c0,1.223,0,1.226-1.143,1.562a11.232,11.232,0,0,1-3.136.484,1.9,1.9,0,0,1-2.144-1.78c-.383-2.077.433-3.142,2.527-3.318,1.057-.088,2.114-.185,3.168-.313C1835.113,558.744,1835.362,558.877,1835.311,559.469Z" transform="translate(-1724.051 -545.564)"/><path class="b" d="M1770.371,559.187c1.3.027,2.606.01,3.908.01h2.473c2.484,0,2.5,0,2.307-2.534-.131-1.7-.445-3.342-1.859-4.51a5.876,5.876,0,0,0-9.128,2.706,13.243,13.243,0,0,0-.077,7.016c.605,2.467,2.136,3.631,4.709,3.714a44.037,44.037,0,0,0,5.248-.335c.937-.083.6-.734.627-1.226.04-.69-.468-.508-.829-.473a34.04,34.04,0,0,1-4.859.134,2.832,2.832,0,0,1-2.895-2.376c-.123-.485-.142-1-.231-1.493S1769.887,559.177,1770.371,559.187Zm-.646-2.263c.072-.444.1-.9.2-1.335a3.677,3.677,0,0,1,5.444-2.369,3.131,3.131,0,0,1,1.469,2.51c.275,1.747.262,1.748-1.5,1.748h-1.99c-1.035,0-2.069-.013-3.1.006C1769.831,557.491,1769.657,557.344,1769.725,556.924Z" transform="translate(-1678.854 -545.163)"/><path class="b" d="M1401.358,556.276c-.27-2.868-1.64-4.461-4.159-4.927-3.27-.605-5.813.695-6.7,3.554a12.97,12.97,0,0,0,.045,7.779,4.087,4.087,0,0,0,3.567,3,23.818,23.818,0,0,0,6.356-.27c.894-.105.369-.838.436-1.282.082-.536-.37-.405-.658-.375-1.4.148-2.815.145-4.225.176-2.578.056-3.725-1.046-3.9-3.939-.027-.457.128-.6.579-.594,1.33.022,2.662.008,3.992.008,1.357,0,2.714-.014,4.072.006.442.008.632-.142.623-.589C1401.365,557.977,1401.438,557.119,1401.358,556.276Zm-3.7,1.416h-1.993c-1.011,0-2.02-.006-3.031,0-.335,0-.551-.048-.536-.471.1-2.965,1.49-4.507,4.51-4.148,1.474.176,2.259,1.055,2.561,2.73C1399.514,557.692,1399.514,557.692,1397.661,557.692Z" transform="translate(-1389.921 -545.377)"/><path class="b" d="M1717.381,551.336a32.931,32.931,0,0,1,3.81.4c.805.111.874.3.749,1.447-.085.778-.621.407-.957.367a23.629,23.629,0,0,0-4.851-.249c-1.31.117-2.068.79-2.151,1.842a1.536,1.536,0,0,0,1.129,1.785,18.961,18.961,0,0,0,2.948.684,11.282,11.282,0,0,1,2.668.787,2.578,2.578,0,0,1,1.563,2.066,8.425,8.425,0,0,1,.126,1.267,3.608,3.608,0,0,1-2.967,3.886,14,14,0,0,1-5.389.077c-.448-.053-.89-.188-1.338-.2-.58-.02-.683-.3-.647-.815.077-1.1.055-1.116,1.171-.98a28.054,28.054,0,0,0,4.052.318,5.544,5.544,0,0,0,1.494-.223,1.943,1.943,0,0,0,1.517-2.072,1.753,1.753,0,0,0-1.487-1.888,25.747,25.747,0,0,0-2.884-.609c-.443-.088-.886-.18-1.319-.3-2.028-.583-2.676-1.346-2.738-3.194-.07-2.093.677-3.282,2.518-3.959a5.706,5.706,0,0,1,1.232-.319C1716.211,551.368,1716.8,551.368,1717.381,551.336Z" transform="translate(-1636.249 -545.479)"/><path class="b" d="M1542.245,551.535a27.939,27.939,0,0,1,3.887.348c1.088.128.593.938.612,1.472.026.735-.559.379-.869.342a23.213,23.213,0,0,0-4.929-.25,2.026,2.026,0,0,0-2.1,1.8,1.534,1.534,0,0,0,1.087,1.808,18.05,18.05,0,0,0,3.023.7,11.955,11.955,0,0,1,2.521.728,2.6,2.6,0,0,1,1.669,2.077c.457,2.86-.357,4.866-3.656,5.365a20.227,20.227,0,0,1-6.183-.342c-.258-.04-.347-.155-.371-.414-.122-1.325.038-1.5,1.349-1.319a24.227,24.227,0,0,0,3.972.3,4.74,4.74,0,0,0,1.636-.311,1.88,1.88,0,0,0,1.26-2.079,1.656,1.656,0,0,0-1.335-1.749,22.909,22.909,0,0,0-2.958-.639c-.417-.081-.831-.174-1.245-.271-2.413-.565-3.3-1.894-2.746-4.753.3-1.552,1.9-2.633,3.947-2.806C1541.284,551.5,1541.766,551.535,1542.245,551.535Z" transform="translate(-1502.225 -545.621)"/><path class="b" d="M1591.815,544.988c0-1.249-.04-2.5.016-3.747.031-.687-.217-.913-.857-.812-.052.008-.108-.007-.159,0-.814.152-1.008-.193-1.021-.989-.014-.846.382-.933,1.011-.847.772.105,1.111-.13,1.029-.985s0-1.753-.026-2.629c-.013-.449.081-.661.6-.671,1.488-.029,1.487-.054,1.487,1.457,0,.744.023,1.49-.007,2.232-.018.457.154.606.6.6,1.01-.021,2.024.046,3.029-.022.761-.052.879.272.854.924-.022.585,0,1.013-.818.951-1.031-.079-2.072-.012-3.108-.022-.331,0-.562.033-.551.461.076,2.841-.168,5.689.151,8.523.14,1.244.6,1.6,1.854,1.577.637-.01,1.275-.05,1.909-.115.383-.039.564.027.629.465.186,1.256.207,1.235-1.047,1.422a11.079,11.079,0,0,1-2.384.113,2.862,2.862,0,0,1-3-2.715,14.074,14.074,0,0,1-.171-1.9c-.027-1.089-.008-2.179-.008-3.269Z" transform="translate(-1542.844 -532.447)"/><path class="b" d="M1660.56,558.615a17.293,17.293,0,0,1,.37-3.458,4.4,4.4,0,0,1,4.227-3.689,18.8,18.8,0,0,1,4.68.3c.516.071.353.447.34.735-.046,1.058-.052,1.045-1.076.931a15.291,15.291,0,0,0-3.342-.074,2.754,2.754,0,0,0-2.72,2.368,13.245,13.245,0,0,0-.059,5.619c.363,1.87,1.267,2.589,3.2,2.705a31.823,31.823,0,0,0,3.421-.19c.5-.023.637.219.582.608s.406,1.047-.387,1.157a17.025,17.025,0,0,1-5.075.212,4.217,4.217,0,0,1-3.72-3.333A18.115,18.115,0,0,1,1660.56,558.615Z" transform="translate(-1596.987 -545.536)"/><path class="b" d="M1927.51,559.063a17.668,17.668,0,0,1,.309-3.646,4.52,4.52,0,0,1,4.585-3.966,17.621,17.621,0,0,1,4.28.334c.864.153.308.856.389,1.3.091.5-.3.455-.625.412a16.791,16.791,0,0,0-3.578-.136,2.828,2.828,0,0,0-2.924,2.531,13.938,13.938,0,0,0,.016,5.622c.362,1.736,1.289,2.437,3.161,2.552,1.147.07,2.279-.144,3.42-.187.414-.016.64.106.559.517s.487,1.1-.349,1.24a17.405,17.405,0,0,1-4.361.314c-2.984-.267-4.335-1.648-4.717-4.819C1927.578,560.312,1927.543,559.488,1927.51,559.063Z" transform="translate(-1801.23 -545.546)"/><path class="b" d="M1453.542,536.545c0-3.085.023-6.17-.017-9.254-.009-.715.2-.976.894-.866a2.033,2.033,0,0,0,.557,0c.519-.064.685.141.677.668-.029,1.914-.011,3.829-.011,5.744,0,4.308-.014,8.616.016,12.924,0,.645-.192.8-.8.786-1.31-.035-1.311,0-1.311-1.307Q1453.542,540.893,1453.542,536.545Z" transform="translate(-1438.584 -526.401)"/><path class="b" d="M1892.116,553.659a15.394,15.394,0,0,1,3.837-1.841c1.545-.437,1.209-.406,1.287.926.04.684-.177.953-.86,1.1a16.443,16.443,0,0,0-3.575,1.337,1.036,1.036,0,0,0-.679,1.1c.03,2.9-.008,5.8.03,8.7.009.681-.206.916-.854.817a1.63,1.63,0,0,0-.478,0c-.621.092-.807-.148-.8-.784q.043-6.183,0-12.367c0-.655.161-.946.836-.843a1.651,1.651,0,0,0,.478,0c.628-.09.87.169.788.8A9.154,9.154,0,0,0,1892.116,553.659Z" transform="translate(-1772.547 -545.655)"/><path class="b" d="M1639.173,559.595c0,2.049-.025,4.1.015,6.147.012.617-.189.758-.77.746-1.337-.028-1.338,0-1.338-1.361,0-3.938.016-7.877-.016-11.815-.005-.676.2-.922.853-.83a2.631,2.631,0,0,0,.638,0c.494-.051.632.163.627.645C1639.159,555.284,1639.173,557.44,1639.173,559.595Z" transform="translate(-1579.011 -546.341)"/><path class="b" d="M1639.066,529.648c0,.28-.015.493,0,.7.036.408-.132.54-.544.559-1.555.074-1.569.089-1.541-1.457.006-.333-.237-.855.225-.975a2.408,2.408,0,0,1,1.706.048C1639.292,528.734,1638.984,529.312,1639.066,529.648Z" transform="translate(-1578.904 -527.889)"/></g></g></svg>