<svg xmlns="http://www.w3.org/2000/svg" width="143.554" height="142.849" viewBox="0 0 143.554 142.849"><defs><style>.a{fill:#1c9868;}</style></defs><g transform="translate(15273.585 -5907.514)"><path class="a" d="M681.461,39.941a10,10,0,1,0,10.007,10.07A9.9,9.9,0,0,0,681.461,39.941Zm0,0a10,10,0,1,0,10.007,10.07A9.9,9.9,0,0,0,681.461,39.941Zm0,0a10,10,0,1,0,10.007,10.07A9.9,9.9,0,0,0,681.461,39.941Zm0,0a10,10,0,1,0,10.007,10.07A9.9,9.9,0,0,0,681.461,39.941Zm0,0a10,10,0,1,0,10.007,10.07A9.9,9.9,0,0,0,681.461,39.941Zm0,0a10,10,0,1,0,10.007,10.07A9.9,9.9,0,0,0,681.461,39.941Zm0,0a10,10,0,1,0,10.007,10.07A9.9,9.9,0,0,0,681.461,39.941Zm0,0a10,10,0,1,0,10.007,10.07A9.9,9.9,0,0,0,681.461,39.941Zm0,0a10,10,0,1,0,10.007,10.07A9.9,9.9,0,0,0,681.461,39.941Zm0,0a10,10,0,1,0,10.007,10.07A9.9,9.9,0,0,0,681.461,39.941Zm53.764,3.347a20.879,20.879,0,0,0-3.916-3.862,48.8,48.8,0,0,0-15.75-7.665c-1.092-.336-1.393-.78-1.12-1.926A48.272,48.272,0,0,0,715.893,17.8c.059-4.487-.439-8.7-2.582-12.548A9.483,9.483,0,0,0,704.634,0a20.35,20.35,0,0,0-8.71,2.109,51.974,51.974,0,0,0-13.589,9.532c-.622.571-1.055.62-1.67.016a49.874,49.874,0,0,0-6.714-5.5c-3.864-2.659-7.918-4.912-12.6-5.8C655.209-.8,650.786,1.545,648.559,7.175a23.362,23.362,0,0,0-1.51,7.446,53.454,53.454,0,0,0,1.536,15.365c.242,1,0,1.369-.982,1.637a51.649,51.649,0,0,0-6.528,2.307c-4.573,1.94-8.865,4.315-12.325,7.982-3.829,4.054-4.632,8.86-2.149,13.218a18.652,18.652,0,0,0,4.216,5c4.9,4.155,10.625,6.716,16.68,8.614,1.022.319,1.273.738,1.019,1.764a52.018,52.018,0,0,0-1.5,14.547,24.337,24.337,0,0,0,1.426,7.578c1.976,5.353,5.9,7.9,11.534,7.42a21.6,21.6,0,0,0,6.455-1.682,49.156,49.156,0,0,0,14.432-9.718c.622-.576.989-.66,1.616-.021a44.583,44.583,0,0,0,4.987,4.275c4.308,3.267,8.856,6.152,14.3,7.012,5.337.843,9.356-.385,12.212-6.2a23.977,23.977,0,0,0,2.112-9.8,52.052,52.052,0,0,0-1.463-13.847c-.2-.876.009-1.292.867-1.555,1.421-.437,2.831-.923,4.209-1.478,5.452-2.189,10.6-4.846,14.66-9.264C738.5,53.284,738.85,48.027,735.225,43.289Zm-49.752-28c4.515-4.087,9.213-7.9,15.128-9.821a10.218,10.218,0,0,1,4.839-.573,4.721,4.721,0,0,1,3.321,2.18A14.886,14.886,0,0,1,710.9,13.83a19.254,19.254,0,0,1,.256,3.857,59.672,59.672,0,0,1-1.438,11.376c-.153.674-.392,1.019-1.2.832a115.84,115.84,0,0,0-13.192-2.109,2,2,0,0,1-1.539-.9,104.542,104.542,0,0,0-8.353-10.427C685.031,16.007,685.029,15.688,685.473,15.289ZM658.849,56.56c1.86,3.6,3.944,7.073,6.23,10.751a90.054,90.054,0,0,1-9.408-1.431c-.55-.108-.85-.334-.655-.956.886-2.833,1.943-5.6,3.061-8.351C658.314,55.99,658.593,56.065,658.849,56.56Zm-3.791-21.183c-.122-.388-.047-.7.409-.81a83.874,83.874,0,0,1,9.523-1.576c-2.365,3.829-4.484,7.444-6.572,11.376A93.3,93.3,0,0,1,655.058,35.377Zm6.326,15.6a1.9,1.9,0,0,1,.045-1.79,133.516,133.516,0,0,1,9.248-16.051,2.057,2.057,0,0,1,1.764-.935c4.689-.287,9.38-.284,14.071-.209,1.445.023,2.887.162,4.332.223a1.585,1.585,0,0,1,1.353.773,158.662,158.662,0,0,1,9.471,16.33,1.58,1.58,0,0,1-.049,1.548,156.743,156.743,0,0,1-9.276,16.17,1.8,1.8,0,0,1-1.527.886c-3.2.254-6.406.228-9.866.24-2.715-.049-5.689.066-8.654-.226a1.877,1.877,0,0,1-1.555-.839A139.964,139.964,0,0,1,661.384,50.975Zm37.187,15.21c1.318-2.264,2.676-4.505,3.991-6.772.662-1.142,1.266-2.318,2.051-3.765a92.127,92.127,0,0,1,3.547,9.032c.176.517.026.808-.519.942a78.35,78.35,0,0,1-8.778,1.517C697.789,67.274,698.355,66.558,698.571,66.184Zm5.577-22.532c-1.86-3.549-3.93-6.981-6.166-10.65a79.939,79.939,0,0,1,9.438,1.569c.564.122.646.46.491.961-.85,2.722-1.865,5.382-2.974,8.008C704.74,44.007,704.448,44.228,704.148,43.653Zm-23.21-23.659c.305-.317.573-.709,1.034-.2a86.419,86.419,0,0,1,6.042,7.376,27.261,27.261,0,0,1-4.806-.1c-2.347-.113-4.686.124-7.031.179-.3.007-.684.136-.864-.179-.193-.338.153-.571.336-.8A80.594,80.594,0,0,1,680.937,19.994Zm-28-10.744c1.32-3.592,3.556-4.839,7.319-4.179A23.6,23.6,0,0,1,667.684,7.9a51.113,51.113,0,0,1,9.579,7.139c.651.6.763,1.048.11,1.734a90.866,90.866,0,0,0-7.977,9.838,2.565,2.565,0,0,1-1.987,1.207,102.424,102.424,0,0,0-12.741,2c-.806.186-1.207,0-1.4-.867a59.41,59.41,0,0,1-1.534-11.808A23.955,23.955,0,0,1,652.939,9.249Zm-2.38,53.917c-.336,1.092-.832,1.3-1.882.947-5.219-1.764-10.244-3.885-14.531-7.463a15.924,15.924,0,0,1-2.842-3.108,5.506,5.506,0,0,1,.049-7.148c2.1-2.906,5.05-4.75,8.135-6.406a55.827,55.827,0,0,1,9.586-3.812c.735-.235,1.137-.146,1.4.672A107.638,107.638,0,0,0,655.159,49c.16.352.254.733.388,1.128-.12.341-.214.679-.357,1A101.959,101.959,0,0,0,650.56,63.166Zm27.107,21.923c-4.512,4.118-9.309,7.787-15.266,9.6a11.033,11.033,0,0,1-4.851.54,5.071,5.071,0,0,1-3.911-2.856,19.726,19.726,0,0,1-1.912-9.438,54.526,54.526,0,0,1,1.414-11.278c.211-.975.644-1.278,1.64-1.066A90.633,90.633,0,0,0,667.548,72.4a2.12,2.12,0,0,1,1.668.942,117.57,117.57,0,0,0,8.478,10.491C678.135,84.316,678.154,84.645,677.667,85.089Zm4.667-4.83c-.519.585-.841.679-1.353.052-1.781-2.175-3.585-4.329-5.372-6.5-.183-.223-.547-.444-.31-.789.164-.237.5-.139.773-.108a80.9,80.9,0,0,0,10.646-.033c.395-.033.954-.237,1.17.23.174.383-.289.686-.514.982C685.764,76.205,684.1,78.275,682.335,80.26ZM709.428,92.1a5.537,5.537,0,0,1-6.307,3.164c-4.278-.63-7.869-2.751-11.327-5.151a57.2,57.2,0,0,1-5.9-4.834c-.651-.6-.749-1.038-.11-1.731a95.024,95.024,0,0,0,8.066-10.22,1.907,1.907,0,0,1,1.492-.972,105.87,105.87,0,0,0,13.216-2c.775-.169,1.224-.141,1.431.782a64.572,64.572,0,0,1,1.426,11.278C711.213,85.66,711.049,89.024,709.428,92.1Zm21.231-37.438a27.483,27.483,0,0,1-8.135,5.882,57.176,57.176,0,0,1-8.374,3.373c-.827.268-1.212.056-1.47-.756a106.423,106.423,0,0,0-4.865-12.2,2.06,2.06,0,0,1-.049-1.889,106.336,106.336,0,0,0,4.7-12.013c.277-.874.679-1.088,1.536-.81,5.508,1.771,10.805,3.951,15.3,7.726a11.717,11.717,0,0,1,3.127,3.911A6.479,6.479,0,0,1,733,50.014,8.2,8.2,0,0,1,730.659,54.665ZM681.48,59.95a10,10,0,1,0-10.018-9.917A9.818,9.818,0,0,0,681.48,59.95Zm-.019-20.009a10,10,0,1,0,10.007,10.07A9.9,9.9,0,0,0,681.461,39.941Zm0,0a10,10,0,1,0,10.007,10.07A9.9,9.9,0,0,0,681.461,39.941Zm0,0a10,10,0,1,0,10.007,10.07A9.9,9.9,0,0,0,681.461,39.941Zm0,0a10,10,0,1,0,10.007,10.07A9.9,9.9,0,0,0,681.461,39.941Zm0,0a10,10,0,1,0,10.007,10.07A9.9,9.9,0,0,0,681.461,39.941Zm0,0a10,10,0,1,0,10.007,10.07A9.9,9.9,0,0,0,681.461,39.941Zm0,0a10,10,0,1,0,10.007,10.07A9.9,9.9,0,0,0,681.461,39.941Zm0,0a10,10,0,1,0,10.007,10.07A9.9,9.9,0,0,0,681.461,39.941Z" transform="translate(-15883.766 5907.514)"/><path class="a" d="M842.152,180.105a10,10,0,1,1-10.007-10.07A9.818,9.818,0,0,1,842.152,180.105Z" transform="translate(-16034.465 5777.42)"/><path class="a" d="M842.152,180.105a10,10,0,1,1-10.007-10.07A9.818,9.818,0,0,1,842.152,180.105Z" transform="translate(-16034.465 5777.42)"/><g transform="translate(-15273.585 6029.9)"><path class="a" d="M561.33,521.444a21.8,21.8,0,0,1,4.321-.43c2.6,0,4.239.563,5.373,1.682a5.018,5.018,0,0,1,1.393,3.558,5.278,5.278,0,0,1-3.913,5.2v.059c1.608.519,2.616,2.031,3.091,4.247a25.841,25.841,0,0,0,1.49,5.388H571.61a27.187,27.187,0,0,1-1.275-4.862c-.615-2.883-1.845-4.188-4.477-4.3h-3.12v9.161H561.33V521.444Zm1.408,9.405h3.172c3.083,0,5.084-1.727,5.084-4.358,0-3.068-2.253-4.313-5.381-4.313a12.516,12.516,0,0,0-2.876.274v8.4Z" transform="translate(-561.33 -521.014)"/><path class="a" d="M621.347,552.08c0,4.543,2.475,6.344,5.41,6.344a8.257,8.257,0,0,0,3.958-.808l.363,1.112a9.582,9.582,0,0,1-4.491.912c-4.091,0-6.633-2.979-6.633-7.145,0-4.751,2.72-7.723,6.4-7.723,4.662,0,5.544,4.38,5.544,6.433a4.858,4.858,0,0,1-.044.875h-10.5Zm9.071-1.126c.037-1.986-.793-5.01-4.254-5.01-3.127,0-4.484,2.816-4.743,5.01Z" transform="translate(-606.183 -539.192)"/><path class="a" d="M689.908,559.329l-.208-2.038h-.067a5.375,5.375,0,0,1-4.536,2.364,3.881,3.881,0,0,1-4.187-3.913c0-3.283,2.89-5.262,8.679-5.2v-.378c0-1.408-.274-4.217-3.639-4.195a6.252,6.252,0,0,0-3.572,1.06L681.933,546a7.62,7.62,0,0,1,4.173-1.23c4.106,0,4.891,3.083,4.891,5.625v5.551a23.168,23.168,0,0,0,.208,3.38Zm-.319-7.6c-3.1-.089-7.189.378-7.189,3.795a2.71,2.71,0,0,0,2.831,2.965,4.284,4.284,0,0,0,4.21-2.853,2.713,2.713,0,0,0,.148-.852v-3.054Z" transform="translate(-652.821 -539.192)"/><path class="a" d="M749.453,558.714a9.338,9.338,0,0,1-4.158.926c-4.1,0-6.833-2.987-6.833-7.263,0-4.528,3.083-7.6,7.337-7.6a7.365,7.365,0,0,1,3.735.882l-.5,1.171a6.622,6.622,0,0,0-3.372-.83c-3.817,0-5.773,2.92-5.773,6.27,0,3.728,2.349,6.159,5.625,6.159a8.06,8.06,0,0,0,3.558-.823Z" transform="translate(-696.854 -539.192)"/><path class="a" d="M795.689,528.618v4.121h4.054v1.141h-4.054v9.249c0,1.808.563,2.942,2.09,2.942a4.961,4.961,0,0,0,1.616-.222l.171,1.089a5.085,5.085,0,0,1-1.964.341,3.026,3.026,0,0,1-2.453-1.008,5.21,5.21,0,0,1-.867-3.395v-9h-2.4v-1.141h2.4v-3.661Z" transform="translate(-737.724 -526.832)"/><path class="a" d="M866.5,541.656V521.675h1.341l7.789,11.806a64.534,64.534,0,0,1,3.75,6.292l.059-.044c-.207-2.683-.23-4.966-.23-8.108v-9.946h1.371v19.981h-1.319l-7.626-11.628a64.594,64.594,0,0,1-3.869-6.463l-.081.044c.163,2.461.185,4.61.185,7.938v10.109H866.5Z" transform="translate(-794.815 -521.52)"/><path class="a" d="M950.652,559.329l-.208-2.038h-.067a5.375,5.375,0,0,1-4.536,2.364,3.881,3.881,0,0,1-4.187-3.913c0-3.283,2.89-5.262,8.679-5.2v-.378c0-1.408-.274-4.217-3.639-4.195a6.252,6.252,0,0,0-3.572,1.06L942.677,546a7.62,7.62,0,0,1,4.173-1.23c4.106,0,4.892,3.083,4.892,5.625v5.551a23.159,23.159,0,0,0,.208,3.38Zm-.319-7.6c-3.1-.089-7.189.378-7.189,3.795a2.71,2.71,0,0,0,2.831,2.965,4.284,4.284,0,0,0,4.21-2.853,2.713,2.713,0,0,0,.148-.852v-3.054Z" transform="translate(-852.316 -539.192)"/><path class="a" d="M1000.143,528.618v4.121h4.054v1.141h-4.054v9.249c0,1.808.563,2.942,2.09,2.942a4.961,4.961,0,0,0,1.616-.222l.171,1.089a5.086,5.086,0,0,1-1.964.341,3.026,3.026,0,0,1-2.453-1.008,5.21,5.21,0,0,1-.867-3.395v-9h-2.4v-1.141h2.4v-3.661Z" transform="translate(-894.152 -526.832)"/><path class="a" d="M1043.644,524.832a1.145,1.145,0,1,1-2.283,0,1.2,1.2,0,0,1,1.149-1.23A1.158,1.158,0,0,1,1043.644,524.832Zm-1.846,18.3V528.9h1.408v14.23Z" transform="translate(-928.602 -522.994)"/><path class="a" d="M1062.793,546.161l3.342,8.834c.563,1.393,1.008,2.6,1.386,3.809h.067c.393-1.186.9-2.446,1.445-3.809l3.387-8.834h1.482l-5.788,14.23h-1.245l-5.573-14.23Z" transform="translate(-943.853 -540.254)"/><path class="a" d="M1123.022,552.08c0,4.543,2.475,6.344,5.41,6.344a8.257,8.257,0,0,0,3.958-.808l.363,1.112a9.583,9.583,0,0,1-4.491.912c-4.091,0-6.633-2.979-6.633-7.145,0-4.751,2.72-7.723,6.4-7.723,4.662,0,5.544,4.38,5.544,6.433a4.858,4.858,0,0,1-.044.875h-10.5Zm9.072-1.126c.037-1.986-.793-5.01-4.254-5.01-3.127,0-4.484,2.816-4.743,5.01Z" transform="translate(-990.015 -539.192)"/></g></g></svg>