<svg xmlns="http://www.w3.org/2000/svg" xmlns:xlink="http://www.w3.org/1999/xlink" width="1920.998" height="1894.904" viewBox="0 0 1920.998 1894.904"><defs><style>.a{opacity:0.33;fill:url(#a);}</style><linearGradient id="a" x1="0.205" y1="0.399" x2="0.672" y2="0.837" gradientUnits="objectBoundingBox"><stop offset="0" stop-color="#f9e9e3"/><stop offset="1" stop-color="#d0ddee"/></linearGradient></defs><path class="a" d="M18804,697.6l1.4-.882c-.268-4.025-.4-8.084-.4-12.137,0-228.967,429.8-414.583,960-414.583s960,185.616,960,414.583a182.9,182.9,0,0,1-1.436,22.867c.914.379,1.4.582,1.436.6V1796.132c-.053-.031-6.584-4.2-18.891-10.309a458.179,458.179,0,0,0-55.17-22.682,597.577,597.577,0,0,0-89.182-22.682,699.8,699.8,0,0,0-120.951-10.316c-88.428,0-180.838,15.716-274.664,46.707-26.715,8.824-53.928,19.028-80.885,30.332-28.232,11.832-56.971,25.205-85.416,39.734-29.705,15.175-59.914,32.041-89.779,50.119-31.115,18.835-62.729,39.517-93.961,61.472-20.5,14.411-40.846,27.921-60.465,40.145-19.053,11.875-37.99,22.894-56.289,32.75-17.727,9.552-35.379,18.295-52.461,25.988-16.508,7.432-32.986,14.113-48.975,19.855-15.391,5.525-30.812,10.347-45.84,14.343-14.387,3.828-28.861,7.016-43.035,9.471-13.477,2.337-27.129,4.1-40.574,5.22-12.682,1.063-25.623,1.6-38.469,1.6-14.3,0-28.529-.634-43.482-1.939-13.326-1.162-26.922-2.834-41.559-5.114-27.635-4.3-54.078-10-79.648-15.511h-.016l-1.311-.286c-25.465-5.487-51.789-11.161-78.279-15.337-14.252-2.243-27.432-3.89-40.3-5.034-14.439-1.286-28.123-1.908-41.834-1.908-45.105,0-89.041,7-134.318,21.415-12.441,3.958-25.184,8.551-37.881,13.659-13.1,5.263-26.568,11.235-40.029,17.748-13.846,6.7-28.1,14.181-42.379,22.229-14.652,8.259-29.773,17.375-44.951,27.1Z" transform="translate(20724.996 2164.903) rotate(180)"/></svg>