<svg xmlns="http://www.w3.org/2000/svg" width="1207.318" height="479.09" viewBox="0 0 1207.318 479.09"><defs><style>.a{fill:#fff6cb;}.a,.b,.c{opacity:0.72;}.b{fill:#f9f5e2;}.c{fill:#e1eeff;}</style></defs><g transform="translate(-385.486 -3494.164)"><path class="a" d="M1408.286,225.973h-40.5a5.2,5.2,0,0,1-5.186-5.187v-40.5a5.2,5.2,0,0,1,5.186-5.187h40.5a5.2,5.2,0,0,1,5.187,5.187v40.5A5.2,5.2,0,0,1,1408.286,225.973Z" transform="translate(68.916 2909.35) rotate(20)"/><path class="a" d="M36.671,40.834H4.163A4.175,4.175,0,0,1,0,36.671V4.163A4.175,4.175,0,0,1,4.163,0H36.671a4.175,4.175,0,0,1,4.163,4.163V36.671A4.175,4.175,0,0,1,36.671,40.834Z" transform="matrix(0.602, 0.799, -0.799, 0.602, 418.098, 3628.827)"/><ellipse class="b" cx="13.713" cy="13.713" rx="13.713" ry="13.713" transform="translate(1565.379 3640.915)"/><path class="c" d="M-15065.2-32.3l26.407-27.7,13.447,33.09Z" transform="translate(15731.207 3554.164)"/><path class="c" d="M-15065.2-32.3l26.407-27.7,13.447,33.09Z" transform="translate(16545.346 4000.164)"/></g></svg>