<svg xmlns="http://www.w3.org/2000/svg" width="228.978" height="167.27" viewBox="0 0 228.978 167.27"><defs><style>.a{fill:#fae9e2;}.a,.b,.c{fill-rule:evenodd;}.b{fill:#00aeef;}.c,.d{fill:#ec7271;}</style></defs><path class="a" d="M234.327,1949.54H212.612v127.572c-1.645-2.587-3.424-5.115-5.231-7.62-1.773-2.453-3.569-4.883-5.3-7.318a185.484,185.484,0,0,1-29.684-67.046c-1.622-7.353-2.8-14.961-1.657-22.407s4.888-14.793,11.282-18.774c4.266-2.656,9.341-3.644,14.3-4.417,3.626-.564,7.324-1.023,11.049-1.325A92.46,92.46,0,0,1,234.327,1949.54Z" transform="translate(-170.291 -1928.633)"/><path class="b" d="M254.412,2193.612H380c-1.587,1.726-3.144,3.482-4.7,5.225H255.633A36,36,0,0,0,254.412,2193.612Z" transform="translate(-205.517 -2031.567)"/><path class="a" d="M523.027,2105.053a52.324,52.324,0,0,1-4.9,2.325c-1.726.727-3.476,1.4-5.225,2.075v-74.841q1.439.323,2.854.75c.8.244,1.593.511,2.371.814a37.99,37.99,0,0,1,4.9,68.877Z" transform="translate(-313.762 -1964.985)"/><g transform="translate(37.09)"><path class="c" d="M390.927,1914.822H244.559a10.486,10.486,0,0,0-10.457,10.451v146.368a10.486,10.486,0,0,0,10.457,10.451H390.927a10.481,10.481,0,0,0,10.451-10.451V1925.273A10.481,10.481,0,0,0,390.927,1914.822Zm-151.594,10.451a5.229,5.229,0,0,1,5.225-5.225H390.927a5.23,5.23,0,0,1,5.225,5.225v5.231H239.333Zm156.819,146.368a5.229,5.229,0,0,1-5.225,5.225H244.559a5.229,5.229,0,0,1-5.225-5.225V1935.729H396.152Z" transform="translate(-234.102 -1914.822)"/><circle class="d" cx="2.614" cy="2.614" r="2.614" transform="translate(148.985 7.839)"/><circle class="d" cx="2.614" cy="2.614" r="2.614" transform="translate(138.531 7.839)"/></g><path class="c" d="M334.128,2015.867a13.985,13.985,0,0,0-8.6-7.039,14.144,14.144,0,0,0-10.91,1.157,13.665,13.665,0,0,0-7.126,8.515,14.033,14.033,0,0,0,1.087,10.991,14.512,14.512,0,0,0,8.591,7.126,16.03,16.03,0,0,0,4.179.616,15.036,15.036,0,0,0,6.888-1.779,14.548,14.548,0,0,0,5.888-19.588Zm-1.86,10.143a10.651,10.651,0,0,1-5.417,6.812,11.593,11.593,0,0,1-15.635-4.726,11.263,11.263,0,0,1-.779-8.748,11.558,11.558,0,0,1,14.246-7.585,11.439,11.439,0,0,1,6.812,5.574A10.637,10.637,0,0,1,332.268,2026.01Z" transform="translate(-227.477 -1953.936)"/><path class="c" d="M338.3,2019.036a5.191,5.191,0,0,0-2.941-2.709.629.629,0,0,1-.233-.389,18.773,18.773,0,0,0-.384-6.039.467.467,0,0,1,.151-.308,6.163,6.163,0,0,0,2.476-2.865v-.151a4.4,4.4,0,0,0-.076-3.871l-.076-.232a5.424,5.424,0,0,0-3.022-2.552,7.343,7.343,0,0,0-4.1-.081,1.257,1.257,0,0,1-.389-.076,15.042,15.042,0,0,0-4.179-3.871l-.233-.232v-.151a6.04,6.04,0,0,0-.541-4.185,4.541,4.541,0,0,0-2.476-2.319l-.465-.233a5.94,5.94,0,0,0-3.947.465,6.928,6.928,0,0,0-2.866,2.865c-.052.157-.128.233-.233.233a15.158,15.158,0,0,0-5.882.383l-.308-.075a6.79,6.79,0,0,0-3.255-2.633,4.336,4.336,0,0,0-3.714.39h-.151a4.435,4.435,0,0,0-2.482,2.865,5.9,5.9,0,0,0-.076,4.1l-.157.314a16.119,16.119,0,0,0-4.179,4.563c-.052.052-.128.052-.232,0a5.609,5.609,0,0,0-3.79.39,4.629,4.629,0,0,0-2.866,2.784,1.544,1.544,0,0,0-.081.779,4.57,4.57,0,0,0,.389,3.325,6.31,6.31,0,0,0,2.866,2.941.3.3,0,0,1,.227.308,21.327,21.327,0,0,0,.314,5.65l.076.389a5.8,5.8,0,0,0-2.633,3.174,5.375,5.375,0,0,0,.081,4.1l.227.541a5.424,5.424,0,0,0,6.969,2.011l.157-.075.157.075a19.274,19.274,0,0,0,4.33,3.871c.209.151.314.285.314.384a6.487,6.487,0,0,0,.227,3.871l.081.157a5.724,5.724,0,0,0,3.174,2.784l.232.081a6.682,6.682,0,0,0,1.546.308,5.211,5.211,0,0,0,2.319-.616,6.253,6.253,0,0,0,2.557-2.941l.157-.157h.308a31.7,31.7,0,0,0,5.882-.389l.233.308a6.5,6.5,0,0,0,3.092,2.482,4.6,4.6,0,0,0,4.028-.157l.308-.157a4.728,4.728,0,0,0,2.476-2.866,5.126,5.126,0,0,0-.076-4.179v-.384l.157-.232a17.5,17.5,0,0,0,3.557-4.26l.233.081a7.313,7.313,0,0,0,4.336-.541,5.878,5.878,0,0,0,2.552-3.1l.081-.308A4.715,4.715,0,0,0,338.3,2019.036ZM335.6,2021.9v.233a2.417,2.417,0,0,1-1.238,1.238,2.927,2.927,0,0,1-2.011.233,2.933,2.933,0,0,0-3.406,1.238,16.379,16.379,0,0,1-3.174,3.714l-.232.232a7.877,7.877,0,0,0-.849,1.313l-.081.546.081,1.47.076.384a2.3,2.3,0,0,1,.157,2.011,2.333,2.333,0,0,1-.93,1.238l-.157.081-.232.076a1.643,1.643,0,0,1-1.622.081,3.572,3.572,0,0,1-1.709-1.4c-.872-1.447-2.011-1.964-3.4-1.546a31.361,31.361,0,0,1-4.952.383c-1.348-.413-2.43.1-3.255,1.546l-.157.232a2.766,2.766,0,0,1-1.238,1.552,2.009,2.009,0,0,1-1.628.076c0-.052-.076-.076-.232-.076a2.416,2.416,0,0,1-1.314-1.162,4.257,4.257,0,0,1-.076-2.168,3.276,3.276,0,0,0-1.471-3.406,15.471,15.471,0,0,1-3.8-3.325,2.931,2.931,0,0,0-3.639-.854,4.165,4.165,0,0,1-2.087.232,2.417,2.417,0,0,1-1.238-1.162l-.157-.233a3.114,3.114,0,0,1,0-1.7,3.971,3.971,0,0,1,1.471-1.7,3.078,3.078,0,0,0,1.238-3.4,18.058,18.058,0,0,1-.308-4.877,3.019,3.019,0,0,0-1.7-3.174,4.018,4.018,0,0,1-1.627-1.7,2.093,2.093,0,0,1-.157-1.552l.081-.383a3.163,3.163,0,0,1,1.157-.773l.157-.081a2.3,2.3,0,0,1,1.7-.157,2.659,2.659,0,0,0,3.412-1.389,27.683,27.683,0,0,1,3.639-3.871l.157-.076a3.834,3.834,0,0,0,1.006-3.255,3.275,3.275,0,0,1-.081-2.319,2.276,2.276,0,0,1,1.006-1.162h.233a1.954,1.954,0,0,1,1.395-.157,4.11,4.11,0,0,1,1.779,1.47,2.936,2.936,0,0,0,3.325,1.238,15.6,15.6,0,0,1,4.958-.384,3.107,3.107,0,0,0,3.174-1.7,4.8,4.8,0,0,1,1.628-1.627,1.878,1.878,0,0,1,1.465-.308l.471.232c.308,0,.593.279.849.849a3.586,3.586,0,0,1,.308,2.325,3.383,3.383,0,0,0,.076,1.622l.233.465a14.676,14.676,0,0,0,1.006,1.162,19.568,19.568,0,0,1,3.72,3.406l.076.151a3.819,3.819,0,0,0,3.406.936,4.346,4.346,0,0,1,2.319,0,2.733,2.733,0,0,1,1.395,1v.157a1.8,1.8,0,0,1,0,1.628,3.426,3.426,0,0,1-1.395,1.471,3.1,3.1,0,0,0-1.389,3.406,19.455,19.455,0,0,1,.384,5.26,3.166,3.166,0,0,0,1.7,3.255l.157.076a2.9,2.9,0,0,1,1.546,1.162A2.383,2.383,0,0,1,335.6,2021.9Z" transform="translate(-219.348 -1945.724)"/><path class="c" d="M415.619,2069.626a10.282,10.282,0,0,0-4.877-2.168.65.65,0,0,1-.622-.541,22.381,22.381,0,0,0-3.168-6.894l-.081-.773.157-.465a9.179,9.179,0,0,0,1.389-4.952,5.467,5.467,0,0,0-1.779-4.255l-.151-.081a7.09,7.09,0,0,0-4.412-1.628q-.078-.07-.314,0a9.908,9.908,0,0,0-4.72,1.86q-.462.392-.7.157l-.157-.082a31.571,31.571,0,0,0-7.353-2.627,1,1,0,0,1-.849-.7,9.274,9.274,0,0,0-2.249-4.487,6.965,6.965,0,0,0-4.33-1.7.863.863,0,0,0-.622.227h-.076a6.541,6.541,0,0,0-3.871,1.86,8.126,8.126,0,0,0-2.092,4.8,2.564,2.564,0,0,1-.773.541,35.821,35.821,0,0,0-7.271,3.092l-.157.157a.631.631,0,0,1-.389.232c-.1,0-.256-.1-.465-.308a7.35,7.35,0,0,0-4.255-1.395,5.889,5.889,0,0,0-4.952,1.778l-.233.314a6.953,6.953,0,0,0-1.319,4.254,8.117,8.117,0,0,0,1.779,5.034c.262.36.285.668.081.924a26.369,26.369,0,0,0-2.633,7.05.784.784,0,0,1-.616.692,7.411,7.411,0,0,0-4.644,2.476,6.715,6.715,0,0,0-1.779,4.569v.308a6.053,6.053,0,0,0,2.011,4.493,7.6,7.6,0,0,0,4.8,1.7.774.774,0,0,1,.773.7,23.509,23.509,0,0,0,3.249,6.969.883.883,0,0,1,0,1.005,8.053,8.053,0,0,0-1.628,4.8,7.047,7.047,0,0,0,2.092,4.8l.465.308a5.8,5.8,0,0,0,4.336,1.4,7.461,7.461,0,0,0,4.644-2.011c.36-.261.616-.337.773-.233l.157.076a26.94,26.94,0,0,0,7.2,2.708,1.235,1.235,0,0,1,.773.93,6.812,6.812,0,0,0,2.244,4.568,6.375,6.375,0,0,0,4.569,1.854l.465-.075a5.887,5.887,0,0,0,4.412-2.087,8.806,8.806,0,0,0,1.936-4.958l.157-.465.308-.308a28.53,28.53,0,0,0,6.812-3.174.651.651,0,0,1,.849,0,7.164,7.164,0,0,0,5.109,1.627,6.2,6.2,0,0,0,4.644-2.168l.308-.465a5.578,5.578,0,0,0,1.546-3.871l-.076-.227a7.6,7.6,0,0,0-2.087-4.568,1.357,1.357,0,0,1-.081-1.006l.081-.081a27.184,27.184,0,0,0,2.627-7.5,1.007,1.007,0,0,1,.854-.622,8.5,8.5,0,0,0,4.179-2.168,5.788,5.788,0,0,0,2.087-4.331S416.962,2071.12,415.619,2069.626Zm-.93,4.871a2.934,2.934,0,0,1-1.081,2.162,6.383,6.383,0,0,1-2.709,1.4,3.915,3.915,0,0,0-3.255,2.633v.157a23.908,23.908,0,0,1-2.319,6.882,3.539,3.539,0,0,0,.232,4.26l.151.157a4.179,4.179,0,0,1,1.244,2.935,2.93,2.93,0,0,1-.854,2.017l-.308.465a3.26,3.26,0,0,1-2.325,1.005,4.224,4.224,0,0,1-3.092-1.005,3.259,3.259,0,0,0-4.26-.233,25.244,25.244,0,0,1-6.033,2.784,4.412,4.412,0,0,0-2.092,1.627,3.561,3.561,0,0,0-.616,2.011,6.362,6.362,0,0,1-1.162,3.023,3.087,3.087,0,0,1-2.4,1.162h-.465a3.1,3.1,0,0,1-2.244-1.011,4.66,4.66,0,0,1-1.395-2.941,3.909,3.909,0,0,0-3.017-3.325,24.418,24.418,0,0,1-6.423-2.4,3.447,3.447,0,0,0-4.412.465,4.262,4.262,0,0,1-2.79,1.4,3.024,3.024,0,0,1-2.319-1.006l-.465-.314a3.127,3.127,0,0,1-.93-2.319,4.743,4.743,0,0,1,1.006-2.941,3.455,3.455,0,0,0,.076-4.411,23.808,23.808,0,0,1-2.784-6.19,3.818,3.818,0,0,0-3.563-2.79,4.558,4.558,0,0,1-2.86-1.081,2.943,2.943,0,0,1-1.087-2.168v-.308a3.391,3.391,0,0,1,1.087-2.476,4.1,4.1,0,0,1,2.784-1.628,3.66,3.66,0,0,0,3.092-2.941,22.719,22.719,0,0,1,2.325-6.19,3.76,3.76,0,0,0-.308-4.336,4.932,4.932,0,0,1-1.162-3.255,3.42,3.42,0,0,1,.773-2.395l.157-.232a3,3,0,0,1,2.476-.622,4.294,4.294,0,0,1,2.552.773,3.329,3.329,0,0,0,4.493.081,39.665,39.665,0,0,1,6.58-2.865q2.555-.854,2.709-3.017a4.617,4.617,0,0,1,1.395-2.941,3.054,3.054,0,0,1,2.087-1.087l.622-.076a3.529,3.529,0,0,1,1.779.93,4.906,4.906,0,0,1,1.471,2.86l.076.232a4,4,0,0,0,2.941,2.709,26.938,26.938,0,0,1,6.58,2.319,3.464,3.464,0,0,0,4.255-.308,5.382,5.382,0,0,1,3.1-1.238,4.872,4.872,0,0,1,2.552.93l.157.157a2.077,2.077,0,0,1,.7,1.854,6.672,6.672,0,0,1-.93,3.331,3.575,3.575,0,0,0-.773,2.244l.076.157a4.348,4.348,0,0,0,.389,1.622l.151.389a19.336,19.336,0,0,1,2.866,6.271,3.624,3.624,0,0,0,3.255,2.552,6.626,6.626,0,0,1,3.1,1.47,4.458,4.458,0,0,1,1.157,2.243ZM394.8,2061.57a18.2,18.2,0,0,0-13.781-4.562,17.174,17.174,0,0,0-12.77,6.5,17.678,17.678,0,0,0-4.569,13.7,18.354,18.354,0,0,0,6.5,12.851,18.553,18.553,0,0,0,12.3,4.487,8.414,8.414,0,0,0,1.314-.076,18.539,18.539,0,0,0,12.927-6.423,17.966,17.966,0,0,0,4.417-13.624A18.218,18.218,0,0,0,394.8,2061.57Zm-.308,24.459a16.114,16.114,0,0,1-10.916,5.5,15.164,15.164,0,0,1-11.381-3.8,15.554,15.554,0,0,1-1.7-22.291,15.159,15.159,0,0,1,10.759-5.493h1.319a15.052,15.052,0,0,1,10.218,3.946,15.466,15.466,0,0,1,5.417,10.759A15.187,15.187,0,0,1,394.491,2086.029Z" transform="translate(-244.339 -1967.363)"/></svg>