<svg xmlns="http://www.w3.org/2000/svg" viewBox="0 0 501.8 501.8"><defs><style>.cls-1{fill:#e96666;opacity:0.3;}.cls-2{fill:#fff;stroke:#e96666;stroke-miterlimit:10;stroke-width:6px;}</style></defs><title>fast development cycle</title><g id="Layer_5" data-name="Layer 5"><path class="cls-1" d="M108.59,76.3c53.85-7.39,71.08,55.14,161.81,85.48,43.38,14.51,92.89,3,134.46,23.77,39.73,19.82,69.62,66.29,70.13,110.59.6,51.86-35.53,87.53-42.74,94.65-64.78,63.94-190.2,63.18-276.83,11.49C63.57,347.47-.72,226,35.05,143.16,36.46,139.9,62.05,82.68,108.59,76.3Z"/><rect class="cls-2" x="71.56" y="102.79" width="97.63" height="97.63" rx="10" ry="10"/><rect class="cls-2" x="71.56" y="211.83" width="97.63" height="97.63" rx="10" ry="10"/><rect class="cls-2" x="71.56" y="320.88" width="97.63" height="97.63" rx="10" ry="10"/><rect class="cls-2" x="194.56" y="88.65" width="97.63" height="97.63" rx="10" ry="10" transform="translate(210.06 -140.05) rotate(53.7)"/><rect class="cls-2" x="178.71" y="211.83" width="97.63" height="97.63" rx="10" ry="10"/><rect class="cls-2" x="178.71" y="320.88" width="97.63" height="97.63" rx="10" ry="10"/><rect class="cls-2" x="334.67" y="62.89" width="97.63" height="97.63" rx="10" ry="10" transform="matrix(-0.08, 1, -1, -0.08, 524.4, -262.04)"/><rect class="cls-2" x="301.61" y="199.93" width="97.63" height="97.63" rx="10" ry="10" transform="translate(222.85 -161.62) rotate(37.36)"/><rect class="cls-2" x="285.86" y="320.88" width="97.63" height="97.63" rx="10" ry="10"/></g></svg>