<svg xmlns="http://www.w3.org/2000/svg" viewBox="0 0 501.8 501.8"><defs><style>.cls-1{fill:#bd9788;opacity:0.37;}.cls-2,.cls-3{fill:#fff;stroke-miterlimit:10;stroke-width:6px;}.cls-2{stroke:#d97b59;}.cls-3{stroke:#c75c30;}.cls-4{font-size:61px;font-family:GillSans-SemiBold, Gill Sans;}.cls-4,.cls-7{fill:#c75c30;}.cls-5{font-weight:700;}.cls-6{font-size:60px;font-family:GillSans, Gill Sans;}</style></defs><title>native performance_1</title><g id="Layer_9" data-name="Layer 9"><path class="cls-1" d="M28.66,192.78c8.47-45.6,31-94.11,69.87-123.84,25.72-19.7,63.08-31.48,96.22-27.26,17,2.17,32.9,8.93,44.16,21.41,16.46,18.25,9.39,38.54,11.14,60.43,1.36,17.07,9.73,33,19.83,47.2,21.79,30.69,54.17,56,91.72,67.48,26.53,8.08,87.21-3.9,106.64,16.08,20.08,20.65-6.76,87-51.93,128.92-54.38,50.52-125.86,54.89-157.94,56.85-35.47,2.17-89.61,5.48-141-26.79-46.44-29.17-64.79-71.15-74-92.26A220.86,220.86,0,0,1,28.66,192.78Z"/><circle class="cls-2" cx="237.11" cy="263.84" r="195"/><path class="cls-3" d="M293.42,228.75v68.51H107.57a10.39,10.39,0,0,1-10.38-10.38V256.46a12.41,12.41,0,0,1,12.4-12.41h44.76l15.24-60.15a14.13,14.13,0,0,1,13.71-10.66h81A15.72,15.72,0,0,1,280.05,189v39.79Z"/><rect class="cls-3" x="293.9" y="205" width="33.08" height="74.11" rx="12" ry="12"/><circle class="cls-3" cx="141.44" cy="306.2" r="20.56"/><circle class="cls-3" cx="232.58" cy="306.2" r="20.56"/><rect class="cls-3" x="88.24" y="273.56" width="6.26" height="16.09" rx="2.33" ry="2.33"/><path class="cls-3" d="M188,194l-8.73,30.88a3.09,3.09,0,0,0,3,3.88h24.12a3.11,3.11,0,0,0,3.14-3.07V194.81a3.11,3.11,0,0,0-3.14-3.07H191A3.13,3.13,0,0,0,188,194Z"/><rect class="cls-3" x="225.62" y="191.74" width="29.64" height="37.01" rx="2" ry="2"/><text class="cls-4" transform="translate(166.22 385.92)"><tspan class="cls-5">60 </tspan><tspan class="cls-6" x="81.34" y="0">FPS</tspan></text><path class="cls-7" d="M336.36,216.7l-.06,3.42a1,1,0,0,0,1.1,1l41.42-4.26a.2.2,0,0,0,0-.39l-41.43-.76A1,1,0,0,0,336.36,216.7Z"/><path class="cls-7" d="M336.33,230.34v2.9a1,1,0,0,0,1.07,1l57.92-4.49a.2.2,0,0,0,0-.39h-58A1,1,0,0,0,336.33,230.34Z"/><path class="cls-7" d="M336.33,246.53V249a1,1,0,0,0,1.05,1l74.19-4.06a.2.2,0,0,0,0-.4H337.32A1,1,0,0,0,336.33,246.53Z"/></g></svg>