<svg xmlns="http://www.w3.org/2000/svg" viewBox="0 0 501.8 501.8"><defs><style>.cls-1{fill:#ffa773;opacity:0.3;}.cls-2,.cls-3{fill:#fff;}.cls-2,.cls-4,.cls-5{stroke:#ffa773;}.cls-2{stroke-miterlimit:10;}.cls-2,.cls-5{stroke-width:6px;}.cls-4,.cls-5{fill:none;stroke-linecap:round;stroke-linejoin:round;}.cls-4{stroke-width:3px;}</style></defs><title>document</title><g id="Layer_13" data-name="Layer 13"><path class="cls-1" d="M250.43,64.19c21.77-6.71,80.31-24.77,142.74-.4,8.77,3.42,74.17,29.75,72.32,62.73-1.34,24-37.82,40.5-77.82,58.54a195.19,195.19,0,0,1-52.12,15.42c-18.64,2.76-34.87,13.34-47.89,26.59-38.76,39.42-72.88,96.82-75.82,153.13C208.21,449.58,99.92,464.09,57,424c-41.11-38.38-16.32-103.67-1-148.15,12-34.81,33.2-65.62,55.32-94.69,19.71-25.89,35.79-56.42,61.63-76.92A231.54,231.54,0,0,1,250.43,64.19Z"/><rect class="cls-2" x="130.27" y="39.17" width="259.17" height="380.89" rx="18" ry="18"/><path class="cls-3" d="M303.53,460.83H133.38q-6-76-8.93-157.14c-2.85-83.21-2.59-162.82,0-238.47L276,64.86c47.31,0,85.66,34.77,85.66,77.66V408.16C361.62,437.25,335.61,460.83,303.53,460.83Z"/><path class="cls-2" d="M124.62,79.94H289.88a75.91,75.91,0,0,1,75.91,75.91V442.28a18.55,18.55,0,0,1-18.55,18.55H125.17a18.55,18.55,0,0,1-18.55-18.55V97.94A18,18,0,0,1,124.62,79.94Z"/><rect class="cls-4" x="153" y="196.76" width="170.76" height="13.32" rx="5.33" ry="5.33"/><rect class="cls-4" x="150.83" y="243.32" width="170.76" height="13.32" rx="5.33" ry="5.33"/><path class="cls-5" d="M290.15,85.14v63.14h0a15,15,0,0,0,15,15h57.61"/><rect class="cls-4" x="153" y="339.97" width="170.76" height="13.32" rx="5.33" ry="5.33"/><rect class="cls-4" x="153" y="294.12" width="170.76" height="13.32" rx="5.33" ry="5.33"/></g></svg>