<svg xmlns="http://www.w3.org/2000/svg" xmlns:xlink="http://www.w3.org/1999/xlink" viewBox="0 0 501.8 501.8"><defs><style>.cls-1,.cls-2,.cls-5{fill:none;}.cls-1,.cls-4,.cls-5{stroke:#3ec283;stroke-miterlimit:10;}.cls-1{stroke-width:3px;}.cls-3{fill:#3ec283;opacity:0.3;}.cls-4{fill:#fff;}.cls-4,.cls-5{stroke-width:6px;}.cls-6{clip-path:url(#clip-path);}.cls-7{clip-path:url(#clip-path-2);}</style><clipPath id="clip-path"><path class="cls-1" d="M123.18,175h0a7.59,7.59,0,0,0,6.54-9.24,42.75,42.75,0,0,1,40.63-52.36l.24,10a1.14,1.14,0,0,0,.47,1,1.07,1.07,0,0,0,1.21,0l20.29-17.87a1.33,1.33,0,0,0,.4-1,1.36,1.36,0,0,0-.45-.92L171.37,87.65a1.07,1.07,0,0,0-1.06-.09,1.08,1.08,0,0,0-.57,1.09l.24,9.48a56.49,56.49,0,0,0-24.29,5.71,57.26,57.26,0,0,0-24,22.43,57.94,57.94,0,0,0-6.79,42.88A7.6,7.6,0,0,0,123.18,175Z"/></clipPath><clipPath id="clip-path-2"><path class="cls-2" d="M25,260.06a21.57,21.57,0,0,1,22.7-22.7l165.54,0V419.4A22.7,22.7,0,0,0,236,442.09H47.72a23.76,23.76,0,0,1-17.15-7.83A23.28,23.28,0,0,1,25,419.4Z"/></clipPath></defs><title>responsive_2</title><g id="Layer_4" data-name="Layer 4"><path class="cls-3" d="M30.53,240.31c-3.86-13.67-5.81-27.76-3.7-41.93,2.57-17.22,13.78-45,36-35.12,13.73,6.09,22.2,19.61,34.37,27.82,39.19,26.45,87.91,21.87,132.57,18.35,4.68-.37,26.09-2.15,46.33-3.88,11.94-1,18.26-1.58,30.28-2.59,24.74-2.07,49.93-2.29,74.08,3.44,59.79,14.18,109.29,79.81,90.51,142.4-17.31,57.69-89.67,77.64-135,84.17-63.29,9.1-145.55,18.72-197.77-26.19-40.58-34.9-69.79-76.28-91.72-125.52C40.66,268.31,34.56,254.54,30.53,240.31Z"/><rect class="cls-4" x="224.23" y="57.91" width="198.54" height="381.08" rx="19.6" ry="19.6"/><rect class="cls-4" x="241.01" y="110.99" width="164.98" height="261.88"/><circle class="cls-1" cx="323.5" cy="404.11" r="14.75"/><circle class="cls-5" cx="329.76" cy="231.04" r="61.1"/><path class="cls-1" d="M369.35,218.14h0a3.1,3.1,0,0,0-.83,3,39.67,39.67,0,0,1,1.24,11A40,40,0,1,1,328.63,191a39.62,39.62,0,0,1,11.13,1.24,3.09,3.09,0,0,0,2.93-.82h0a3.12,3.12,0,0,0-1.47-5.23,46.17,46.17,0,1,0,33.39,33.39A3.14,3.14,0,0,0,369.35,218.14Z"/><path class="cls-1" d="M360.09,205.25a3.23,3.23,0,0,1,0,4.58l-34.55,34.55L321,249l-5.08-5.08-7.43-7.43a3.24,3.24,0,0,1,0-4.59h0a3.24,3.24,0,0,1,4.58,0l7.43,7.43L355,204.75a3.23,3.23,0,0,1,4.58,0Z"/><g class="cls-6"><path class="cls-1" d="M171.37,87.65l21.14,16.85a1.29,1.29,0,0,1,.05,1.91l-20.29,17.87a1,1,0,0,1-1.68-.92l-.24-10a42.77,42.77,0,1,0,2.1,85.51l.37,15.21A58,58,0,1,1,170,98.13l-.24-9.48C169.72,87.67,170.67,87.09,171.37,87.65Z"/></g><path class="cls-1" d="M123.18,175h0a7.59,7.59,0,0,0,6.54-9.24,42.75,42.75,0,0,1,40.63-52.36l.24,10a1.14,1.14,0,0,0,.47,1,1.07,1.07,0,0,0,1.21,0l20.29-17.87a1.33,1.33,0,0,0,.4-1,1.36,1.36,0,0,0-.45-.92L171.37,87.65a1.07,1.07,0,0,0-1.06-.09,1.08,1.08,0,0,0-.57,1.09l.24,9.48a56.49,56.49,0,0,0-24.29,5.71,57.26,57.26,0,0,0-24,22.43,57.94,57.94,0,0,0-6.79,42.88A7.6,7.6,0,0,0,123.18,175Z"/><path class="cls-5" d="M290.49,57.91s0,13.45,6,16.32h58.38s8.23,2.86,9.73-16.32Z"/><g class="cls-7"><rect class="cls-4" x="119.48" y="149.18" width="198.54" height="381.08" rx="19.6" ry="19.6" transform="translate(-120.97 558.48) rotate(-90)"/><rect class="cls-4" x="129.74" y="208.79" width="164.98" height="261.88" transform="translate(-127.5 551.95) rotate(-90)"/><path class="cls-5" d="M28.21,372.74s13.45,0,16.32-6V308.38s2.86-8.24-16.32-9.73Z"/></g></g></svg>