<svg xmlns="http://www.w3.org/2000/svg" viewBox="0 0 501.8 501.8"><defs><style>.cls-1,.cls-4{fill:#49739e;}.cls-1{opacity:0.3;}.cls-2,.cls-6{fill:#fff;}.cls-2,.cls-3,.cls-6{stroke:#49739e;stroke-miterlimit:10;}.cls-2{stroke-width:6px;}.cls-3{fill:none;}.cls-3,.cls-6{stroke-width:3px;}.cls-4{font-size:111.72px;font-family:GillSans-Light, Gill Sans;}.cls-5{font-size:28.09px;}</style></defs><title>reusable_1</title><g id="Layer_3" data-name="Layer 3"><path class="cls-1" d="M164.34,434.23c-12.07-1.9-83.1-16.55-119-76.28-18.14-30.16-37.12-93.4,5.35-113.43,13.66-6.44,21.58-1.67,51.78-1.56,62.64.24,111.86-29.2,136.26-43.8a355.55,355.55,0,0,0,65-50.6c27.18-26.76,33.53-40.91,62.85-62.06,11.47-8.27,32.45-21.73,59.72-22.62,9.28-.31,23.33-.94,33.72,8.41,10.82,9.74,13.24,23.61,14.21,34.53,4.35,48.64-10.87,99.11-32,142.53-1.45,3-9.26,16.66-21.37,33.58a394.83,394.83,0,0,1-43.37,50.29c-9.57,9.46-39.48,38.18-86.67,67-31.74,19.41-49.22,29.84-76.51,34.2A162.45,162.45,0,0,1,164.34,434.23Z"/><rect class="cls-2" x="266.54" y="84.8" width="153.47" height="156.26"/><path class="cls-2" d="M420,354.94v2.76a76.46,76.46,0,0,1-12,41.21l-64.74-42.59L407.55,313A76.16,76.16,0,0,1,420,354.94Z"/><path class="cls-2" d="M408,398.91a76.67,76.67,0,0,1-64.74,35.54V356.32Z"/><path class="cls-2" d="M343.28,356.32v78.13A76.63,76.63,0,0,1,279,399.61Z"/><path class="cls-2" d="M343.28,356.32,279,399.61a76.14,76.14,0,0,1-12.45-41.91v-2.76a76.38,76.38,0,0,1,12-41.21Z"/><rect class="cls-2" x="73.17" y="278.19" width="153.47" height="156.26"/><rect class="cls-2" x="73.39" y="84.8" width="153.47" height="156.26"/><polygon class="cls-3" points="193.05 118.62 193.05 135.8 160.22 135.8 160.22 218.86 140.02 218.86 140.02 135.8 105.98 135.8 105.98 118.62 193.05 118.62"/><text class="cls-4" transform="translate(293.89 186.84)">{ }<tspan class="cls-5" x="105.45" y="0"> </tspan></text><rect class="cls-6" x="98.18" y="311.25" width="100.67" height="13.49"/><rect class="cls-6" x="98.18" y="341.99" width="100.67" height="13.49"/><rect class="cls-6" x="98.18" y="374.47" width="30.18" height="13.49"/><rect class="cls-6" x="148.52" y="374.47" width="50.34" height="13.49"/><path class="cls-2" d="M343.28,278.19v78.13l-64.75-42.59A76.65,76.65,0,0,1,343.28,278.19Z"/><path class="cls-2" d="M407.78,312.75,343.52,356V277.92a76.67,76.67,0,0,1,64.26,34.83Z"/></g></svg>