<svg id="Layer_1" data-name="Layer 1" xmlns="http://www.w3.org/2000/svg" xmlns:xlink="http://www.w3.org/1999/xlink" viewBox="0 0 216.3 77.9"><defs><style>.cls-1{fill:none;}.cls-2{opacity:0;}.cls-3{fill:#fff;}.cls-4{fill:#47ca98;}.cls-5{clip-path:url(#clip-path);}.cls-6{fill:#39cefd;}.cls-11,.cls-7{fill:#1c9868;}.cls-8{fill:#21b57d;}.cls-9{fill:url(#linear-gradient);}.cls-10{fill:url(#radial-gradient);}.cls-11{isolation:isolate;font-size:27px;font-family:Roboto-Black, Roboto;font-weight:800;}</style><clipPath id="clip-path"><path class="cls-1" d="M78,37.2,65.9,49.3,78,61.4H64.2L59,56.2l-6.9-6.9L64.2,37.2ZM64.2,16.5,41.7,38.9l6.9,6.9L78,16.4H64.2Z"/></clipPath><linearGradient id="linear-gradient" x1="149067.29" y1="-134246.2" x2="149401.73" y2="-133911.76" gradientTransform="matrix(0.02, 0, 0, -0.02, -2235.23, -2010.34)" gradientUnits="userSpaceOnUse"><stop offset="0" stop-color="#18855b"/><stop offset="1" stop-color="#1c9868" stop-opacity="0"/></linearGradient><radialGradient id="radial-gradient" cx="147946.44" cy="-131852.34" r="3573.91" gradientTransform="matrix(0.02, 0, 0, -0.02, -2234.26, -2009.7)" gradientUnits="userSpaceOnUse"><stop offset="0" stop-color="#fff" stop-opacity="0.1"/><stop offset="1" stop-color="#fff" stop-opacity="0"/></radialGradient></defs><title>flutter</title><g class="cls-2"><path class="cls-3" d="M206.3,77.9H10a10,10,0,0,1-10-10V10A10,10,0,0,1,10,0H206.3a10,10,0,0,1,10,10V67.9A9.9,9.9,0,0,1,206.3,77.9Z"/></g><path class="cls-3" d="M206.3,77.9H10a10,10,0,0,1-10-10V10A10,10,0,0,1,10,0H206.3a10,10,0,0,1,10,10V67.9A9.9,9.9,0,0,1,206.3,77.9Z"/><path class="cls-1" d="M78,37.2,65.9,49.3,78,61.4H64.2L59,56.2l-6.9-6.9L64.2,37.2ZM64.2,16.5,41.7,38.9l6.9,6.9L78,16.4H64.2Z"/><path class="cls-4" d="M52.1,49.3,59,56.2l19-19H64.2Z"/><g class="cls-5"><path class="cls-6" d="M64.2,16.5H78L48.6,45.9,41.7,39Z"/></g><path class="cls-1" d="M78,37.2,65.9,49.3,78,61.4H64.2L59,56.2l-6.9-6.9L64.2,37.2ZM64.2,16.5,41.7,38.9l6.9,6.9L78,16.4H64.2Z"/><path class="cls-7" d="M59,56.2l5.2,5.2H78L65.9,49.3Z"/><path class="cls-1" d="M78,37.2,65.9,49.3,78,61.4H64.2L59,56.2l-6.9-6.9L64.2,37.2ZM64.2,16.5,41.7,38.9l6.9,6.9L78,16.4H64.2Z"/><path class="cls-1" d="M78,37.2,65.9,49.3,78,61.4H64.2L59,56.2l-6.9-6.9L64.2,37.2ZM64.2,16.5,41.7,38.9l6.9,6.9L78,16.4H64.2Z"/><polygon class="cls-4" points="64.2 16.5 41.7 38.9 48.6 45.9 78 16.5 64.2 16.5"/><path class="cls-8" d="M52.1,49.3,59,42.4l6.9,6.9L59,56.2Z"/><path class="cls-9" d="M69.2,52.7l-3.3-3.4L59,56.2Z"/><path class="cls-10" d="M78,37.2,65.9,49.3,78,61.4H64.2L59,56.2l-6.9-6.9L64.2,37.2ZM64.2,16.5,41.7,39l6.9,6.9L78,16.5Z"/><rect class="cls-1" x="91.4" y="26.3" width="83.3" height="32.1"/><text class="cls-11" transform="translate(91.39 46.91)">Flutter</text></svg>