<svg id="Layer_1" data-name="Layer 1" xmlns="http://www.w3.org/2000/svg" viewBox="0 0 216.2 78.19"><defs><style>.cls-1{opacity:0;}.cls-2{fill:#fff;}.cls-3,.cls-5{fill:#1c9868;}.cls-4{fill:none;}.cls-5{isolation:isolate;font-size:27px;font-family:Roboto-Black, Roboto;font-weight:800;}</style></defs><title>node</title><g class="cls-1"><path class="cls-2" d="M206.21,78H10A10,10,0,0,1,0,68V10A10,10,0,0,1,10,0H206.21a10,10,0,0,1,10,10V67.9A10,10,0,0,1,206.21,78Z"/></g><path class="cls-2" d="M206.21,78H10A10,10,0,0,1,0,68V10A10,10,0,0,1,10,0H206.21a10,10,0,0,1,10,10V67.9A10,10,0,0,1,206.21,78Z"/><path class="cls-3" d="M51.27,16.5a3.38,3.38,0,0,0-1.7.39l-16.5,9.5a3.41,3.41,0,0,0-1.7,3v19a3.6,3.6,0,0,0,1.7,3l4.3,2.5a7.36,7.36,0,0,0,3.8,1c3.1,0,4.9-1.89,4.9-5.2V30.89a.48.48,0,0,0-.5-.5h-2.1a.46.46,0,0,0-.5.4h0v18.8c0,1.5-1.5,2.9-4,1.7l-4.5-2.6c-.2-.1-.3-.2-.3-.4v-19a.55.55,0,0,1,.3-.5L51,19.29a.45.45,0,0,1,.5,0L68,28.79a.55.55,0,0,1,.3.5v19a.74.74,0,0,1-.2.5l-16.5,9.5a.45.45,0,0,1-.5,0l-4.2-2.5a.3.3,0,0,0-.4,0,8,8,0,0,1-2.5,1.1c-.3.11-.7.21.1.71l5.5,3.29a3.39,3.39,0,0,0,3.4,0l16.5-9.5a3.39,3.39,0,0,0,1.7-3v-19a3.63,3.63,0,0,0-1.7-3L53,16.89a4.7,4.7,0,0,0-1.7-.39Z"/><path class="cls-3" d="M55.67,30.09c-4.7,0-7.5,2-7.5,5.3,0,3.6,2.8,4.6,7.3,5.1,5.4.5,5.8,1.3,5.8,2.4,0,1.8-1.5,2.6-4.9,2.6-4.4,0-5.3-1.1-5.6-3.3a.46.46,0,0,0-.5-.4h-2.1a.48.48,0,0,0-.5.5c0,2.8,1.5,6.1,8.7,6.1,5.2,0,8.2-2.1,8.2-5.6s-2.4-4.5-7.5-5.2-5.6-1-5.6-2.2c0-1,.4-2.3,4.2-2.3,3.4,0,4.6.7,5.2,3a.46.46,0,0,0,.5.4h2.1a.76.76,0,0,0,.4-.2c.1-.1.1-.2.1-.4-.4-3.89-3-5.8-8.3-5.8Z"/><rect class="cls-4" x="78.7" y="27" width="106.2" height="32.1"/><text class="cls-5" transform="translate(78.67 47.58)">node Js</text></svg>