<svg id="Layer_1" data-name="Layer 1" xmlns="http://www.w3.org/2000/svg" viewBox="0 0 215.97 77.9"><defs><style>.cls-1{opacity:0;}.cls-2{fill:#fff;}.cls-3,.cls-5{fill:#1c9868;}.cls-4{fill:none;}.cls-5{isolation:isolate;font-size:27px;font-family:Roboto-Black, Roboto;font-weight:800;}.cls-6{letter-spacing:-0.01em;}</style></defs><title>react_native</title><g class="cls-1"><path class="cls-2" d="M206.3,77.9H10a10,10,0,0,1-10-10V10A10,10,0,0,1,10,0H206.3a10,10,0,0,1,10,10V67.9A10,10,0,0,1,206.3,77.9Z"/></g><path class="cls-2" d="M206.3,77.9H10a10,10,0,0,1-10-10V10A10,10,0,0,1,10,0H206.3a10,10,0,0,1,10,10V67.9A10,10,0,0,1,206.3,77.9Z"/><path class="cls-3" d="M29.4,33.8a4,4,0,1,0,4,4,3.93,3.93,0,0,0-3.9-4Zm0,0a4,4,0,1,0,4,4,3.93,3.93,0,0,0-3.9-4Zm0,0a4,4,0,1,0,4,4,3.93,3.93,0,0,0-3.9-4Zm0,0a4,4,0,1,0,4,4,3.93,3.93,0,0,0-3.9-4Zm0,0a4,4,0,1,0,4,4,3.93,3.93,0,0,0-3.9-4Zm0,0a4,4,0,1,0,4,4,3.93,3.93,0,0,0-3.9-4Zm0,0a4,4,0,1,0,4,4,3.93,3.93,0,0,0-3.9-4Zm0,0a4,4,0,1,0,4,4,3.93,3.93,0,0,0-3.9-4Zm0,0a4,4,0,1,0,4,4,3.93,3.93,0,0,0-3.9-4Zm0,0a4,4,0,1,0,4,4,3.93,3.93,0,0,0-3.9-4Zm21.5,1.3a7.52,7.52,0,0,0-1.6-1.5A20.57,20.57,0,0,0,43,30.5c-.4-.1-.6-.3-.4-.8a19.73,19.73,0,0,0,.6-4.8,10.43,10.43,0,0,0-1-5,3.92,3.92,0,0,0-3.5-2.1,8.53,8.53,0,0,0-3.5.8,22.86,22.86,0,0,0-5.4,3.8c-.2.2-.4.2-.7,0a19.86,19.86,0,0,0-2.7-2.2,12,12,0,0,0-5-2.3,4.13,4.13,0,0,0-5.1,2.7,8,8,0,0,0-.6,3,20.75,20.75,0,0,0,.6,6.1c.1.4,0,.5-.4.7a19.85,19.85,0,0,0-2.6.9,14.34,14.34,0,0,0-4.9,3.2,4.32,4.32,0,0,0-.9,5.3,6.48,6.48,0,0,0,1.7,2,17,17,0,0,0,6.7,3.4c.4.1.5.3.4.7a19.1,19.1,0,0,0-.6,5.8,7.65,7.65,0,0,0,.6,3,4.24,4.24,0,0,0,4.6,3,7.71,7.71,0,0,0,2.6-.7,20.4,20.4,0,0,0,5.8-3.9c.2-.2.4-.3.6,0a16.32,16.32,0,0,0,2,1.7,12.23,12.23,0,0,0,5.7,2.8,4.2,4.2,0,0,0,4.9-2.5,8.81,8.81,0,0,0,.8-3.9,16.91,16.91,0,0,0-.6-5.5c-.1-.4,0-.5.3-.6.6-.2,1.1-.4,1.7-.6a15.92,15.92,0,0,0,5.9-3.7,4.18,4.18,0,0,0,.3-5.7ZM31,23.9A16.81,16.81,0,0,1,37,20a4.13,4.13,0,0,1,1.9-.2,2,2,0,0,1,1.3.9,6.18,6.18,0,0,1,.9,2.7,7.57,7.57,0,0,1,.1,1.5,16.84,16.84,0,0,1-.6,4.5c-.1.3-.2.4-.5.3a30.79,30.79,0,0,0-5.3-.8.68.68,0,0,1-.6-.4,33.92,33.92,0,0,0-3.3-4.2c-.1-.1-.1-.2.1-.4ZM20.3,40.4c.7,1.4,1.6,2.8,2.5,4.3a25,25,0,0,1-3.8-.6c-.2,0-.3-.1-.3-.4l1.2-3.3C20.1,40.2,20.2,40.2,20.3,40.4ZM18.8,32c0-.2,0-.3.2-.3a25,25,0,0,1,3.8-.6c-.9,1.5-1.8,3-2.6,4.5A26.71,26.71,0,0,1,18.8,32Zm2.5,6.2a.85.85,0,0,1,0-.7A50.69,50.69,0,0,1,25,31.1a1,1,0,0,1,.7-.4c1.9-.1,3.8-.1,5.6-.1.6,0,1.2.1,1.7.1a.55.55,0,0,1,.5.3,61.12,61.12,0,0,1,3.8,6.5.64.64,0,0,1,0,.6,60.17,60.17,0,0,1-3.7,6.5.82.82,0,0,1-.6.4c-1.3.1-2.6.1-3.9.1-1.1,0-2.3,0-3.5-.1a.6.6,0,0,1-.6-.3c-1.3-2.1-2.6-4.3-3.7-6.5Zm14.9,6.1c.5-.9,1.1-1.8,1.6-2.7.3-.5.5-.9.8-1.5.5,1.2,1,2.4,1.4,3.6.1.2,0,.3-.2.4a21.36,21.36,0,0,1-3.5.6c-.4,0-.2-.3-.1-.4Zm2.2-9c-.7-1.4-1.6-2.8-2.5-4.3a25,25,0,0,1,3.8.6c.2,0,.3.2.2.4a17.55,17.55,0,0,1-1.2,3.2c0,.2-.1.3-.3.1Zm-9.2-9.5c.1-.1.2-.3.4-.1A21.72,21.72,0,0,1,32,28.6H30.1a26.2,26.2,0,0,0-2.8.1c-.1,0-.3.1-.3-.1s.1-.2.1-.3a16.38,16.38,0,0,1,2.1-2.5ZM18,21.5a2.35,2.35,0,0,1,2.9-1.7,10.83,10.83,0,0,1,3,1.1,18.19,18.19,0,0,1,3.8,2.9c.3.2.3.4,0,.7a30.19,30.19,0,0,0-3.2,3.9,1,1,0,0,1-.8.5,45,45,0,0,0-5.1.8.42.42,0,0,1-.6-.3,18.35,18.35,0,0,1-.6-4.7,11.34,11.34,0,0,1,.6-3.2ZM17,43.1c-.1.4-.3.5-.8.4a17.8,17.8,0,0,1-5.8-3,12,12,0,0,1-1.1-1.2,2.26,2.26,0,0,1,0-2.9,8.51,8.51,0,0,1,3.3-2.6,25,25,0,0,1,3.8-1.5c.3-.1.5-.1.6.3a41.4,41.4,0,0,0,1.9,4.9c.1.1.1.3.2.5s-.1.3-.1.4a18,18,0,0,0-2,4.7Zm10.9,8.7a16.13,16.13,0,0,1-6.1,3.8,4.13,4.13,0,0,1-1.9.2,2.09,2.09,0,0,1-1.6-1.1,8.38,8.38,0,0,1-.8-3.8,17.4,17.4,0,0,1,.6-4.5c.1-.4.3-.5.7-.4a29.78,29.78,0,0,0,5.1.7,1,1,0,0,1,.7.4A34.65,34.65,0,0,0,28,51.3a.75.75,0,0,1-.1.5Zm1.8-1.9c-.2.2-.3.3-.5,0-.7-.9-1.4-1.7-2.1-2.6-.1-.1-.2-.2-.1-.3a.19.19,0,0,1,.3,0,30.84,30.84,0,0,0,4.3,0c.2,0,.4-.1.5.1s-.1.3-.2.4c-.8.8-1.5,1.6-2.2,2.4Zm10.9,4.7a2.22,2.22,0,0,1-2.5,1.3,10.94,10.94,0,0,1-4.5-2.1c-.8-.6-1.6-1.2-2.4-1.9-.3-.2-.3-.4,0-.7a41.18,41.18,0,0,0,3.2-4.1.68.68,0,0,1,.6-.4,48.46,48.46,0,0,0,5.3-.8c.3-.1.5-.1.6.3a34.69,34.69,0,0,1,.6,4.5A12.36,12.36,0,0,1,40.6,54.6ZM49,39.7a10,10,0,0,1-3.3,2.4,22.56,22.56,0,0,1-3.3,1.3.42.42,0,0,1-.6-.3,41.4,41.4,0,0,0-1.9-4.9,1.1,1.1,0,0,1,0-.8,47.8,47.8,0,0,0,1.9-4.8.42.42,0,0,1,.6-.3,17.62,17.62,0,0,1,6.1,3.1A5.09,5.09,0,0,1,49.8,37a2.92,2.92,0,0,1,.2.9,3.62,3.62,0,0,1-1,1.8ZM29.4,41.8a4,4,0,1,0-4-4h0a4,4,0,0,0,3.9,4Zm0-8a4,4,0,1,0,4,4,3.93,3.93,0,0,0-3.9-4Zm0,0a4,4,0,1,0,4,4,3.93,3.93,0,0,0-3.9-4Zm0,0a4,4,0,1,0,4,4,3.93,3.93,0,0,0-3.9-4Zm0,0a4,4,0,1,0,4,4,3.93,3.93,0,0,0-3.9-4Zm0,0a4,4,0,1,0,4,4,3.93,3.93,0,0,0-3.9-4Zm0,0a4,4,0,1,0,4,4,3.93,3.93,0,0,0-3.9-4Zm0,0a4,4,0,1,0,4,4,3.93,3.93,0,0,0-3.9-4Zm0,0a4,4,0,1,0,4,4,3.93,3.93,0,0,0-3.9-4Z"/><path class="cls-3" d="M33.4,37.8a4,4,0,1,1-4-4,3.91,3.91,0,0,1,4,3.8Z"/><path class="cls-3" d="M33.4,37.8a4,4,0,1,1-4-4,3.91,3.91,0,0,1,4,3.8Z"/><rect class="cls-4" x="55.4" y="27.7" width="154.1" height="32.4"/><text class="cls-5" transform="translate(55.41 48.27)">React Nati<tspan class="cls-6" x="126.02" y="0">v</tspan><tspan x="139.73" y="0">e</tspan></text></svg>