<svg id="Layer_1" data-name="Layer 1" xmlns="http://www.w3.org/2000/svg" viewBox="0 0 216.3 77.9"><defs><style>.cls-1{opacity:0;}.cls-2{fill:#fff;}.cls-3{fill:#47ca98;}.cls-4,.cls-6{fill:#1c9868;}.cls-5{fill:none;}.cls-6{isolation:isolate;font-size:27px;font-family:Roboto-Black, Roboto;font-weight:800;}.cls-7{letter-spacing:-0.01em;}</style></defs><title>vue</title><g class="cls-1"><path class="cls-2" d="M206.4,77.9H10a10,10,0,0,1-10-10V10A10,10,0,0,1,10,0H206.3a10,10,0,0,1,10,10V67.9A9.82,9.82,0,0,1,206.4,77.9Z"/></g><path class="cls-2" d="M206.4,77.9H10a10,10,0,0,1-10-10V10A10,10,0,0,1,10,0H206.3a10,10,0,0,1,10,10V67.9A9.82,9.82,0,0,1,206.4,77.9Z"/><polygon class="cls-3" points="83.7 17 61.2 56 38.7 17 56 17 61.2 26.1 66.4 17 83.7 17"/><polygon class="cls-4" points="74.8 17 61.2 40.5 47.7 17 56 17 61.2 26.1 66.4 17 74.8 17"/><rect class="cls-5" x="90.5" y="28.8" width="87.2" height="32.1"/><text class="cls-6" transform="translate(90.48 49.35)"><tspan class="cls-7">V</tspan><tspan x="16.86" y="0">ue JS</tspan></text></svg>