<svg id="Layer_1" data-name="Layer 1" xmlns="http://www.w3.org/2000/svg" xmlns:xlink="http://www.w3.org/1999/xlink" viewBox="0 0 640.27 578.11"><defs><style>.cls-1{fill:#3d2559;}.cls-2{fill:#42526e;}.cls-3{fill:#ff5745;}.cls-4{fill:#f94b3e;}.cls-5{fill:url(#linear-gradient);}.cls-6{fill:#3dc7dc;}.cls-7{fill:#58cfe1;}.cls-8{fill:#c1edf4;}.cls-9{fill:#9ae2ed;}.cls-10{fill:#ace7f0;}.cls-11{fill:#f0d0b4;}.cls-12{fill:#f5e0cd;}.cls-13{fill:#172b4d;}.cls-14{fill:url(#linear-gradient-2);}.cls-15{fill:#a27f68;}.cls-16{fill:#e23b6f;}.cls-17{fill:#091e42;}.cls-18{fill:url(#linear-gradient-3);}.cls-19{fill:#8c715d;}</style><linearGradient id="linear-gradient" x1="-643.49" y1="544.98" x2="-642.49" y2="544.98" gradientTransform="matrix(76.64, 0, 0, -68.34, 48736.85, 37595.19)" gradientUnits="userSpaceOnUse"><stop offset="0" stop-color="#81dbe8"/><stop offset="0.41" stop-color="#81dbe8"/><stop offset="0.66" stop-color="#75d7e6"/><stop offset="0.87" stop-color="#6ed5e5"/><stop offset="1" stop-color="#58cfe1"/></linearGradient><linearGradient id="linear-gradient-2" x1="-642.2" y1="545.55" x2="-641.2" y2="545.55" gradientTransform="matrix(27.06, 0, 0, -31.49, 16660.43, 17443.85)" gradientUnits="userSpaceOnUse"><stop offset="0" stop-color="#72594b"/><stop offset="0.56" stop-color="#8c715d"/></linearGradient><linearGradient id="linear-gradient-3" x1="-627.44" y1="544.86" x2="-626.44" y2="544.86" gradientTransform="matrix(60.64, 0, 0, -91.41, 38064.14, 50116.03)" gradientUnits="userSpaceOnUse"><stop offset="0" stop-color="#ff991f"/><stop offset="0.77" stop-color="#ffc400"/></linearGradient></defs><title>characaboutassets</title><g id="Group_6398" data-name="Group 6398"><path id="Path_5015" data-name="Path 5015" class="cls-1" d="M546.09,371.77a302.74,302.74,0,0,1-7.32,54.78c-2.28,9.94-5.07,19.9-5.11,30.11,0,8.54,1.86,17,2.09,25.51.29,10.8,2.07,14.65,1.32,25.42-.38,5.47-2.46,14.16-.9,19.42s-5.22,16-.44,18.64c3.84,2.17,16.38.73,20.79.72,3.18,0,6.52-.35,9.15-2.14,5.12-3.47,5.57-10.71,5.51-16.9l-.35-34.12a62.66,62.66,0,0,0-1.05-13.11c-.93-4.14-2.7-8-3.8-12.13-4.8-17.68,3-36.28,2.3-54.59-2.45,13.66,5.07,27,7,40.7,1,7.14.51,14.57,2.86,21.39,3.86,11.18,14.75,19,18,30.33,1.16,4,1.67,11.86,4.74,14.7,4.35,4,11.14-1.17,16.56-3.57,4-1.75,12-3.6,12.58-7.89.28-2-4-4.73-4.66-6.66L618.5,482.3a100.88,100.88,0,0,0-5-12.74c-2.86-5.7-6.81-10.94-8.46-17.1-1.91-7.14-.5-14.71-.82-22.1-.3-6.76-2.06-13.38-3-20.09-1.38-10.17-.81-20.48-.57-30.74a7.83,7.83,0,0,0-.52-3.68c-1.42-2.84-5.39-2.89-8.54-2.53L576.84,375c-11.16,1.29-23.62,2.22-32.43-4.74L545,373"/><g id="Group_6397" data-name="Group 6397"><path id="Path_5016" data-name="Path 5016" class="cls-2" d="M559.49,530.36l-.38,4.22c-.51,6.25-.72,9.38-1.14,15.12-.13,1.82-.38,4.82-.68,8.45l-11.44-1.44c-.17-3-.36-6.12-.59-9.25q-.72-9-1.73-17.4C548.85,530.11,554.17,530.06,559.49,530.36Z"/><path id="Path_5017" data-name="Path 5017" class="cls-2" d="M620.51,505.57l1.94,3.93c2.57,5.62,4.22,8.36,6.8,13.51l3.84,7.77-10.56,4.65q-2.53-3.76-5.23-7.6-5.19-7.35-10.39-14C611.47,511.11,616,508.32,620.51,505.57Z"/><path id="_Path_12" data-name=" Path 12" class="cls-1" d="M614.34,475.21C620,489.44,624.26,501.14,627,509l-22.13,11.87q-6.54-13.1-13-26.81-7.82-16.56-14.91-32.64c-2-7.77-3.84-16-5.49-24.66q-2.16-11.53-3.59-22.13c-1.48,16.3-2.57,33.48-3,51.56-.68,26.52,0,51.39,1.48,74.27a41.63,41.63,0,0,1-23.82,2.66c-2.4-22.54-3.33-42.31-3.63-58.48-.17-11.06-.21-28,.93-48.35.89-16.26,2.28-29.9,3.34-40.62,1-9.92,2-18.33,2.74-24.58a56.84,56.84,0,0,0,51.56,1.14c1,9.13,2.28,20.86,3.59,34.46,2.2,22.68-.09,31.42,4.52,46.83C607.33,459.46,607.88,459.21,614.34,475.21Z"/><path id="_Path_13" data-name=" Path 13" class="cls-3" d="M553.74,279.38a8.45,8.45,0,0,0-8.78,8.1h0c-.19,1-.33,2-.42,3.08a26.27,26.27,0,0,0,0,6.63c.3.89.3,6.33.3,17.18.17,13.43-4.39,53.89-4.94,58.74a57.76,57.76,0,0,0,35.26,8.83A56.84,56.84,0,0,0,601.21,373c.13-8.19.42-15,.68-20,.5-6.75,1.48-23.56,4.22-45.43.13-.93.72-4.22,1.14-8.45a43.35,43.35,0,0,0,.47-6.92q-3.21-2.25-6.72-4.48c-5.15-3.12-10.13-6-15-8.44l-5.4,3.33a14.82,14.82,0,0,1-19.21-3.21h-7.22Z"/><path id="Path_5018" data-name="Path 5018" class="cls-4" d="M512.66,320.92c1.94-4.56,4.6-4.23,12.42-12A82.67,82.67,0,0,0,539.94,291a74.68,74.68,0,0,1,7.47-9l.93,34.5c-3.92,4.22-8.7,9.33-15.16,16.09a20.6,20.6,0,0,1-11.82,7.73,15.18,15.18,0,0,1-6.25-.47A23.16,23.16,0,0,1,512.66,320.92Z"/><g id="Group_6396" data-name="Group 6396"><path id="_Path_17" data-name=" Path 17" class="cls-5" d="M556.65,316.91,547,378.65c-.58,3.71-13.41,6.6-28.7,6.6s-28.12-2.89-28.7-6.6L480,316.91Z"/><path id="Path_5019" data-name="Path 5019" class="cls-6" d="M518.36,312.84c-22.27,0-39.34,2.09-38.32,4.31s18.17,3.93,38.32,3.93,37.3-1.73,38.32-3.93S540.63,312.84,518.36,312.84Z"/><path id="Path_5020" data-name="Path 5020" class="cls-7" d="M495.21,305.22l.36,15.06L492,320l-5.15-34.58,5.26-.77Z"/><path id="Path_5021" data-name="Path 5021" class="cls-8" d="M500.66,310.47v10l-5.14-.36-.36-15.06-.52-22h5.3Z"/><path id="Path_5022" data-name="Path 5022" class="cls-9" d="M534.08,283.86l5.25.77-5.25,36.07-5.5.22Z"/><path id="Path_5023" data-name="Path 5023" class="cls-10" d="M505.93,320.84l-5.3-.25v-10l-.19-34.44h5.3Z"/><path id="Path_5024" data-name="Path 5024" class="cls-7" d="M526.06,321h-5.31l-.19-32.3h5.5Z"/></g><path id="Path_5025" data-name="Path 5025" class="cls-11" d="M561.4,279.75c.93-.93,1.31-2,1.31-5.15a53.31,53.31,0,0,0-.34-7.47l24.37-6a50,50,0,0,0,0,29,17.69,17.69,0,0,1-18.29,2.91,18.37,18.37,0,0,1-10.17-12.67A4.2,4.2,0,0,0,561.4,279.75Z"/><path id="_Path_14" data-name=" Path 14" class="cls-12" d="M580,274.29a14.62,14.62,0,0,1,2.66-1.83c4.11-2.37,6.94-8.22,6.94-8.22h0l.33-.77h0c.25-.4.48-.8.7-1.21a19.76,19.76,0,0,0-8.09-26.75c-.51-.28-1-.53-1.57-.76a18.58,18.58,0,0,0-24.38,9.8,20.69,20.69,0,0,0-1.46,6.4l-.1,1.18a40.78,40.78,0,0,1-2.27,5.52c-.8,1.41-1.5,2.11-.94,2.92s2.67.45,3.41.3c.21,1.38.5,3.36.93,5.68a20.66,20.66,0,0,0,2.1,7.78c1.13,1.12,2.51,1.6,13.24,1.12C576.83,275.17,577.8,275.32,580,274.29Z"/><path id="Path_5026" data-name="Path 5026" class="cls-13" d="M589.61,263.27l-.33.78h0c-.45.3-3.83,2.58-5.88,1.38-2.71-1.47-.87-7.92-3-8.75-.9-.33-2.17.57-3.24,1.62L574,258a28.93,28.93,0,0,0-.64-7c-.84-3.93-2.09-7.48-3.73-8.09s-2.64.57-9.67,2.91a28.67,28.67,0,0,1-4.35,1.22,16.77,16.77,0,0,1,.87-2.59,17.4,17.4,0,0,1,.75-1.57,18.58,18.58,0,0,1,25.19-7.48c.41.22.82.45,1.21.7a19.77,19.77,0,0,1,6.19,27.25h0Z"/><path id="_Path_15" data-name=" Path 15" class="cls-13" d="M522.33,568.32c2.83-4.26,10.6-1.1,16.13-5.06,2.24-1.53,4.86-4.9,5.4-12.67l13.81-.55a1.15,1.15,0,0,1,.89,0q2.91.84-.89,24.53H521.74A7.53,7.53,0,0,1,522.33,568.32Z"/><path id="_Path_16" data-name=" Path 16" class="cls-13" d="M608.38,553.75c-.25-5.28,7.86-7.22,9.93-13.72.93-2.7.93-6.93-3.3-13.52l10.73-8.7a1.15,1.15,0,0,1,.59-.67q2.83-.89,13.94,20.22l-28.85,21.46A7.63,7.63,0,0,1,608.38,553.75Z"/><path id="Path_5027" data-name="Path 5027" class="cls-11" d="M592.76,327.8a65.9,65.9,0,0,1-12.66,12.42c-2.16,1.43-6.84,4.43-22.72,9.16-5.83,1.69-13.81,3.88-23.48,5.91l-5.57-6.46c13.55-6.54,23.6-11.4,26.9-12.92.72-.34,2.4-1.14,4-1.77s3.33-1.31,5.32-2h0a245,245,0,0,0,20.69-26.81c1.64-2.49,7.22-11.06,15.11-13.39a8.91,8.91,0,0,1,7.1.3,8.19,8.19,0,0,1,3,4.56C612.78,305.08,594.24,326.41,592.76,327.8Z"/><path id="Path_5028" data-name="Path 5028" class="cls-11" d="M533.9,355.42l-5.57,2.4-.76.26a18.44,18.44,0,0,0-2.7,1.26,51,51,0,0,1-5.32,3,17,17,0,0,1-4.65,1.06,19.59,19.59,0,0,1-3.25,0c-.76-.21-8.83-2.41-8.83-3.93a2.48,2.48,0,0,1,.3-.84,4.31,4.31,0,0,1,1.31-1.31c1.82-1.06,3.89-2.11,6-3.17q2.7-1.31,5.24-2.36a13.82,13.82,0,0,1-7-.8c-.17-.13-.59,0-.5-.68s1.9-.93,2.57-.93c5.57-.76,5.83-2.2,9.8-2.2a18.58,18.58,0,0,1,7.73,1.65Z"/><path id="Path_5029" data-name="Path 5029" class="cls-4" d="M610.58,299.47a39.94,39.94,0,0,1-3.75,12.16c-.94,1.87-2,3.68-3.09,5.45A75.77,75.77,0,0,1,597.2,326c-2.58-2.2-5.28-4.35-8.45-6.76s-6.29-4.6-9.33-6.63c7-11.74,14.27-18.79,18-20.18a16,16,0,0,1,6-1,6.73,6.73,0,0,1,4,.89,7.67,7.67,0,0,1,1.82,1.82,8.58,8.58,0,0,1,1.18,2.57A10.88,10.88,0,0,1,610.58,299.47Z"/></g></g><g id="Group_6399" data-name="Group 6399"><path id="Path_5030" data-name="Path 5030" class="cls-14" d="M57.27,264.66c-.51-1-1-2.05-1-5.11a33.62,33.62,0,0,1,.51-7.15l-23-5.62a50.67,50.67,0,0,1,0,27.58,16.72,16.72,0,0,0,17.36,2.55,16.11,16.11,0,0,0,9.7-11.75C59.82,265.68,58.8,265.17,57.27,264.66Z"/><path id="Path_5031" data-name="Path 5031" class="cls-15" d="M146.13,288.15c-2,4.08-2.56,7.15-1.54,8.17,0,.51,1,1,3.58-.51.51,1,1.53,1.53,2,2a10.32,10.32,0,0,0,5.62,1.53H164c.51,0,1-.51,1.53-1a1.88,1.88,0,0,0,.51-1.53c2,.51,3.58,0,3.58-1a1.87,1.87,0,0,0-.52-1.54c1-.51,1.54-1,1.54-2,0-.51-.51-1-1-1.53.51-.51.51-.51.51-1a1.35,1.35,0,0,0-1.15-1.53,1.28,1.28,0,0,0-.39,0l-13.27-3.07Z"/><path id="Path_5032" data-name="Path 5032" class="cls-15" d="M95.06,319.81c4.08,4.6,14.3,1,18.38-.51a38.76,38.76,0,0,0,9.19-4.6,254.25,254.25,0,0,0,26.05-20.43l-1-9.19a47.36,47.36,0,0,1-7.67,4.08c-9.19,4.09-13.78,4.6-22.46,8.17a69.16,69.16,0,0,0-12.26,6.13c-1.53-1-3.06-1.53-4.6-1C95.06,304,91,315.21,95.06,319.81Z"/><path id="Path_5033" data-name="Path 5033" class="cls-16" d="M105.78,304.49a18.11,18.11,0,0,0-9.19-10.22c-1-.51-1.53-1-2.55-1-6.13-1.53-8.68-8.68-14.3-16.85a58.3,58.3,0,0,0-7.15-8.68l-1,32.68c3.58,4.09,8.17,8.68,14.3,15.32a18.74,18.74,0,0,0,11.23,7.15,24.24,24.24,0,0,0,6.13-.51C106.8,316.74,107.83,310.11,105.78,304.49Z"/><path id="Path_5034" data-name="Path 5034" class="cls-17" d="M88.42,555.73c-4.09-.51-7.66-1-11.23-1.53a4.32,4.32,0,0,0-3.58-2c-1,0-1.53.51-2.55,1l-10.22-.51a35.53,35.53,0,0,1,2.56-14.3l11.23-1.53a78.67,78.67,0,0,0,24,16.85l.51,2C95.57,555.73,92.51,556.24,88.42,555.73Z"/><path id="Path_5035" data-name="Path 5035" class="cls-17" d="M37.86,559.3c-4.08-.51-7.65-1-11.23-1.53a4.31,4.31,0,0,0-3.57-2c-1,0-1.54.51-2.56,1l-10.21-.51a35.36,35.36,0,0,1,2.55-14.3l11.24-1.53a78.55,78.55,0,0,0,24,16.85l.51,2C45.53,559.3,42,559.82,37.86,559.3Z"/><path id="Path_5036" data-name="Path 5036" class="cls-1" d="M26.12,347.9c-1.53,12.25-3.06,24.51-4.08,36.77-2.05,19.91-3.58,38.81-5.11,57.7L10.8,542a41.61,41.61,0,0,0,19.41,0c4.6-36.26,9.19-61.28,12.25-78.13C43,461.26,44,457.18,45,450.54c2.55-13.79,3.06-20.43,5.1-34.72.51-4.6,1.54-11.75,3.07-19.92l7.15,65.87c-.51,7.66-.51,14.81-.51,20.94V494c0,12.76,0,27.57.51,44.93a21.4,21.4,0,0,0,16.85-.51,866,866,0,0,0,2-131.24c-1.53-22-3.57-42.9-6.13-62.3Z"/><path id="_Path_9" data-name=" Path 9" class="cls-18" d="M68,265.17a8.05,8.05,0,0,1,8.17,8,.74.74,0,0,1,0,.21,27.26,27.26,0,0,1,0,9.19,102.61,102.61,0,0,1-2.55,12.26c-3.06,13.78,3.58,17.87.51,30.64a19.9,19.9,0,0,0-1,7.66c0,2,.51,3.57.51,6.12v6.64L59.82,355l-5.1-6.64-2.56,8.17-26-7.66a127.35,127.35,0,0,0-1-13.79c-1-6.12-2-12.25-3.58-18.38C20.5,311.63,20,305,18,292.23c-1-6.13-1.53-10.72-2-14.3l20.93-12.77,15.32,9.7,7.67-9.7H68Z"/><path id="Path_5037" data-name="Path 5037" class="cls-16" d="M51.65,275.38l-2.55-1.53L53.7,352l1-3.06,1.53,2-4.08-76.6Z"/><path id="Path_5038" data-name="Path 5038" class="cls-15" d="M145.1,289.68h0l4.6,4.08,10.22-6.12,3.57-.51a3.5,3.5,0,0,0,3.58-3.41v-.17h0l-9.7-.51c-2.56,0-4.6,0-6.64,1l-2.56,1C146.12,285.59,145.1,287.64,145.1,289.68Z"/><path id="Path_5039" data-name="Path 5039" class="cls-15" d="M21.52,326.45a11.11,11.11,0,0,0-15-4.79l-.34.19c-3.58,3.06-.51,12.25.51,15.83a40.76,40.76,0,0,0,4.08,8.17c5.62,7.66,11.75,15.32,17.87,22.47l8.17-1c-1-1-2-3.58-3.57-6.64-3.58-7.66-4.09-12.26-7.15-19.41A101.14,101.14,0,0,0,21,330.53a11.13,11.13,0,0,0,.52-4.09Z"/><path id="Path_5040" data-name="Path 5040" class="cls-15" d="M31.74,362.19h0l-2,4.6,8.16,6.64,1.54,3.07A3.43,3.43,0,0,0,43.48,378h0l-2.55-8.17a16.12,16.12,0,0,0-2.55-5.11l-1.54-1.53C35.31,361.68,33.78,361.17,31.74,362.19Z"/><path id="Path_5041" data-name="Path 5041" class="cls-16" d="M39.4,267.21l-3.07-4.09-2,3.58,13.79,14.81,3.57-6.64Z"/><path id="Path_5042" data-name="Path 5042" class="cls-16" d="M57.27,260.57l3.06,1,3.07,3.07-6.13,13.79-5.11-4.09,6.64-8.17c-.51,0-1,0-1-.51s-.51-.51-.51-2.55C56.76,262.62,56.76,262.1,57.27,260.57Z"/><path id="_Path_10" data-name=" Path 10" class="cls-19" d="M43,256c-1-1.54-.51-3.58-2.55-5.11-1-.51-1.53-.51-3.58-1.53a8.51,8.51,0,0,1-2.55-3.07v-1h0a34.35,34.35,0,0,1-2-12.25,18.21,18.21,0,0,1,30.64-12.26,17.39,17.39,0,0,1,6.64,15.32v1c0,2,1,3.58,1.53,5.62.51,1.53,1.53,2,.51,3.06s-3.07,0-3.58,0c-.51,1.53-1,3.58-1.53,5.62A12.54,12.54,0,0,1,63.91,259c-1,1-2,1-12.77-.51C46,258,44,257.51,43,256Z"/><path id="Path_5043" data-name="Path 5043" class="cls-13" d="M33.78,245.76l1,.51c.51.52,3.06,3.58,5.62,2S42,240.15,44,239.64c1,0,2,1,3.07,2h3.06a29.8,29.8,0,0,1,1-6.64c1.53-3.57,3.07-7.15,4.6-7.66s2.55.51,9.19,3.58A36.48,36.48,0,0,0,69,232.49a4.64,4.64,0,0,0-.52-2.56,26.84,26.84,0,0,0-6.12-8.68,18.21,18.21,0,0,0-30.64,12.26,34.31,34.31,0,0,0,2,12.25Z"/><path id="Path_5044" data-name="Path 5044" class="cls-16" d="M31.74,288.15c-7.15,23.49-7.15,32.17-5.62,35.74a8.75,8.75,0,0,1,1,6.13c-1,2.05-2,3.58-4.08,4.6A20.84,20.84,0,0,0,4.16,327c-.51-1-.51-2.55-1-3.57a31.46,31.46,0,0,1,2.55-15.32c3.07-9.2,3.07-13.79,7.15-25A13.07,13.07,0,0,1,18,276.41a10.31,10.31,0,0,1,8.68-.51A9.41,9.41,0,0,1,31.74,288.15Z"/><path id="Path_5045" data-name="Path 5045" class="cls-15" d="M25.61,364.75l1,5.1,11.24,3.07-.52-5.62Z"/></g></svg>