<svg id="Layer_1" data-name="Layer 1" xmlns="http://www.w3.org/2000/svg" viewBox="0 0 640.27 578.11"><defs><style>.cls-1{fill:#fcd0be;}.cls-1,.cls-2,.cls-3{stroke:#fff;stroke-miterlimit:10;stroke-width:2.24px;}.cls-2{fill:#47c98e;}.cls-3{fill:#ffd638;}.cls-4{fill:#abc2db;}.cls-5{fill:#eef3f8;}.cls-6{fill:#d0ddee;}</style></defs><title>cubeaboutassets</title><g id="Group_6395" data-name="Group 6395"><g id="Group_6394" data-name="Group 6394"><path id="Path_4986" data-name="Path 4986" class="cls-1" d="M206.86,48.47v.35L89.43,69.9,5.49,48.47,112.16,31.23Z"/><path id="Path_4987" data-name="Path 4987" class="cls-1" d="M298.39,32.39,208.84,48.47l-2,.35v-.35l-94.7-17.24,92.1-14.88Z"/><path id="Path_4988" data-name="Path 4988" class="cls-1" d="M394,16.69l-95.64,15.7-94.13-16L298.39,1.13Z"/><path id="Path_4989" data-name="Path 4989" class="cls-1" d="M483.4,31.23,390.14,48.79h0l-91.74-16.4L394,16.69Z"/><path id="Path_4990" data-name="Path 4990" class="cls-1" d="M594.87,49.36,508.24,69.9,390.14,48.79,483.4,31.23Z"/><path id="Path_4991" data-name="Path 4991" class="cls-2" d="M98.36,346.73l-78.7-34.38L12.83,185.18l81.23,28.4Z"/><path id="Path_4992" data-name="Path 4992" class="cls-2" d="M94.07,213.58l-81.23-28.4L5.49,48.47,89.43,69.9Z"/><path id="Path_4993" data-name="Path 4993" class="cls-2" d="M300.18,433.35V576.23L193.5,519.59v-132Z"/><path id="Path_4994" data-name="Path 4994" class="cls-2" d="M193.5,387.57v132l-92.67-49.2L98.36,346.73Z"/><path id="Path_4995" data-name="Path 4995" class="cls-1" d="M508.24,69.9,413.59,93.11,293.65,67l96.49-18.17h0Z"/><path id="Path_4996" data-name="Path 4996" class="cls-1" d="M390.13,48.79,293.64,67h0L208.84,48.47l89.55-16.08Z"/><path id="Path_4997" data-name="Path 4997" class="cls-3" d="M594.87,49.36l-8,135.82-83.21,28.28L508.25,69.9Z"/><path id="Path_4998" data-name="Path 4998" class="cls-3" d="M508.24,69.9l-4.61,143.56-93.26,31.7,3.22-152Z"/><path id="Path_4999" data-name="Path 4999" class="cls-3" d="M586.84,185.18l-7.52,127.17-80,35.1,4.3-134Z"/><path id="Path_5000" data-name="Path 5000" class="cls-3" d="M579.32,312.35,572.55,427.1l-77.14,42.23,3.92-121.88Z"/><path id="Path_5001" data-name="Path 5001" class="cls-3" d="M499.33,347.45l-3.92,121.88-91.79,50.26,3.72-131.79Z"/><path id="Path_5002" data-name="Path 5002" class="cls-3" d="M407.34,387.8l-3.72,131.79L300.18,576.22V433.35Z"/><path id="Path_5003" data-name="Path 5003" class="cls-2" d="M100.84,470.39,26,430.67,19.66,312.35l78.7,34.38Z"/><path id="Path_5004" data-name="Path 5004" class="cls-3" d="M503.63,213.46l-4.3,134-92,40.35,3-142.65Z"/><path id="Path_5005" data-name="Path 5005" class="cls-4" d="M208.83,302.52,98.36,346.73,94.07,213.58,89.43,69.9,206.86,48.82l1,132.25Z"/><path id="Path_5006" data-name="Path 5006" class="cls-5" d="M413.59,93.11l-3.23,152-3,142.65L293.63,339h0l-84.8-36.43-.94-121.45-1-132.25,2-.35L293.64,67h0Z"/><path id="Path_5007" data-name="Path 5007" class="cls-6" d="M407.34,387.8,300.18,433.35,193.5,387.57,98.36,346.73l110.47-44.21L293.63,339h0Z"/></g><path id="Path_5008" data-name="Path 5008" class="cls-4" d="M217.45,70.64v73.67L276.24,165V86.06Z"/><path id="Path_5009" data-name="Path 5009" class="cls-4" d="M291.42,168.73l.15-14.94a2.22,2.22,0,0,1,2.25-2.2,2.25,2.25,0,0,1,.68.11L394,184.93a2.23,2.23,0,0,1,1.52,2.09l.16,17.46a2.22,2.22,0,0,1-2.21,2.24,2.27,2.27,0,0,1-.77-.13L292.9,170.85A2.23,2.23,0,0,1,291.42,168.73Z"/><path id="Path_5010" data-name="Path 5010" class="cls-4" d="M291.43,128.18l.13-13.5a3,3,0,0,1,3-3,3.33,3.33,0,0,1,.77.11l55.92,15.68a3,3,0,0,1,2.17,2.94l-.37,15.7a3,3,0,0,1-3.05,2.91,2.74,2.74,0,0,1-.84-.14L293.5,131.05A3,3,0,0,1,291.43,128.18Z"/><path id="Path_5011" data-name="Path 5011" class="cls-4" d="M217.45,167.74l180.46,63.89-1.59,139.79L218.54,294.74Z"/><path id="Path_5012" data-name="Path 5012" class="cls-6" d="M301.22,283l28.28-28.12,38.84,55.82Z"/><ellipse id="Ellipse_490" data-name="Ellipse 490" class="cls-6" cx="322.79" cy="229.36" rx="6.39" ry="8.97"/><ellipse id="Ellipse_491" data-name="Ellipse 491" class="cls-5" cx="246.84" cy="109.63" rx="15.23" ry="21.39" transform="translate(-4.36 10.4) rotate(-2.39)"/><ellipse id="Ellipse_492" data-name="Ellipse 492" class="cls-5" cx="245.31" cy="154.76" rx="20.17" ry="25.27" transform="translate(-27.18 254.16) rotate(-52.29)"/><path id="Path_5013" data-name="Path 5013" class="cls-5" d="M241.07,274.29l124.06,50.52a1.22,1.22,0,0,1,.76,1.13v12.77a1.22,1.22,0,0,1-1.22,1.22,1.28,1.28,0,0,1-.48-.09L240.13,288.06a1.24,1.24,0,0,1-.75-1.13v-11.5a1.22,1.22,0,0,1,1.22-1.23A1.27,1.27,0,0,1,241.07,274.29Z"/><path id="Path_5014" data-name="Path 5014" class="cls-5" d="M239.38,258.32l37.21-38.88,54.47,76Z"/></g></svg>