<svg xmlns="http://www.w3.org/2000/svg" xmlns:xlink="http://www.w3.org/1999/xlink" width="1597.775" height="1603.587" viewBox="0 0 1597.775 1603.587"><defs><style>.a{opacity:0.7;}.b{fill:url(#a);}</style><linearGradient id="a" x1="0.5" x2="0.5" y2="1" gradientUnits="objectBoundingBox"><stop offset="0" stop-color="#f9f4f3"/><stop offset="1" stop-color="#e1eeff"/></linearGradient></defs><g class="a" transform="translate(1607.424 1416.833) rotate(171)"><path class="b" d="M209.534,7.087C268.387-.92,328.754-4.206,386.787,8.429c.87.19,1.741.383,2.754.613,56.952,12.926,111.727,42.737,145.892,90.227,24.058,33.442,36.738,73.55,55.928,110.007,72.48,137.7,231.062,209.825,385.152,231.549,72.424,10.209,146.376,11.6,217.153,30.036s140.573,57.458,174.443,122.283c18.193,34.823,24.763,74.6,26.814,113.834,4.537,86.849-14.9,180-76.486,241.4-34.347,34.243-78.984,55.986-123.5,75.24-160.576,69.456-379.931,50.3-537.218,126.918-131.535,64.069-206.716,215-350.2,243.629-56.734,11.318-116.775,12.926-171.364-6.226s-102.951-61.4-119.688-116.777c-16.546-54.751-1.237-113.32,10.654-169.265,13.3-62.587,22.289-126.769,16.663-190.506-5.1-57.788-22.066-113.805-32.1-170.943-33.9-192.962,11.979-390.168,60.911-579.877,8.39-32.53,17.114-65.593,34.845-94.126S176.167,10.981,209.534,7.087" transform="translate(4.593 32.679)"/></g></svg>