<svg xmlns="http://www.w3.org/2000/svg" width="460.069" height="426.258" viewBox="0 0 460.069 426.258"><defs><style>.a,.b{fill:#fff6cb;}.b{opacity:0.69;}.c{fill:#f9f5e2;}.d{fill:#e1eeff;}</style></defs><g transform="translate(16160.27 5936.051) rotate(14)"><path class="a" d="M1382.714,197.5h-17.831a2.29,2.29,0,0,1-2.284-2.284V177.384a2.29,2.29,0,0,1,2.284-2.284h17.831a2.29,2.29,0,0,1,2.283,2.284v17.831A2.29,2.29,0,0,1,1382.714,197.5Z" transform="translate(-18237.762 -2085.425)"/><path class="a" d="M1382.714,197.5h-17.831a2.29,2.29,0,0,1-2.284-2.284V177.384a2.29,2.29,0,0,1,2.284-2.284h17.831a2.29,2.29,0,0,1,2.283,2.284v17.831A2.29,2.29,0,0,1,1382.714,197.5Z" transform="translate(-15469.086 -883.028) rotate(-159)"/><path class="b" d="M36.858,41.042H4.184A4.2,4.2,0,0,1,0,36.858V4.184A4.2,4.2,0,0,1,4.184,0H36.858a4.2,4.2,0,0,1,4.184,4.184V36.858A4.2,4.2,0,0,1,36.858,41.042Z" transform="matrix(0.602, 0.799, -0.799, 0.602, -17030.25, -1661.235)"/><path class="b" d="M36.858,41.042H4.184A4.2,4.2,0,0,1,0,36.858V4.184A4.2,4.2,0,0,1,4.184,0H36.858a4.2,4.2,0,0,1,4.184,4.184V36.858A4.2,4.2,0,0,1,36.858,41.042Z" transform="translate(-16618.35 -1754.751) rotate(85)"/><ellipse class="c" cx="17.803" cy="17.803" rx="17.803" ry="17.803" transform="translate(-16772.535 -1832.856)"/><ellipse class="c" cx="17.803" cy="17.803" rx="17.803" ry="17.803" transform="translate(-16865.061 -1473.536) rotate(-159)"/><path class="d" d="M-15065.2-32.163-15038.659-60l13.516,33.259Z" transform="translate(-1939.886 -1771.6)"/><path class="d" d="M-15065.2-32.163-15038.659-60l13.516,33.259Z" transform="matrix(0.848, 0.53, -0.53, 0.848, -4116.268, 6323.715)"/></g></svg>