<svg xmlns="http://www.w3.org/2000/svg" xmlns:xlink="http://www.w3.org/1999/xlink" width="302" height="302" viewBox="0 0 302 302"><defs><style>.a{fill:#f55c4e;}.b,.c{fill:#fff6cb;}.c{opacity:0.69;}.d{fill:#f9f5e2;}.e{fill:#e1eeff;}.f{fill:url(#a);}.g{fill:url(#c);}.h,.k{fill:url(#d);}.i{fill:url(#n);}.j{fill:url(#o);}.k{opacity:0.61;}.l{fill:url(#s);}.m{fill:url(#t);}.n{fill:url(#u);}.o{fill:url(#w);}.p{fill:url(#ac);}.q{fill:url(#ae);}.r,.s{fill:#fe5f7b;}.r{fill-rule:evenodd;}.t{fill:none;stroke:#707070;stroke-linecap:round;stroke-linejoin:round;stroke-dasharray:3.012 5.019;}</style><linearGradient id="a" y1="0.5" x2="1" y2="0.5" gradientUnits="objectBoundingBox"><stop offset="0" stop-color="#503b6d"/><stop offset="1" stop-color="#3b1e5c"/></linearGradient><linearGradient id="c" x1="0" x2="1" xlink:href="#a"/><linearGradient id="d" y1="0.5" x2="1" y2="0.5" gradientUnits="objectBoundingBox"><stop offset="0" stop-color="#00d0bc"/><stop offset="1" stop-color="#69f9b8"/></linearGradient><linearGradient id="n" x1="0" y1="0.5" x2="1" y2="0.5" xlink:href="#d"/><linearGradient id="o" x1="0" y1="0.5" x2="1" y2="0.5" xlink:href="#d"/><linearGradient id="s" x1="0" y1="0.5" x2="1" y2="0.5" xlink:href="#d"/><linearGradient id="t" x1="0" y1="0.5" x2="1" y2="0.5" xlink:href="#d"/><linearGradient id="u" x1="0" y1="0.5" x2="1" y2="0.5" xlink:href="#d"/><linearGradient id="w" x1="0" y1="0.5" x2="1" y2="0.5" xlink:href="#d"/><linearGradient id="ac" x1="0" y1="0.5" x2="1" y2="0.5" xlink:href="#d"/><linearGradient id="ae" x1="0" y1="0.5" x2="1" y2="0.5" xlink:href="#d"/></defs><g transform="translate(-1056 -4097)"><path class="a" d="M151,0A151,151,0,1,1,0,151,151,151,0,0,1,151,0Z" transform="translate(1056 4097)"/><g transform="translate(1337.332 4195.161) rotate(138)"><path class="b" d="M8.274,0H.939A.942.942,0,0,0,0,.939V8.274a.942.942,0,0,0,.939.939H8.274a.942.942,0,0,0,.939-.939V.939A.942.942,0,0,0,8.274,0Z" transform="translate(77.276 116.887)"/><path class="c" d="M15.161,0H1.721A1.726,1.726,0,0,0,0,1.721v13.44a1.726,1.726,0,0,0,1.721,1.721h13.44a1.726,1.726,0,0,0,1.721-1.721V1.721A1.726,1.726,0,0,0,15.161,0Z" transform="matrix(0.602, -0.799, 0.799, 0.602, 0, 13.483)"/><path class="c" d="M15.161,0H1.721A1.726,1.726,0,0,0,0,1.721v13.44a1.726,1.726,0,0,0,1.721,1.721h13.44a1.726,1.726,0,0,0,1.721-1.721V1.721A1.726,1.726,0,0,0,15.161,0Z" transform="matrix(0.087, -0.996, 0.996, 0.087, 166.091, 60.637)"/><ellipse class="d" cx="7.323" cy="7.323" rx="7.323" ry="7.323" transform="translate(119.489 79.589)"/><path class="e" d="M0,2.23,10.917,13.68,16.476,0Z" transform="translate(23.834 80.038)"/><path class="e" d="M0,2.23,10.917,13.68,16.476,0Z" transform="matrix(0.848, -0.53, 0.53, 0.848, 76.062, 32.308)"/></g><g transform="translate(1108.71 4183.726)"><g transform="translate(0 0)"><path class="f" d="M-1007.133,207.019l-98.422,47.138V132.086l99.133-28.381Z" transform="translate(1203.166 -81.985)"/><path class="f" d="M-1403.234,103.435l97.611,29.521v121.02l-97.611-47.242Z" transform="translate(1403.234 -81.804)"/><path class="g" d="M-1303.214,37.467l96.723,21.72-99.366,29.738L-1403.234,59.1Z" transform="translate(1403.234 -37.467)"/></g><g transform="translate(110.235 126.577)"><g transform="translate(0 4.706)"><path class="h" d="M-1064.621,444.8c-1.339.584-2.435-.474-2.435-2.363s1.1-3.886,2.435-4.449,2.407.508,2.407,2.375S-1063.29,444.215-1064.621,444.8Zm0-6.39a4.424,4.424,0,0,0-2.131,3.9c0,1.653.959,2.581,2.131,2.07a4.443,4.443,0,0,0,2.11-3.887C-1062.511,438.849-1063.455,437.915-1064.621,438.406Zm0,5.545c-1.006.437-1.828-.36-1.828-1.778a3.8,3.8,0,0,1,1.828-3.344c1-.423,1.812.378,1.812,1.784A3.814,3.814,0,0,1-1064.621,443.951Zm0-4.7a3.174,3.174,0,0,0-1.525,2.792c0,1.183.686,1.849,1.525,1.485a3.183,3.183,0,0,0,1.515-2.787C-1063.106,439.566-1063.785,438.9-1064.621,439.251Z" transform="translate(1067.056 -437.835)"/></g><g transform="translate(5.753 2.321)"><path class="h" d="M-1047.141,437.426c-1.3.569-2.369-.482-2.369-2.346s1.066-3.827,2.369-4.375,2.343.514,2.343,2.357S-1045.845,436.861-1047.141,437.426Zm0-6.3a4.347,4.347,0,0,0-2.074,3.832c0,1.631.933,2.552,2.074,2.055a4.367,4.367,0,0,0,2.054-3.823C-1045.087,431.571-1046.006,430.644-1047.141,431.123Zm0,5.47c-.979.425-1.779-.365-1.779-1.764a3.733,3.733,0,0,1,1.779-3.289c.974-.412,1.764.384,1.764,1.771A3.748,3.748,0,0,1-1047.141,436.592Zm0-4.636a3.119,3.119,0,0,0-1.484,2.746c0,1.167.667,1.828,1.484,1.474a3.129,3.129,0,0,0,1.474-2.741C-1045.666,432.275-1046.327,431.612-1047.141,431.956Z" transform="translate(1049.51 -430.563)"/></g><g transform="translate(11.353)"><path class="h" d="M-1030.127,430.252c-1.269.554-2.307-.489-2.307-2.327s1.038-3.77,2.307-4.3,2.281.521,2.281,2.339S-1028.866,429.7-1030.127,430.252Zm0-6.22a4.274,4.274,0,0,0-2.019,3.769c0,1.609.908,2.523,2.019,2.039a4.294,4.294,0,0,0,2-3.761C-1028.127,424.486-1029.022,423.566-1030.127,424.032Zm0,5.4c-.953.414-1.732-.371-1.732-1.751a3.67,3.67,0,0,1,1.732-3.235c.949-.4,1.718.389,1.718,1.757A3.685,3.685,0,0,1-1030.127,429.429Zm0-4.575a3.066,3.066,0,0,0-1.445,2.7c0,1.152.65,1.807,1.445,1.462a3.076,3.076,0,0,0,1.435-2.7C-1028.692,425.178-1029.334,424.519-1030.127,424.855Z" transform="translate(1032.434 -423.483)"/></g><g transform="translate(0.148 12.638)"><path class="h" d="M-1064.172,469c-1.338.609-2.433-.429-2.433-2.317s1.095-3.905,2.433-4.493,2.406.462,2.406,2.329S-1062.842,468.39-1064.172,469Zm0-6.388a4.521,4.521,0,0,0-2.13,3.935c0,1.653.958,2.562,2.13,2.03a4.541,4.541,0,0,0,2.109-3.926C-1062.063,463.011-1063.007,462.095-1064.172,462.608Zm0,5.543c-1.005.456-1.827-.325-1.827-1.743a3.881,3.881,0,0,1,1.827-3.377c1-.442,1.811.344,1.811,1.75A3.9,3.9,0,0,1-1064.172,468.15Zm0-4.7a3.243,3.243,0,0,0-1.525,2.819c0,1.183.685,1.836,1.525,1.456a3.253,3.253,0,0,0,1.514-2.814C-1062.658,463.739-1063.336,463.083-1064.172,463.453Z" transform="translate(1066.605 -462.023)"/></g><g transform="translate(11.493 7.723)"><path class="h" d="M-1029.7,453.815c-1.268.577-2.306-.446-2.306-2.284s1.037-3.789,2.306-4.345,2.28.477,2.28,2.295S-1028.441,453.242-1029.7,453.815Zm0-6.218a4.366,4.366,0,0,0-2.018,3.806c0,1.609.908,2.505,2.018,2a4.388,4.388,0,0,0,2-3.8C-1027.7,448.014-1028.6,447.111-1029.7,447.6Zm0,5.4c-.953.432-1.731-.338-1.731-1.718a3.749,3.749,0,0,1,1.731-3.266c.948-.418,1.716.356,1.716,1.724A3.765,3.765,0,0,1-1029.7,452.993Zm0-4.573a3.132,3.132,0,0,0-1.444,2.727c0,1.151.649,1.795,1.444,1.435a3.144,3.144,0,0,0,1.434-2.723C-1028.267,448.716-1028.91,448.069-1029.7,448.42Z" transform="translate(1032.007 -447.037)"/></g><g transform="translate(0.148 20.63)"><path class="h" d="M-1064.172,493.383c-1.338.635-2.433-.382-2.433-2.271s1.095-3.926,2.433-4.54,2.406.417,2.406,2.284A5.3,5.3,0,0,1-1064.172,493.383Zm0-6.388a4.622,4.622,0,0,0-2.13,3.976c0,1.653.958,2.545,2.13,1.99a4.642,4.642,0,0,0,2.109-3.966C-1062.063,487.358-1063.007,486.46-1064.172,487Zm0,5.543c-1.005.475-1.827-.291-1.827-1.709a3.968,3.968,0,0,1,1.827-3.412c1-.461,1.811.31,1.811,1.716A3.983,3.983,0,0,1-1064.172,492.538Zm0-4.7a3.314,3.314,0,0,0-1.525,2.848c0,1.183.685,1.823,1.525,1.427a3.325,3.325,0,0,0,1.514-2.844C-1062.658,488.1-1063.336,487.455-1064.172,487.84Z" transform="translate(1066.605 -486.397)"/></g><g transform="translate(5.897 18.033)"><path class="h" d="M-1046.7,485.364c-1.3.618-2.368-.392-2.368-2.256s1.066-3.866,2.368-4.463,2.341.426,2.341,2.267S-1045.41,484.75-1046.7,485.364Zm0-6.3a4.541,4.541,0,0,0-2.073,3.909c0,1.631.932,2.516,2.073,1.977a4.563,4.563,0,0,0,2.052-3.9C-1044.652,479.433-1045.57,478.541-1046.7,479.062Zm0,5.469c-.979.462-1.778-.3-1.778-1.7a3.9,3.9,0,0,1,1.778-3.354c.974-.448,1.763.317,1.763,1.7A3.914,3.914,0,0,1-1046.7,484.53Zm0-4.635a3.257,3.257,0,0,0-1.484,2.8c0,1.167.667,1.8,1.484,1.418a3.267,3.267,0,0,0,1.473-2.8C-1045.231,480.159-1045.89,479.52-1046.7,479.9Z" transform="translate(1049.072 -478.476)"/></g><g transform="translate(11.493 15.504)"><path class="h" d="M-1029.7,477.557c-1.268.6-2.306-.4-2.306-2.24s1.037-3.808,2.306-4.389,2.28.434,2.28,2.252S-1028.441,476.959-1029.7,477.557Zm0-6.218a4.463,4.463,0,0,0-2.018,3.844c0,1.609.908,2.488,2.018,1.963a4.485,4.485,0,0,0,2-3.836C-1027.7,471.717-1028.6,470.831-1029.7,471.338Zm0,5.4c-.953.45-1.731-.305-1.731-1.686a3.833,3.833,0,0,1,1.731-3.3c.948-.436,1.716.324,1.716,1.692A3.848,3.848,0,0,1-1029.7,476.734Zm0-4.574a3.2,3.2,0,0,0-1.444,2.754c0,1.152.649,1.782,1.444,1.408a3.212,3.212,0,0,0,1.434-2.75C-1028.267,472.43-1028.91,471.8-1029.7,472.161Z" transform="translate(1032.007 -470.765)"/></g><g transform="translate(6.227 11.747)"><path class="h" d="M-1044.585,463.562a.261.261,0,0,1-.308-.043l-3.044-2.972a.816.816,0,0,1,0-.888c.172-.32.452-.444.624-.276l3.035,2.976a.813.813,0,0,1,0,.88A.706.706,0,0,1-1044.585,463.562Zm-3.039-3.806a.236.236,0,0,0-.1.108.272.272,0,0,0,0,.3l3.041,2.973c.055.054.15.01.2-.093a.272.272,0,0,0,0-.294l-3.038-2.975A.089.089,0,0,0-1047.624,459.756Z" transform="translate(1048.066 -459.309)"/></g><g transform="translate(6.227 10.408)"><path class="h" d="M-1047.624,462.2a.266.266,0,0,1-.312-.042.815.815,0,0,1,0-.888l3.044-5.7c.17-.318.446-.439.615-.272a.815.815,0,0,1,0,.88l-3.035,5.694A.719.719,0,0,1-1047.624,462.2Zm3.039-6.531a.231.231,0,0,0-.1.106l-3.041,5.7a.272.272,0,0,0,0,.3c.056.054.152.01.208-.094l3.038-5.7a.272.272,0,0,0,0-.293A.087.087,0,0,0-1044.585,455.666Z" transform="translate(1048.066 -455.222)"/></g></g><g transform="translate(171.362 32.451)"><path class="i" d="M-872.443,191.955c.1-.033.173.062.173.213V193.8a.361.361,0,0,1-.173.333c-.1.034-.174-.061-.174-.212v-1.637A.358.358,0,0,1-872.443,191.955Z" transform="translate(875.247 -173.744)"/><path class="j" d="M-873.155,201.91c.3-.109.519.319.519.9s-.214,1.167-.519,1.278-.521-.316-.521-.9S-873.461,202.019-873.155,201.91Zm0,.545c-.078.028-.173.289-.173.608s.1.511.173.482.173-.289.173-.608S-873.078,202.427-873.155,202.455Z" transform="translate(875.959 -180.428)"/><path class="h" d="M-865.206,143.688c-.179-2.371-.935-4.586-2.5-4.779-.952-1.922-2.174-2.785-3.879-2.378a7.412,7.412,0,0,0-4.043,4.762,1.433,1.433,0,0,0-1.284-.224c-1.36.4-2.473,2.473-2.473,4.629a.432.432,0,0,0,0,.054c.005.157.007.22.01.307a4.163,4.163,0,0,0,.081.68,6.517,6.517,0,0,0-1.35,3.974c.128,2.077,1.041,3.6,2.466,3.218h.033l10.358-3.536C-866.121,149.826-865.031,146.8-865.206,143.688Zm-2.575,6.181-10.334,3.506-.019,0c-1.183.347-2.088-.868-2.15-2.786A5.34,5.34,0,0,1-879,147.039a.422.422,0,0,0,.089-.4,2.627,2.627,0,0,1-.109-.731c0-.078-.007-.14-.01-.29a.375.375,0,0,1,0-.043c0-1.838.955-3.62,2.124-3.965a1.259,1.259,0,0,1,1.238.292c.08.063.191-.008.242-.156.873-2.539,2.15-4.068,3.848-4.685,1.645-.362,2.724.327,3.647,2.289a.118.118,0,0,0,.1.078c1.312.106,2.176,1.914,2.316,4.4C-865.358,146.684-866.33,149.376-867.781,149.869Z" transform="translate(880.638 -136.432)"/><path class="k" d="M-867.055,150.971l-10.334,3.506-.019,0c-1.183.347-2.088-.868-2.15-2.786a5.34,5.34,0,0,1,1.285-3.549.422.422,0,0,0,.089-.4,2.631,2.631,0,0,1-.109-.731c0-.078-.007-.14-.01-.29a.389.389,0,0,1,0-.043c0-1.838.955-3.62,2.124-3.965a1.258,1.258,0,0,1,1.238.292c.08.063.191-.008.242-.156.873-2.539,2.15-4.068,3.848-4.685,1.645-.362,2.725.327,3.647,2.289a.118.118,0,0,0,.1.078c1.312.106,2.176,1.914,2.316,4.4C-864.632,147.787-865.6,150.478-867.055,150.971Z" transform="translate(879.912 -137.534)"/><path class="i" d="M-872.443,211.907c.1-.035.173.058.173.208v1.635a.372.372,0,0,1-.173.338c-.1.036-.174-.056-.174-.207v-1.637A.369.369,0,0,1-872.443,211.907Z" transform="translate(875.247 -187.153)"/><path class="l" d="M-866.145,209.577c.094-.035.17.058.17.207v1.621a.369.369,0,0,1-.17.335c-.094.036-.171-.056-.171-.206v-1.624A.366.366,0,0,1-866.145,209.577Z" transform="translate(871.012 -185.587)"/><path class="m" d="M-859.947,187.652c.093-.032.168.062.168.211v1.608a.354.354,0,0,1-.168.327c-.093.033-.168-.061-.168-.209v-1.61A.353.353,0,0,1-859.947,187.652Z" transform="translate(866.845 -170.853)"/><path class="n" d="M-853.849,195.291c.091-.033.165.06.165.207v1.6a.357.357,0,0,1-.165.327c-.091.033-.165-.059-.165-.206v-1.6A.354.354,0,0,1-853.849,195.291Z" transform="translate(862.744 -175.987)"/><path class="m" d="M-847.846,183.487c.09-.031.162.062.162.208v1.583a.347.347,0,0,1-.162.321c-.09.032-.163-.06-.163-.207v-1.585A.346.346,0,0,1-847.846,183.487Z" transform="translate(858.708 -168.053)"/><path class="o" d="M-841.938,191.038c.088-.031.16.06.16.2v1.571a.35.35,0,0,1-.16.32c-.089.032-.16-.058-.16-.2v-1.573A.348.348,0,0,1-841.938,191.038Z" transform="translate(854.736 -173.128)"/><path class="n" d="M-853.849,205.03c.091-.034.165.058.165.2v1.6a.361.361,0,0,1-.165.329c-.091.034-.165-.056-.165-.2v-1.6A.359.359,0,0,1-853.849,205.03Z" transform="translate(862.744 -182.531)"/><path class="m" d="M-859.947,197.469c.093-.033.168.06.168.208v1.609a.36.36,0,0,1-.168.33c-.093.034-.168-.059-.168-.207V197.8A.357.357,0,0,1-859.947,197.469Z" transform="translate(866.845 -177.45)"/><path class="m" d="M-859.947,207.285c.093-.034.168.058.168.206V209.1a.365.365,0,0,1-.168.332c-.093.035-.168-.056-.168-.2v-1.611A.362.362,0,0,1-859.947,207.285Z" transform="translate(866.845 -184.047)"/><path class="j" d="M-866.846,189.767c.3-.1.511.325.511.9s-.21,1.154-.511,1.26-.513-.322-.513-.9S-867.146,189.871-866.846,189.767Zm0,.541c-.076.026-.171.284-.171.6s.094.508.171.481.171-.284.171-.6S-866.769,190.282-866.846,190.308Z" transform="translate(871.713 -172.268)"/><path class="j" d="M-866.846,199.662c.3-.107.511.318.511.9s-.21,1.157-.511,1.266-.513-.315-.513-.9S-867.146,199.77-866.846,199.662Zm0,.541c-.076.028-.171.286-.171.6s.094.507.171.479.171-.286.171-.6S-866.769,200.175-866.846,200.2Z" transform="translate(871.713 -178.917)"/><path class="p" d="M-854.528,185.536c.291-.1.495.322.495.892s-.2,1.134-.495,1.237-.5-.319-.5-.891S-854.819,185.636-854.528,185.536Zm0,.532c-.074.026-.165.278-.165.59s.091.5.165.474.165-.279.165-.59S-854.454,186.042-854.528,186.068Z" transform="translate(863.423 -169.424)"/><path class="p" d="M-848.514,193.129c.286-.1.487.315.487.88s-.2,1.128-.487,1.232-.489-.312-.489-.879S-848.8,193.232-848.514,193.129Zm0,.528c-.073.026-.163.278-.163.587s.09.5.163.469.162-.278.162-.587S-848.442,193.631-848.514,193.658Z" transform="translate(859.376 -174.527)"/><path class="q" d="M-842.6,181.436c.282-.1.479.32.479.88s-.2,1.116-.479,1.215-.481-.317-.481-.88S-842.878,181.533-842.6,181.436Zm0,.524c-.072.025-.16.273-.16.58s.089.493.16.468.16-.273.16-.58S-842.524,181.935-842.6,181.96Z" transform="translate(855.393 -166.669)"/><path class="q" d="M-842.6,200.6c.282-.1.479.308.479.868s-.2,1.121-.479,1.227-.481-.3-.481-.868S-842.878,200.709-842.6,200.6Zm0,.524c-.072.027-.16.277-.16.584s.089.491.16.464.16-.277.16-.584S-842.524,201.1-842.6,201.129Z" transform="translate(855.393 -179.551)"/><path class="p" d="M-848.514,202.79c.286-.106.487.309.487.874s-.2,1.13-.487,1.238-.489-.306-.489-.873S-848.8,202.9-848.514,202.79Zm0,.528c-.073.027-.163.28-.163.589s.09.494.163.467.162-.28.162-.589S-848.442,203.291-848.514,203.318Z" transform="translate(859.376 -181.02)"/></g><g transform="translate(141.212 60.401)"><g transform="translate(5.491 19.267)"><path class="r" d="M-953.97,288.923l5.979-2.3v6.5a2.561,2.561,0,0,1-1.377,2.293v2.732c0,1.355-1.341,1.9-1.341.539v-2.694l-.544.216v2.7c0,1.359-1.334,1.9-1.334.537v-2.768a1.158,1.158,0,0,1-1.383-1.189Zm4.488-6.382.995-1.9c.255-.488.638-.043.383.446l-.866,1.657c.852.464,1.4,1.693,1.007,3.37l-5.964,2.288a5.138,5.138,0,0,1,1.282-4.491l-.763-.878c-.26-.3.13-1.038.389-.74l.935,1.077A3.184,3.184,0,0,1-949.482,282.541Zm3.3,2.931v5.892c0,1.348-1.327,1.873-1.327.522v-5.9C-947.51,284.631-946.183,284.124-946.183,285.472Zm-8.307,3.188v5.972c0,1.366-1.349,1.9-1.349.531v-5.985C-955.839,287.809-954.49,287.294-954.49,288.661Z" transform="translate(955.839 -280.427)"/></g><path class="h" d="M-955.425,221.791l-13.765,4.753c-1.86.642-3.4,3.492-3.4,6.322v44.585c0,2.831,1.535,4.479,3.4,3.673l13.765-5.961c1.772-.767,3.212-3.628,3.212-6.367V225.664C-952.213,222.926-953.653,221.18-955.425,221.791Zm2.147,47.458c0,1.831-.963,3.739-2.147,4.249l-13.765,5.923c-1.239.533-2.257-.568-2.257-2.454v-3.425l18.169-7.619Zm0-4.152-18.169,7.594V234.174l18.169-6.473Zm0-38.23-18.169,6.448v-.852c0-1.886,1.018-3.779,2.257-4.21l13.765-4.791c1.184-.412,2.147.747,2.147,2.578Z" transform="translate(972.585 -221.669)"/><path class="h" d="M-969.113,364.252v3.425c0,1.886,1.018,2.987,2.257,2.454l13.765-5.923c1.184-.509,2.147-2.418,2.147-4.249v-3.325Zm5.62,1.462-3.081,1.311c-.166.07-.282-.049-.282-.307a.585.585,0,0,1,.282-.547l3.081-1.307c.164-.07.279.057.279.307A.576.576,0,0,1-963.493,365.714Zm4.7-1.576a1.226,1.226,0,0,1-.55,1.079l-1.1.47c-.3.13-.553-.143-.553-.61V363.39a1.223,1.223,0,0,1,.553-1.08l1.1-.464c.3-.128.55.146.55.611Zm5.436-2.735-2.976,1.267c-.165.07-.273-.051-.273-.3a.569.569,0,0,1,.273-.536l2.976-1.262c.163-.069.27.058.27.3A.559.559,0,0,1-953.361,361.4Z" transform="translate(970.252 -312.378)"/><path class="h" d="M-953.091,226.969l-13.765,4.791c-1.239.431-2.257,2.325-2.257,4.21v.852l18.169-6.448v-.827C-950.944,227.716-951.907,226.557-953.091,226.969Zm-5.157,4.317-3.3,1.163c-.167.059-.277-.071-.277-.326a.523.523,0,0,1,.277-.521l3.3-1.158c.166-.058.274.071.274.325A.519.519,0,0,1-958.248,231.287Z" transform="translate(970.252 -225.175)"/></g><g transform="translate(36.859 59.549)"><path class="h" d="M-1274.693,223.794l-13.372-4.619c-1.542-.533-2.763,1.011-2.763,3.344v44.766c0,2.395,1.26,4.845,2.763,5.5l13.372,5.8c1.62.7,2.913-.763,2.913-3.171V229.3C-1271.781,226.827-1273.074,224.354-1274.693,223.794Zm-9.863.068,6.28,2.206a.955.955,0,0,1,.492.925c0,.439-.205.68-.492.579l-6.28-2.221a.945.945,0,0,1-.481-.914C-1285.037,224-1284.837,223.763-1284.556,223.862Zm3.1,49.982a3.829,3.829,0,0,1-1.7-3.343c0-1.43.766-2.288,1.7-1.9a3.817,3.817,0,0,1,1.706,3.348C-1279.746,273.391-1280.519,274.246-1281.453,273.844Zm8.254-3.648-16.33-6.848V226.608l16.33,5.855Z" transform="translate(1290.828 -219.07)"/><g transform="translate(4.801 25.302)"><path class="s" d="M-1275.305,296.573V302.6l-.882-.349v-6.015Z" transform="translate(1276.187 -296.233)"/><path class="s" d="M-1266.956,303.862c0,1.99-.785,2.887-1.934,2.431s-1.84-2.08-1.84-3.8c0-1.808.748-2.871,1.9-2.425C-1267.617,300.536-1266.956,302.187-1266.956,303.862Zm-2.841-1.029c0,1.183.36,2.159.954,2.393s.945-.509.945-1.687c0-1.088-.339-2.155-.951-2.392S-1269.8,301.658-1269.8,302.833Z" transform="translate(1272.52 -298.744)"/><path class="s" d="M-1256.711,309.213a2.779,2.779,0,0,0,1,.771c.413.163.632-.013.632-.411,0-.38-.189-.671-.667-1.121a2.993,2.993,0,0,1-1.089-2.221c0-1.037.565-1.613,1.5-1.251a2.729,2.729,0,0,1,1.017.7l-.2,1.035a2.238,2.238,0,0,0-.834-.613c-.389-.151-.578.047-.578.363,0,.388.225.647.738,1.146a2.927,2.927,0,0,1,1.036,2.225c0,1.023-.515,1.689-1.608,1.257a3.024,3.024,0,0,1-1.124-.815Z" transform="translate(1263.22 -302.039)"/></g></g><g transform="translate(71.02 53.576)"><path class="k" d="M-1165.022,233.195l-4-1.332c-1.373-.458-2.481.953-2.481,3.141s1.108,4.366,2.481,4.861l1.985.715a.114.114,0,0,1,.046.035l2.067,2.509-.2-1.667a.189.189,0,0,1,.019-.118.061.061,0,0,1,.072-.032l.113.033c1.387.408,2.482-.993,2.482-3.191C-1162.431,235.893-1163.6,233.669-1165.022,233.195Z" transform="translate(1176.467 -221.636)"/><path class="h" d="M-1184.353,208.751l.107.043a.139.139,0,0,1,.068.079.26.26,0,0,1,.018.127l-.185,1.485,1.969-1.058a.054.054,0,0,1,.044,0l1.943.644a1.532,1.532,0,0,0,1.765-.591,4.23,4.23,0,0,0,.738-2.6c0-2.216-1.128-4.362-2.5-4.781l-3.862-1.176c-1.327-.4-2.4,1.02-2.4,3.171C-1186.648,206.191-1185.645,208.235-1184.353,208.751Zm4.112-3.921a1.346,1.346,0,0,1,.662,1.27c0,.586-.3.967-.662.85a1.349,1.349,0,0,1-.659-1.268C-1180.9,205.1-1180.605,204.716-1180.242,204.83Zm-2.09-.655a1.335,1.335,0,0,1,.652,1.259c0,.581-.293.96-.652.845a1.339,1.339,0,0,1-.65-1.258C-1182.981,204.442-1182.69,204.062-1182.331,204.175Zm-2.061-.646a1.323,1.323,0,0,1,.643,1.249c0,.577-.289.955-.643.841a1.329,1.329,0,0,1-.641-1.248C-1185.033,203.8-1184.746,203.418-1184.392,203.529Z" transform="translate(1186.648 -200.854)"/></g><g transform="translate(38.005 6.656)"><path class="s" d="M-1140.377,57.764l-17.024,4.229,16.876,4.3,17.025-4.3Zm-.105,6.065-7.233-1.835,7.3-1.822,7.233,1.822Z" transform="translate(1200.007 -57.764)"/><path class="h" d="M-1269.568,89.482l-17.765,4.413,16.861,4.493L-1252.7,93.9Zm-.643,6.329-7.227-1.916,7.615-1.9,7.229,1.9Z" transform="translate(1287.333 -79.081)"/><path class="h" d="M-1013.8,89.482l-17.022,4.413,17.616,4.493,17.017-4.493Zm.421,6.329-7.549-1.916,7.295-1.9,7.548,1.9Z" transform="translate(1114.935 -79.081)"/><path class="h" d="M-1074.126,116.642l-14.909,3.915-12.552-3.267-5.021,1.3,17.619,4.609,19.929-5.261Z" transform="translate(1165.869 -97.335)"/><path class="h" d="M-1148.1,126.58l-12.732,3.3,5,1.332,7.66-2,7.551,2-7.66,2.012,5.067,1.35,12.733-3.362Z" transform="translate(1202.311 -104.015)"/><path class="h" d="M-1053.9,74.388l-4.834,1.228,9.826,2.475-12.19,3.128,4.951,1.263,17.023-4.391Z" transform="translate(1135.281 -68.937)"/><path class="h" d="M-1153.39,99.071l-9.915,2.544-9.826-2.544-15.061,3.826,9.824,2.584-12.73,3.267,4.949,1.319,17.779-4.586-9.875-2.584,5.02-1.282,9.876,2.57,9.965-2.57,4.976,1.282-4.97,1.289,5,1.295,9.915-2.584Z" transform="translate(1222.653 -85.526)"/><path class="h" d="M-1213.394,114.67l4.9,1.3-7.657,1.955-4.9-1.305Z" transform="translate(1242.785 -96.01)"/><path class="h" d="M-1183.572,89.482l7.267,1.882-4.994,1.262-7.267-1.891Z" transform="translate(1220.952 -79.082)"/><path class="h" d="M-1168.946,76.85l-12.253,3.113-21.751-5.575-14.9,3.7,4.79,1.247,9.962-2.487,21.86,5.631,17.2-4.391Z" transform="translate(1240.637 -68.937)"/></g><path class="t" d="M-1303.593,188.468l-64.447-22.028v69.132l86.171,38.936,20.708-9.892.075-76.148,59.933-19.924" transform="translate(1379.58 -124.149)"/></g></g></svg>