<svg xmlns="http://www.w3.org/2000/svg" xmlns:xlink="http://www.w3.org/1999/xlink" width="302" height="302" viewBox="0 0 302 302"><defs><style>.a{fill:#47c98e;}.b,.c{fill:#fff6cb;}.c{opacity:0.69;}.d{fill:#f9f5e2;}.e{fill:#e1eeff;}.f{fill:url(#a);}.g{fill:url(#c);}.h,.k{fill:url(#d);}.i{fill:url(#r);}.j{fill:url(#t);}.k{opacity:0.61;}.l{fill:url(#x);}.m{fill:url(#y);}.n{fill:url(#z);}.o{fill:url(#aa);}.p{fill:url(#ag);}.q{fill:url(#ai);}.r{fill:url(#ak);}.s{fill:#fe5f7b;}.t{fill:url(#ax);}.u{fill:none;stroke:#707070;stroke-linecap:round;stroke-linejoin:round;stroke-dasharray:3.012 5.019;}</style><linearGradient id="a" y1="0.5" x2="1" y2="0.5" gradientUnits="objectBoundingBox"><stop offset="0" stop-color="#503b6d"/><stop offset="1" stop-color="#3b1e5c"/></linearGradient><linearGradient id="c" x1="0" xlink:href="#a"/><linearGradient id="d" y1="0.5" x2="1" y2="0.5" gradientUnits="objectBoundingBox"><stop offset="0" stop-color="#00d0bc"/><stop offset="1" stop-color="#69f9b8"/></linearGradient><linearGradient id="r" x1="0" y1="0.5" x2="1" y2="0.5" xlink:href="#d"/><linearGradient id="t" x1="0" y1="0.5" x2="1" y2="0.5" xlink:href="#d"/><linearGradient id="x" x1="0" y1="0.5" x2="1" y2="0.5" xlink:href="#d"/><linearGradient id="y" x1="0" y1="0.5" x2="1" y2="0.5" xlink:href="#d"/><linearGradient id="z" x1="0" y1="0.5" x2="1" y2="0.5" xlink:href="#d"/><linearGradient id="aa" x1="0" y1="0.5" x2="1" y2="0.5" xlink:href="#d"/><linearGradient id="ag" x1="0" y1="0.5" x2="1" y2="0.5" xlink:href="#d"/><linearGradient id="ai" x1="0" y1="0.5" x2="1" y2="0.5" xlink:href="#d"/><linearGradient id="ak" x1="0" y1="0.5" x2="1" y2="0.5" xlink:href="#d"/><linearGradient id="ax" x1="0" y1="0.5" x2="1" y2="0.5" xlink:href="#d"/></defs><g transform="translate(-278 -2705)"><path class="a" d="M151,0A151,151,0,1,1,0,151,151,151,0,0,1,151,0Z" transform="translate(278 2705)"/><g transform="translate(342.257 2739.957) rotate(-10)"><path class="b" d="M8.274,9.213H.939A.942.942,0,0,1,0,8.274V.939A.942.942,0,0,1,.939,0H8.274a.942.942,0,0,1,.939.939V8.274A.942.942,0,0,1,8.274,9.213Z" transform="translate(77.276 0)"/><path class="c" d="M15.161,16.882H1.721A1.726,1.726,0,0,1,0,15.161V1.721A1.726,1.726,0,0,1,1.721,0h13.44a1.726,1.726,0,0,1,1.721,1.721v13.44A1.726,1.726,0,0,1,15.161,16.882Z" transform="matrix(0.602, 0.799, -0.799, 0.602, 13.483, 102.458)"/><path class="c" d="M15.161,16.882H1.721A1.726,1.726,0,0,1,0,15.161V1.721A1.726,1.726,0,0,1,1.721,0h13.44a1.726,1.726,0,0,1,1.721,1.721v13.44A1.726,1.726,0,0,1,15.161,16.882Z" transform="translate(182.909 63.992) rotate(85)"/><ellipse class="d" cx="7.323" cy="7.323" rx="7.323" ry="7.323" transform="translate(119.489 31.865)"/><path class="e" d="M0,11.45,10.917,0l5.559,13.68Z" transform="translate(23.834 32.382)"/><path class="e" d="M0,11.45,10.917,0l5.559,13.68Z" transform="matrix(0.848, 0.53, -0.53, 0.848, 83.312, 82.19)"/></g><g transform="translate(330.383 2794.818)"><g transform="translate(0 0)"><path class="f" d="M-302.452,207.019l-98.422,47.138V132.086l99.133-28.381Z" transform="translate(498.485 -81.985)"/><path class="f" d="M-698.553,103.435l97.611,29.521v121.02l-97.611-47.242Z" transform="translate(698.553 -81.804)"/><path class="g" d="M-598.533,37.467l96.723,21.72-99.366,29.738L-698.553,59.1Z" transform="translate(698.553 -37.467)"/></g><g transform="translate(178.973 99.44)"><g transform="translate(0 3.8)"><path class="h" d="M-150.8,358.513c-1.071.472-1.946-.517-1.946-2.2s.876-3.433,1.946-3.886,1.925.544,1.925,2.214S-149.738,358.045-150.8,358.513Zm0-5.713c-.937.4-1.7,1.925-1.7,3.4s.766,2.344,1.7,1.932a3.886,3.886,0,0,0,1.687-3.4C-149.114,353.275-149.87,352.4-150.8,352.8Zm0,4.958c-.8.352-1.461-.391-1.461-1.659a3.318,3.318,0,0,1,1.461-2.921c.8-.341,1.449.406,1.449,1.664A3.335,3.335,0,0,1-150.8,357.758Zm0-4.2a2.771,2.771,0,0,0-1.219,2.439c0,1.058.548,1.679,1.219,1.385a2.783,2.783,0,0,0,1.211-2.435C-149.591,353.894-150.133,353.27-150.8,353.556Z" transform="translate(152.748 -352.314)"/></g><g transform="translate(4.6 1.876)"><path class="h" d="M-136.822,352.566c-1.044.459-1.9-.521-1.9-2.188s.854-3.385,1.9-3.827,1.877.547,1.877,2.2S-135.784,352.109-136.822,352.566Zm0-5.641c-.914.388-1.661,1.892-1.661,3.351s.747,2.318,1.661,1.917,1.645-1.9,1.645-3.345S-135.912,346.538-136.822,346.925Zm0,4.895c-.784.344-1.424-.394-1.424-1.646a3.269,3.269,0,0,1,1.424-2.876c.781-.332,1.413.409,1.413,1.651A3.284,3.284,0,0,1-136.822,351.82Zm0-4.149a2.731,2.731,0,0,0-1.189,2.4c0,1.044.534,1.661,1.189,1.374a2.741,2.741,0,0,0,1.181-2.4C-135.641,348.011-136.17,347.392-136.822,347.671Z" transform="translate(138.719 -346.447)"/></g><g transform="translate(9.086)"><path class="h" d="M-123.19,346.766c-1.018.448-1.85-.525-1.85-2.171s.833-3.338,1.85-3.769,1.831.55,1.831,2.179S-122.177,346.32-123.19,346.766Zm0-5.571c-.891.378-1.62,1.86-1.62,3.3s.728,2.293,1.62,1.9,1.605-1.866,1.605-3.295S-122.3,340.818-123.19,341.194Zm0,4.835c-.765.335-1.389-.4-1.389-1.633a3.221,3.221,0,0,1,1.389-2.833c.761-.324,1.379.411,1.379,1.638A3.237,3.237,0,0,1-123.19,346.029Zm0-4.1a2.691,2.691,0,0,0-1.159,2.366c0,1.031.521,1.643,1.159,1.364a2.7,2.7,0,0,0,1.152-2.362C-122.038,342.274-122.553,341.66-123.19,341.931Z" transform="translate(125.04 -340.725)"/></g><g transform="translate(0.118 10.899)"><path class="h" d="M-150.443,380.171c-1.07.492-1.945-.478-1.945-2.166s.875-3.449,1.945-3.923,1.924.506,1.924,2.176S-149.38,379.682-150.443,380.171Zm0-5.711a3.949,3.949,0,0,0-1.7,3.436c0,1.478.766,2.328,1.7,1.9a3.971,3.971,0,0,0,1.686-3.429C-148.757,374.9-149.512,374.046-150.443,374.46Zm0,4.956c-.8.368-1.46-.362-1.46-1.63a3.392,3.392,0,0,1,1.46-2.949c.8-.356,1.448.378,1.448,1.635A3.407,3.407,0,0,1-150.443,379.416Zm0-4.2a2.833,2.833,0,0,0-1.218,2.462c0,1.057.548,1.668,1.218,1.361a2.844,2.844,0,0,0,1.21-2.458C-149.233,375.53-149.775,374.917-150.443,375.215Z" transform="translate(152.388 -373.964)"/></g><g transform="translate(9.198 6.925)"><path class="h" d="M-122.849,367.892c-1.018.468-1.849-.488-1.849-2.134s.832-3.353,1.849-3.8,1.83.514,1.83,2.143S-121.837,367.426-122.849,367.892Zm0-5.57c-.891.4-1.619,1.891-1.619,3.332s.728,2.279,1.619,1.87a3.854,3.854,0,0,0,1.6-3.325C-121.245,362.77-121.963,361.928-122.849,362.322Zm0,4.833c-.764.35-1.389-.37-1.389-1.605a3.291,3.291,0,0,1,1.389-2.859c.761-.339,1.378.384,1.378,1.61A3.308,3.308,0,0,1-122.849,367.155Zm0-4.1a2.749,2.749,0,0,0-1.159,2.388c0,1.031.521,1.632,1.159,1.34A2.76,2.76,0,0,0-121.7,364.4C-121.7,363.378-122.213,362.775-122.849,363.058Z" transform="translate(124.698 -361.843)"/></g><g transform="translate(0.118 18.047)"><path class="h" d="M-150.443,401.982c-1.07.513-1.945-.44-1.945-2.128s.875-3.466,1.945-3.961,1.924.468,1.924,2.137S-149.38,401.471-150.443,401.982Zm0-5.711a4.037,4.037,0,0,0-1.7,3.469c0,1.478.766,2.313,1.7,1.864a4.059,4.059,0,0,0,1.686-3.462C-148.757,396.678-149.512,395.838-150.443,396.27Zm0,4.956c-.8.384-1.46-.333-1.46-1.6a3.467,3.467,0,0,1,1.46-2.977c.8-.372,1.448.349,1.448,1.606A3.482,3.482,0,0,1-150.443,401.226Zm0-4.2a2.9,2.9,0,0,0-1.218,2.486c0,1.058.548,1.657,1.218,1.338a2.908,2.908,0,0,0,1.21-2.483C-149.233,397.316-149.775,396.714-150.443,397.025Z" transform="translate(152.388 -395.763)"/></g><g transform="translate(4.715 15.946)"><path class="h" d="M-136.472,395.491c-1.043.5-1.9-.446-1.9-2.113s.853-3.417,1.9-3.9,1.876.473,1.876,2.122S-135.435,394.994-136.472,395.491Zm0-5.64a3.976,3.976,0,0,0-1.66,3.416c0,1.459.746,2.288,1.66,1.851a4,4,0,0,0,1.644-3.409C-134.828,390.264-135.563,389.43-136.472,389.851Zm0,4.894c-.784.375-1.424-.338-1.424-1.59a3.414,3.414,0,0,1,1.424-2.931c.78-.363,1.412.353,1.412,1.595A3.431,3.431,0,0,1-136.472,394.745Zm0-4.148a2.852,2.852,0,0,0-1.188,2.448c0,1.044.534,1.64,1.188,1.328a2.864,2.864,0,0,0,1.18-2.444C-135.292,390.891-135.82,390.293-136.472,390.6Z" transform="translate(138.368 -389.354)"/></g><g transform="translate(9.198 13.896)"><path class="h" d="M-122.849,389.162c-1.018.488-1.849-.452-1.849-2.1s.832-3.37,1.849-3.841,1.83.478,1.83,2.107S-121.837,388.676-122.849,389.162Zm0-5.57a3.916,3.916,0,0,0-1.619,3.364c0,1.441.728,2.265,1.619,1.838a3.94,3.94,0,0,0,1.6-3.357C-121.245,384.009-121.963,383.18-122.849,383.592Zm0,4.833c-.764.365-1.389-.342-1.389-1.578a3.364,3.364,0,0,1,1.389-2.887c.761-.354,1.378.357,1.378,1.583A3.381,3.381,0,0,1-122.849,388.425Zm0-4.1a2.81,2.81,0,0,0-1.159,2.41c0,1.031.521,1.622,1.159,1.318a2.821,2.821,0,0,0,1.151-2.407C-121.7,384.626-122.213,384.032-122.849,384.328Z" transform="translate(124.698 -383.104)"/></g><g transform="translate(4.979 10.238)"><path class="h" d="M-134.775,375.866a.2.2,0,0,1-.247-.05l-2.438-2.777a.8.8,0,0,1,0-.794c.138-.28.362-.38.5-.223l2.431,2.78a.8.8,0,0,1,0,.788A.566.566,0,0,1-134.775,375.866Zm-2.434-3.524a.188.188,0,0,0-.083.092.268.268,0,0,0,0,.265l2.435,2.778c.044.051.12.015.164-.075a.268.268,0,0,0,0-.263l-2.433-2.779A.068.068,0,0,0-137.209,372.343Z" transform="translate(137.563 -371.947)"/></g><g transform="translate(4.979 9.155)"><path class="h" d="M-137.209,374.764a.2.2,0,0,1-.25-.05.8.8,0,0,1,0-.794l2.438-4.982c.136-.278.357-.376.493-.22a.8.8,0,0,1,0,.788l-2.431,4.979A.574.574,0,0,1-137.209,374.764Zm2.434-5.728a.184.184,0,0,0-.082.091l-2.435,4.981a.268.268,0,0,0,0,.265c.045.051.122.015.167-.076l2.433-4.98a.268.268,0,0,0,0-.263A.066.066,0,0,0-134.775,369.036Z" transform="translate(137.563 -368.643)"/></g></g><g transform="translate(11.891 30.414)"><path class="h" d="M-660.78,135.225c-.835-.262-1.51-1.582-1.51-2.945s.676-2.27,1.51-2.022,1.525,1.573,1.525,2.949S-659.94,135.489-660.78,135.225Zm0-4.658c-.731-.218-1.324.576-1.324,1.77a2.732,2.732,0,0,0,1.324,2.58c.735.23,1.336-.562,1.336-1.767S-660.045,130.786-660.78,130.567Zm0,4.042a2.344,2.344,0,0,1-1.137-2.214c0-1.026.509-1.708,1.137-1.52a2.332,2.332,0,0,1,1.146,2.217C-659.634,134.126-660.149,134.806-660.78,134.609Zm0-3.426c-.524-.158-.95.412-.95,1.269a1.956,1.956,0,0,0,.95,1.849c.526.164.956-.4.956-1.267A1.948,1.948,0,0,0-660.78,131.183Z" transform="translate(662.29 -130.218)"/><g transform="translate(7.332 2.199)"><path class="h" d="M-638.345,142.057c-.876-.275-1.585-1.633-1.585-3.028s.709-2.32,1.585-2.06,1.6,1.623,1.6,3.033S-637.464,142.334-638.345,142.057Zm0-4.772c-.768-.229-1.389.58-1.389,1.8a2.806,2.806,0,0,0,1.389,2.653c.771.241,1.4-.566,1.4-1.8A2.791,2.791,0,0,0-638.345,137.285Zm0,4.141a2.408,2.408,0,0,1-1.193-2.277c0-1.051.534-1.745,1.193-1.548a2.4,2.4,0,0,1,1.2,2.28C-637.143,140.94-637.684,141.633-638.345,141.426Zm0-3.51c-.551-.165-1,.415-1,1.293a2.01,2.01,0,0,0,1,1.9c.552.172,1-.407,1-1.29A2,2,0,0,0-638.345,137.916Z" transform="translate(639.93 -136.926)"/></g><g transform="translate(0 11.666)"><path class="h" d="M-660.78,170.814c-.835-.294-1.51-1.641-1.51-3s.676-2.244,1.51-1.963,1.525,1.632,1.525,3.008S-659.94,171.11-660.78,170.814Zm0-4.659c-.731-.246-1.324.525-1.324,1.72a2.854,2.854,0,0,0,1.324,2.631c.735.258,1.336-.511,1.336-1.716A2.837,2.837,0,0,0-660.78,166.155Zm0,4.042a2.448,2.448,0,0,1-1.137-2.259c0-1.025.509-1.688,1.137-1.476a2.436,2.436,0,0,1,1.146,2.261C-659.634,169.758-660.149,170.419-660.78,170.2Zm0-3.426c-.524-.178-.95.375-.95,1.232a2.044,2.044,0,0,0,.95,1.886c.526.184.956-.368.956-1.23A2.035,2.035,0,0,0-660.78,166.771Z" transform="translate(662.29 -165.795)"/></g><g transform="translate(7.332 14.15)"><path class="h" d="M-638.345,178.516c-.876-.309-1.585-1.694-1.585-3.09s.709-2.293,1.585-2,1.6,1.685,1.6,3.1S-637.464,178.826-638.345,178.516Zm0-4.772c-.768-.259-1.389.527-1.389,1.75a2.932,2.932,0,0,0,1.389,2.707c.771.271,1.4-.512,1.4-1.746A2.916,2.916,0,0,0-638.345,173.743Zm0,4.141a2.516,2.516,0,0,1-1.193-2.324c0-1.051.534-1.725,1.193-1.5a2.5,2.5,0,0,1,1.2,2.327C-637.143,177.444-637.684,178.116-638.345,177.884Zm0-3.51c-.551-.187-1,.376-1,1.254a2.1,2.1,0,0,0,1,1.94c.552.193,1-.368,1-1.252A2.091,2.091,0,0,0-638.345,174.375Z" transform="translate(639.93 -173.372)"/></g><g transform="translate(3.928 7.302)"><path class="i" d="M-648.016,157.325a.4.4,0,0,1-.206-.206l-2-3.9a.683.683,0,0,1,0-.659c.112-.146.294-.088.407.13l2.009,3.9a.684.684,0,0,1,0,.664A.178.178,0,0,1-648.016,157.325Zm-2.007-4.521a.059.059,0,0,0-.068.024.228.228,0,0,0,0,.22l2.006,3.9c.037.071.1.092.137.045a.227.227,0,0,0,0-.221l-2.007-3.9A.128.128,0,0,0-650.022,152.8Z" transform="translate(650.31 -152.485)"/><g transform="translate(0 0.639)"><path class="i" d="M-650.022,157.969a.389.389,0,0,1-.2-.2.683.683,0,0,1,0-.659l2-2.591c.113-.147.3-.088.412.132a.685.685,0,0,1,0,.664l-2.009,2.589A.176.176,0,0,1-650.022,157.969Zm2.007-3.213a.06.06,0,0,0-.069.024l-2.006,2.59a.228.228,0,0,0,0,.22c.036.071.1.092.135.045l2.007-2.59a.227.227,0,0,0,0-.221A.127.127,0,0,0-648.016,154.756Z" transform="translate(650.31 -154.434)"/></g></g></g><g transform="translate(107.418 52.438)"><path class="j" d="M-360.919,259.653c.117-.041.212.062.212.228v1.809a.409.409,0,0,1-.212.377c-.117.041-.212-.06-.212-.227v-1.812A.405.405,0,0,1-360.919,259.653Z" transform="translate(364.355 -239.229)"/><path class="i" d="M-361.792,270.667c.373-.134.636.332.636.977s-.262,1.3-.636,1.437-.638-.328-.638-.977S-362.166,270.8-361.792,270.667Zm0,.6c-.1.034-.212.327-.212.68s.117.561.212.527.212-.327.212-.68S-361.7,271.236-361.792,271.27Z" transform="translate(365.228 -246.622)"/><path class="h" d="M-352.092,205.189c-.218-2.611-1.141-5.028-3.044-5.183-1.162-2.087-2.655-3-4.739-2.481a8.9,8.9,0,0,0-4.946,5.421,1.884,1.884,0,0,0-1.572-.2c-1.666.493-3.029,2.834-3.029,5.221a.437.437,0,0,0,0,.06c.007.174.009.243.013.339a4.1,4.1,0,0,0,.1.749,7,7,0,0,0-1.655,4.455c.156,2.295,1.277,3.941,3.022,3.462l.04,0,12.667-4.335C-353.208,212-351.879,208.624-352.092,205.189Zm-3.142,6.93-12.637,4.3h-.023c-1.45.433-2.559-.876-2.635-3a5.774,5.774,0,0,1,1.575-3.981.443.443,0,0,0,.109-.447,2.612,2.612,0,0,1-.133-.8c0-.087-.009-.155-.013-.32a.335.335,0,0,1,0-.048c0-2.035,1.171-4.045,2.6-4.472a1.636,1.636,0,0,1,1.516.275c.1.066.233-.016.3-.182,1.068-2.842,2.631-4.583,4.706-5.329,2.01-.462,3.329.258,4.455,2.391a.136.136,0,0,0,.119.083c1.6.067,2.655,2.031,2.826,4.775C-352.278,208.5-353.463,211.516-355.234,212.119Z" transform="translate(370.964 -197.385)"/><path class="k" d="M-354.345,213.337l-12.637,4.3H-367c-1.45.433-2.559-.876-2.635-3a5.774,5.774,0,0,1,1.575-3.981.443.443,0,0,0,.109-.447,2.613,2.613,0,0,1-.133-.8c0-.087-.009-.155-.013-.32a.331.331,0,0,1,0-.048c0-2.035,1.171-4.045,2.6-4.472a1.636,1.636,0,0,1,1.516.275c.1.066.233-.016.3-.182,1.068-2.842,2.631-4.583,4.706-5.329,2.01-.462,3.329.258,4.455,2.391a.136.136,0,0,0,.119.083c1.6.067,2.655,2.031,2.826,4.775C-351.388,209.723-352.573,212.735-354.345,213.337Z" transform="translate(370.074 -198.603)"/><path class="l" d="M-360.919,281.736c.117-.043.212.056.212.223v1.809a.421.421,0,0,1-.212.382c-.117.044-.212-.055-.212-.222v-1.812A.417.417,0,0,1-360.919,281.736Z" transform="translate(364.355 -254.07)"/><path class="m" d="M-353.206,278.89c.115-.043.209.057.209.222v1.794a.416.416,0,0,1-.209.378c-.115.043-.209-.055-.209-.221v-1.8A.413.413,0,0,1-353.206,278.89Z" transform="translate(359.169 -252.157)"/><path class="n" d="M-345.622,254.378c.113-.039.205.062.205.226v1.779a.4.4,0,0,1-.205.369c-.113.04-.206-.06-.206-.224v-1.782A.4.4,0,0,1-345.622,254.378Z" transform="translate(354.07 -235.684)"/><path class="o" d="M-338.165,262.573c.111-.04.2.06.2.222v1.764a.4.4,0,0,1-.2.368c-.111.041-.2-.058-.2-.221V262.94A.4.4,0,0,1-338.165,262.573Z" transform="translate(349.056 -241.191)"/><path class="n" d="M-330.83,249.277c.11-.038.2.062.2.223v1.75a.392.392,0,0,1-.2.362c-.109.039-.2-.06-.2-.222v-1.752A.39.39,0,0,1-330.83,249.277Z" transform="translate(344.124 -232.256)"/><path class="o" d="M-323.615,257.38c.108-.039.2.06.2.219v1.735a.394.394,0,0,1-.2.361c-.108.039-.2-.058-.2-.218v-1.738A.391.391,0,0,1-323.615,257.38Z" transform="translate(339.273 -237.701)"/><path class="o" d="M-338.165,273.34c.111-.041.2.057.2.219v1.764a.408.408,0,0,1-.2.37c-.111.042-.2-.055-.2-.218v-1.767A.4.4,0,0,1-338.165,273.34Z" transform="translate(349.056 -248.427)"/><path class="n" d="M-345.622,265.235c.113-.04.205.06.205.223v1.779a.406.406,0,0,1-.205.372c-.113.041-.206-.058-.206-.222V265.6A.4.4,0,0,1-345.622,265.235Z" transform="translate(354.07 -242.98)"/><path class="n" d="M-345.622,276.091c.113-.042.205.057.205.221v1.779a.412.412,0,0,1-.205.374c-.113.043-.206-.055-.206-.219v-1.782A.409.409,0,0,1-345.622,276.091Z" transform="translate(354.07 -250.276)"/><path class="p" d="M-354.064,256.968c.368-.127.625.338.625.978s-.258,1.285-.625,1.415-.628-.335-.628-.978S-354.433,257.1-354.064,256.968Zm0,.6c-.093.032-.209.321-.209.672s.116.558.209.525.209-.321.209-.671S-353.971,257.534-354.064,257.566Z" transform="translate(360.028 -237.416)"/><path class="p" d="M-354.064,267.914c.368-.131.625.331.625.971s-.258,1.289-.625,1.423-.628-.327-.628-.97S-354.433,268.046-354.064,267.914Zm0,.6c-.093.033-.209.324-.209.674s.116.557.209.523.209-.324.209-.674S-353.971,268.479-354.064,268.513Z" transform="translate(360.028 -244.772)"/><path class="q" d="M-338.994,251.782c.355-.123.6.336.6.966s-.249,1.263-.6,1.388-.607-.333-.607-.965S-339.35,251.905-338.994,251.782Zm0,.589c-.091.031-.2.314-.2.659s.112.55.2.518.2-.315.2-.659S-338.9,252.339-338.994,252.371Z" transform="translate(349.885 -233.932)"/><path class="i" d="M-331.646,259.93c.35-.125.595.328.595.953s-.245,1.254-.595,1.382-.6-.325-.6-.952S-332,260.055-331.646,259.93Zm0,.584c-.089.032-.2.314-.2.655s.11.544.2.512.2-.314.2-.655S-331.557,260.481-331.646,260.513Z" transform="translate(344.94 -239.407)"/><path class="r" d="M-324.418,246.766c.344-.119.585.334.585.954s-.241,1.24-.585,1.362-.587-.331-.587-.953S-324.763,246.885-324.418,246.766Zm0,.579c-.088.03-.2.308-.2.647s.108.541.2.511.2-.309.2-.647S-324.331,247.315-324.418,247.345Z" transform="translate(340.075 -230.561)"/><path class="r" d="M-324.418,267.945c.344-.127.585.32.585.939s-.241,1.246-.585,1.376-.587-.317-.587-.938S-324.763,268.072-324.418,267.945Zm0,.579c-.088.032-.2.313-.2.652s.108.539.2.506.2-.314.2-.652S-324.331,268.491-324.418,268.523Z" transform="translate(340.075 -244.793)"/><path class="i" d="M-331.646,270.606c.35-.129.595.321.595.945s-.245,1.257-.595,1.389-.6-.317-.6-.944S-332,270.735-331.646,270.606Zm0,.584c-.089.033-.2.316-.2.658s.11.543.2.51.2-.316.2-.658S-331.557,271.157-331.646,271.189Z" transform="translate(344.94 -246.581)"/></g><g transform="translate(136.774 57.947)"><path class="h" d="M-251.374,255.468a4.636,4.636,0,0,0-2.139,3.424l-9.038,3.842c-.224-1.052-.816-1.718-1.563-1.749v-5.32l9.533-3.911c1.95-.8,3.525-3.927,3.525-6.972s-1.575-4.917-3.525-4.159l-20.837,8.086c-2.128.824-3.88,4.128-3.88,7.343s1.753,5.126,3.88,4.252l9.958-4.086v5.331a5.577,5.577,0,0,0-1.582,3.1l-9.537,4.059c-.31-1.389-1.25-2.117-2.364-1.648-1.366.576-2.5,2.731-2.5,4.782s1.13,3.242,2.5,2.647a5.043,5.043,0,0,0,2.376-3.672l9.513-4.086c.294,1.37,1.207,2.07,2.267,1.606a4.825,4.825,0,0,0,2.248-3.544l9.018-3.873c.275,1.339,1.141,2.027,2.147,1.59,1.223-.53,2.221-2.546,2.221-4.468S-250.152,254.954-251.374,255.468Zm-27.569,16.9c-.6.255-1.068-.244-1.068-1.137a2.29,2.29,0,0,1,1.068-2.046c.6-.255,1.064.248,1.064,1.138A2.3,2.3,0,0,1-278.944,272.364Zm3.525-14.168c-1.374.557-2.461-.634-2.461-2.708s1.087-4.132,2.461-4.674l20.837-8.167c1.261-.5,2.252.673,2.252,2.642s-.99,3.931-2.252,4.441Zm10.632,8.07c-.565.244-1.01-.248-1.01-1.114a2.216,2.216,0,0,1,1.01-1.981c.565-.24,1.006.251,1.006,1.118A2.211,2.211,0,0,1-264.787,266.266Zm13.413-5.772c-.534.232-.956-.251-.956-1.1a2.152,2.152,0,0,1,.956-1.919c.534-.225.956.259.956,1.1A2.149,2.149,0,0,1-251.374,260.494Zm-3.207-33.028L-275.419,235c-2.128.774-3.88,4.028-3.88,7.246s1.753,5.169,3.88,4.353l20.837-8c1.95-.747,3.525-3.834,3.525-6.879S-252.631,226.761-254.582,227.466Zm0,9.107-20.837,7.92c-1.374.522-2.461-.7-2.461-2.774s1.087-4.1,2.461-4.608l20.837-7.622c1.261-.46,2.252.735,2.252,2.7S-253.32,236.1-254.582,236.573Zm0-22.262-20.837,6.987c-2.128.715-3.88,3.927-3.88,7.142s1.753,5.215,3.88,4.453l20.837-7.451c1.95-.7,3.525-3.741,3.525-6.786S-252.631,213.658-254.582,214.312Zm0,9.107-20.837,7.37c-1.374.484-2.461-.766-2.461-2.84s1.087-4.074,2.461-4.542l20.837-7.072c1.261-.43,2.252.789,2.252,2.762S-253.32,222.974-254.582,223.419Z" transform="translate(281.439 -214.185)"/><path class="s" d="M-264.188,333.376a2.232,2.232,0,0,1-1.048,2c-.58.232-1.052-.286-1.052-1.161a2.236,2.236,0,0,1,1.052-2C-264.656,331.983-264.188,332.505-264.188,333.376Z" transform="translate(271.257 -293.474)"/><path class="s" d="M-251.457,328.341a2.214,2.214,0,0,1-1.033,1.981c-.569.228-1.033-.29-1.033-1.157a2.206,2.206,0,0,1,1.033-1.981C-251.918,326.956-251.457,327.474-251.457,328.341Z" transform="translate(262.677 -290.095)"/><path class="s" d="M-238.935,323.381a2.186,2.186,0,0,1-1.014,1.962c-.565.228-1.021-.286-1.021-1.149a2.18,2.18,0,0,1,1.021-1.962C-239.388,322.008-238.935,322.526-238.935,323.381Z" transform="translate(254.24 -286.768)"/><path class="s" d="M-238.935,282.292a2.12,2.12,0,0,1-1.014,1.934c-.565.213-1.021-.313-1.021-1.176a2.118,2.118,0,0,1,1.021-1.934C-239.388,280.907-238.935,281.437-238.935,282.292Z" transform="translate(254.24 -259.138)"/><path class="s" d="M-251.457,286.921a2.148,2.148,0,0,1-1.033,1.954c-.569.213-1.033-.313-1.033-1.184a2.146,2.146,0,0,1,1.033-1.954C-251.918,285.525-251.457,286.055-251.457,286.921Z" transform="translate(262.677 -262.244)"/><path class="s" d="M-264.188,291.626a2.17,2.17,0,0,1-1.048,1.973c-.58.217-1.052-.313-1.052-1.192a2.164,2.164,0,0,1,1.052-1.973C-264.656,290.221-264.188,290.755-264.188,291.626Z" transform="translate(271.257 -265.4)"/><path class="s" d="M-264.188,249.875a2.106,2.106,0,0,1-1.048,1.946c-.58.2-1.052-.344-1.052-1.219a2.1,2.1,0,0,1,1.052-1.946C-264.656,248.459-264.188,249-264.188,249.875Z" transform="translate(271.257 -237.326)"/><path class="s" d="M-251.457,245.5a2.078,2.078,0,0,1-1.033,1.926c-.569.2-1.033-.34-1.033-1.211a2.081,2.081,0,0,1,1.033-1.926C-251.918,244.1-251.457,244.642-251.457,245.5Z" transform="translate(262.677 -234.395)"/><path class="s" d="M-238.935,241.2a2.056,2.056,0,0,1-1.014,1.907c-.565.2-1.021-.34-1.021-1.2A2.054,2.054,0,0,1-239.949,240C-239.388,239.805-238.935,240.347-238.935,241.2Z" transform="translate(254.24 -231.508)"/></g><g transform="translate(31.868 61.236)"><path class="s" d="M-523.783,254.387l-2.267-.8,2.081-2.41-.9-1.656-3.145,3.656a1.305,1.305,0,0,0,0,1.339.884.884,0,0,0,.443.434l2.255.8-2.071,2.389.888,1.661,3.161-3.63a1.307,1.307,0,0,0,0-1.35A.893.893,0,0,0-523.783,254.387Z" transform="translate(552.186 -241.226)"/><path class="h" d="M-532.054,238.685c-3.117-1.054-5.621,1.895-5.621,6.576s2.5,9.395,5.621,10.538c3.151,1.156,5.729-1.766,5.729-6.538S-528.9,239.755-532.054,238.685Zm0,15.213c-2.427-.883-4.381-4.551-4.381-8.2s1.954-5.94,4.381-5.111c2.448.835,4.447,4.519,4.447,8.223S-529.608,254.784-532.054,253.9Z" transform="translate(558.56 -233.797)"/><path class="s" d="M-563.143,269.1l-2.169-.8,1.991-2.341-.857-1.626-3.009,3.551a1.3,1.3,0,0,0,0,1.31.864.864,0,0,0,.424.428l2.158.8-1.982,2.321.85,1.632,3.024-3.527a1.3,1.3,0,0,0,0-1.32A.871.871,0,0,0-563.143,269.1Z" transform="translate(578.512 -251.177)"/><path class="h" d="M-571.059,253.687c-2.983-1.056-5.38,1.808-5.38,6.389s2.4,9.211,5.38,10.353c3.014,1.154,5.481-1.685,5.481-6.351S-568.046,254.759-571.059,253.687Zm0,14.881c-2.323-.882-4.193-4.485-4.193-8.055s1.87-5.8,4.193-4.966c2.342.837,4.254,4.456,4.254,8.078S-568.719,269.453-571.059,268.568Z" transform="translate(584.613 -243.876)"/><path class="h" d="M-562.72,324.572l1.837-2.072-.868-1.672-.791.9V316.5a1.3,1.3,0,0,0-.61-1.173l-6.033-2.348v1.851l5.424,2.128v4.283l-.786-1.52-.857.976,1.821,3.531c.237.461.623.617.862.349Z" transform="translate(579.738 -283.869)"/><path class="h" d="M-573.817,336.313l6.034,2.493v-1.87l-5.436-2.229V331l.719,1.774.961-.724-1.8-4.432c-.217-.5-.607-.709-.87-.478a.521.521,0,0,0-.085.1l-1.783,2.977.949,1.492.714-1.189v4.622A1.316,1.316,0,0,0-573.817,336.313Z" transform="translate(584.37 -293.33)"/><path class="h" d="M-573.664,249.324l-1.258-.286c.04.638.06,1.287.06,1.929l-.06,2.041-.184,1.7-.008.051c-.549,3.949-1.954,7.177-4,9.216-1.865,1.812-3.007,4.9-3.195,8.619l-10.9-4.538a25.635,25.635,0,0,0-3.044-10.922c-4.965-9.108-5.291-21.3-.749-27.453,2.15-2.91,5.145-4.114,8.382-3.327l.207.053a12.651,12.651,0,0,1,2.335.957,12.808,12.808,0,0,1,1.2.755l1.177.916c.386.335.772.7,1.143,1.085l.5-1.536c-.407-.42-.829-.82-1.254-1.186l-1.292-1a13.672,13.672,0,0,0-1.313-.819l-1.338-.636c-.188-.075-.373-.138-.557-.2l-.007-.009-.035-.006c-.012,0-.023-.014-.034-.017v.006c-.257-.087-.564-.179-.813-.239-7.523-1.8-13.107,6.227-12.642,17.9a36.9,36.9,0,0,0,4.293,15.786A22.328,22.328,0,0,1-594.4,267.9c-1.023.345-1.445,2.088-.952,3.886a3.925,3.925,0,0,0,1.858,2.6l.407.174a3.324,3.324,0,0,0-.11.874c0,1.525.8,3.108,1.781,3.535l7.238,3.142c1.017.441,1.837-.463,1.841-2.015a5.045,5.045,0,0,0-.113-.987l.419.179c1.189.515,2.158-.541,2.162-2.358a5.529,5.529,0,0,0-1.217-3.477c.126-3.355,1.134-6.133,2.807-7.746,2.45-2.435,4.058-6.408,4.529-11.245.033-.309.056-.634.077-.953l.068-2.072C-573.6,250.736-573.62,250.025-573.664,249.324Zm-10.508,30.914-7.238-3.118a1.336,1.336,0,0,1-.595-1.179c0-.511.265-.809.595-.668l7.238,3.1a1.36,1.36,0,0,1,.615,1.2C-583.557,280.085-583.834,280.383-584.173,280.237Zm2.146-2.829-11.463-4.865a1.994,1.994,0,0,1-.887-1.758c0-.761.4-1.214.887-1.009l11.463,4.81a2.033,2.033,0,0,1,.926,1.8C-581.1,277.166-581.513,277.626-582.026,277.408Z" transform="translate(601.367 -224.215)"/></g><g transform="translate(69.513 10.928)"><g transform="translate(0 5.718)"><path class="h" d="M-414.456,94.981l-4.942-1.138a4.075,4.075,0,0,0-1.413-.013l-4.023.771-27.193-6.309a3.833,3.833,0,0,0-1.708.082l-9.194,3.876c-.275.111-.216.266.128.351l21.537,5.138-3.915.748-19.287-4.633a4.011,4.011,0,0,0-1.6.033c-.426.115-.436.315-.016.41l19.947,4.81a4.936,4.936,0,0,0,1.764-.052l24.088-4.614,4.276.987a3.732,3.732,0,0,0,1.607-.033C-413.974,95.27-414,95.086-414.456,94.981Zm-21.107-2.066-5.083,1.039-7.027-1.649,3.613-1.367Zm-17.061-3.974,6.975,1.626-3.617,1.364-6.706-1.574Zm-7.948,3.371,3.377-1.436,6.6,1.554-3.666,1.384Zm7.909,1.879,3.676-1.384,6.476,1.528-5.119,1.053Zm13.346,3.174-6.7-1.59,5.135-1.056,6.9,1.626Zm7.266-1.39-6.975-1.64,5.086-1.043,7.191,1.672Z" transform="translate(473.009 -88.232)"/><path class="s" d="M-477.758,111.311a17.176,17.176,0,0,0-7.224.151c-2.033.554-2.118,1.4-.171,1.882a17.139,17.139,0,0,0,7.273-.148C-475.849,112.632-475.8,111.786-477.758,111.311Zm-1.708,1.5a9.368,9.368,0,0,1-4.033.085c-1.1-.269-1.056-.735.089-1.046a9.4,9.4,0,0,1,4.017-.085C-478.292,112.029-478.322,112.491-479.466,112.806Z" transform="translate(486.561 -103.532)"/><path class="s" d="M-443.809,119.546a17.213,17.213,0,0,0-7.3.151c-2.033.571-2.082,1.436-.092,1.925a17.128,17.128,0,0,0,7.352-.151C-441.825,120.9-441.812,120.031-443.809,119.546Zm-1.666,1.528a9.4,9.4,0,0,1-4.076.085c-1.121-.275-1.1-.748.046-1.069a9.379,9.379,0,0,1,4.059-.085C-444.321,120.28-444.33,120.752-445.475,121.074Z" transform="translate(463.781 -109.062)"/></g><g transform="translate(19.617)"><path class="h" d="M-387.362,72.408a.808.808,0,0,0,.189.152l-1.02.276h0c-.211.057-.209.143.006.191l1.554.352h0a1.891,1.891,0,0,0,.771-.016l1.021-.277c.206.015.418.026.634.033l.419.352a1.233,1.233,0,0,0,.666.081l2.122-.18h.01c.29-.026.456-.1.371-.175l-.419-.347c.078-.018.152-.037.221-.055s.137-.039.2-.06l1.436.07h.01a1.177,1.177,0,0,0,.658-.111l.512-.536c.069-.072-.1-.141-.391-.155l-1.449-.07a.847.847,0,0,0-.193-.152l1.009-.274h0c.208-.057.2-.141-.012-.189l-1.553-.346h0a1.894,1.894,0,0,0-.765.016l-1.009.273c-.2-.015-.416-.026-.63-.032l-.417-.346a1.236,1.236,0,0,0-.659-.08l-2.1.177h-.009c-.288.026-.453.1-.371.172l.409.342q-.117.027-.221.055c-.069.019-.137.039-.2.059l-1.426-.069H-388a1.2,1.2,0,0,0-.658.11l-.532.534c-.073.072.1.142.384.155Zm.624-.249-1.272-.061.267-.269,1.249.06a1.663,1.663,0,0,0,.592-.066,3.82,3.82,0,0,1,.69-.186c.191-.036.276-.1.211-.151l-.359-.3,1.058-.089.366.3a.946.946,0,0,0,.478.088c.346,0,.682.019.995.051a1.916,1.916,0,0,0,.619-.038l.888-.241.777.173-.888.241c-.161.044-.2.106-.1.155a.608.608,0,0,1,.3.239c.023.055.183.1.4.11l1.276.061-.258.27-1.256-.06a1.648,1.648,0,0,0-.593.066,3.814,3.814,0,0,1-.69.188c-.192.036-.276.1-.211.152l.365.3-1.066.09-.37-.309a.954.954,0,0,0-.481-.089c-.347,0-.686-.019-1-.051a1.922,1.922,0,0,0-.622.039l-.9.243-.777-.175.9-.243c.162-.044.2-.107.1-.157a.59.59,0,0,1-.3-.24C-386.362,72.214-386.521,72.17-386.738,72.16Z" transform="translate(401.515 -70.794)"/><path class="h" d="M-378.1,73.538c-.84.227-.828.568.029.761A7.566,7.566,0,0,0-375,74.234c.839-.228.821-.569-.038-.76A7.585,7.585,0,0,0-378.1,73.538Zm.775.174a3.79,3.79,0,0,1,1.536-.032c.429.1.437.266.018.38a3.789,3.789,0,0,1-1.538.032C-377.741,74-377.748,73.825-377.329,73.711Z" transform="translate(394.468 -72.51)"/><path class="h" d="M-394.471,81.145a1.894,1.894,0,0,0-.774.016l-1.026.28c-.207-.015-.421-.027-.637-.033l-.416-.355a1.232,1.232,0,0,0-.666-.082l-2.13.181h-.01c-.291.027-.461.105-.378.176l.407.352q-.119.028-.225.056c-.07.019-.14.039-.206.061l-1.442-.071h-.01a1.212,1.212,0,0,0-.668.112l-.548.548c-.075.074.1.145.386.159l1.463.072a.8.8,0,0,0,.188.156l-1.038.283h0c-.214.059-.214.146,0,.2l1.566.361h0a1.889,1.889,0,0,0,.781-.016l1.038-.284c.209.016.423.027.642.034l.418.361a1.225,1.225,0,0,0,.673.084l2.151-.184h.01c.294-.027.463-.107.378-.179l-.418-.356q.119-.028.225-.057c.071-.019.14-.04.206-.061l1.453.071h.01a1.189,1.189,0,0,0,.668-.113l.527-.55c.071-.074-.1-.145-.393-.159l-1.466-.071a.843.843,0,0,0-.193-.156l1.026-.281h0c.212-.058.208-.145-.009-.194l-1.566-.355Zm-1.906.584a1.922,1.922,0,0,0,.627-.04l.9-.247.783.178-.9.247c-.164.045-.2.109-.1.16a.6.6,0,0,1,.3.246c.023.057.184.1.4.112l1.29.063-.266.276-1.27-.062a1.657,1.657,0,0,0-.6.068,3.854,3.854,0,0,1-.7.192c-.194.037-.281.1-.216.156l.364.312-1.08.092-.369-.317a.94.94,0,0,0-.485-.091c-.352,0-.694-.02-1.011-.053a1.927,1.927,0,0,0-.631.04l-.912.25-.783-.18.912-.249c.165-.045.207-.11.1-.16a.586.586,0,0,1-.3-.247c-.022-.057-.182-.1-.4-.112L-402,82.3l.274-.275,1.264.062a1.665,1.665,0,0,0,.6-.068,3.889,3.889,0,0,1,.7-.191c.194-.037.281-.1.217-.155l-.358-.308,1.072-.091.365.313a.936.936,0,0,0,.482.09C-397.034,81.678-396.693,81.7-396.377,81.729Z" transform="translate(410.93 -77.629)"/><path class="t" d="M-388.862,83.712a7.577,7.577,0,0,0-3.108.064c-.854.233-.848.582.016.78a7.568,7.568,0,0,0,3.117-.065C-387.985,84.258-388,83.909-388.862,83.712Zm-.771.211c.432.1.438.273.011.39a3.787,3.787,0,0,1-1.557.032c-.432-.1-.436-.273-.009-.39A3.8,3.8,0,0,1-389.633,83.922Z" transform="translate(403.797 -79.388)"/><path class="h" d="M-424.213,75.893a1.89,1.89,0,0,0,.773-.016l1.035-.279c.206.015.418.026.634.033l.4.354a1.2,1.2,0,0,0,.663.082l2.133-.181h.01c.291-.026.461-.1.38-.176l-.4-.349q.119-.027.224-.056c.07-.019.139-.039.205-.06l1.435.07h.01a1.208,1.208,0,0,0,.664-.111l.537-.539c.073-.073-.1-.142-.384-.156l-1.448-.07a.791.791,0,0,0-.186-.153l1.024-.275h0c.211-.057.21-.142,0-.19l-1.539-.348h0a1.892,1.892,0,0,0-.766.016l-1.023.274c-.2-.015-.415-.026-.63-.032l-.4-.348a1.209,1.209,0,0,0-.656-.08l-2.113.178h-.01c-.289.026-.459.1-.38.173l.393.344q-.118.027-.224.055c-.07.019-.139.039-.205.059l-1.425-.069h-.01a1.225,1.225,0,0,0-.665.11l-.557.537c-.077.073.092.142.377.156l1.445.07a.762.762,0,0,0,.182.153l-1.035.278h0c-.214.057-.216.143,0,.192l1.539.353Zm1.924-.581a1.932,1.932,0,0,0-.625.039l-.91.245-.769-.176.909-.244c.165-.044.208-.107.107-.157a.555.555,0,0,1-.288-.242c-.021-.055-.177-.1-.395-.11l-1.271-.062.279-.27L-424,74.4a1.679,1.679,0,0,0,.6-.067,3.965,3.965,0,0,1,.7-.187c.193-.037.281-.1.219-.152l-.345-.3,1.063-.09.352.306a.916.916,0,0,0,.474.088c.346,0,.682.019.994.051a1.92,1.92,0,0,0,.621-.039l.9-.242.77.174-.9.242c-.164.044-.205.107-.1.156a.568.568,0,0,1,.293.241c.021.056.179.1.4.11l1.274.062-.271.271-1.254-.061a1.671,1.671,0,0,0-.6.067,3.925,3.925,0,0,1-.7.189c-.193.037-.281.1-.218.153l.351.306-1.071.091-.355-.311a.924.924,0,0,0-.477-.089C-421.637,75.362-421.976,75.345-422.288,75.312Z" transform="translate(426.736 -72.474)"/><path class="h" d="M-415.6,76.816a7.565,7.565,0,0,0,3.085-.064c.851-.229.849-.572,0-.764a7.58,7.58,0,0,0-3.076.064C-416.445,76.28-416.45,76.622-415.6,76.816Zm.772-.208c-.425-.1-.423-.268,0-.382a3.786,3.786,0,0,1,1.539-.032c.425.1.425.268,0,.382A3.793,3.793,0,0,1-414.829,76.609Z" transform="translate(419.678 -74.199)"/></g></g><path class="u" d="M-539.692,65.307l61.109,14.982v88.166l-89.182,40.237-26.01-11.845V114.229l-54.87-19.166" transform="translate(665.01 -56.178)"/></g></g></svg>