<svg xmlns="http://www.w3.org/2000/svg" xmlns:xlink="http://www.w3.org/1999/xlink" width="302.76" height="302.76" viewBox="0 0 302.76 302.76"><defs><style>.a{fill:#ffd638;}.b,.c{fill:#fff6cb;}.c{opacity:0.69;}.d{fill:#f9f5e2;}.e{fill:#e1eeff;}.f{fill:url(#a);}.g{fill:url(#c);}.h,.j,.p{fill:url(#d);}.i,.k{fill:#fe5f7b;}.j,.k{fill-rule:evenodd;}.l{fill:url(#o);}.m{fill:url(#p);}.n{fill:none;stroke:#707070;stroke-linecap:round;stroke-linejoin:round;stroke-dasharray:3.012 5.019;}.o{fill:url(#aa);}.p{opacity:0.61;}.q{fill:url(#af);}.r{fill:url(#ag);}.s{fill:url(#ah);}.t{fill:url(#ai);}.u{fill:url(#aj);}.v{fill:url(#ap);}.w{fill:url(#ar);}</style><linearGradient id="a" y1="0.5" x2="1" y2="0.5" gradientUnits="objectBoundingBox"><stop offset="0" stop-color="#503b6d"/><stop offset="1" stop-color="#3b1e5c"/></linearGradient><linearGradient id="c" x1="0" xlink:href="#a"/><linearGradient id="d" y1="0.5" x2="1" y2="0.5" gradientUnits="objectBoundingBox"><stop offset="0" stop-color="#00d0bc"/><stop offset="1" stop-color="#69f9b8"/></linearGradient><linearGradient id="o" x1="0" y1="0.5" x2="1" y2="0.5" xlink:href="#d"/><linearGradient id="p" x1="0" y1="0.5" x2="1" y2="0.5" xlink:href="#d"/><linearGradient id="aa" x1="0" y1="0.5" x2="1" y2="0.5" xlink:href="#d"/><linearGradient id="af" x1="0" y1="0.5" x2="1" y2="0.5" xlink:href="#d"/><linearGradient id="ag" x1="0" y1="0.5" x2="1" y2="0.5" xlink:href="#d"/><linearGradient id="ah" x1="0" y1="0.5" x2="1" y2="0.5" xlink:href="#d"/><linearGradient id="ai" x1="0" y1="0.5" x2="1" y2="0.5" xlink:href="#d"/><linearGradient id="aj" x1="0" y1="0.5" x2="1" y2="0.5" xlink:href="#d"/><linearGradient id="ap" x1="0" y1="0.5" x2="1" y2="0.5" xlink:href="#d"/><linearGradient id="ar" x1="0" y1="0.5" x2="1" y2="0.5" xlink:href="#d"/></defs><g transform="translate(-1056 -1337.6)"><path class="a" d="M151.38,0A151.38,151.38,0,1,1,0,151.38,151.38,151.38,0,0,1,151.38,0Z" transform="translate(1056 1337.6)"/><g transform="translate(1234.927 1310.45) rotate(48)"><path class="b" d="M8.294,9.236H.942A.944.944,0,0,1,0,8.294V.942A.944.944,0,0,1,.942,0H8.294a.944.944,0,0,1,.942.942V8.294A.944.944,0,0,1,8.294,9.236Z" transform="translate(77.47)"/><path class="c" d="M15.2,16.924H1.726A1.731,1.731,0,0,1,0,15.2V1.726A1.731,1.731,0,0,1,1.726,0H15.2a1.731,1.731,0,0,1,1.726,1.726V15.2A1.731,1.731,0,0,1,15.2,16.924Z" transform="matrix(0.602, 0.799, -0.799, 0.602, 13.516, 102.715)"/><path class="c" d="M15.2,16.924H1.726A1.731,1.731,0,0,1,0,15.2V1.726A1.731,1.731,0,0,1,1.726,0H15.2a1.731,1.731,0,0,1,1.726,1.726V15.2A1.731,1.731,0,0,1,15.2,16.924Z" transform="translate(183.369 64.153) rotate(85)"/><ellipse class="d" cx="7.341" cy="7.341" rx="7.341" ry="7.341" transform="translate(119.789 31.945)"/><path class="e" d="M0,11.479,10.945,0l5.573,13.715Z" transform="translate(23.894 32.463)"/><path class="e" d="M0,11.479,10.945,0l5.573,13.715Z" transform="matrix(0.848, 0.53, -0.53, 0.848, 83.521, 82.397)"/></g><g transform="translate(1115.242 1429.411)"><g transform="translate(0 0)"><path class="f" d="M396.349,207.279l-98.67,47.257V132.157L397.061,103.7Z" transform="translate(-199.823 -81.93)"/><path class="f" d="M0,103.435l97.856,29.6V254.355L0,206.994Z" transform="translate(0 -81.749)"/><path class="g" d="M100.272,37.467l96.967,21.774L97.622,89.054,0,59.153Z" transform="translate(0 -37.467)"/></g><g transform="translate(174.378 99.601)"><g transform="translate(0 4.408)"><path class="h" d="M532.663,361.036c-1.213.535-2.2-.614-2.2-2.565s.991-3.963,2.2-4.484,2.187.635,2.187,2.572S533.871,360.5,532.663,361.036Zm0-6.612c-1.062.457-1.929,2.22-1.929,3.928s.867,2.715,1.929,2.247,1.916-2.225,1.916-3.922S533.721,353.969,532.663,354.424Zm0,5.737c-.912.4-1.656-.463-1.656-1.929s.744-2.978,1.656-3.371,1.646.476,1.646,1.933S533.571,359.762,532.663,360.161Zm0-4.863a3.211,3.211,0,0,0-1.382,2.815c0,1.223.621,1.945,1.382,1.611a3.22,3.22,0,0,0,1.375-2.812C534.038,355.7,533.422,354.971,532.663,355.3Z" transform="translate(-530.459 -353.863)"/></g><g transform="translate(10.351)"><path class="h" d="M564.074,347.5c-1.171.517-2.128-.62-2.128-2.536s.956-3.887,2.128-4.39,2.112.641,2.112,2.543S565.24,346.981,564.074,347.5Zm0-6.5c-1.026.441-1.863,2.167-1.863,3.845s.837,2.674,1.863,2.222,1.851-2.172,1.851-3.84S565.1,340.56,564.074,341Zm0,5.637c-.88.388-1.6-.468-1.6-1.908s.718-2.92,1.6-3.3,1.589.48,1.589,1.912S564.951,346.251,564.074,346.637Zm0-4.778a3.146,3.146,0,0,0-1.334,2.755c0,1.2.6,1.916,1.334,1.593a3.154,3.154,0,0,0,1.328-2.752C565.4,342.259,564.806,341.543,564.074,341.859Z" transform="translate(-561.946 -340.452)"/></g><g transform="translate(0 20.967)"><path class="h" d="M532.663,411.423c-1.213.57-2.2-.552-2.2-2.5s.991-3.991,2.2-4.546,2.187.574,2.187,2.51S533.871,410.855,532.663,411.423Zm0-6.612c-1.062.487-1.929,2.274-1.929,3.982s.867,2.691,1.929,2.193,1.916-2.28,1.916-3.977S533.721,404.326,532.663,404.811Zm0,5.738c-.912.427-1.656-.417-1.656-1.883s.744-3,1.656-3.418,1.646.43,1.646,1.887A3.98,3.98,0,0,1,532.663,410.548Zm0-4.863a3.313,3.313,0,0,0-1.382,2.853c0,1.223.621,1.928,1.382,1.573a3.323,3.323,0,0,0,1.375-2.851C534.038,406.043,533.422,405.336,532.663,405.685Z" transform="translate(-530.459 -404.233)"/></g><g transform="translate(10.351 16.271)"><path class="h" d="M564.074,397.008c-1.171.55-2.128-.56-2.128-2.477s.956-3.914,2.128-4.45,2.112.581,2.112,2.484S565.24,396.46,564.074,397.008Zm0-6.5c-1.026.47-1.863,2.219-1.863,3.9s.837,2.651,1.863,2.17,1.851-2.224,1.851-3.892S565.1,390.042,564.074,390.511Zm0,5.638c-.88.412-1.6-.423-1.6-1.863s.718-2.941,1.6-3.345,1.589.435,1.589,1.867A3.9,3.9,0,0,1,564.074,396.149Zm0-4.778a3.244,3.244,0,0,0-1.334,2.793c0,1.2.6,1.9,1.334,1.556a3.254,3.254,0,0,0,1.328-2.79C565.4,391.733,564.806,391.033,564.074,391.37Z" transform="translate(-561.946 -389.948)"/></g><g transform="translate(5.653 10.651)"><g transform="translate(0 1.238)"><path class="h" d="M550.842,381.2a.225.225,0,0,1-.283-.061l-2.785-3.254a.948.948,0,0,1,0-.922c.157-.324.413-.438.57-.254l2.78,3.256a.949.949,0,0,1,0,.917A.647.647,0,0,1,550.842,381.2Zm-2.783-4.121a.216.216,0,0,0-.1.106.318.318,0,0,0,0,.307l2.783,3.254c.051.059.138.019.188-.086a.316.316,0,0,0,0-.306l-2.782-3.255A.076.076,0,0,0,548.059,377.076Z" transform="translate(-547.656 -376.618)"/></g><path class="h" d="M548.059,379.935a.228.228,0,0,1-.285-.061.948.948,0,0,1,0-.922l2.785-5.761c.156-.322.409-.435.565-.251a.949.949,0,0,1,0,.917l-2.78,5.758A.652.652,0,0,1,548.059,379.935Zm2.783-6.627a.213.213,0,0,0-.094.105l-2.783,5.76a.318.318,0,0,0,0,.307c.051.059.139.019.19-.086l2.782-5.759a.316.316,0,0,0,0-.306A.075.075,0,0,0,550.842,373.308Z" transform="translate(-547.656 -372.852)"/></g></g><g transform="translate(133.22 64.009)"><path class="h" d="M430.821,238.64c-3.511,1.266-6.394,6.749-6.394,12.219s2.883,8.784,6.394,7.406c3.468-1.361,6.259-6.811,6.259-12.166S434.289,237.391,430.821,238.64Zm0,17.844c-2.85,1.108-5.22-1.627-5.22-6.065s2.37-8.958,5.22-9.993c2.824-1.026,5.131,1.736,5.131,6.1C435.953,250.948,433.645,255.382,430.821,256.484Zm-.769,3.573v5.717l-5,2.018c-1.529.615-2.748,2.978-2.748,5.329v7.9l-12.137,5.141c-1.765.746-3.254-.911-3.254-3.629V246.753c0-2.781,1.446-5.513,3.254-6.151L427,234.692c1.509-.533,2.745.7,3.011,2.811.27-.1.539-.253.845-.362a3,3,0,0,1,.69-.187c-.306-3.337-2.225-5.4-4.546-4.6l-16.831,5.848c-2.715.943-4.914,5.053-4.914,9.2v35.874c0,4.152,2.2,6.558,4.914,5.394l13.08-5.592c.039-.076.039-.076.079-.092.039-.079.039-.079.079-.1s.039-.076.079-.092a.085.085,0,0,1,.039-.079c.039-.076.079-.151.118-.23l7.673-15.217c.039-.016.039-.076.039-.076.036-.076.036-.076.076-.151,0-.059.039-.076.039-.135s.036-.072.036-.135a.188.188,0,0,0,.039-.132v-7.249a4.061,4.061,0,0,1-.726.348Zm-6.174,18.554v-6.134a2.64,2.64,0,0,1,1.177-2.285l3.919-1.6Z" transform="translate(-405.256 -232.183)"/><path class="i" d="M456.72,299.72l-3.886,7.482a.827.827,0,0,1-.434.414.362.362,0,0,1-.437-.069,1.172,1.172,0,0,1,.039-1.285l3.074-5.9L452,296.834a1.212,1.212,0,0,1,0-1.269c.237-.454.595-.588.832-.316Z" transform="translate(-436.493 -274.423)"/><path class="i" d="M429.951,313a.849.849,0,0,1-.444.417.364.364,0,0,1-.441-.069l-4.01-4.477,4.01-7.587c.24-.457.6-.592.845-.319a1.279,1.279,0,0,1,.039,1.262L426.8,308.2l3.146,3.527A1.214,1.214,0,0,1,429.951,313Z" transform="translate(-418.547 -278.263)"/><path class="i" d="M444.191,289.263l-2.39,16.982a1.279,1.279,0,0,1-.6.97l-.122.049c-.319.007-.519-.4-.441-.917l2.4-17.018a1.16,1.16,0,0,1,.717-.993C444.073,288.339,444.27,288.75,444.191,289.263Z" transform="translate(-428.997 -269.877)"/><path class="i" d="M478.962,272.349l-2.709,5.247-2.735-3.189c-.776-.9-.776-2.758,0-4.241s1.966-1.92,2.735-1.013c.766-1.414,1.986-1.864,2.709-1.006C479.721,269.048,479.721,270.879,478.962,272.349Z" transform="translate(-450.688 -256.033)"/></g><g transform="translate(34.691 60.503)"><path class="j" d="M128.38,238.81l-6.364-11.889a.777.777,0,0,0-.426-.472l-14.034-4.855c-1.116-.386-2.027.722-2.027,2.462V265.18c0,1.74.91,3.55,2.027,4.023l18.871,8.009c1.191.506,2.17-.557,2.17-2.363V239.678A1.368,1.368,0,0,0,128.38,238.81Zm-6.246-9.394,4.608,8.638-3.54-1.28a2.132,2.132,0,0,1-1.068-2.012Zm-15.207-4.869c0-.571.264-.891.63-.763l13.109,4.583v5.869c0,2.124,1.137,4.274,2.536,4.785l3.9,1.424v21.688l-20.172-8.066Zm20.54,48.533c0,1.672-.715,2.567-1.5,2.234l-17.969-7.577c-.742-.313-1.412-1.752-1.412-3.368v-8.191l20.885,8.429Z" transform="translate(-105.53 -221.517)"/><g transform="translate(7.371 18.664)"><g transform="translate(0.071)"><path class="k" d="M130.2,285.485l-.006,0a1.2,1.2,0,0,1-.578-1.113v-.892a3.093,3.093,0,0,0-.4-1.49,1.6,1.6,0,0,0,.4-1.184v-.892c0-.5.254-.8.578-.676.156.067.29-.08.29-.329a.61.61,0,0,0-.284-.561l-.006,0c-.636-.237-1.155.372-1.155,1.351v.891c0,.508-.254.795-.576.673-.023-.009-.04-.006-.058-.013-.109-.006-.2.077-.224.235,0,.009-.006.025-.006.034a.707.707,0,0,0,.23.612l.058.022a1.207,1.207,0,0,1,.576,1.109v.891a2.468,2.468,0,0,0,1.155,2.226c.156.069.29-.076.29-.326A.618.618,0,0,0,130.2,285.485Z" transform="translate(-128.169 -278.293)"/><path class="k" d="M137.533,284.112c-.32-.12-.581.185-.581.676a1.228,1.228,0,0,0,.581,1.113c.32.121.582-.183.582-.676A1.226,1.226,0,0,0,137.533,284.112Z" transform="translate(-134.065 -282.181)"/><path class="k" d="M137.531,292.264v.009c-.32-.121-.581.182-.581.674a1.472,1.472,0,0,0,.3.89l-.261.7a.708.708,0,0,0,.116.652c.139.17.314.165.39-.03a.036.036,0,0,0,.012-.022l.436-1.184a.856.856,0,0,0,.175-.534v-.045A1.233,1.233,0,0,0,137.531,292.264Z" transform="translate(-134.063 -287.66)"/><path class="k" d="M144.482,286.156a.423.423,0,0,0-.212-.215,1.207,1.207,0,0,1-.587-1.12v-.9a2.456,2.456,0,0,0-1.171-2.232l-.029-.011c-.157-.041-.286.118-.274.373a.569.569,0,0,0,.3.535,1.209,1.209,0,0,1,.585,1.116v.9a2.991,2.991,0,0,0,.41,1.5,1.658,1.658,0,0,0-.41,1.191v.9c0,.511-.257.8-.585.673-.158-.061-.292.085-.292.336a.606.606,0,0,0,.286.558l.006,0c.643.248,1.171-.357,1.171-1.345v-.9c0-.5.258-.8.587-.676a.16.16,0,0,0,.194-.025l.018-.02A.617.617,0,0,0,144.482,286.156Z" transform="translate(-137.593 -280.562)"/></g><path class="k" d="M130.039,341.919l-.008,0c-.233-.082-.417.126-.417.486v3.84c0,.372-.175.569-.416.469a.889.889,0,0,1-.416-.813.892.892,0,0,0-.406-.809l-.008,0c-.232-.1-.414.124-.414.469a2.772,2.772,0,0,0,1.244,2.439c.649.271,1.174-.282,1.241-1.232a1.073,1.073,0,0,0,.008-.164v-3.858A.9.9,0,0,0,130.039,341.919Z" transform="translate(-127.954 -320.989)"/><path class="k" d="M140.248,347.9a.273.273,0,0,0-.084-.047l-.842-.345a.879.879,0,0,1-.42-.817c0-.361.177-.573.42-.473l1.685.688c.228.106.423-.1.423-.462a.919.919,0,0,0-.414-.828l-1.735-.7c-.025-.01-.042,0-.059-.011-.646-.185-1.157.444-1.157,1.449a2.831,2.831,0,0,0,1.174,2.4.25.25,0,0,0,.084.048l.842.347a.911.911,0,0,1,.421.821c0,.375-.185.569-.421.472l-1.68-.7c-.235-.1-.427.106-.427.454a.936.936,0,0,0,.41.827l.017.007,1.68.7a.2.2,0,0,0,.084.022c.65.206,1.182-.414,1.182-1.437A2.878,2.878,0,0,0,140.248,347.9Z" transform="translate(-134.735 -322.984)"/></g></g><g transform="translate(52.048 13.257)"><g transform="translate(0 0.979)"><path class="h" d="M202.46,101.284l-44.129-12.2,34.7-8.317,44.185,11.007Zm-42.066-12.2,42.077,11.59,32.645-8.9L192.989,81.253Z" transform="translate(-158.331 -80.772)"/></g><g transform="translate(33.694)"><path class="h" d="M305.013,90.053l-44.186-11.04,4.587-1.1a7.661,7.661,0,0,1,3.01.069l40.7,9.989c.886.218,1.319.6.467.83Zm-42.22-11.04,42.126,10.494,3.578-.976c.195-.053.014-.2-.357-.292l-40.7-10.02a3.146,3.146,0,0,0-1.059-.069Z" transform="translate(-260.827 -77.793)"/></g><g transform="translate(39.21 1.077)"><path class="h" d="M279.447,81.147c.415.1.408.269-.015.371a3.775,3.775,0,0,1-1.519,0c-.414-.1-.406-.269.018-.371A3.783,3.783,0,0,1,279.447,81.147Z" transform="translate(-277.608 -81.071)"/></g><g transform="translate(41.648 1.68)"><path class="l" d="M286.867,82.981c.418.1.414.271-.009.374a3.778,3.778,0,0,1-1.524,0c-.417-.1-.411-.271.012-.374A3.774,3.774,0,0,1,286.867,82.981Z" transform="translate(-285.025 -82.904)"/></g><g transform="translate(44.104 2.287)"><path class="m" d="M294.342,84.828c.421.1.419.273,0,.377a3.784,3.784,0,0,1-1.53,0c-.42-.1-.417-.273.007-.377A3.778,3.778,0,0,1,294.342,84.828Z" transform="translate(-292.495 -84.75)"/></g><g transform="translate(34.151 6.331)"><path class="h" d="M284.11,105.094,262.831,99.54c-.84-.219-.812-.575.059-.792l1.482-.37-.713-.99,4.052.155,1.314-.329a7.424,7.424,0,0,1,3.066,0l21.276,5.4c.9.228.936.6.084.828l-6.134,1.65A7.416,7.416,0,0,1,284.11,105.094Zm-19.56-7.488.6.832-1.76.441c-.582.146-.6.383-.037.53l21.279,5.545a4.957,4.957,0,0,0,2.145,0l6.133-1.647c.57-.153.545-.4-.055-.554l-21.276-5.41a4.966,4.966,0,0,0-2.053,0l-1.574.394Z" transform="translate(-262.219 -97.053)"/></g><g transform="translate(12.353 6.577)"><path class="h" d="M217.078,105.864l-20.6-5.571c-.813-.22-.74-.576.16-.794l6.341-1.539a7.427,7.427,0,0,1,3.071,0l20.62,5.418c.869.228.861.6-.021.831l-1.361.355.6,1.115-4.06-.215-1.535.4A7.421,7.421,0,0,1,217.078,105.864Zm-11.559-7.775a4.972,4.972,0,0,0-2.056,0l-6.341,1.541c-.6.146-.649.385-.105.531l20.6,5.562a4.972,4.972,0,0,0,2.148,0l1.823-.474,3.4.18-.5-.934,1.629-.424c.591-.154.6-.4.016-.556l-20.619-5.426Z" transform="translate(-195.91 -97.8)"/></g><g transform="translate(38.628 7.435)"><g transform="translate(3.104)"><path class="h" d="M303.589,105.236l-18.206-4.668c-.14-.036-.137-.094,0-.13a1.224,1.224,0,0,1,.51,0L304.1,105.1c.148.038.152.1.01.137A1.228,1.228,0,0,1,303.589,105.236Z" transform="translate(-285.28 -100.411)"/></g><g transform="translate(1.555 0.39)"><path class="h" d="M298.879,106.443l-18.206-4.689c-.14-.036-.137-.094.006-.131a1.23,1.23,0,0,1,.512,0l18.206,4.682c.147.038.152.1.009.137A1.223,1.223,0,0,1,298.879,106.443Z" transform="translate(-280.569 -101.596)"/></g><g transform="translate(0 0.781)"><path class="h" d="M286.746,105.741l-10.8-2.8c-.14-.036-.137-.095.007-.131a1.225,1.225,0,0,1,.513,0l10.8,2.792c.145.037.145.1,0,.135A1.223,1.223,0,0,1,286.746,105.741Z" transform="translate(-275.838 -102.786)"/></g></g><g transform="translate(19.141 7.825)"><g transform="translate(1.6)"><path class="h" d="M239.193,106.443l-17.672-4.689c-.136-.036-.127-.094.02-.131a1.23,1.23,0,0,1,.511,0l17.673,4.682c.143.038.14.1-.007.137A1.223,1.223,0,0,1,239.193,106.443Z" transform="translate(-221.425 -101.596)"/></g><g transform="translate(0 0.391)"><path class="h" d="M234.323,107.656l-17.67-4.711c-.135-.036-.126-.095.022-.131a1.225,1.225,0,0,1,.513,0l17.67,4.7c.143.038.14.1-.008.138A1.23,1.23,0,0,1,234.323,107.656Z" transform="translate(-216.558 -102.786)"/></g><g transform="translate(5.341 2.644)"><path class="h" d="M243.618,112.671,232.9,109.8c-.138-.037-.13-.1.018-.134a1.224,1.224,0,0,1,.519,0l10.716,2.866c.143.038.139.1-.009.139A1.234,1.234,0,0,1,243.618,112.671Z" transform="translate(-232.804 -109.638)"/></g></g><path class="h" d="M247.259,90.709a18.52,18.52,0,0,0-7.556,0c-2.155.522-2.266,1.376-.225,1.907a18.41,18.41,0,0,0,7.642,0C249.263,92.085,249.314,91.231,247.259,90.709Zm-5.748,1.409-1.782-.461a5.849,5.849,0,0,1,.819-.122,12.39,12.39,0,0,1,1.829.154l.517-.127s-.034-.087.291-.166c-.078-.02.17-.12.407-.1a1.526,1.526,0,0,1,.967-.159c.4-.059,1.49.219,1.162.338a6.366,6.366,0,0,1-.887.14c.074.06-.329.12-.407.1a3.273,3.273,0,0,1-.7.076l-.489.12c.378.221.7.376.571.466a1.907,1.907,0,0,1-.508.2l-1.792-.463Z" transform="translate(-211.82 -86.202)"/><path class="h" d="M294.216,121.715a18.554,18.554,0,0,0-8.019,0c-2.236.588-2.272,1.551-.053,2.149a18.434,18.434,0,0,0,8.116,0C296.481,123.266,296.449,122.3,294.216,121.715Zm-5.962,1.587-1.936-.519a5.608,5.608,0,0,1,.858-.137,12.675,12.675,0,0,1,1.957.173l.536-.143s-.045-.1.293-.187c-.084-.023.169-.134.422-.112a1.466,1.466,0,0,1,1.011-.179c.42-.067,1.6.247,1.267.381a6.064,6.064,0,0,1-.927.157c.085.068-.337.135-.422.113a3.194,3.194,0,0,1-.735.086l-.508.135c.423.249.778.424.652.525a1.785,1.785,0,0,1-.519.23l-1.948-.522Z" transform="translate(-243.024 -106.982)"/></g><path class="n" d="M73.645,107.529l-22.926,6.237-.19,6.681v84.985L95.4,225.148l17.677,8.159-.68-80.226,14.278,4.76,88.385-29.916v56.43" transform="translate(-33.918 -84.497)"/><g transform="translate(8.164 35.579)"><path class="o" d="M33.448,198.133a.4.4,0,0,1,.186.367v1.816c0,.167-.083.273-.186.237a.4.4,0,0,1-.186-.368V198.37C33.262,198.2,33.345,198.1,33.448,198.133Z" transform="translate(-30.491 -180.891)"/><path class="h" d="M32.691,212.758c.327.117.558.761.558,1.41s-.23,1.129-.558,1.011-.557-.762-.557-1.41S32.363,212.642,32.691,212.758Zm0,.605c-.083-.03-.186.185-.186.538s.1.642.186.672.186-.184.186-.538S32.773,213.393,32.691,213.364Z" transform="translate(-29.734 -190.702)"/><path class="h" d="M42.378,158.9c-.222-2.981-1.159-6.2-3.063-7.584-1.143-2.947-2.589-4.819-4.576-5.528-1.851-.362-3.566.325-4.55,2.648a2.95,2.95,0,0,0-1.4-1.127c-1.463-.468-2.643,1.078-2.643,3.452a.42.42,0,0,1,0,.06c0,.173.007.245.011.346a5.691,5.691,0,0,0,.087.8c-.884.6-1.367,1.694-1.414,3.411.133,2.367,1.088,4.694,2.595,5.33l.036.024,11.756,4.047C41.246,165.48,42.6,162.769,42.378,158.9Zm-3.157,5.267L27.49,160.141l-.022-.019c-1.253-.489-2.2-2.478-2.267-4.622.021-1.49.548-2.707,1.35-3,.1-.033.141-.207.094-.377a4.169,4.169,0,0,1-.116-.883c0-.09-.007-.162-.011-.328a.227.227,0,0,0,0-.049c0-2.026,1.018-3.354,2.274-2.95a2.733,2.733,0,0,1,1.349,1.171c.088.13.209.127.268,0,.966-2.269,2.4-3.139,4.334-2.683,1.916.725,3.192,2.291,4.3,5.263a.347.347,0,0,0,.117.171c1.595,1.1,2.66,3.909,2.832,6.992C42.187,162.357,40.987,164.774,39.221,164.167Z" transform="translate(-24.834 -145.698)"/><path class="p" d="M39.971,165.361,28.24,161.335l-.022-.019c-1.253-.489-2.2-2.478-2.267-4.622.021-1.49.548-2.707,1.35-3,.1-.033.141-.207.094-.377a4.169,4.169,0,0,1-.116-.883c0-.09-.007-.162-.011-.328a.227.227,0,0,0,0-.049c0-2.026,1.018-3.354,2.274-2.95a2.733,2.733,0,0,1,1.349,1.171c.088.13.209.127.268,0,.966-2.269,2.4-3.139,4.334-2.683,1.916.725,3.192,2.291,4.3,5.263a.347.347,0,0,0,.117.171c1.595,1.1,2.66,3.909,2.832,6.992C42.937,163.551,41.737,165.968,39.971,165.361Z" transform="translate(-25.584 -146.892)"/><path class="o" d="M33.448,229.228a.405.405,0,0,1,.186.37v1.816c0,.167-.083.272-.186.234a.406.406,0,0,1-.186-.371v-1.815C33.262,229.3,33.345,229.19,33.448,229.228Z" transform="translate(-30.491 -201.764)"/><path class="q" d="M40.249,231.714a.407.407,0,0,1,.187.372v1.823c0,.168-.084.273-.187.234a.408.408,0,0,1-.187-.372v-1.822C40.062,231.781,40.146,231.676,40.249,231.714Z" transform="translate(-35.056 -203.432)"/><path class="r" d="M47.1,202.884a.4.4,0,0,1,.189.371v1.83c0,.169-.084.275-.189.239a.4.4,0,0,1-.188-.371v-1.829C46.914,202.955,47,202.848,47.1,202.884Z" transform="translate(-39.656 -184.08)"/><path class="s" d="M54.009,220.1a.406.406,0,0,1,.19.374v1.837c0,.169-.085.275-.19.238a.408.408,0,0,1-.19-.374v-1.836C53.819,220.174,53.9,220.067,54.009,220.1Z" transform="translate(-44.291 -195.64)"/><path class="t" d="M60.97,207.709a.4.4,0,0,1,.191.374v1.844c0,.17-.086.277-.191.24a.406.406,0,0,1-.192-.375V207.95C60.778,207.78,60.864,207.672,60.97,207.709Z" transform="translate(-48.962 -187.319)"/><path class="u" d="M67.985,225.084a.41.41,0,0,1,.193.377v1.851c0,.171-.086.277-.193.239a.412.412,0,0,1-.193-.378v-1.85C67.792,225.153,67.878,225.046,67.985,225.084Z" transform="translate(-53.67 -198.982)"/><path class="s" d="M54.009,236.744a.411.411,0,0,1,.19.376v1.837c0,.169-.085.274-.19.236a.412.412,0,0,1-.19-.376v-1.836C53.819,236.812,53.9,236.705,54.009,236.744Z" transform="translate(-44.291 -206.809)"/><path class="r" d="M47.1,217.644a.4.4,0,0,1,.189.372v1.83c0,.169-.084.275-.189.237a.406.406,0,0,1-.188-.373v-1.829C46.914,217.713,47,217.607,47.1,217.644Z" transform="translate(-39.656 -193.988)"/><path class="r" d="M47.1,234.219a.409.409,0,0,1,.189.374v1.83c0,.169-.084.274-.189.235a.411.411,0,0,1-.188-.374v-1.829C46.914,234.287,47,234.181,47.1,234.219Z" transform="translate(-39.656 -205.114)"/><path class="h" d="M39.486,200.479c.33.115.562.76.562,1.412s-.232,1.134-.562,1.018-.561-.761-.561-1.411S39.156,200.364,39.486,200.479Zm0,.607c-.084-.029-.187.187-.187.542s.1.644.187.673.187-.186.187-.542S39.569,201.115,39.486,201.086Z" transform="translate(-34.293 -182.459)"/><path class="h" d="M39.486,215.181c.33.118.562.764.562,1.416s-.232,1.132-.562,1.013-.561-.765-.561-1.416S39.156,215.064,39.486,215.181Zm0,.608c-.084-.03-.187.185-.187.54s.1.644.187.674.187-.185.187-.54S39.569,215.818,39.486,215.788Z" transform="translate(-34.293 -192.328)"/><path class="v" d="M53.234,205.267c.335.117.571.767.571,1.424s-.236,1.142-.571,1.025-.569-.768-.569-1.424S52.9,205.15,53.234,205.267Zm0,.612c-.085-.03-.19.188-.19.546s.105.649.19.679.19-.187.19-.545S53.319,205.908,53.234,205.879Z" transform="translate(-43.516 -185.673)"/><path class="v" d="M60.189,222.562c.338.12.575.775.575,1.435s-.237,1.145-.575,1.023-.574-.776-.574-1.435S59.851,222.442,60.189,222.562Zm0,.614c-.086-.031-.192.187-.192.546s.106.652.192.683.191-.186.191-.546S60.274,223.207,60.189,223.177Z" transform="translate(-48.181 -197.282)"/><path class="w" d="M67.2,210.13c.34.118.58.775.58,1.437s-.239,1.151-.58,1.031-.579-.775-.579-1.436S66.857,210.011,67.2,210.13Zm0,.617c-.086-.03-.193.189-.193.549s.107.654.193.684.193-.188.193-.549S67.283,210.777,67.2,210.747Z" transform="translate(-52.883 -188.937)"/><path class="w" d="M67.2,241.829c.34.124.58.785.58,1.447s-.239,1.147-.58,1.021-.579-.786-.579-1.446S66.857,241.7,67.2,241.829Zm0,.617c-.086-.032-.193.185-.193.546s.107.656.193.688.193-.185.193-.546S67.283,242.478,67.2,242.446Z" transform="translate(-52.883 -210.215)"/><path class="v" d="M60.189,239.266c.338.123.575.781.575,1.44s-.237,1.143-.575,1.018-.574-.782-.574-1.44S59.851,239.142,60.189,239.266Zm0,.614c-.086-.031-.192.185-.192.544s.106.654.192.685.191-.185.191-.544S60.274,239.911,60.189,239.88Z" transform="translate(-48.181 -208.494)"/></g><g transform="translate(71.063 128.545)"><path class="h" d="M218.48,435.485c-1.273-.566-2.3-2.554-2.3-4.432s1.032-2.96,2.3-2.407,2.321,2.547,2.321,4.44S219.758,436.053,218.48,435.485Zm0-6.415c-1.115-.485-2.02.462-2.02,2.108s.9,3.388,2.02,3.883,2.033-.445,2.033-2.1S219.6,429.556,218.48,429.07Zm0,5.567a3.824,3.824,0,0,1-1.735-3.333c0-1.414.777-2.226,1.735-1.809a3.814,3.814,0,0,1,1.744,3.338C220.224,434.253,219.44,435.062,218.48,434.636Zm0-4.718c-.8-.349-1.449.329-1.449,1.51a3.193,3.193,0,0,0,1.449,2.784c.8.355,1.456-.321,1.456-1.508A3.185,3.185,0,0,0,218.48,429.918Z" transform="translate(-216.175 -428.501)"/><g transform="translate(5.516 2.408)"><path class="h" d="M235.3,442.872c-1.3-.576-2.345-2.585-2.345-4.48s1.05-2.981,2.345-2.419,2.362,2.578,2.362,4.487S236.6,443.45,235.3,442.872Zm0-6.471c-1.134-.493-2.055.458-2.055,2.119a4.505,4.505,0,0,0,2.055,3.924c1.139.506,2.068-.441,2.068-2.113S236.44,436.9,235.3,436.4Zm0,5.615a3.867,3.867,0,0,1-1.765-3.369c0-1.426.791-2.243,1.765-1.819a3.855,3.855,0,0,1,1.775,3.373C237.075,441.636,236.278,442.45,235.3,442.016Zm0-4.759c-.814-.355-1.474.327-1.474,1.518a3.228,3.228,0,0,0,1.474,2.813c.816.361,1.481-.318,1.481-1.515A3.22,3.22,0,0,0,235.3,437.257Z" transform="translate(-232.956 -435.825)"/></g><g transform="translate(11.129 4.858)"><path class="h" d="M252.416,450.389c-1.318-.586-2.386-2.616-2.386-4.528s1.068-3,2.386-2.431,2.4,2.61,2.4,4.536S253.739,450.977,252.416,450.389Zm0-6.528c-1.155-.5-2.091.454-2.091,2.129a4.555,4.555,0,0,0,2.091,3.966c1.159.514,2.1-.437,2.1-2.124S253.575,444.365,252.416,443.861Zm0,5.664a3.908,3.908,0,0,1-1.8-3.405c0-1.439.8-2.259,1.8-1.827a3.9,3.9,0,0,1,1.806,3.41C254.222,449.149,253.41,449.966,252.416,449.525Zm0-4.8c-.828-.361-1.5.324-1.5,1.526a3.262,3.262,0,0,0,1.5,2.844c.83.368,1.507-.315,1.507-1.522A3.256,3.256,0,0,0,252.416,444.724Z" transform="translate(-250.03 -443.277)"/></g><g transform="translate(0.138 8.095)"><path class="h" d="M218.9,460.12c-1.274-.582-2.306-2.583-2.306-4.463s1.032-2.947,2.306-2.379,2.322,2.577,2.322,4.47S220.18,460.7,218.9,460.12Zm0-6.417c-1.116-.5-2.021.436-2.021,2.083A4.521,4.521,0,0,0,218.9,459.7c1.12.511,2.034-.42,2.034-2.077S220.022,454.2,218.9,453.7Zm0,5.568a3.88,3.88,0,0,1-1.735-3.356c0-1.414.777-2.217,1.735-1.788a3.87,3.87,0,0,1,1.745,3.36C220.647,458.91,219.863,459.71,218.9,459.271Zm0-4.719c-.8-.359-1.45.311-1.45,1.492a3.239,3.239,0,0,0,1.45,2.8c.8.365,1.456-.3,1.456-1.489A3.232,3.232,0,0,0,218.9,454.552Z" transform="translate(-216.596 -453.126)"/></g><g transform="translate(11.273 13.095)"><path class="h" d="M252.853,475.457c-1.319-.6-2.387-2.647-2.387-4.559s1.069-2.991,2.387-2.4,2.4,2.641,2.4,4.567S254.177,476.063,252.853,475.457Zm0-6.529c-1.155-.516-2.092.428-2.092,2.1a4.622,4.622,0,0,0,2.092,3.994c1.159.529,2.105-.411,2.105-2.1A4.607,4.607,0,0,0,252.853,468.928Zm0,5.665a3.966,3.966,0,0,1-1.8-3.429c0-1.439.8-2.249,1.8-1.805a3.956,3.956,0,0,1,1.806,3.433C254.66,474.24,253.848,475.048,252.853,474.594Zm0-4.8c-.828-.371-1.5.305-1.5,1.507a3.312,3.312,0,0,0,1.5,2.863c.83.378,1.508-.3,1.508-1.5A3.3,3.3,0,0,0,252.853,469.792Z" transform="translate(-250.466 -468.336)"/></g><g transform="translate(0.138 16.13)"><path class="h" d="M218.9,484.57c-1.274-.6-2.306-2.612-2.306-4.492s1.032-2.935,2.306-2.35,2.322,2.606,2.322,4.5S220.18,485.171,218.9,484.57Zm0-6.417c-1.116-.513-2.021.411-2.021,2.058a4.587,4.587,0,0,0,2.021,3.935c1.12.525,2.034-.395,2.034-2.052A4.572,4.572,0,0,0,218.9,478.153Zm0,5.568a3.936,3.936,0,0,1-1.735-3.378c0-1.414.777-2.207,1.735-1.766a3.925,3.925,0,0,1,1.745,3.382C220.647,483.382,219.863,484.171,218.9,483.721Zm0-4.72c-.8-.369-1.45.293-1.45,1.474a3.286,3.286,0,0,0,1.45,2.821c.8.375,1.456-.284,1.456-1.472A3.279,3.279,0,0,0,218.9,479Z" transform="translate(-216.596 -477.567)"/></g><g transform="translate(5.657 18.678)"><path class="h" d="M235.731,492.384c-1.3-.609-2.346-2.644-2.346-4.54s1.05-2.955,2.346-2.361,2.363,2.638,2.363,4.548S237.032,493,235.731,492.384Zm0-6.473c-1.135-.522-2.056.406-2.056,2.067a4.639,4.639,0,0,0,2.056,3.978c1.139.534,2.069-.39,2.069-2.062A4.623,4.623,0,0,0,235.731,485.911Zm0,5.617a3.979,3.979,0,0,1-1.765-3.414c0-1.427.791-2.223,1.765-1.774a3.969,3.969,0,0,1,1.775,3.419C237.506,491.193,236.708,491.986,235.731,491.528Zm0-4.761c-.814-.375-1.475.29-1.475,1.481a3.323,3.323,0,0,0,1.475,2.851c.816.382,1.482-.281,1.482-1.478A3.315,3.315,0,0,0,235.731,486.767Z" transform="translate(-233.385 -485.318)"/></g><g transform="translate(11.273 21.27)"><path class="h" d="M252.853,500.335c-1.319-.619-2.387-2.677-2.387-4.589s1.069-2.977,2.387-2.372,2.4,2.671,2.4,4.6S254.177,500.957,252.853,500.335Zm0-6.529c-1.155-.531-2.092.4-2.092,2.077a4.69,4.69,0,0,0,2.092,4.021c1.159.544,2.105-.385,2.105-2.071A4.674,4.674,0,0,0,252.853,493.805Zm0,5.666a4.024,4.024,0,0,1-1.8-3.451c0-1.439.8-2.239,1.8-1.783a4.013,4.013,0,0,1,1.806,3.456C254.66,499.14,253.848,499.937,252.853,499.471Zm0-4.8c-.828-.382-1.5.286-1.5,1.488a3.36,3.36,0,0,0,1.5,2.883c.83.389,1.508-.277,1.508-1.486A3.351,3.351,0,0,0,252.853,494.669Z" transform="translate(-250.466 -493.204)"/></g><g transform="translate(5.982 10.782)"><path class="h" d="M237.844,468.436a.716.716,0,0,1-.311-.33l-3.035-5.824a.857.857,0,0,1,0-.905c.17-.173.446-.049.616.276l3.04,5.826a.857.857,0,0,1,0,.911A.261.261,0,0,1,237.844,468.436Zm-3.037-6.682a.086.086,0,0,0-.1.016.287.287,0,0,0,0,.3l3.036,5.824c.056.107.152.151.207.095a.286.286,0,0,0,0-.3l-3.038-5.825A.234.234,0,0,0,234.807,461.755Z" transform="translate(-234.371 -461.299)"/></g><g transform="translate(5.982 12.141)"><path class="h" d="M234.807,469.826a.708.708,0,0,1-.308-.328.856.856,0,0,1,0-.905l3.035-3.079c.171-.174.45-.049.622.279a.857.857,0,0,1,0,.911l-3.04,3.077A.258.258,0,0,1,234.807,469.826Zm3.037-3.933a.088.088,0,0,0-.1.016l-3.036,3.078a.286.286,0,0,0,0,.3c.055.106.15.149.205.094l3.038-3.078a.286.286,0,0,0,0-.3A.239.239,0,0,0,237.844,465.893Z" transform="translate(-234.371 -465.435)"/></g></g></g></g></svg>