<svg xmlns="http://www.w3.org/2000/svg" width="112.653" height="26.936" viewBox="0 0 112.653 26.936"><defs><style>.a{fill:#47ca98;}.b{fill:#1c9868;}.c{fill:#7affcc;}</style></defs><g transform="translate(0)"><path class="a" d="M1317.419,769.926h.042a.042.042,0,0,1,.011.025c-.008.245,0,.491,0,.736q0,1.013,0,2.026a1.523,1.523,0,0,0,.008.189c.006.052-.041.078-.059.119-.242.557-.492,1.111-.739,1.666q-.456,1.025-.913,2.049l-.837,1.876q-.506,1.137-1.013,2.273-.388.871-.777,1.741l-.665,1.492-.723,1.62-.962,2.158q-.388.871-.777,1.741c-.1.226-.2.453-.3.678-.045.1-.028.126.082.126h2.566c.124,0,.141-.012.187-.127.284-.709.566-1.42.852-2.128.21-.518.415-1.037.624-1.555.046-.114.05-.116.169-.117q1.578,0,3.155,0c.038,0,.093-.026.112.039a.361.361,0,0,1,.012.118q0,5.019,0,10.038c0,.04,0,.079-.007.118s-.023.036-.052.031a.6.6,0,0,1-.189-.076c-.639-.356-1.28-.709-1.919-1.064l-2.269-1.257-1.883-1.042-2.011-1.114c-.64-.354-1.279-.71-1.92-1.062l-.38-.211a.139.139,0,0,1-.075-.117q-.076-.644-.149-1.288-.094-.825-.189-1.65c-.053-.464-.108-.928-.161-1.392q-.088-.762-.175-1.524-.073-.633-.147-1.267-.08-.692-.159-1.385c-.054-.473-.11-.947-.164-1.42q-.087-.762-.175-1.524-.073-.633-.147-1.267-.08-.692-.159-1.385c-.059-.51-.115-1.021-.178-1.531-.028-.225-.041-.451-.053-.676a1.055,1.055,0,0,0-.013-.177V774.4a.167.167,0,0,1,.108-.082l1.241-.442c.717-.257,1.435-.511,2.152-.767.568-.2,1.136-.4,1.7-.607.7-.252,1.409-.5,2.112-.754.495-.177.991-.352,1.486-.529.71-.255,1.422-.506,2.132-.761q.683-.245,1.367-.486C1317.269,769.947,1317.346,769.948,1317.419,769.926Z" transform="translate(-1304.893 -769.926)"/><path class="b" d="M1416.755,770.043c.244.085.489.169.732.256q5.851,2.086,11.7,4.172c.06.021.074.042.066.108-.048.384-.088.769-.133,1.154s-.091.769-.135,1.154c-.04.345-.077.691-.117,1.036-.044.385-.091.769-.136,1.154-.04.343-.077.686-.116,1.029s-.082.69-.122,1.035-.077.686-.117,1.029c-.035.3-.072.607-.107.91s-.069.607-.1.911-.071.607-.106.91c-.03.262-.059.524-.09.785q-.053.459-.107.917-.045.389-.089.779t-.093.8q-.045.393-.09.785l-.09.786q-.046.4-.092.792c-.019.167-.039.334-.056.5,0,.039-.034.048-.059.062l-1.348.746-9.065,5.021c-.047.026-.094.049-.142.073a.3.3,0,0,1-.018-.151q0-5.073,0-10.146c0-.031.023-.03.043-.033a.559.559,0,0,1,.07,0q1.55,0,3.1,0a.159.159,0,0,1,.173.115c.264.655.524,1.311.787,1.966q.344.856.685,1.712c.051.127.065.136.2.136h2.581c.086,0,.1-.024.067-.1l-.407-.916-.82-1.845-.752-1.691-.817-1.839-.809-1.82-.874-1.967-.758-1.7-.868-1.954-.757-1.7c-.275-.62-.552-1.238-.825-1.859a.121.121,0,0,1-.009-.119.468.468,0,0,1-.012-.125q0-1.368,0-2.737C1416.726,770.119,1416.716,770.075,1416.755,770.043Z" transform="translate(-1404.186 -770.03)"/><path class="c" d="M1354.8,796.613c.116.265.232.53.349.795l7.415,16.684c.009.021.018.042.027.066a.1.1,0,0,1-.069.011q-1.389,0-2.777,0a.087.087,0,0,1-.1-.066q-.759-1.9-1.52-3.8a.088.088,0,0,0-.094-.069q-1.6,0-3.191,0c-.019,0-.037,0-.056,0s-.051,0-.077,0q-1.588,0-3.177,0a.11.11,0,0,0-.121.083q-.751,1.884-1.505,3.766a.112.112,0,0,1-.125.085c-.911,0-1.823,0-2.734,0-.1,0-.1,0-.057-.091l6.121-13.723q.817-1.833,1.635-3.666C1354.761,796.661,1354.761,796.622,1354.8,796.613Z" transform="translate(-1342.25 -793.621)"/><path class="a" d="M1400.994,853.04c.008.011.012.023-.005.026a.466.466,0,0,1-.07,0h-4.41c-.06.008-.078-.006-.05-.07.07-.158.134-.319.2-.478l2.024-4.87a.287.287,0,0,1,.029-.063c.009-.012.02,0,.021.013a2.783,2.783,0,0,1,.022.53q0,2.327,0,4.654a1.085,1.085,0,0,0,0,.126.1.1,0,0,0,.106.108.941.941,0,0,0,.112,0h1.872A.334.334,0,0,1,1400.994,853.04Z" transform="translate(-1386.181 -838.875)"/><path class="b" d="M1419.01,853.184a.223.223,0,0,1-.1.015h-2.061c-.1,0-.109-.008-.109-.107q0-2.626,0-5.251a.247.247,0,0,1,.013-.1c.138.329.277.658.414.987q.912,2.194,1.824,4.388C1419,853.14,1419,853.162,1419.01,853.184Z" transform="translate(-1404.198 -839.019)"/><g transform="translate(28.644 5.844)"><path class="b" d="M1560.37,837.755V823.967h.926l5.375,8.147a44.54,44.54,0,0,1,2.588,4.342l.041-.031c-.143-1.851-.158-3.427-.158-5.6v-6.864h.946v13.789h-.91l-5.263-8.025a44.574,44.574,0,0,1-2.67-4.46l-.056.031c.112,1.7.128,3.181.128,5.478v6.976Z" transform="translate(-1560.37 -823.752)"/><path class="b" d="M1679.541,836.053a10.893,10.893,0,0,1-4.015.747,6.666,6.666,0,0,1-4.879-1.805,7.207,7.207,0,0,1-1.9-5.181,6.77,6.77,0,0,1,7.2-7.078,8.08,8.08,0,0,1,3.212.614l-.317.808a6.677,6.677,0,0,0-2.946-.593c-3.805,0-6.132,2.465-6.132,6.2,0,3.892,2.281,6.209,5.923,6.209a6.588,6.588,0,0,0,2.885-.481v-4.854h-3.2v-.8h4.168Z" transform="translate(-1656.598 -822.659)"/><path class="b" d="M1791.616,823.966v8.321c0,3.5,1.642,4.864,3.672,4.864,2.271,0,3.856-1.473,3.856-4.864v-8.321h.972V832.2c0,4.23-2.276,5.779-4.884,5.779-2.4,0-4.588-1.406-4.588-5.631v-8.383h.972Z" transform="translate(-1764.826 -823.751)"/><path class="b" d="M1904.86,823.967h.972v12.97h6.147v.818h-7.119Z" transform="translate(-1866.236 -823.752)"/><path class="b" d="M1979.915,832.933l-1.7,4.823h-1l4.987-13.789h.946l4.966,13.789h-1.008l-1.734-4.823Zm5.16-.818-1.677-4.608c-.338-.956-.522-1.647-.721-2.429h-.051a24.725,24.725,0,0,1-.716,2.388l-1.688,4.649Z" transform="translate(-1930.478 -823.752)"/><path class="b" d="M2093.349,823.306a15.032,15.032,0,0,1,2.982-.3,4.947,4.947,0,0,1,3.708,1.161,3.464,3.464,0,0,1,.961,2.455,3.643,3.643,0,0,1-2.7,3.59v.041c1.11.358,1.805,1.4,2.133,2.931a17.822,17.822,0,0,0,1.028,3.718h-1.018a18.758,18.758,0,0,1-.88-3.355c-.425-1.99-1.273-2.89-3.089-2.966h-2.153v6.321h-.972Zm.971,6.49h2.189c2.128,0,3.509-1.192,3.509-3.007,0-2.117-1.555-2.977-3.713-2.977a8.625,8.625,0,0,0-1.984.189Z" transform="translate(-2033.592 -822.902)"/><path class="b" d="M2176.357,823.967h.972v9.523c0,3.519-1.744,4.491-3.713,4.491a4.608,4.608,0,0,1-1.677-.317l.2-.8a3.7,3.7,0,0,0,1.458.276c1.759,0,2.757-.808,2.757-3.856Z" transform="translate(-2103.37 -823.752)"/><path class="b" d="M2241.644,834.532a5.439,5.439,0,0,0,3.012.91c2.062,0,3.324-1.171,3.324-2.869,0-1.545-.8-2.455-2.792-3.222-2.22-.788-3.549-1.928-3.549-3.805,0-2.02,1.667-3.493,4.01-3.493a5.231,5.231,0,0,1,2.746.649l-.378.818a4.476,4.476,0,0,0-2.435-.655c-2.225,0-2.982,1.427-2.982,2.511,0,1.529.885,2.312,2.859,3.084,2.276.921,3.483,1.954,3.483,4.02,0,2-1.432,3.79-4.373,3.79a6.137,6.137,0,0,1-3.294-.926Z" transform="translate(-2164.933 -822.053)"/></g></g></svg>