<svg id="Layer_1" data-name="Layer 1" xmlns="http://www.w3.org/2000/svg" viewBox="0 0 110 80"><defs><style>.cls-1{fill:#e0e4ea;}.cls-2{fill:#00aeef;}.cls-3{fill:#0c81ed;}</style></defs><title>2</title><path class="cls-1" d="M16.4,26.9c.7,0,1.5-.1,2.2-.1V73.3c-.6-.6-1.2-1.1-1.8-1.6-.1-.1-.3-.2-.4-.3-2.3-1.7-4.7-3-6.8-5-4.4-4-7-10.2-8.5-16.4C-.2,44.9-.8,39,1.8,34.4a14.38,14.38,0,0,1,8-6.4A21.24,21.24,0,0,1,16.4,26.9Z"/><path class="cls-2" d="M29.6,45.8a1.13,1.13,0,0,1,1.1-1.2h.8a1.23,1.23,0,0,1,1.1,1.3,1.13,1.13,0,0,1-1.1,1.2h-.8A1.23,1.23,0,0,1,29.6,45.8Z"/><path class="cls-2" d="M29.6,38.1a1.13,1.13,0,0,1,1.1-1.2h.8a1.23,1.23,0,0,1,1.1,1.3,1.13,1.13,0,0,1-1.1,1.2h-.8A1.3,1.3,0,0,1,29.6,38.1Z"/><path class="cls-2" d="M30.2,53.6a1.13,1.13,0,0,1,1.1-1.2h.8a1.23,1.23,0,0,1,1.1,1.3,1.13,1.13,0,0,1-1.1,1.2h-.8A1.3,1.3,0,0,1,30.2,53.6Z"/><path class="cls-2" d="M29.1,27.7a1.85,1.85,0,0,1,.2-.7c1.4,0,2.8.1,4.3.1l-1,.6,2.5,1.5a1.52,1.52,0,0,1,.5,1.7,1.2,1.2,0,0,1-1,.7.75.75,0,0,1-.5-.1l-4.4-2.6A1.43,1.43,0,0,1,29.1,27.7Z"/><path class="cls-2" d="M37.6,47.1H35.9a1.13,1.13,0,0,1-1.1-1.2,1.3,1.3,0,0,1,1.1-1.3h1.7a1.13,1.13,0,0,1,1.1,1.2,1.16,1.16,0,0,1-1.1,1.3Z"/><path class="cls-2" d="M36,36.8h1.7A1.13,1.13,0,0,1,38.8,38a1.3,1.3,0,0,1-1.1,1.3H36a1.13,1.13,0,0,1-1.1-1.2A1.23,1.23,0,0,1,36,36.8Z"/><path class="cls-2" d="M35.8,53.6a1.13,1.13,0,0,1,1.1-1.2h1.8a1.23,1.23,0,0,1,1.1,1.3,1.13,1.13,0,0,1-1.1,1.2H36.9A1.3,1.3,0,0,1,35.8,53.6Z"/><path class="cls-2" d="M39.3,31.6a.88.88,0,0,1-.8-.9v-.1a.77.77,0,0,1,.9-.8.75.75,0,0,1,.7.9A.88.88,0,0,1,39.3,31.6Z"/><path class="cls-2" d="M38.6,28.9c0-.2-.1-1-.2-1.7h1.7a1.27,1.27,0,0,1-.1.6c0,.4-.1.8-.1,1.2,0,.1,0,.1-.1.1h-1C38.6,29,38.6,29,38.6,28.9Z"/><path class="cls-2" d="M40.9,45.8A1.13,1.13,0,0,1,42,44.6h1.7a1.23,1.23,0,0,1,1.1,1.3,1.13,1.13,0,0,1-1.1,1.2H42A1.23,1.23,0,0,1,40.9,45.8Z"/><path class="cls-2" d="M40.9,38.1A1.13,1.13,0,0,1,42,36.9h1.7a1.23,1.23,0,0,1,1.1,1.3,1.13,1.13,0,0,1-1.1,1.2H42A1.3,1.3,0,0,1,40.9,38.1Z"/><path class="cls-2" d="M43.2,27.7a1.14,1.14,0,0,1,.3-.8c.8-.1,1.5-.1,2.3-.2a1.25,1.25,0,0,1,.3,1.7,1,1,0,0,1-.9.6h-.8A1.24,1.24,0,0,1,43.2,27.7Z"/><path class="cls-2" d="M46.3,53.6a1.13,1.13,0,0,1-1.1,1.2H43.4a1.23,1.23,0,0,1-1.1-1.3,1.13,1.13,0,0,1,1.1-1.2h1.8a1.3,1.3,0,0,1,1.1,1.3Z"/><path class="cls-2" d="M47,45.8a1.13,1.13,0,0,1,1.1-1.2h1.7a1.13,1.13,0,0,1,1.1,1.2,1.3,1.3,0,0,1-1.1,1.3H48.1A1.23,1.23,0,0,1,47,45.8Z"/><path class="cls-2" d="M47,38.1a1.13,1.13,0,0,1,1.1-1.2h1.7a1.13,1.13,0,0,1,1.1,1.2,1.3,1.3,0,0,1-1.1,1.3H48.1A1.3,1.3,0,0,1,47,38.1Z"/><path class="cls-2" d="M52.9,53.6a1.13,1.13,0,0,1-1.1,1.2H50a1.23,1.23,0,0,1-1.1-1.3A1.13,1.13,0,0,1,50,52.3h1.8A1.3,1.3,0,0,1,52.9,53.6Z"/><path class="cls-2" d="M48.9,27.7A1.13,1.13,0,0,1,50,26.5h1.8a1.13,1.13,0,0,1,1.1,1.2A1.23,1.23,0,0,1,51.8,29H49.9A1.31,1.31,0,0,1,48.9,27.7Z"/><path class="cls-2" d="M53.1,45.8a1.13,1.13,0,0,1,1.1-1.2h1.6a1.13,1.13,0,0,1,1.1,1.2,1.3,1.3,0,0,1-1.1,1.3H54.1a1.23,1.23,0,0,1-1-1.3Z"/><path class="cls-2" d="M53.1,38.1a1.13,1.13,0,0,1,1.1-1.2h1.6a1.13,1.13,0,0,1,1.1,1.2,1.3,1.3,0,0,1-1.1,1.3H54.1a1.31,1.31,0,0,1-1-1.3Z"/><path class="cls-2" d="M59.4,53.6a1.13,1.13,0,0,1-1.1,1.2H56.5a1.23,1.23,0,0,1-1.1-1.3,1.13,1.13,0,0,1,1.1-1.2h1.8A1.3,1.3,0,0,1,59.4,53.6Z"/><path class="cls-2" d="M55.7,27.7a1.13,1.13,0,0,1,1.1-1.2h1.8a1.13,1.13,0,0,1,1.1,1.2A1.23,1.23,0,0,1,58.6,29H56.8A1.23,1.23,0,0,1,55.7,27.7Z"/><path class="cls-2" d="M59.1,45.8a1.13,1.13,0,0,1,1.1-1.2h1.7A1.23,1.23,0,0,1,63,45.9a1.13,1.13,0,0,1-1.1,1.2H60.2A1.23,1.23,0,0,1,59.1,45.8Z"/><path class="cls-2" d="M60.2,36.8h1.7A1.23,1.23,0,0,1,63,38.1a1.13,1.13,0,0,1-1.1,1.2H60.2a1.13,1.13,0,0,1-1.1-1.2,1.23,1.23,0,0,1,1.1-1.3Z"/><path class="cls-2" d="M62,53.6a1.13,1.13,0,0,1,1.1-1.2h.8A1.23,1.23,0,0,1,65,53.7a1.13,1.13,0,0,1-1.1,1.2h-.8A1.3,1.3,0,0,1,62,53.6Z"/><path class="cls-2" d="M62.4,27.7a1.13,1.13,0,0,1,1.1-1.2h.8a1.13,1.13,0,0,1,1.1,1.2A1.23,1.23,0,0,1,64.3,29h-.9A1.23,1.23,0,0,1,62.4,27.7Z"/><path class="cls-2" d="M69,45.8A1.13,1.13,0,0,1,67.9,47H66.2a1.23,1.23,0,0,1-1.1-1.3,1.13,1.13,0,0,1,1.1-1.2h1.7A1.22,1.22,0,0,1,69,45.8Z"/><path class="cls-2" d="M65.2,38.1a1.13,1.13,0,0,1,1.1-1.2H68a1.13,1.13,0,0,1,1.1,1.2A1.3,1.3,0,0,1,68,39.4H66.3A1.3,1.3,0,0,1,65.2,38.1Z"/><path class="cls-2" d="M75.9,77.7a6.43,6.43,0,0,1-2.4,1c-9.2,2.5-18.9-.2-28.5-.3-5.9-.1-11.8.9-17.7,1.5l-3.9.3H21.8a15.48,15.48,0,0,1-5.2-1l.9.2a13.36,13.36,0,0,0-.7-1.8H75.9Z"/><path class="cls-2" d="M67.7,29.2l2.5-1.5-2.5-1.5a1.36,1.36,0,0,1-.4-1.7,1.06,1.06,0,0,1,1.5-.5l4.4,2.6a1.52,1.52,0,0,1,.5,1.7,1.21,1.21,0,0,1-.5.5l-4.4,2.6a.9.9,0,0,1-.5.1,1.2,1.2,0,0,1-1.1-1.2,1.08,1.08,0,0,1,.5-1.1Z"/><path class="cls-2" d="M74.3,45.8A1.13,1.13,0,0,1,73.2,47h-.8a1.13,1.13,0,0,1-1.1-1.2,1.3,1.3,0,0,1,1.1-1.3h.8a1.3,1.3,0,0,1,1.1,1.3Z"/><path class="cls-2" d="M74.3,38.1a1.13,1.13,0,0,1-1.1,1.2h-.8a1.13,1.13,0,0,1-1.1-1.2,1.3,1.3,0,0,1,1.1-1.3h.8a1.23,1.23,0,0,1,1.1,1.3Z"/><path class="cls-2" d="M74.3,53.6a1.15,1.15,0,0,1-.6,1.1l-4.4,2.6a1.08,1.08,0,0,1-1.5-.5,1.28,1.28,0,0,1,.5-1.7l2.5-1.5-2.5-1.5a1.36,1.36,0,0,1-.4-1.7,1.06,1.06,0,0,1,1.5-.5l4.4,2.6A1.29,1.29,0,0,1,74.3,53.6Z"/><path class="cls-1" d="M110,22.5a29.78,29.78,0,0,1-.6,6,17.53,17.53,0,0,1-2.3,5C101.8,41.9,93.6,46.9,87,53.7c-.8.8-1.5,1.6-2.2,2.4v-46H81.5c1.8-1,3.6-2,5.5-2.9S90.6,5.6,92.4,5c4.1-1.4,8.8-2.1,12.4.6C109.5,9,110.1,16.3,110,22.5Z"/><path class="cls-3" d="M82.57.2H20.87a4.72,4.72,0,0,0-4.4,5V74.9c0,2.7,2,5,4.4,5h61.7a4.72,4.72,0,0,0,4.4-5V5.1A4.69,4.69,0,0,0,82.57.2ZM18.67,5.1a2.27,2.27,0,0,1,2.2-2.4h61.7a2.36,2.36,0,0,1,2.2,2.5V7.7H18.67Zm66.1,5V74.8a2.36,2.36,0,0,1-2.2,2.5H20.87a2.36,2.36,0,0,1-2.2-2.5V10.1Z"/><ellipse class="cls-3" cx="80.37" cy="5.1" rx="1.1" ry="1.2"/><ellipse class="cls-3" cx="75.97" cy="5.1" rx="1.1" ry="1.2"/><path class="cls-3" d="M74.27,53.6a1.15,1.15,0,0,1-.6,1.1l-4.4,2.6a1.08,1.08,0,0,1-1.5-.5,1.28,1.28,0,0,1,.5-1.7l2.5-1.5-2.5-1.5a1.36,1.36,0,0,1-.4-1.7,1.06,1.06,0,0,1,1.5-.5l4.4,2.6A1.29,1.29,0,0,1,74.27,53.6Z"/><path class="cls-3" d="M74.27,38.1a1.13,1.13,0,0,1-1.1,1.2h-.8a1.13,1.13,0,0,1-1.1-1.2,1.3,1.3,0,0,1,1.1-1.3h.8a1.23,1.23,0,0,1,1.1,1.3Z"/><path class="cls-3" d="M63,38.1a1.13,1.13,0,0,1-1.1,1.2h-1.7a1.13,1.13,0,0,1-1.1-1.2,1.3,1.3,0,0,1,1.1-1.3h1.7A1.23,1.23,0,0,1,63,38.1Z"/><path class="cls-3" d="M50.87,38.1a1.13,1.13,0,0,1-1.1,1.2h-1.7A1.13,1.13,0,0,1,47,38.1a1.3,1.3,0,0,1,1.1-1.3h1.7a1.23,1.23,0,0,1,1.1,1.3Z"/><path class="cls-3" d="M44.77,38.1a1.13,1.13,0,0,1-1.1,1.2H42a1.23,1.23,0,0,1-1.1-1.3A1.13,1.13,0,0,1,42,36.8h1.7a1.23,1.23,0,0,1,1.1,1.3Z"/><path class="cls-3" d="M38.77,38.1a1.13,1.13,0,0,1-1.1,1.2H36a1.13,1.13,0,0,1-1.1-1.2A1.3,1.3,0,0,1,36,36.8h1.7A1.23,1.23,0,0,1,38.77,38.1Z"/><path class="cls-3" d="M69.07,38.1A1.13,1.13,0,0,1,68,39.3h-1.7a1.23,1.23,0,0,1-1.1-1.3,1.13,1.13,0,0,1,1.1-1.2H68a1.23,1.23,0,0,1,1.1,1.3Z"/><path class="cls-3" d="M56.87,38.1a1.13,1.13,0,0,1-1.1,1.2h-1.7A1.23,1.23,0,0,1,53,38a1.13,1.13,0,0,1,1.1-1.2h1.7A1.16,1.16,0,0,1,56.87,38.1Z"/><path class="cls-3" d="M32.67,38.1a1.13,1.13,0,0,1-1.1,1.2h-.8a1.23,1.23,0,0,1-1.1-1.3,1.13,1.13,0,0,1,1.1-1.2h.8A1.23,1.23,0,0,1,32.67,38.1Z"/><path class="cls-3" d="M74.27,45.8a1.13,1.13,0,0,1-1.1,1.2h-.8a1.13,1.13,0,0,1-1.1-1.2,1.3,1.3,0,0,1,1.1-1.3h.8a1.3,1.3,0,0,1,1.1,1.3Z"/><path class="cls-3" d="M38.77,45.8a1.13,1.13,0,0,1-1.1,1.2H36a1.13,1.13,0,0,1-1.1-1.2A1.3,1.3,0,0,1,36,44.5h1.7A1.3,1.3,0,0,1,38.77,45.8Z"/><path class="cls-3" d="M63,45.8a1.13,1.13,0,0,1-1.1,1.2h-1.7a1.13,1.13,0,0,1-1.1-1.2,1.3,1.3,0,0,1,1.1-1.3h1.7A1.3,1.3,0,0,1,63,45.8Z"/><path class="cls-3" d="M50.87,45.8a1.13,1.13,0,0,1-1.1,1.2h-1.7A1.13,1.13,0,0,1,47,45.8a1.3,1.3,0,0,1,1.1-1.3h1.7a1.3,1.3,0,0,1,1.1,1.3Z"/><path class="cls-3" d="M69.07,45.8A1.13,1.13,0,0,1,68,47h-1.7a1.23,1.23,0,0,1-1.1-1.3,1.13,1.13,0,0,1,1.1-1.2H68a1.3,1.3,0,0,1,1.1,1.3Z"/><path class="cls-3" d="M56.87,45.8a1.13,1.13,0,0,1-1.1,1.2h-1.7A1.23,1.23,0,0,1,53,45.7a1.13,1.13,0,0,1,1.1-1.2h1.7A1.22,1.22,0,0,1,56.87,45.8Z"/><path class="cls-3" d="M44.77,45.8a1.13,1.13,0,0,1-1.1,1.2H42a1.23,1.23,0,0,1-1.1-1.3A1.13,1.13,0,0,1,42,44.5h1.7a1.3,1.3,0,0,1,1.1,1.3Z"/><path class="cls-3" d="M32.67,45.8a1.13,1.13,0,0,1-1.1,1.2h-.8a1.23,1.23,0,0,1-1.1-1.3,1.13,1.13,0,0,1,1.1-1.2h.8A1.3,1.3,0,0,1,32.67,45.8Z"/><path class="cls-3" d="M65.07,53.6A1.13,1.13,0,0,1,64,54.8h-.8a1.23,1.23,0,0,1-1.1-1.3,1.13,1.13,0,0,1,1.1-1.2H64A1.3,1.3,0,0,1,65.07,53.6Z"/><path class="cls-3" d="M59.47,53.6a1.13,1.13,0,0,1-1.1,1.2h-1.8a1.23,1.23,0,0,1-1.1-1.3,1.13,1.13,0,0,1,1.1-1.2h1.8A1.3,1.3,0,0,1,59.47,53.6Z"/><path class="cls-3" d="M52.87,53.6a1.13,1.13,0,0,1-1.1,1.2H50a1.23,1.23,0,0,1-1.1-1.3A1.13,1.13,0,0,1,50,52.3h1.8A1.3,1.3,0,0,1,52.87,53.6Z"/><path class="cls-3" d="M46.37,53.6a1.13,1.13,0,0,1-1.1,1.2h-1.8a1.23,1.23,0,0,1-1.1-1.3,1.13,1.13,0,0,1,1.1-1.2h1.8a1.3,1.3,0,0,1,1.1,1.3Z"/><path class="cls-3" d="M39.77,53.6a1.13,1.13,0,0,1-1.1,1.2h-1.8a1.23,1.23,0,0,1-1.1-1.3,1.13,1.13,0,0,1,1.1-1.2h1.8a1.3,1.3,0,0,1,1.1,1.3Z"/><path class="cls-3" d="M33.17,53.6a1.13,1.13,0,0,1-1.1,1.2h-.8a1.23,1.23,0,0,1-1.1-1.3,1.13,1.13,0,0,1,1.1-1.2h.8A1.3,1.3,0,0,1,33.17,53.6Z"/><path class="cls-3" d="M35.57,30.9a1.2,1.2,0,0,1-1,.7.75.75,0,0,1-.5-.1l-4.4-2.6a1.31,1.31,0,0,1,0-2.2l4.4-2.6a1.05,1.05,0,0,1,1.5.6,1.17,1.17,0,0,1-.5,1.6l-1.5.8-1,.6,2.5,1.5a1.28,1.28,0,0,1,.5,1.7Z"/><path class="cls-3" d="M73.77,27.7a1.15,1.15,0,0,1-.6,1.1l-4.4,2.6a.9.9,0,0,1-.5.1,1.2,1.2,0,0,1-1.1-1.2,1.15,1.15,0,0,1,.6-1.1l2.5-1.5-2.5-1.5a1.36,1.36,0,0,1-.4-1.7,1.06,1.06,0,0,1,1.5-.5l4.4,2.6A1.63,1.63,0,0,1,73.77,27.7Z"/><path class="cls-3" d="M46.17,27.7a1.13,1.13,0,0,1-1.1,1.2h-.8a1.2,1.2,0,0,1-1.1-1.2,1.13,1.13,0,0,1,1.1-1.2h.8a1.42,1.42,0,0,1,.6.2A1.23,1.23,0,0,1,46.17,27.7Z"/><path class="cls-3" d="M53,27.7a1.13,1.13,0,0,1-1.1,1.2h-1.8A1.13,1.13,0,0,1,49,27.7a1.23,1.23,0,0,1,1.1-1.3H52a1.31,1.31,0,0,1,1,1.3Z"/><path class="cls-3" d="M59.77,27.7a1.13,1.13,0,0,1-1.1,1.2h-1.8a1.13,1.13,0,0,1-1.1-1.2,1.23,1.23,0,0,1,1.1-1.3h1.7A1.3,1.3,0,0,1,59.77,27.7Z"/><path class="cls-3" d="M65.47,27.7a1.13,1.13,0,0,1-1.1,1.2h-.8a1.23,1.23,0,0,1-1.1-1.3,1.13,1.13,0,0,1,1.1-1.2h.8A1.3,1.3,0,0,1,65.47,27.7Z"/><path class="cls-3" d="M40.07,30.7a.81.81,0,1,1-1.6,0v-.1a.77.77,0,0,1,.9-.8A.81.81,0,0,1,40.07,30.7Z"/><path class="cls-3" d="M40.37,24.9a2.77,2.77,0,0,1-.1.9c0,.4-.1.9-.1,1.3a1.27,1.27,0,0,1-.1.6c0,.4-.1.8-.1,1.2,0,.1,0,.1-.1.1h-1c-.1,0-.1,0-.1-.1s-.1-1-.2-1.7c-.1-1.1-.2-2.4-.2-2.4a1.16,1.16,0,0,1,1.1-1c.5-.1,1,.4,1.1,1C40.37,24.8,40.37,24.9,40.37,24.9Z"/></svg>