<svg xmlns="http://www.w3.org/2000/svg" width="71.705" height="68.312" viewBox="0 0 71.705 68.312"><defs><style>.a{fill:#47ca98;}.b{fill:#1c9868;}</style></defs><g transform="translate(0)"><g transform="translate(13.269)"><path class="a" d="M1620.29,7.651a22.4,22.4,0,0,1,9.809-3.3,24.951,24.951,0,0,1,21.071,7.584c.307.307.584.644.867.974,1.031,1.2,1.046,1.222-.156,2.317a10.662,10.662,0,0,1-7.032,3.065c-5.311.1-10.626.026-15.939.025a2.413,2.413,0,0,1-1.024-1,26.787,26.787,0,0,0-7.09-8.764C1620.5,8.315,1620.187,8.1,1620.29,7.651Z" transform="translate(-1607.712 -4.207)"/><path class="b" d="M1530.352,180.288q-10.165.008-20.33.027a.812.812,0,0,1-.95-.735,25.75,25.75,0,0,1,0-12.817c.118-.465.293-.685.8-.684q10.165.025,20.33.025a.915.915,0,0,1,.182.037,1.52,1.52,0,0,1,.714,1.139,27.086,27.086,0,0,1,.552,7.589c-.119,1.363-.216,2.725-.464,4.071C1531.093,179.5,1530.969,180.049,1530.352,180.288Z" transform="translate(-1508.264 -147.93)"/><path class="a" d="M1633.759,328.086c5.1-.005,10.205-.079,15.305.01a11.51,11.51,0,0,1,7.978,3.589.738.738,0,0,1,.054,1.186,24.915,24.915,0,0,1-16.834,9.208,24.308,24.308,0,0,1-14.935-2.96.829.829,0,0,1,.4-.7,27.2,27.2,0,0,0,7.258-9.564C1633.154,328.487,1633.479,328.323,1633.759,328.086Z" transform="translate(-1612.2 -291.743)"/><path class="a" d="M1705.27,180.487a27.313,27.313,0,0,0,.687-10.492c-.14-1.227-.427-2.437-.647-3.654,3.885-.007,7.77-.081,11.653,0a6.93,6.93,0,0,1,6.463,6.356,7.051,7.051,0,0,1-5.676,7.635,8.667,8.667,0,0,1-1.48.164C1712.6,180.5,1708.937,180.493,1705.27,180.487Z" transform="translate(-1683.182 -148.129)"/><path class="b" d="M1551.551,328.057a24.307,24.307,0,0,1-5.417,8.468,8.688,8.688,0,0,1-3.016,2.565,24.948,24.948,0,0,1-10.217-10.328c-.314-.574-.191-.745.454-.743Q1542.452,328.054,1551.551,328.057Z" transform="translate(-1529.992 -291.714)"/><path class="b" d="M1542.941,34.922a26.033,26.033,0,0,1,7.951,9.337c.232.439.446.888.668,1.333l-17.716.035c-.514,0-.913-.067-.552-.731A24.437,24.437,0,0,1,1542.941,34.922Z" transform="translate(-1530.363 -31.478)"/></g><g transform="translate(0 58.548)"><path class="b" d="M1981.829,531.241c0-1.46.008-2.919-.006-4.379,0-.3.058-.431.392-.414.7.034.621-.088.626.636s0,1.447,0,2.17c0,.47,0,.471.425.308a4.206,4.206,0,0,1,2.464-.227,1.48,1.48,0,0,1,1.156,1.042,5.659,5.659,0,0,1,.258,1.724c.013,1.206,0,2.412.014,3.617,0,.272-.084.341-.345.338-.663-.007-.654,0-.665-.662-.02-1.281.065-2.564-.06-3.843a4.081,4.081,0,0,0-.117-.634.945.945,0,0,0-.867-.74,4.314,4.314,0,0,0-2.052.283c-.237.088-.21.252-.21.426,0,1.574,0,3.148,0,4.721,0,.143.078.371-.085.413a1.578,1.578,0,0,1-.863-.011c-.119-.039-.06-.231-.06-.353Q1981.826,533.45,1981.829,531.241Z" transform="translate(-1915.453 -526.442)"/><path class="b" d="M1482.149,557.513a.647.647,0,0,1-.529-.726c.017-.571,0-1.142,0-1.714h-.006c0-.61.023-1.22,0-1.828a1.707,1.707,0,0,0-1.718-1.811,11.192,11.192,0,0,0-2.8.222c-.179.032-.219.117-.221.283,0,.524-.011.525.506.484.14-.011.277-.034.417-.041.57-.03,1.141-.079,1.712-.079a1,1,0,0,1,1.108,1.042c.011.126-.008.256.009.38.047.325-.075.431-.409.459a13.541,13.541,0,0,0-2.452.3,1.541,1.541,0,0,0-1.215,1.229,2.983,2.983,0,0,0,.051,1.47,1.509,1.509,0,0,0,1.223,1.12,4.636,4.636,0,0,0,2.5-.3.693.693,0,0,1,.791.074,1.54,1.54,0,0,0,.862.267c.14.014.393.123.383-.14C1482.35,557.97,1482.6,557.627,1482.149,557.513Zm-1.527-1.484c0,.1,0,.2,0,.3,0,.818,0,.821-.79,1.017a5.015,5.015,0,0,1-1.316.165.889.889,0,0,1-.953-.8c-.223-1.009.183-1.551,1.219-1.638.517-.044,1.034-.093,1.551-.149.21-.024.3.037.292.263C1480.61,555.471,1480.622,555.751,1480.622,556.029Z" transform="translate(-1466.776 -548.609)"/><path class="b" d="M1832.3,557.54a.651.651,0,0,1-.526-.731c.014-.583,0-1.167,0-1.752h-.007c0-.6.02-1.194,0-1.789a1.715,1.715,0,0,0-1.8-1.811,13.9,13.9,0,0,0-2.576.194c-.482.063-.354.357-.349.626.005.359.273.185.419.173.721-.06,1.442-.126,2.166-.122a1.022,1.022,0,0,1,1.144,1.126,2.521,2.521,0,0,0,0,.3c.051.328-.081.427-.411.455a13.978,13.978,0,0,0-2.415.29,1.562,1.562,0,0,0-1.263,1.315,3.026,3.026,0,0,0,.057,1.36,1.523,1.523,0,0,0,1.238,1.153,4.614,4.614,0,0,0,2.464-.291.716.716,0,0,1,.826.062,1.5,1.5,0,0,0,.861.267c.138.014.392.126.378-.143C1832.5,558,1832.753,557.654,1832.3,557.54Zm-1.52-2.264c-.021.265,0,.532,0,.8,0,.165,0,.329,0,.494,0,.584,0,.585-.546.745a5.362,5.362,0,0,1-1.5.231.908.908,0,0,1-1.024-.85c-.183-.991.207-1.5,1.206-1.584.5-.042,1.009-.088,1.512-.149C1830.682,554.93,1830.8,554.993,1830.776,555.276Z" transform="translate(-1777.671 -548.639)"/><path class="b" d="M1768.9,554.867c.622.013,1.244,0,1.866,0h1.18c1.186,0,1.194,0,1.1-1.209a2.855,2.855,0,0,0-.887-2.153,2.8,2.8,0,0,0-4.357,1.292,6.32,6.32,0,0,0-.037,3.349,2.128,2.128,0,0,0,2.247,1.773,21.017,21.017,0,0,0,2.505-.16c.447-.04.286-.351.3-.585.019-.329-.223-.242-.4-.226a16.242,16.242,0,0,1-2.319.064,1.352,1.352,0,0,1-1.382-1.134c-.059-.232-.068-.475-.11-.713S1768.672,554.863,1768.9,554.867Zm-.308-1.08c.034-.212.048-.428.1-.637a1.755,1.755,0,0,1,2.6-1.131,1.494,1.494,0,0,1,.7,1.2c.131.834.125.834-.717.834h-.95c-.494,0-.988-.006-1.481,0C1768.645,554.058,1768.562,553.988,1768.594,553.788Z" transform="translate(-1725.221 -548.174)"/><path class="b" d="M1395.38,553.625a2.314,2.314,0,0,0-1.985-2.352,2.563,2.563,0,0,0-3.2,1.7,6.191,6.191,0,0,0,.021,3.713,1.951,1.951,0,0,0,1.7,1.434,11.367,11.367,0,0,0,3.034-.129c.427-.05.176-.4.208-.612.039-.256-.177-.193-.314-.179-.671.071-1.344.069-2.016.084-1.231.027-1.778-.5-1.862-1.88-.013-.218.061-.287.276-.284.635.011,1.271,0,1.905,0s1.3-.007,1.943,0c.211,0,.3-.068.3-.281C1395.384,554.436,1395.418,554.027,1395.38,553.625Zm-1.765.676h-.951c-.482,0-.964,0-1.447,0-.16,0-.263-.023-.256-.225.05-1.415.711-2.151,2.153-1.98.7.084,1.078.5,1.222,1.3C1394.5,554.3,1394.5,554.3,1393.615,554.3Z" transform="translate(-1389.921 -548.422)"/><path class="b" d="M1714.5,551.336a15.723,15.723,0,0,1,1.819.19c.385.053.417.141.358.69-.04.371-.3.194-.457.175a11.277,11.277,0,0,0-2.315-.119c-.625.056-.987.377-1.027.879a.733.733,0,0,0,.539.852,9.059,9.059,0,0,0,1.407.326,5.385,5.385,0,0,1,1.273.375,1.231,1.231,0,0,1,.746.986,4.006,4.006,0,0,1,.06.6,1.722,1.722,0,0,1-1.416,1.855,6.679,6.679,0,0,1-2.572.037c-.214-.025-.425-.09-.639-.1-.277-.01-.326-.142-.309-.389.037-.527.026-.533.559-.468a13.391,13.391,0,0,0,1.934.152,2.648,2.648,0,0,0,.713-.107.928.928,0,0,0,.724-.989.836.836,0,0,0-.71-.9,12.28,12.28,0,0,0-1.376-.291c-.211-.042-.423-.086-.63-.145-.968-.278-1.277-.642-1.307-1.525a1.689,1.689,0,0,1,1.2-1.89,2.722,2.722,0,0,1,.588-.152C1713.945,551.351,1714.225,551.351,1714.5,551.336Z" transform="translate(-1675.779 -548.54)"/><path class="b" d="M1539.349,551.528a13.344,13.344,0,0,1,1.855.166c.52.061.283.448.292.7.012.351-.267.181-.415.163a11.083,11.083,0,0,0-2.353-.12.967.967,0,0,0-1,.858.732.732,0,0,0,.519.863,8.615,8.615,0,0,0,1.443.336,5.7,5.7,0,0,1,1.2.347,1.242,1.242,0,0,1,.8.992c.218,1.365-.17,2.323-1.745,2.561a9.656,9.656,0,0,1-2.951-.163c-.123-.019-.166-.074-.177-.2-.058-.632.018-.714.644-.629a11.571,11.571,0,0,0,1.9.142,2.263,2.263,0,0,0,.781-.148.9.9,0,0,0,.6-.992.791.791,0,0,0-.637-.835,10.934,10.934,0,0,0-1.412-.3c-.2-.039-.4-.083-.594-.129-1.152-.27-1.574-.9-1.311-2.268a1.924,1.924,0,0,1,1.884-1.339C1538.891,551.512,1539.12,551.528,1539.349,551.528Z" transform="translate(-1520.248 -548.705)"/><path class="b" d="M1590.758,539.4c0-.6-.019-1.193.007-1.789.015-.328-.1-.436-.409-.387-.025,0-.052,0-.076,0-.388.073-.481-.092-.487-.472-.007-.4.182-.445.482-.4.369.05.531-.062.491-.47s0-.837-.012-1.255c-.006-.214.039-.315.288-.32.71-.014.71-.026.71.7,0,.355.011.711,0,1.066-.009.218.073.289.285.285.482-.01.966.022,1.446-.01.363-.025.419.13.408.441-.01.279,0,.484-.39.454-.492-.038-.989-.006-1.484-.01-.158,0-.268.016-.263.22.036,1.356-.08,2.715.072,4.068.067.594.285.762.885.753.3,0,.609-.024.911-.055.183-.019.269.013.3.222.089.6.1.589-.5.679a5.282,5.282,0,0,1-1.138.054,1.366,1.366,0,0,1-1.433-1.3,6.708,6.708,0,0,1-.081-.908c-.013-.52,0-1.04,0-1.56Z" transform="translate(-1567.384 -533.417)"/><path class="b" d="M1660.56,554.849a8.252,8.252,0,0,1,.177-1.651,2.1,2.1,0,0,1,2.018-1.761,8.977,8.977,0,0,1,2.234.145c.246.034.168.214.162.351-.022.505-.025.5-.514.444a7.3,7.3,0,0,0-1.6-.036,1.314,1.314,0,0,0-1.3,1.13,6.322,6.322,0,0,0-.028,2.682,1.4,1.4,0,0,0,1.526,1.291,15.2,15.2,0,0,0,1.633-.091c.238-.011.3.1.278.29s.194.5-.185.552a8.129,8.129,0,0,1-2.422.1,2.013,2.013,0,0,1-1.776-1.591A8.634,8.634,0,0,1,1660.56,554.849Z" transform="translate(-1630.216 -548.606)"/><path class="b" d="M1927.51,555.07a8.43,8.43,0,0,1,.148-1.74,2.158,2.158,0,0,1,2.188-1.893,8.41,8.41,0,0,1,2.043.159c.412.073.147.408.185.62.044.24-.144.217-.3.2a8.008,8.008,0,0,0-1.708-.065,1.35,1.35,0,0,0-1.4,1.208,6.651,6.651,0,0,0,.008,2.683,1.385,1.385,0,0,0,1.509,1.218c.548.034,1.088-.069,1.632-.089.2-.008.305.051.267.247s.232.526-.166.592a8.309,8.309,0,0,1-2.082.15c-1.424-.128-2.069-.787-2.251-2.3C1927.542,555.666,1927.526,555.273,1927.51,555.07Z" transform="translate(-1867.236 -548.618)"/><path class="b" d="M1453.533,531.243c0-1.472.011-2.945-.008-4.417,0-.341.095-.466.426-.414a.969.969,0,0,0,.266,0c.248-.031.327.067.323.319-.014.914-.005,1.828-.005,2.742,0,2.056-.007,4.113.007,6.169,0,.308-.091.383-.384.375-.625-.017-.626,0-.626-.624Q1453.533,533.318,1453.533,531.243Z" transform="translate(-1446.394 -526.401)"/><path class="b" d="M1891.021,552.565a7.346,7.346,0,0,1,1.831-.879c.737-.208.577-.194.614.442.019.326-.084.455-.41.526a7.852,7.852,0,0,0-1.706.638.494.494,0,0,0-.324.523c.014,1.384,0,2.768.014,4.151,0,.325-.1.437-.407.39a.783.783,0,0,0-.228,0c-.3.044-.385-.07-.383-.374q.021-2.951,0-5.9c0-.313.077-.452.4-.4a.789.789,0,0,0,.228,0c.3-.043.416.081.376.38A4.371,4.371,0,0,0,1891.021,552.565Z" transform="translate(-1833.95 -548.745)"/><path class="b" d="M1638.071,555.867c0,.978-.012,1.956.007,2.934.006.294-.09.362-.367.356-.638-.013-.639,0-.639-.65,0-1.88.008-3.76-.007-5.639,0-.323.094-.44.407-.4a1.257,1.257,0,0,0,.3,0c.236-.025.3.078.3.308C1638.064,553.81,1638.071,554.839,1638.071,555.867Z" transform="translate(-1609.355 -549.541)"/><path class="b" d="M1637.947,528.967c0,.133-.007.235,0,.335.017.195-.063.258-.26.267-.742.035-.749.043-.736-.7,0-.159-.113-.408.108-.465a1.149,1.149,0,0,1,.814.023C1638.055,528.531,1637.908,528.807,1637.947,528.967Z" transform="translate(-1609.231 -528.128)"/></g></g></svg>