<svg id="Layer_1" data-name="Layer 1" xmlns="http://www.w3.org/2000/svg" viewBox="0 0 110 80"><defs><style>.cls-1{fill:#d3f6e5;}.cls-2{fill:#3bc49a;}</style></defs><title>3</title><path class="cls-1" d="M41.2,74.2a5.28,5.28,0,0,0-.1,1.3V76a.76.76,0,0,1-.4-.1l-2-.3a26.93,26.93,0,0,1-17.2-8.2,26.69,26.69,0,0,1-7.4-17.5c-.1-2.6.2-5.3,1.7-7.3,2.1-2.9,6-3.8,9.5-4.4l1.7-.3c.8-.2,1.6-.3,2.4-.5v32a4.91,4.91,0,0,0,4.9,4.9h6.9Z"/><path class="cls-1" d="M95.9,28.4c-.1,8.2-3.3,16.1-7.7,23S78.1,64,72.3,69.6l-.2.2A29.24,29.24,0,0,1,68.3,73a4.84,4.84,0,0,0,1.6-3.6V22.2c.8-.6,1.6-1.2,2.4-1.9A35.86,35.86,0,0,1,79,16.1c4-1.8,9-2.2,12.5.4S96,24,95.9,28.4Z"/><path class="cls-2" d="M53.4,44.1v2h.5a2.37,2.37,0,0,0,2.4-2.4h0V34.9a2.37,2.37,0,0,0-2.4-2.4H41.7a2.37,2.37,0,0,0-2.4,2.4h0v8.8a2.4,2.4,0,0,0,2.2,2.4v-2a11,11,0,0,1,.2-1.8V34.8H53.9v8.8h-.5Z"/><path class="cls-2" d="M58.8,48.6h-2l.1.2a6.93,6.93,0,0,1,3.1.9A1.28,1.28,0,0,0,58.8,48.6Z"/><path class="cls-2" d="M58.8,27.8h-22a2.37,2.37,0,0,0-2.4,2.4h0V48.5a2.37,2.37,0,0,0,2.4,2.4h4.7V48.5H36.8V30.2h22a1.2,1.2,0,1,0,0-2.4Z"/><path class="cls-2" d="M66.1,53.1V25.3a2.37,2.37,0,0,0-2.4-2.4H36.8a1.2,1.2,0,1,0,0,2.4H63.7V51.4A7,7,0,0,1,66.1,53.1Z"/><path class="cls-2" d="M64.9.9H34.3A7.28,7.28,0,0,0,27,8.2h0V69.4a8.08,8.08,0,0,0,.5,2.7,7.27,7.27,0,0,0,6.8,4.6h6.8c0-.2-.1-.5-.1-.7v-.5a6.15,6.15,0,0,1,.1-1.3H34.3a4.91,4.91,0,0,1-4.9-4.9h0V8.2a4.91,4.91,0,0,1,4.9-4.9h4c0,.1,0,.1.1.2l1,2.2c.9,2,2.2,3.1,3.9,3.1H56a4.84,4.84,0,0,0,4.3-3.2c.4-1.2.7-2.1.7-2.2s0-.1.1-.2H65a4.91,4.91,0,0,1,4.9,4.9h0V69.3a5,5,0,0,1-1.6,3.6c-.2.2-.4.3-.6.5a6.93,6.93,0,0,1,.3,2V76a7.38,7.38,0,0,0,4.3-6.5V8.2A7.36,7.36,0,0,0,64.9.9Zm-7,4a2.44,2.44,0,0,1-2,1.5H43.3c-.9,0-1.4-1-1.7-1.7L41,3.3H58.5a9.12,9.12,0,0,0-.6,1.6Z"/><path class="cls-2" d="M43.5,75.5c0,2,1.3,3.7,2.8,3.7H62.7a2.29,2.29,0,0,0,1.7-.8,4.55,4.55,0,0,0-.1-5.9c1.7-10.5,1-14.7.8-15.6a3.61,3.61,0,0,0-3.6-3.4,3.19,3.19,0,0,0-1.4.3,3.54,3.54,0,0,0-3.4-2.6h0a5,5,0,0,0-1.2.2,3.54,3.54,0,0,0-3.4-2.6h0a5,5,0,0,0-1.2.2V44.1a3.56,3.56,0,0,0-3.6-3.5h0a3.54,3.54,0,0,0-3.5,3.5h0l.1,14.5a7,7,0,0,0-3-2.4,3.59,3.59,0,0,0-2.7.1A2.48,2.48,0,0,0,36.6,58c-.6,1.6,0,3.9,2,6.8l5.1,9a9.85,9.85,0,0,0-.2,1.7Zm19.2,1.2H46.4a2,2,0,0,1,0-2.4H62.7a1.75,1.75,0,0,1,.4,1.2A1.92,1.92,0,0,1,62.7,76.7Zm-22-13.1h0c-2.1-3.1-1.9-4.3-1.8-4.6,0-.1.1-.2.2-.3s.2,0,.2-.1a1,1,0,0,1,.9-.1c1.5.5,3.2,3.4,4,5.1a1.21,1.21,0,0,0,2.3-.4v-.1h0l-.2-19A1,1,0,0,1,47.4,43a1.11,1.11,0,0,1,1.1,1.1l.2,19a1.16,1.16,0,0,0,1.2,1.2h0a1.16,1.16,0,0,0,1.2-1.2h0V63L51,52.3a.91.91,0,0,1,.3-.7.83.83,0,0,1,.8-.3h0a1.11,1.11,0,0,1,1.1,1.1v2.4l.1,8.4a1.16,1.16,0,0,0,1.2,1.2h0a1.16,1.16,0,0,0,1.2-1.2h0v-.6l-.1-7.9a1,1,0,0,1,1.1-1,1.11,1.11,0,0,1,1.1,1.1v2.4l.1,5.9a1.16,1.16,0,0,0,1.2,1.2h0a1.17,1.17,0,0,0,1.1-.8.9.9,0,0,0,.1-.5V57a.91.91,0,0,1,.3-.7,1.09,1.09,0,0,1,.9-.4A1.11,1.11,0,0,1,62.6,57v.3s.9,3.7-.8,14.4H46.3a2.35,2.35,0,0,0-.8.2Z"/></svg>