<svg xmlns="http://www.w3.org/2000/svg" width="79.059" height="22.325" viewBox="0 0 79.059 22.325"><defs><style>.a{fill:#1c9868;}.b{fill:#47ca98;}</style></defs><g transform="translate(66.394 7.924)"><path class="a" d="M1110.675,709.585a1.1,1.1,0,0,0-.545.133l-5.242,3.027a1.1,1.1,0,0,0-.545.957v6.043a1.105,1.105,0,0,0,.545.957l1.369.79a2.239,2.239,0,0,0,1.213.323,1.45,1.45,0,0,0,1.547-1.636v-5.965a.15.15,0,0,0-.156-.145h-.656a.149.149,0,0,0-.156.145v5.965c0,.46-.479.923-1.257.534l-1.424-.835a.157.157,0,0,1-.089-.133V713.7a.176.176,0,0,1,.089-.145l5.23-3.016a.154.154,0,0,1,.156,0l5.231,3.016a.178.178,0,0,1,.089.145v6.043a.168.168,0,0,1-.078.145l-5.242,3.016a.161.161,0,0,1-.156,0l-1.347-.8a.14.14,0,0,0-.134,0,3.469,3.469,0,0,1-.79.356c-.086.03-.216.077.044.223l1.758,1.035a1.1,1.1,0,0,0,1.091,0l5.242-3.016a1.107,1.107,0,0,0,.545-.957V713.7a1.1,1.1,0,0,0-.545-.957l-5.242-3.027a1.091,1.091,0,0,0-.545-.134Z" transform="translate(-1104.343 -709.585)"/><path class="a" d="M1153.05,748.1c-1.493,0-2.381.635-2.381,1.692,0,1.146.882,1.461,2.315,1.6,1.714.168,1.847.419,1.847.757,0,.585-.467.835-1.569.835-1.385,0-1.69-.346-1.792-1.035a.151.151,0,0,0-.145-.134h-.679a.159.159,0,0,0-.156.156c0,.882.48,1.925,2.771,1.925,1.659,0,2.615-.651,2.615-1.792s-.773-1.434-2.382-1.647c-1.626-.215-1.781-.32-1.781-.7,0-.314.132-.735,1.336-.735,1.076,0,1.473.232,1.636.957a.152.152,0,0,0,.145.122h.679a.164.164,0,0,0,.111-.056.146.146,0,0,0,.045-.111c-.1-1.249-.938-1.836-2.615-1.836Z" transform="translate(-1145.317 -743.779)"/></g><path class="b" d="M554.08,638.913a.333.333,0,0,0-.334.334v8.513a.225.225,0,0,1-.111.2.232.232,0,0,1-.234,0l-1.391-.8a.666.666,0,0,0-.668,0l-5.553,3.2a.684.684,0,0,0-.334.59v6.41a.666.666,0,0,0,.334.579l5.553,3.205a.665.665,0,0,0,.668,0l5.553-3.205a.666.666,0,0,0,.334-.579V641.384a.679.679,0,0,0-.345-.59l-3.305-1.847a.325.325,0,0,0-.167-.033Zm-35.723,8a.627.627,0,0,0-.3.078L512.5,650.2a.665.665,0,0,0-.334.579l.011,8.6a.329.329,0,0,0,.167.289.324.324,0,0,0,.334,0l3.294-1.892a.68.68,0,0,0,.345-.579V653.18a.664.664,0,0,1,.334-.579l1.4-.812a.67.67,0,0,1,.668,0l1.4.812a.664.664,0,0,1,.334.579V657.2a.681.681,0,0,0,.345.579l3.294,1.892a.324.324,0,0,0,.334,0,.335.335,0,0,0,.167-.289l.011-8.6a.662.662,0,0,0-.334-.579l-5.553-3.205a.624.624,0,0,0-.3-.078h-.067Zm49.9.078a.666.666,0,0,0-.334.089l-5.553,3.205a.666.666,0,0,0-.334.579v6.41a.671.671,0,0,0,.345.579l5.509,3.138a.668.668,0,0,0,.657.011l3.339-1.858a.337.337,0,0,0,.178-.289.329.329,0,0,0-.167-.289l-5.587-3.205a.36.36,0,0,1-.178-.3v-2a.343.343,0,0,1,.178-.289l1.736-1a.333.333,0,0,1,.334,0l1.736,1a.333.333,0,0,1,.167.289v1.58a.334.334,0,0,0,.5.289l3.328-1.936a.668.668,0,0,0,.334-.579v-1.547a.668.668,0,0,0-.334-.579l-5.52-3.205a.663.663,0,0,0-.334-.089h0Zm-16.6,4.785a.186.186,0,0,1,.089.022l1.9,1.1a.173.173,0,0,1,.089.145v2.2a.172.172,0,0,1-.089.145l-1.9,1.1a.168.168,0,0,1-.167,0l-1.9-1.1a.172.172,0,0,1-.089-.145v-2.2a.173.173,0,0,1,.089-.145l1.9-1.1a.146.146,0,0,1,.078-.022h0Z" transform="translate(-512.169 -638.913)"/><path class="a" d="M666.88,710.676a.666.666,0,0,0-.334.089l-5.553,3.194a.683.683,0,0,0-.334.59v6.41a.666.666,0,0,0,.334.579l5.553,3.2a.665.665,0,0,0,.668,0l5.553-3.2a.666.666,0,0,0,.334-.579v-6.41a.683.683,0,0,0-.334-.59l-5.553-3.194a.665.665,0,0,0-.334-.089Zm33.208,5.72a.137.137,0,0,0-.067.011l-1.068.623a.13.13,0,0,0-.067.111v1.224a.13.13,0,0,0,.067.111l1.068.612a.116.116,0,0,0,.122,0l1.068-.612a.131.131,0,0,0,.067-.111v-1.224a.131.131,0,0,0-.067-.111l-1.068-.623a.093.093,0,0,0-.056-.011h0Z" transform="translate(-644.01 -702.63)"/></svg>