<svg xmlns="http://www.w3.org/2000/svg" width="53.717" height="68.183" viewBox="0 0 53.717 68.183"><defs><style>.a{fill:#1c9868;}</style></defs><g transform="translate(0)"><path class="a" d="M26.864,23.271a4.775,4.775,0,1,0,4.776,4.807A4.726,4.726,0,0,0,26.864,23.271Zm0,0a4.775,4.775,0,1,0,4.776,4.807A4.726,4.726,0,0,0,26.864,23.271Zm0,0a4.775,4.775,0,1,0,4.776,4.807A4.726,4.726,0,0,0,26.864,23.271Zm0,0a4.775,4.775,0,1,0,4.776,4.807A4.726,4.726,0,0,0,26.864,23.271Zm0,0a4.775,4.775,0,1,0,4.776,4.807A4.726,4.726,0,0,0,26.864,23.271Zm0,0a4.775,4.775,0,1,0,4.776,4.807A4.726,4.726,0,0,0,26.864,23.271Zm0,0a4.775,4.775,0,1,0,4.776,4.807A4.726,4.726,0,0,0,26.864,23.271Zm0,0a4.775,4.775,0,1,0,4.776,4.807A4.726,4.726,0,0,0,26.864,23.271Zm0,0a4.775,4.775,0,1,0,4.776,4.807A4.726,4.726,0,0,0,26.864,23.271Zm0,0a4.775,4.775,0,1,0,4.776,4.807A4.726,4.726,0,0,0,26.864,23.271Zm25.662,1.6a9.966,9.966,0,0,0-1.869-1.843,23.294,23.294,0,0,0-7.518-3.658c-.521-.16-.665-.372-.535-.919A23.042,23.042,0,0,0,43.3,12.7a11.633,11.633,0,0,0-1.232-5.989,4.526,4.526,0,0,0-4.142-2.5,9.713,9.713,0,0,0-4.157,1.007,24.807,24.807,0,0,0-6.486,4.55c-.3.272-.5.3-.8.008a23.806,23.806,0,0,0-3.2-2.624A15.867,15.867,0,0,0,17.266,4.38c-2.932-.556-5.043.564-6.106,3.251a11.151,11.151,0,0,0-.721,3.554,25.513,25.513,0,0,0,.733,7.334c.115.479,0,.654-.469.781a24.651,24.651,0,0,0-3.116,1.1A16.883,16.883,0,0,0,1.7,24.212C-.123,26.147-.506,28.441.679,30.521a8.9,8.9,0,0,0,2.013,2.388,22.328,22.328,0,0,0,7.962,4.111c.488.152.608.352.487.842a24.827,24.827,0,0,0-.715,6.944,11.617,11.617,0,0,0,.681,3.617,4.962,4.962,0,0,0,5.505,3.542,10.307,10.307,0,0,0,3.081-.8,23.462,23.462,0,0,0,6.889-4.638c.3-.275.472-.315.771-.01a21.278,21.278,0,0,0,2.38,2.041A15.4,15.4,0,0,0,36.557,51.9c2.547.4,4.466-.184,5.829-2.958a11.445,11.445,0,0,0,1.008-4.678,24.845,24.845,0,0,0-.7-6.609c-.1-.418,0-.617.414-.742.678-.209,1.351-.441,2.009-.705a18.447,18.447,0,0,0,7-4.422A5.017,5.017,0,0,0,52.526,24.869ZM28.779,11.5A20.3,20.3,0,0,1,36,6.817a4.877,4.877,0,0,1,2.31-.274,2.253,2.253,0,0,1,1.585,1.04,7.1,7.1,0,0,1,1.023,3.225,9.189,9.189,0,0,1,.122,1.841,28.479,28.479,0,0,1-.686,5.43c-.073.322-.187.487-.571.4a55.291,55.291,0,0,0-6.3-1.007.956.956,0,0,1-.734-.429,49.9,49.9,0,0,0-3.987-4.977C28.568,11.847,28.567,11.695,28.779,11.5ZM16.071,31.2c.888,1.719,1.882,3.376,2.973,5.132a42.981,42.981,0,0,1-4.49-.683c-.262-.052-.406-.159-.313-.456.423-1.352.927-2.674,1.461-3.986C15.816,30.931,15.949,30.967,16.071,31.2Zm-1.81-10.111c-.058-.185-.022-.336.2-.387A40.032,40.032,0,0,1,19,19.954c-1.129,1.828-2.14,3.553-3.137,5.43A44.534,44.534,0,0,1,14.262,21.093Zm3.019,7.445a.9.9,0,0,1,.021-.854,63.726,63.726,0,0,1,4.414-7.661.982.982,0,0,1,.842-.446c2.238-.137,4.477-.136,6.716-.1.69.011,1.378.077,2.067.107a.756.756,0,0,1,.646.369,75.731,75.731,0,0,1,4.521,7.795.754.754,0,0,1-.024.739A74.812,74.812,0,0,1,32.057,36.2a.857.857,0,0,1-.729.423c-1.528.121-3.057.109-4.709.114-1.3-.024-2.716.031-4.13-.108a.9.9,0,0,1-.742-.4A66.805,66.805,0,0,1,17.281,28.538Zm17.75,7.26c.629-1.081,1.277-2.15,1.9-3.232.316-.545.6-1.107.979-1.8a43.979,43.979,0,0,1,1.693,4.311c.084.247.012.386-.248.45a37.4,37.4,0,0,1-4.19.724C34.657,36.317,34.928,35.976,35.031,35.8Zm2.662-10.754c-.888-1.694-1.876-3.332-2.943-5.083a38.156,38.156,0,0,1,4.5.749c.269.058.308.22.234.459-.406,1.3-.89,2.569-1.419,3.822C37.975,25.212,37.836,25.317,37.693,25.043ZM26.614,13.75c.146-.151.274-.339.493-.1a41.247,41.247,0,0,1,2.884,3.521,13.012,13.012,0,0,1-2.294-.048c-1.12-.054-2.237.059-3.356.085-.141,0-.326.065-.413-.085s.073-.272.16-.383A38.467,38.467,0,0,1,26.614,13.75ZM13.251,8.622a2.744,2.744,0,0,1,3.494-1.995,11.266,11.266,0,0,1,3.544,1.35,24.4,24.4,0,0,1,4.572,3.407c.311.285.364.5.053.827a43.369,43.369,0,0,0-3.808,4.7,1.224,1.224,0,0,1-.949.576,48.888,48.888,0,0,0-6.081.954c-.385.089-.576,0-.668-.414a28.357,28.357,0,0,1-.732-5.636A11.434,11.434,0,0,1,13.251,8.622ZM12.115,34.357c-.16.521-.4.621-.9.452a21,21,0,0,1-6.936-3.562,7.6,7.6,0,0,1-1.357-1.483,2.628,2.628,0,0,1,.024-3.412,10.865,10.865,0,0,1,3.883-3.057,26.646,26.646,0,0,1,4.576-1.82c.351-.112.543-.07.666.321a51.373,51.373,0,0,0,2.238,5.8c.076.168.121.35.185.538-.057.163-.1.324-.17.475A48.673,48.673,0,0,0,12.115,34.357ZM25.053,44.821A19.252,19.252,0,0,1,17.767,49.4a5.266,5.266,0,0,1-2.315.258A2.42,2.42,0,0,1,13.585,48.3a9.415,9.415,0,0,1-.913-4.5,26.025,26.025,0,0,1,.675-5.383c.1-.465.307-.61.783-.509a43.259,43.259,0,0,0,6.094.862,1.012,1.012,0,0,1,.8.45,56.121,56.121,0,0,0,4.046,5.007C25.276,44.452,25.285,44.609,25.053,44.821Zm2.228-2.305c-.248.279-.4.324-.646.025-.85-1.038-1.711-2.066-2.564-3.1-.087-.107-.261-.212-.148-.377.078-.113.24-.066.369-.052a38.615,38.615,0,0,0,5.081-.016c.188-.016.455-.113.558.11.083.183-.138.327-.246.469C28.918,40.58,28.124,41.568,27.281,42.515Zm12.932,5.653a2.643,2.643,0,0,1-3.01,1.51A12.8,12.8,0,0,1,31.8,47.22a27.3,27.3,0,0,1-2.815-2.307c-.311-.285-.358-.5-.053-.826a45.352,45.352,0,0,0,3.85-4.878.91.91,0,0,1,.712-.464,50.531,50.531,0,0,0,6.308-.956c.37-.081.584-.067.683.373a30.823,30.823,0,0,1,.681,5.383A11.063,11.063,0,0,1,40.213,48.168ZM50.346,30.3a13.117,13.117,0,0,1-3.883,2.807,27.291,27.291,0,0,1-4,1.61c-.395.128-.579.027-.7-.361a50.8,50.8,0,0,0-2.322-5.823.983.983,0,0,1-.024-.9A50.757,50.757,0,0,0,41.664,21.9c.132-.417.324-.519.733-.387A21.01,21.01,0,0,1,49.7,25.2a5.593,5.593,0,0,1,1.492,1.867,3.092,3.092,0,0,1,.271,1.015A3.913,3.913,0,0,1,50.346,30.3ZM26.873,32.822a4.775,4.775,0,1,0-4.782-4.734A4.686,4.686,0,0,0,26.873,32.822Zm-.009-9.55a4.775,4.775,0,1,0,4.776,4.807A4.726,4.726,0,0,0,26.864,23.271Zm0,0a4.775,4.775,0,1,0,4.776,4.807A4.726,4.726,0,0,0,26.864,23.271Zm0,0a4.775,4.775,0,1,0,4.776,4.807A4.726,4.726,0,0,0,26.864,23.271Zm0,0a4.775,4.775,0,1,0,4.776,4.807A4.726,4.726,0,0,0,26.864,23.271Zm0,0a4.775,4.775,0,1,0,4.776,4.807A4.726,4.726,0,0,0,26.864,23.271Zm0,0a4.775,4.775,0,1,0,4.776,4.807A4.726,4.726,0,0,0,26.864,23.271Zm0,0a4.775,4.775,0,1,0,4.776,4.807A4.726,4.726,0,0,0,26.864,23.271Zm0,0a4.775,4.775,0,1,0,4.776,4.807A4.726,4.726,0,0,0,26.864,23.271Z" transform="translate(0 -4.207)"/><path class="a" d="M206.518,179.049a4.775,4.775,0,1,1-4.776-4.807A4.686,4.686,0,0,1,206.518,179.049Z" transform="translate(-174.885 -155.178)"/><path class="a" d="M206.518,179.049a4.775,4.775,0,1,1-4.776-4.807A4.686,4.686,0,0,1,206.518,179.049Z" transform="translate(-174.885 -155.178)"/><g transform="translate(5.068 58.341)"><path class="a" d="M45.2,525.426a10.4,10.4,0,0,1,2.062-.205,3.421,3.421,0,0,1,2.565.8,2.4,2.4,0,0,1,.665,1.7,2.519,2.519,0,0,1-1.868,2.483v.028a2.442,2.442,0,0,1,1.475,2.027,12.334,12.334,0,0,0,.711,2.572h-.7a12.976,12.976,0,0,1-.608-2.321c-.294-1.376-.881-2-2.137-2.052H45.87v4.372H45.2Zm.672,4.489h1.514c1.472,0,2.427-.824,2.427-2.08,0-1.465-1.075-2.059-2.568-2.059a5.971,5.971,0,0,0-1.373.131v4.008Z" transform="translate(-45.198 -525.147)"/><path class="a" d="M104.487,552.468c0,2.169,1.182,3.028,2.582,3.028a3.94,3.94,0,0,0,1.889-.386l.173.531a4.574,4.574,0,0,1-2.144.435,3.114,3.114,0,0,1-3.166-3.41c0-2.268,1.3-3.686,3.053-3.686,2.225,0,2.646,2.091,2.646,3.071a2.321,2.321,0,0,1-.021.417h-5.013Zm4.33-.538a2.084,2.084,0,0,0-2.03-2.391,2.428,2.428,0,0,0-2.264,2.391Z" transform="translate(-97.249 -546.242)"/><path class="a" d="M169.073,555.928l-.1-.973h-.032a2.565,2.565,0,0,1-2.165,1.128,1.852,1.852,0,0,1-2-1.868c0-1.567,1.38-2.512,4.142-2.483v-.18c0-.672-.131-2.013-1.737-2a2.984,2.984,0,0,0-1.705.506l-.212-.488a3.637,3.637,0,0,1,1.992-.587c1.96,0,2.335,1.472,2.335,2.685v2.65a11.056,11.056,0,0,0,.1,1.613Zm-.152-3.629c-1.479-.042-3.431.18-3.431,1.811a1.294,1.294,0,0,0,1.351,1.415,2.045,2.045,0,0,0,2.009-1.362,1.3,1.3,0,0,0,.071-.407V552.3Z" transform="translate(-151.371 -546.242)"/><path class="a" d="M227.576,555.634a4.457,4.457,0,0,1-1.985.442,3.2,3.2,0,0,1-3.262-3.467,3.417,3.417,0,0,1,3.5-3.63,3.516,3.516,0,0,1,1.783.421l-.241.559a3.16,3.16,0,0,0-1.61-.4,2.731,2.731,0,0,0-2.756,2.993,2.682,2.682,0,0,0,2.685,2.94,3.847,3.847,0,0,0,1.7-.393Z" transform="translate(-202.47 -546.242)"/><path class="a" d="M277.567,532.825v1.967H279.5v.545h-1.935v4.415c0,.863.269,1.4,1,1.4a2.368,2.368,0,0,0,.771-.106l.081.52a2.428,2.428,0,0,1-.937.163,1.444,1.444,0,0,1-1.171-.481,2.487,2.487,0,0,1-.414-1.62v-4.294h-1.146v-.545H276.9v-1.747Z" transform="translate(-249.9 -531.898)"/><path class="a" d="M344.052,525.884h.672v6.587c0,2.434-1.206,3.106-2.568,3.106a3.189,3.189,0,0,1-1.16-.219l.141-.555a2.561,2.561,0,0,0,1.008.191c1.217,0,1.907-.559,1.907-2.667Z" transform="translate(-307.831 -525.735)"/><path class="a" d="M389.207,533.191a3.763,3.763,0,0,0,2.084.63,2.024,2.024,0,0,0,2.3-1.984c0-1.068-.555-1.7-1.932-2.229-1.535-.545-2.455-1.334-2.455-2.632a2.521,2.521,0,0,1,2.773-2.416,3.619,3.619,0,0,1,1.9.449l-.262.566a3.1,3.1,0,0,0-1.684-.453,1.8,1.8,0,0,0-2.062,1.737c0,1.058.612,1.6,1.978,2.133,1.574.637,2.409,1.351,2.409,2.781,0,1.383-.991,2.621-3.025,2.621a4.244,4.244,0,0,1-2.278-.64Z" transform="translate(-350.411 -524.559)"/></g></g></svg>