<svg xmlns="http://www.w3.org/2000/svg" width="68.519" height="68.183" viewBox="0 0 68.519 68.183"><defs><style>.a{fill:#1c9868;}</style></defs><g transform="translate(0 0)"><path class="a" d="M652.043,19.064a4.775,4.775,0,1,0,4.776,4.807A4.726,4.726,0,0,0,652.043,19.064Zm0,0a4.775,4.775,0,1,0,4.776,4.807A4.726,4.726,0,0,0,652.043,19.064Zm0,0a4.775,4.775,0,1,0,4.776,4.807A4.726,4.726,0,0,0,652.043,19.064Zm0,0a4.775,4.775,0,1,0,4.776,4.807A4.726,4.726,0,0,0,652.043,19.064Zm0,0a4.775,4.775,0,1,0,4.776,4.807A4.726,4.726,0,0,0,652.043,19.064Zm0,0a4.775,4.775,0,1,0,4.776,4.807A4.726,4.726,0,0,0,652.043,19.064Zm0,0a4.775,4.775,0,1,0,4.776,4.807A4.726,4.726,0,0,0,652.043,19.064Zm0,0a4.775,4.775,0,1,0,4.776,4.807A4.726,4.726,0,0,0,652.043,19.064Zm0,0a4.775,4.775,0,1,0,4.776,4.807A4.726,4.726,0,0,0,652.043,19.064Zm0,0a4.775,4.775,0,1,0,4.776,4.807A4.726,4.726,0,0,0,652.043,19.064Zm25.662,1.6a9.967,9.967,0,0,0-1.869-1.843,23.294,23.294,0,0,0-7.518-3.658c-.521-.16-.665-.372-.535-.919a23.042,23.042,0,0,0,.694-5.746,11.634,11.634,0,0,0-1.232-5.989A4.526,4.526,0,0,0,663.1,0a9.713,9.713,0,0,0-4.157,1.007,24.806,24.806,0,0,0-6.486,4.55c-.3.272-.5.3-.8.008a23.8,23.8,0,0,0-3.2-2.624A15.867,15.867,0,0,0,642.445.173c-2.932-.556-5.043.564-6.106,3.251a11.151,11.151,0,0,0-.721,3.554,25.516,25.516,0,0,0,.733,7.334c.116.479,0,.654-.469.781a24.653,24.653,0,0,0-3.116,1.1A16.883,16.883,0,0,0,626.884,20c-1.828,1.935-2.211,4.229-1.026,6.309A8.9,8.9,0,0,0,627.87,28.7a22.328,22.328,0,0,0,7.962,4.111c.488.152.608.352.487.842A24.828,24.828,0,0,0,635.6,40.6a11.618,11.618,0,0,0,.681,3.617,4.963,4.963,0,0,0,5.505,3.542,10.307,10.307,0,0,0,3.081-.8,23.463,23.463,0,0,0,6.889-4.638c.3-.275.472-.315.771-.01a21.279,21.279,0,0,0,2.38,2.041,15.4,15.4,0,0,0,6.826,3.347c2.547.4,4.466-.184,5.829-2.958a11.445,11.445,0,0,0,1.008-4.678,24.846,24.846,0,0,0-.7-6.609c-.1-.418,0-.617.414-.742.678-.209,1.351-.441,2.009-.705a18.447,18.447,0,0,0,7-4.422A5.017,5.017,0,0,0,677.7,20.662ZM653.958,7.3a20.3,20.3,0,0,1,7.221-4.688,4.877,4.877,0,0,1,2.31-.274,2.253,2.253,0,0,1,1.585,1.04A7.105,7.105,0,0,1,666.1,6.6a9.192,9.192,0,0,1,.122,1.841,28.479,28.479,0,0,1-.686,5.43c-.073.322-.187.487-.571.4a55.292,55.292,0,0,0-6.3-1.007.956.956,0,0,1-.734-.429,49.89,49.89,0,0,0-3.987-4.977C653.747,7.64,653.746,7.488,653.958,7.3ZM641.25,27c.888,1.719,1.883,3.376,2.973,5.132a42.986,42.986,0,0,1-4.49-.683c-.262-.052-.406-.159-.313-.456.423-1.352.927-2.674,1.461-3.986C640.995,26.724,641.128,26.76,641.25,27Zm-1.81-10.111c-.058-.185-.022-.336.2-.387a40.033,40.033,0,0,1,4.545-.752c-1.129,1.828-2.14,3.553-3.137,5.43A44.541,44.541,0,0,1,639.441,16.886Zm3.019,7.445a.9.9,0,0,1,.021-.854,63.724,63.724,0,0,1,4.414-7.661.982.982,0,0,1,.842-.446c2.238-.137,4.477-.136,6.716-.1.69.011,1.378.077,2.067.107a.757.757,0,0,1,.646.369,75.73,75.73,0,0,1,4.521,7.795.754.754,0,0,1-.024.739A74.81,74.81,0,0,1,657.236,32a.857.857,0,0,1-.729.423c-1.528.121-3.057.109-4.709.114-1.3-.024-2.716.031-4.13-.108a.9.9,0,0,1-.742-.4A66.8,66.8,0,0,1,642.46,24.331Zm17.75,7.26c.629-1.081,1.277-2.15,1.9-3.232.316-.545.6-1.107.979-1.8a43.985,43.985,0,0,1,1.693,4.311c.084.247.012.386-.248.45a37.4,37.4,0,0,1-4.19.724C659.836,32.11,660.106,31.769,660.21,31.59Zm2.662-10.754c-.888-1.694-1.876-3.332-2.943-5.083a38.154,38.154,0,0,1,4.5.749c.269.058.308.22.234.459-.406,1.3-.89,2.569-1.419,3.822C663.154,21.005,663.015,21.11,662.871,20.836ZM651.793,9.543c.146-.151.274-.339.493-.1a41.247,41.247,0,0,1,2.884,3.521,13.012,13.012,0,0,1-2.294-.048c-1.12-.054-2.237.059-3.356.085-.141,0-.326.065-.413-.085s.073-.272.16-.383A38.461,38.461,0,0,1,651.793,9.543ZM638.429,4.415a2.744,2.744,0,0,1,3.494-1.995,11.265,11.265,0,0,1,3.544,1.35,24.4,24.4,0,0,1,4.572,3.407c.311.285.364.5.053.827a43.368,43.368,0,0,0-3.808,4.7,1.225,1.225,0,0,1-.949.576,48.89,48.89,0,0,0-6.081.954c-.385.089-.576,0-.668-.414a28.363,28.363,0,0,1-.732-5.636A11.437,11.437,0,0,1,638.429,4.415ZM637.294,30.15c-.16.521-.4.621-.9.452a21,21,0,0,1-6.936-3.562,7.6,7.6,0,0,1-1.357-1.483,2.628,2.628,0,0,1,.024-3.412,10.865,10.865,0,0,1,3.883-3.057,26.648,26.648,0,0,1,4.576-1.82c.351-.112.543-.07.666.321a51.376,51.376,0,0,0,2.238,5.8c.076.168.121.35.185.538-.057.163-.1.324-.17.475A48.665,48.665,0,0,0,637.294,30.15Zm12.939,10.464a19.252,19.252,0,0,1-7.287,4.581,5.266,5.266,0,0,1-2.315.258,2.42,2.42,0,0,1-1.867-1.363,9.415,9.415,0,0,1-.913-4.5,26.022,26.022,0,0,1,.675-5.383c.1-.465.307-.61.783-.509a43.259,43.259,0,0,0,6.094.862,1.012,1.012,0,0,1,.8.45,56.092,56.092,0,0,0,4.046,5.007C650.455,40.245,650.464,40.4,650.232,40.614Zm2.228-2.305c-.248.279-.4.324-.646.025-.85-1.038-1.711-2.066-2.564-3.1-.088-.107-.261-.212-.148-.377.078-.113.24-.066.369-.052a38.616,38.616,0,0,0,5.081-.016c.188-.016.455-.113.558.11.083.183-.138.327-.246.469C654.1,36.373,653.3,37.361,652.46,38.308Zm12.932,5.653a2.643,2.643,0,0,1-3.01,1.51,12.8,12.8,0,0,1-5.406-2.459,27.3,27.3,0,0,1-2.815-2.307c-.311-.285-.358-.5-.053-.826A45.349,45.349,0,0,0,657.957,35a.91.91,0,0,1,.712-.464,50.532,50.532,0,0,0,6.308-.956c.37-.081.584-.067.683.373a30.829,30.829,0,0,1,.681,5.383A11.063,11.063,0,0,1,665.392,43.961Zm10.134-17.87a13.118,13.118,0,0,1-3.883,2.807,27.29,27.29,0,0,1-4,1.61c-.395.128-.579.027-.7-.361a50.8,50.8,0,0,0-2.322-5.823.983.983,0,0,1-.024-.9,50.74,50.74,0,0,0,2.245-5.734c.132-.417.324-.519.733-.387a21.01,21.01,0,0,1,7.3,3.688,5.594,5.594,0,0,1,1.492,1.867,3.094,3.094,0,0,1,.271,1.015A3.913,3.913,0,0,1,675.525,26.092Zm-23.474,2.523a4.775,4.775,0,1,0-4.782-4.734A4.686,4.686,0,0,0,652.052,28.615Zm-.009-9.55a4.775,4.775,0,1,0,4.776,4.807A4.726,4.726,0,0,0,652.043,19.064Zm0,0a4.775,4.775,0,1,0,4.776,4.807A4.726,4.726,0,0,0,652.043,19.064Zm0,0a4.775,4.775,0,1,0,4.776,4.807A4.726,4.726,0,0,0,652.043,19.064Zm0,0a4.775,4.775,0,1,0,4.776,4.807A4.726,4.726,0,0,0,652.043,19.064Zm0,0a4.775,4.775,0,1,0,4.776,4.807A4.726,4.726,0,0,0,652.043,19.064Zm0,0a4.775,4.775,0,1,0,4.776,4.807A4.726,4.726,0,0,0,652.043,19.064Zm0,0a4.775,4.775,0,1,0,4.776,4.807A4.726,4.726,0,0,0,652.043,19.064Zm0,0a4.775,4.775,0,1,0,4.776,4.807A4.726,4.726,0,0,0,652.043,19.064Z" transform="translate(-618.02 0)"/><path class="a" d="M831.7,174.842a4.775,4.775,0,1,1-4.776-4.807A4.686,4.686,0,0,1,831.7,174.842Z" transform="translate(-792.903 -150.971)"/><path class="a" d="M831.7,174.842a4.775,4.775,0,1,1-4.776-4.807A4.686,4.686,0,0,1,831.7,174.842Z" transform="translate(-792.903 -150.971)"/><g transform="translate(0 58.416)"><path class="a" d="M561.33,521.219a10.406,10.406,0,0,1,2.062-.205,3.421,3.421,0,0,1,2.565.8,2.4,2.4,0,0,1,.665,1.7A2.519,2.519,0,0,1,564.754,526v.028a2.442,2.442,0,0,1,1.475,2.027,12.339,12.339,0,0,0,.711,2.572h-.7a12.972,12.972,0,0,1-.608-2.321c-.294-1.376-.881-2-2.137-2.052H562v4.372h-.672v-9.406Zm.672,4.489h1.514c1.472,0,2.427-.824,2.427-2.08,0-1.465-1.076-2.059-2.568-2.059A5.971,5.971,0,0,0,562,521.7v4.008Z" transform="translate(-561.33 -521.014)"/><path class="a" d="M620.619,548.261c0,2.168,1.182,3.028,2.582,3.028a3.942,3.942,0,0,0,1.889-.385l.173.531a4.574,4.574,0,0,1-2.144.435,3.114,3.114,0,0,1-3.166-3.41c0-2.268,1.3-3.686,3.053-3.686,2.225,0,2.646,2.091,2.646,3.071a2.316,2.316,0,0,1-.021.417h-5.013Zm4.33-.538a2.084,2.084,0,0,0-2.031-2.391,2.428,2.428,0,0,0-2.264,2.391Z" transform="translate(-613.381 -542.109)"/><path class="a" d="M685.2,551.721l-.1-.973h-.032a2.566,2.566,0,0,1-2.165,1.128,1.852,1.852,0,0,1-2-1.868c0-1.567,1.38-2.512,4.142-2.483v-.18c0-.672-.131-2.013-1.737-2a2.984,2.984,0,0,0-1.705.506l-.212-.488a3.637,3.637,0,0,1,1.992-.587c1.96,0,2.335,1.472,2.335,2.685v2.65a11.061,11.061,0,0,0,.1,1.613Zm-.152-3.629c-1.479-.042-3.431.18-3.431,1.811a1.294,1.294,0,0,0,1.351,1.415,2.045,2.045,0,0,0,2.009-1.362,1.3,1.3,0,0,0,.071-.407v-1.458Z" transform="translate(-667.503 -542.109)"/><path class="a" d="M743.708,551.427a4.457,4.457,0,0,1-1.984.442,3.2,3.2,0,0,1-3.262-3.467,3.417,3.417,0,0,1,3.5-3.63,3.516,3.516,0,0,1,1.783.421l-.241.559a3.161,3.161,0,0,0-1.61-.4,2.731,2.731,0,0,0-2.756,2.993,2.682,2.682,0,0,0,2.685,2.94,3.848,3.848,0,0,0,1.7-.393Z" transform="translate(-718.602 -542.109)"/><path class="a" d="M793.7,528.618v1.967h1.935v.545H793.7v4.415c0,.863.269,1.4,1,1.4a2.366,2.366,0,0,0,.771-.106l.081.52a2.426,2.426,0,0,1-.937.163,1.444,1.444,0,0,1-1.171-.481,2.487,2.487,0,0,1-.414-1.62V531.13H791.88v-.545h1.146v-1.747Z" transform="translate(-766.031 -527.765)"/><path class="a" d="M866.5,531.212v-9.537h.64l3.718,5.635a30.806,30.806,0,0,1,1.79,3l.028-.021c-.1-1.281-.11-2.37-.11-3.87v-4.747h.654v9.537h-.63l-3.64-5.55a30.818,30.818,0,0,1-1.847-3.085l-.039.021c.078,1.174.088,2.2.088,3.789v4.825H866.5Z" transform="translate(-832.284 -521.601)"/><path class="a" d="M945.949,551.721l-.1-.973h-.032a2.566,2.566,0,0,1-2.165,1.128,1.852,1.852,0,0,1-2-1.868c0-1.567,1.38-2.512,4.142-2.483v-.18c0-.672-.131-2.013-1.737-2a2.984,2.984,0,0,0-1.705.506l-.212-.488a3.637,3.637,0,0,1,1.992-.587c1.96,0,2.335,1.472,2.335,2.685v2.65a11.061,11.061,0,0,0,.1,1.613Zm-.152-3.629c-1.479-.042-3.431.18-3.431,1.811a1.294,1.294,0,0,0,1.351,1.415,2.045,2.045,0,0,0,2.009-1.362,1.3,1.3,0,0,0,.071-.407v-1.458Z" transform="translate(-899.012 -542.109)"/><path class="a" d="M998.152,528.618v1.967h1.935v.545h-1.935v4.415c0,.863.269,1.4,1,1.4a2.366,2.366,0,0,0,.771-.106l.082.52a2.426,2.426,0,0,1-.937.163,1.445,1.445,0,0,1-1.171-.481,2.487,2.487,0,0,1-.414-1.62V531.13h-1.146v-.545h1.146v-1.747Z" transform="translate(-947.562 -527.765)"/><path class="a" d="M1042.451,524.189a.546.546,0,1,1-1.09,0,.571.571,0,0,1,.548-.587A.553.553,0,0,1,1042.451,524.189Zm-.881,8.734v-6.792h.672v6.792Z" transform="translate(-987.54 -523.312)"/><path class="a" d="M1062.01,546.161l1.6,4.217c.269.665.481,1.242.661,1.818h.032c.187-.566.431-1.167.69-1.818l1.617-4.217h.707l-2.763,6.792h-.594l-2.66-6.792Z" transform="translate(-1005.239 -543.342)"/><path class="a" d="M1122.294,548.261c0,2.168,1.182,3.028,2.582,3.028a3.942,3.942,0,0,0,1.889-.385l.173.531a4.574,4.574,0,0,1-2.144.435,3.114,3.114,0,0,1-3.166-3.41c0-2.268,1.3-3.686,3.053-3.686,2.225,0,2.646,2.091,2.646,3.071a2.329,2.329,0,0,1-.021.417h-5.013Zm4.33-.538a2.084,2.084,0,0,0-2.031-2.391,2.428,2.428,0,0,0-2.264,2.391Z" transform="translate(-1058.809 -542.109)"/></g></g></svg>