<svg xmlns="http://www.w3.org/2000/svg" width="94.423" height="30.029" viewBox="0 0 94.423 30.029"><defs><style>.a{fill:#47ca98;}.b{fill:#1c9868;}</style></defs><g transform="translate(0)"><path class="a" d="M357.645,965.3c-.5-1.27-.2-2.583-.174-3.874.009-.5.561-.718.988-.885,5.178-2.036,10.321-4.164,15.58-5.991a4.667,4.667,0,0,1,3.3.032q7.081,2.741,14.156,5.5c.477.187,1.08.349,1,1.09a2.612,2.612,0,0,1-1.605,1.7c-3.512,1.638-7.094,3.113-10.644,4.661-1.243.542-2.421,1.216-3.69,1.71a4.871,4.871,0,0,1-3.94-.184c-4.243-1.9-8.592-3.55-12.845-5.429-1.321-.584-1.34-.545-1.6.847C358.1,964.826,358.063,965.183,357.645,965.3Z" transform="translate(-357.361 -954.268)"/><path class="b" d="M945.387,986.678c0-2.514.012-5.031-.007-7.548-.007-1.172-.586-1.866-1.47-1.859s-1.435.691-1.461,1.875c-.023,1.044-.049,2.094,0,3.136.049.947-.056,1.391-1.151.828a5.118,5.118,0,0,0-3.17-.454,6.686,6.686,0,0,0-3.366,11.684,6.026,6.026,0,0,0,6.932.9c.307-.142.621-.558.991-.042a1.387,1.387,0,0,0,1.828.549c.8-.365.877-1.1.875-1.87C945.383,991.478,945.387,989.077,945.387,986.678Zm-6.4,6.315a3.74,3.74,0,1,1,3.443-3.775A3.606,3.606,0,0,1,938.988,992.993Z" transform="translate(-867.918 -974.692)"/><path class="b" d="M393.555,1120.457a6.05,6.05,0,0,0,.046.926c.452,2.245-.673,3.323-2.652,4.136-4.4,1.808-8.717,3.8-13.061,5.738a4.658,4.658,0,0,1-3.925.055c-4.478-1.92-8.971-3.8-13.454-5.709a3.746,3.746,0,0,1-1.835-1.149,11.577,11.577,0,0,1-.084-2.536c-.01-1.074.25-1.24,1.251-.791,2.293,1.031,4.625,1.969,6.942,2.944,2.423,1.02,4.854,2.024,7.269,3.064a4.291,4.291,0,0,0,3.705-.034c4.848-2.321,9.882-4.226,14.713-6.584C392.823,1120.345,393.177,1120.174,393.555,1120.457Z" transform="translate(-358.427 -1101.69)"/><path class="b" d="M359.875,1073.642c-.371-.3-.891-.4-1.121-.881a19.173,19.173,0,0,1-.087-2.662c-.062-.882.338-1,1.063-.7,2,.831,4,1.688,6,2.529,2.751,1.155,5.524,2.257,8.245,3.485a4.7,4.7,0,0,0,4.151-.12c4.823-2.311,9.831-4.21,14.647-6.537a.784.784,0,0,1,.871-.007,18.51,18.51,0,0,0,.055,2.058,2.057,2.057,0,0,1-1.314,2.378,2.138,2.138,0,0,1-1.409,1.267c-3.187,1.39-6.365,2.8-9.57,4.15-1.318.554-2.549,1.289-3.9,1.776a4.415,4.415,0,0,1-3.387-.107c-4.387-1.926-8.87-3.623-13.238-5.593A1.7,1.7,0,0,1,359.875,1073.642Z" transform="translate(-358.515 -1055.794)"/><path class="b" d="M359.867,1019.99c0-.851,0-1.7,0-2.553,0-.535.174-.687.706-.433,4.712,2.253,9.641,4,14.388,6.175a4.6,4.6,0,0,0,4.022.052q7.033-3.165,14.079-6.3a7.3,7.3,0,0,0,1.65-1.068c.014.774-.025,1.554.055,2.321a1.763,1.763,0,0,1-1.372,2.1,2.6,2.6,0,0,1-1.528,1.42c-4.238,1.887-8.557,3.589-12.737,5.607a4.63,4.63,0,0,1-4.037.1c-4.216-1.843-8.476-3.58-12.716-5.365a2.3,2.3,0,0,1-1.381-1.3A2.016,2.016,0,0,1,359.867,1019.99Z" transform="translate(-359.583 -1008.955)"/><path class="b" d="M815.823,1032.216c1.237.044,2.477.012,3.717.012v-.009c1.277,0,2.554.019,3.833,0a1.255,1.255,0,0,0,1.379-1.477,6.84,6.84,0,0,0-.2-1.375,6.317,6.317,0,0,0-5.913-4.75,6.532,6.532,0,0,0-6.3,4.271,6.744,6.744,0,0,0,1.979,7.576,6.87,6.87,0,0,0,8.588-.058c.549-.5.833-1.051.361-1.728a1.259,1.259,0,0,0-1.752-.361c-.242.116-.456.291-.7.414-2.014,1.031-4.7.274-5.569-1.547C814.937,1032.537,814.956,1032.184,815.823,1032.216Zm-.609-3.263a3.515,3.515,0,0,1,3.191-1.765,4.215,4.215,0,0,1,3.564,2.054c.323.521.03.693-.458.7-1,0-2.007,0-3.01,0v0c-.926,0-1.854-.014-2.78,0C814.842,1029.963,814.826,1029.556,815.214,1028.954Z" transform="translate(-760.934 -1016.719)"/><path class="a" d="M358.843,1055.747c4.768,2.04,9.541,4.069,14.3,6.126a4.019,4.019,0,0,0,3.482-.032c4.47-2.143,9.07-3.989,13.6-5.994.352-.156.678-.371,1.015-.559-.038.5.421.481.687.65.368.234.738.444.632.976-1.815,1.464-4.059,2.058-6.127,3-3.1,1.415-6.234,2.741-9.326,4.167a5.185,5.185,0,0,1-4.377.077q-7.114-3-14.2-6.057c-.649-.281-.83-.161-.822.5.009.774-.021,1.548-.034,2.322a11.529,11.529,0,0,1-.15-3.754C357.533,1056.374,358.713,1056.52,358.843,1055.747Z" transform="translate(-357.432 -1043.961)"/><path class="b" d="M1111.934,1024.626a6.836,6.836,0,0,1,4.2,1.5,1.359,1.359,0,0,1,.362,1.956,1.289,1.289,0,0,1-1.847.378,6.294,6.294,0,0,0-2.11-.934,2.668,2.668,0,0,0-1.795.315c-.747.46-.741.979.052,1.338a9.941,9.941,0,0,0,1.662.507,12.71,12.71,0,0,1,2.642.871,3.6,3.6,0,0,1,2.227,3.158,3.655,3.655,0,0,1-1.853,3.288,6.793,6.793,0,0,1-8.062-.944,1.315,1.315,0,0,1-.112-1.887,1.3,1.3,0,0,1,1.865-.278,6.024,6.024,0,0,0,2.277,1.114,4.694,4.694,0,0,0,1.386.01c.7-.107,1.49-.284,1.562-1.126.069-.8-.757-.889-1.3-1.09a20.544,20.544,0,0,0-2.02-.531c-2.717-.7-4-2.172-3.7-4.257C1107.646,1026.079,1109.756,1024.6,1111.934,1024.626Z" transform="translate(-1022.91 -1016.737)"/><path class="a" d="M358.759,1109.8c4.7,1.98,9.416,3.915,14.085,5.962a5.456,5.456,0,0,0,4.766-.357c4.54-2.051,9.1-4.047,13.658-6.066.429.451,1.4.407,1.26,1.379-2.85,1.922-6.16,2.868-9.223,4.337-1.952.937-3.967,1.743-5.922,2.673a5.407,5.407,0,0,1-4.79.134c-4.677-2.048-9.4-3.988-14.092-6.008-.692-.3-.821-.07-.824.539,0,.774-.019,1.548-.03,2.322a10.844,10.844,0,0,1-.159-3.721C357.5,1110.277,358.327,1110.2,358.759,1109.8Z" transform="translate(-357.398 -1091.951)"/><path class="b" d="M745.544,1031.723c0-1.663.005-3.326,0-4.989a1.392,1.392,0,0,1,.961-1.54,1.317,1.317,0,0,1,1.745.733c.268.638.515.34.842.128a5.693,5.693,0,0,1,2.824-.955c.9-.049,1.667.195,1.768,1.23.091.943-.491,1.363-1.375,1.533a5.074,5.074,0,0,0-3.912,4.692c-.032,1.392-.01,2.784-.012,4.177,0,.96-.443,1.605-1.43,1.6s-1.408-.671-1.408-1.622Q745.545,1034.217,745.544,1031.723Z" transform="translate(-702.019 -1017.153)"/><path class="b" d="M1067.518,1031.9c0-1.589-.007-3.177,0-4.766.006-.961.348-1.721,1.434-1.744s1.468.738,1.472,1.7q.024,4.94,0,9.88a1.452,1.452,0,0,1-1.424,1.652c-.862.057-1.455-.626-1.475-1.721C1067.5,1035.237,1067.518,1033.57,1067.518,1031.9Z" transform="translate(-987.889 -1017.419)"/><path class="b" d="M1069,977.267a1.487,1.487,0,0,1,1.5,1.569,1.545,1.545,0,0,1-1.34,1.833,1.477,1.477,0,0,1-1.566-1.611A1.552,1.552,0,0,1,1069,977.267Z" transform="translate(-987.963 -974.687)"/><path class="b" d="M416.586,1005.19a8.208,8.208,0,0,1-3.521-.688c-.422-.209-.859-.46-.88-.989s.409-.832.837-1.01a8.758,8.758,0,0,1,6.882-.027c.431.174.856.444.865.992.01.608-.468.848-.927,1.069A8.172,8.172,0,0,1,416.586,1005.19Z" transform="translate(-406.037 -996.457)"/><path class="b" d="M474.5,1033.716l7.636-1.165c-.855,1.247-1.538,2.249-2.229,3.245-.229.329-.525.23-.828.1q-2.29-.96-4.585-1.91C474.5,1033.9,474.5,1033.808,474.5,1033.716Z" transform="translate(-461.366 -1023.774)"/><path class="b" d="M485.108,973.336c.641-.879,2.883-.124,1.441-2.41,1.517.668,2.746,1.116,4.039.425.215-.115.56.028.411.317-.533,1.036.273,1.144.895,1.411a3.81,3.81,0,0,1,.537.4c-1.272.347-2.888-.13-3.135,1.866C488.6,973.126,486.749,973.556,485.108,973.336Z" transform="translate(-470.785 -969.058)"/><path class="b" d="M549.82,1002.52a1.522,1.522,0,0,1-1.338.088c-1.082-.4-2.162-.81-3.23-1.247-.279-.114-.846-.448-.271-.667,1.6-.607,3.078-1.564,4.839-1.7A4.645,4.645,0,0,1,549.82,1002.52Z" transform="translate(-523.724 -993.98)"/><path class="b" d="M587.922,1002.521a5.757,5.757,0,0,1,0-3.524l4.132,1.621q0,.14,0,.279Z" transform="translate(-561.826 -993.982)"/></g></svg>