<svg id="Layer_1" data-name="Layer 1" xmlns="http://www.w3.org/2000/svg" viewBox="0 0 110 80"><defs><style>.cls-1{fill:#fae9e2;}.cls-2{fill:#00aeef;}.cls-3{fill:#ec7271;}</style></defs><title>1</title><path class="cls-1" d="M30.7,10H20.3V71c-.8-1.2-1.6-2.4-2.5-3.6s-1.7-2.3-2.5-3.5A87.52,87.52,0,0,1,1,31.8,29.68,29.68,0,0,1,.2,21.1a12.41,12.41,0,0,1,5.4-9A16.8,16.8,0,0,1,12.5,10a45.2,45.2,0,0,1,5.3-.6A42.9,42.9,0,0,1,30.7,10Z"/><path class="cls-2" d="M23.4,77.8H83.9c-.8.8-1.5,1.7-2.3,2.5H24C23.8,79.5,23.6,78.6,23.4,77.8Z"/><path class="cls-1" d="M100.5,67a25.57,25.57,0,0,1-2.4,1.1c-.8.3-1.7.7-2.5,1V33.3a7.37,7.37,0,0,1,1.4.4,3.58,3.58,0,0,1,1.1.4,18.22,18.22,0,0,1,10.7,23.4,17.92,17.92,0,0,1-8.3,9.5Z"/><path class="cls-3" d="M93.18,0H22.78a5,5,0,0,0-5,5V75a5,5,0,0,0,5,5h70.3a5,5,0,0,0,5-5V5A4.87,4.87,0,0,0,93.18,0ZM20.28,5a2.48,2.48,0,0,1,2.5-2.5h70.3A2.48,2.48,0,0,1,95.58,5V7.5H20.28Zm75.4,70a2.48,2.48,0,0,1-2.5,2.5H22.78a2.48,2.48,0,0,1-2.5-2.5V10h75.4Z"/><circle class="cls-3" cx="90.68" cy="5" r="1.3"/><circle class="cls-3" cx="85.58" cy="5" r="1.3"/><path class="cls-3" d="M51.2,29.6a6.92,6.92,0,0,0-4.1-3.4,6.73,6.73,0,0,0-5.2.6,6.35,6.35,0,0,0-3.4,4.1,6.53,6.53,0,0,0,.5,5.3,7.22,7.22,0,0,0,4.1,3.4,6.93,6.93,0,0,0,2,.3,6.29,6.29,0,0,0,3.3-.9,7,7,0,0,0,2.8-9.4Zm-.9,4.9a5.37,5.37,0,0,1-2.6,3.3,5.54,5.54,0,0,1-7.9-6.5,5.44,5.44,0,0,1,6.8-3.6,5.53,5.53,0,0,1,3.3,2.7,4.55,4.55,0,0,1,.4,4.1Z"/><path class="cls-3" d="M57.1,35.1a2.54,2.54,0,0,0-1.4-1.3c-.1,0-.1-.1-.1-.2a9.47,9.47,0,0,0-.2-2.9c0-.1,0-.1.1-.1a3.33,3.33,0,0,0,1.2-1.4v-.1a2.12,2.12,0,0,0,0-1.9v-.1a2.29,2.29,0,0,0-1.5-1.2,3.4,3.4,0,0,0-2,0H53A7.28,7.28,0,0,0,51,24l-.1-.1v-.1a2.36,2.36,0,0,0-.3-2,2.16,2.16,0,0,0-1.2-1.1l-.2-.1a2.91,2.91,0,0,0-3.3,1.6.1.1,0,0,1-.1.1,6.66,6.66,0,0,0-2.8.2h-.1a3.44,3.44,0,0,0-1.6-1.3,2.29,2.29,0,0,0-1.8.2h-.1a2.36,2.36,0,0,0-1.2,1.4,2.76,2.76,0,0,0,0,2l-.1.1a7,7,0,0,0-2,2.2H36a2.25,2.25,0,0,0-1.8.2,2.54,2.54,0,0,0-1.4,1.3c0,.1-.1.2,0,.4a2.26,2.26,0,0,0,.2,1.6A3.16,3.16,0,0,0,34.4,32a.1.1,0,0,1,.1.1,8.22,8.22,0,0,0,.2,2.7V35a3.18,3.18,0,0,0-1.3,1.5,3.4,3.4,0,0,0,0,2l.1.3a2.68,2.68,0,0,0,3.3,1H37a12.86,12.86,0,0,0,2.1,1.9c.1.1.2.1.2.2a3.1,3.1,0,0,0,.1,1.9v.1a2.73,2.73,0,0,0,1.5,1.3H41a1.7,1.7,0,0,0,.7.1,2,2,0,0,0,1.1-.3A2.76,2.76,0,0,0,44,43.6l.1-.1h.1a13.2,13.2,0,0,0,2.8-.2l.1.1a3.49,3.49,0,0,0,1.5,1.2,2.13,2.13,0,0,0,1.9-.1l.1-.1A2.36,2.36,0,0,0,51.8,43a2.33,2.33,0,0,0,0-2v-.2l.1-.1a7.88,7.88,0,0,0,1.7-2h.1a3.86,3.86,0,0,0,2.1-.3A2.55,2.55,0,0,0,57,36.9v-.1A1.52,1.52,0,0,0,57.1,35.1Zm-1.3,1.3v.1a.9.9,0,0,1-.6.6,1.15,1.15,0,0,1-1,.1,1.3,1.3,0,0,0-1.6.6,6.55,6.55,0,0,1-1.5,1.8l-.1.1a2.09,2.09,0,0,0-.4.6v1.2a1.15,1.15,0,0,1,.1,1c-.1.2-.2.5-.4.6h-.2a.76.76,0,0,1-.8,0,1.78,1.78,0,0,1-.8-.7,1.35,1.35,0,0,0-1.6-.7,19.42,19.42,0,0,1-2.4.2,1.35,1.35,0,0,0-1.6.7l-.1.2a1.06,1.06,0,0,1-.6.7,1.1,1.1,0,0,1-.8,0h-.1a.9.9,0,0,1-.6-.6,1.7,1.7,0,0,1,0-1,1.64,1.64,0,0,0-.7-1.6,6.9,6.9,0,0,1-1.8-1.6,1.39,1.39,0,0,0-1.7-.4,1.73,1.73,0,0,1-1,.1.9.9,0,0,1-.6-.6l-.1-.1a1.1,1.1,0,0,1,0-.8,2.7,2.7,0,0,1,.7-.8,1.48,1.48,0,0,0,.6-1.6,5.83,5.83,0,0,1-.3-2.3,1.41,1.41,0,0,0-.8-1.5,3,3,0,0,1-.8-.8,1.7,1.7,0,0,1-.1-.7V29a1.27,1.27,0,0,1,.6-.4h.1a1.13,1.13,0,0,1,.8-.1,1.15,1.15,0,0,0,1.6-.7,15.37,15.37,0,0,1,1.7-1.9H39a1.84,1.84,0,0,0,.5-1.6,1.4,1.4,0,0,1,0-1.1,2.65,2.65,0,0,1,.5-.6h.1a1.48,1.48,0,0,1,.7-.1,2.76,2.76,0,0,1,.9.7,1.42,1.42,0,0,0,1.6.6,9.74,9.74,0,0,1,2.4-.2,1.41,1.41,0,0,0,1.5-.8A3,3,0,0,1,48,22a.88.88,0,0,1,.7-.1l.2.1c.1,0,.3.1.4.4a1.38,1.38,0,0,1,.1,1.1,2.15,2.15,0,0,0,0,.8l.1.2c.2.2.3.4.5.6a9.34,9.34,0,0,1,1.8,1.6v.1a1.61,1.61,0,0,0,1.6.4,2.05,2.05,0,0,1,1.1,0,1.79,1.79,0,0,1,.7.5v.1a1.1,1.1,0,0,1,0,.8,1.58,1.58,0,0,1-.7.7,1.48,1.48,0,0,0-.7,1.6,10.55,10.55,0,0,1,.2,2.5,1.55,1.55,0,0,0,.8,1.6h.1a1.06,1.06,0,0,1,.7.6.68.68,0,0,1,.2.8Z"/><path class="cls-3" d="M82.3,48.9a5.23,5.23,0,0,0-2.3-1,.32.32,0,0,1-.3-.3,9.88,9.88,0,0,0-1.5-3.3v-.4l.1-.2a4.81,4.81,0,0,0,.7-2.4,2.52,2.52,0,0,0-.9-2H78a3.23,3.23,0,0,0-2.1-.8h-.2a5,5,0,0,0-2.3.9c-.1.1-.3.2-.3.1H73a14.76,14.76,0,0,0-3.5-1.3.45.45,0,0,1-.4-.3A4.27,4.27,0,0,0,68,35.8a3.23,3.23,0,0,0-2.1-.8.37.37,0,0,0-.3.1h0a3.38,3.38,0,0,0-1.9.9,3.73,3.73,0,0,0-1,2.3,1.38,1.38,0,0,1-.4.3,21.69,21.69,0,0,0-3.5,1.5l-.1.1c0,.1-.1.1-.2.1a.31.31,0,0,1-.2-.1,3.72,3.72,0,0,0-2-.7,2.72,2.72,0,0,0-2.4.9l-.1.1a3,3,0,0,0-.6,2,3.58,3.58,0,0,0,.9,2.4c.1.2.1.3,0,.4a14,14,0,0,0-1.3,3.4.27.27,0,0,1-.3.3,3,3,0,0,0-2.2,1.2,3.1,3.1,0,0,0-.9,2.2v.1a2.81,2.81,0,0,0,1,2.1,4,4,0,0,0,2.3.8c.2,0,.4.1.4.3A10.11,10.11,0,0,0,54.7,59a.45.45,0,0,1,0,.5,4,4,0,0,0-.8,2.3,3.26,3.26,0,0,0,1,2.3l.2.1a3.14,3.14,0,0,0,2.1.7,3.72,3.72,0,0,0,2.2-1c.2-.1.3-.2.4-.1h.1a13.31,13.31,0,0,0,3.5,1.3.78.78,0,0,1,.4.4,3.34,3.34,0,0,0,1.1,2.2,3.1,3.1,0,0,0,2.2.9h.2a2.81,2.81,0,0,0,2.1-1,4.17,4.17,0,0,0,.9-2.4l.1-.2.1-.1a16.58,16.58,0,0,0,3.3-1.5.3.3,0,0,1,.4,0,3.75,3.75,0,0,0,2.5.8,2.87,2.87,0,0,0,2.2-1L79,63a2.64,2.64,0,0,0,.7-1.9V61a3.72,3.72,0,0,0-1-2.2.45.45,0,0,1,0-.5h0A14,14,0,0,0,80,54.7c.1-.2.2-.3.4-.3a4.72,4.72,0,0,0,2-1,2.81,2.81,0,0,0,1-2.1A8.81,8.81,0,0,0,82.3,48.9Zm-.5,2.3a1.23,1.23,0,0,1-.5,1,3.29,3.29,0,0,1-1.3.7,2.11,2.11,0,0,0-1.6,1.3v.1a12.81,12.81,0,0,1-1.1,3.3,1.65,1.65,0,0,0,.1,2l.1.1a2,2,0,0,1,.6,1.4,1.78,1.78,0,0,1-.4,1l-.1.2a1.61,1.61,0,0,1-1.1.5,2.1,2.1,0,0,1-1.5-.5,1.53,1.53,0,0,0-2-.1,10.76,10.76,0,0,1-2.9,1.3,2,2,0,0,0-1,.8,1.69,1.69,0,0,0-.3,1,2.51,2.51,0,0,1-.6,1.4,1.74,1.74,0,0,1-1.2.6h-.2a1.61,1.61,0,0,1-1.1-.5,2.67,2.67,0,0,1-.7-1.4,1.94,1.94,0,0,0-1.4-1.6,11.47,11.47,0,0,1-3.1-1.1,1.65,1.65,0,0,0-2.1.2,2.09,2.09,0,0,1-1.3.7,1.61,1.61,0,0,1-1.1-.5l-.2-.1a1.19,1.19,0,0,1-.4-1.1,2.39,2.39,0,0,1,.5-1.4,1.66,1.66,0,0,0,0-2.1,10.11,10.11,0,0,1-1.3-3,1.71,1.71,0,0,0-1.7-1.3,2.39,2.39,0,0,1-1.4-.5,1.39,1.39,0,0,1-.5-1v-.1a1.85,1.85,0,0,1,.5-1.2,2.22,2.22,0,0,1,1.3-.8,2,2,0,0,0,1.5-1.4,12.13,12.13,0,0,1,1.1-3,2,2,0,0,0-.1-2.1,2.27,2.27,0,0,1-.6-1.6,1.5,1.5,0,0,1,.4-1.1l.1-.1a1.31,1.31,0,0,1,1.2-.3,1.75,1.75,0,0,1,1.2.4,1.57,1.57,0,0,0,2.2,0A18.25,18.25,0,0,1,63,39.9a1.59,1.59,0,0,0,1.3-1.4,2.1,2.1,0,0,1,.7-1.4,1.39,1.39,0,0,1,1-.5h.3a3.55,3.55,0,0,1,.9.4,2.35,2.35,0,0,1,.7,1.4v.1a1.85,1.85,0,0,0,1.4,1.3,12.13,12.13,0,0,1,3.2,1.1,1.65,1.65,0,0,0,2-.1,2,2,0,0,1,1.5-.6,2.45,2.45,0,0,1,1.2.4l.1.1a.81.81,0,0,1,.3.9,4.19,4.19,0,0,1-.4,1.6,2.1,2.1,0,0,0-.4,1.1v.1a2.35,2.35,0,0,0,.2.8l.1.2a10.32,10.32,0,0,1,1.4,3,1.62,1.62,0,0,0,1.6,1.2,3,3,0,0,1,1.5.7,2.38,2.38,0,0,1,.6,1.1Zm-9.5-6.1a8.86,8.86,0,0,0-6.6-2.2A8.13,8.13,0,0,0,59.6,46a8.76,8.76,0,0,0-2.2,6.5,8.85,8.85,0,0,0,3.1,6.1,8.4,8.4,0,0,0,5.9,2.1H67a8.88,8.88,0,0,0,6.2-3.1,8.18,8.18,0,0,0,2.1-6.5,8.34,8.34,0,0,0-3-6Zm-.2,11.7a7.49,7.49,0,0,1-5.2,2.6,7.36,7.36,0,0,1-5.5-1.8,7.45,7.45,0,0,1-1-10.5l.2-.2a7.12,7.12,0,0,1,5.2-2.6h.6a7.33,7.33,0,0,1,4.9,1.9,7.47,7.47,0,0,1,2.6,5.1,7.36,7.36,0,0,1-1.8,5.5Z"/></svg>