<svg xmlns="http://www.w3.org/2000/svg" viewBox="0 0 501.8 501.8"><defs><style>.cls-1{fill:#77b6f5;opacity:0.3;}.cls-2,.cls-3{fill:#fff;stroke:#77b6f5;stroke-width:6px;}.cls-2{stroke-miterlimit:10;}.cls-3{stroke-linecap:round;stroke-linejoin:round;}</style></defs><title>over the air_1</title><g id="Layer_6" data-name="Layer 6"><path class="cls-1" d="M92,246.45c-12.27,6.47-10.85,5.7-12.55,6.8-29.8,19.21-50.77,59.93-45.85,99.22,4.71,37.66,31.69,61.68,44,72.64,58.94,52.48,156.93,64.33,234.08,31.87C385,426.13,421.11,365.87,433.31,335.32c21.08-52.8,35.17-106.06,33.71-163.58-1.15-44.92-4.1-98-39.75-131.68C380-4.64,321.11,64.4,321.11,64.4q-42.51,40.32-86.63,79c-23.81,20.93-46.94,42.69-72.09,62.1C140,222.72,116.19,233.69,92,246.45Z"/><rect class="cls-2" x="71.64" y="73.87" width="369.05" height="369.05" rx="15" ry="15"/><polygon class="cls-3" points="94.87 217.54 413.57 149.13 283.13 367.66 203.46 303.05 182.19 354.36 153.69 258.39 94.87 217.54"/><polygon class="cls-3" points="183.15 354.64 204.41 303.33 235.88 328.86 183.15 354.64"/><polyline class="cls-3" points="203.46 303.05 413.57 149.13 153.69 258.39"/></g></svg>