<svg xmlns="http://www.w3.org/2000/svg" viewBox="0 0 501.8 501.8"><defs><style>.cls-1{fill:#f6a825;opacity:0.3;}.cls-2{fill:#fff;stroke-width:6px;}.cls-2,.cls-3{stroke:#f6a825;}.cls-2,.cls-3,.cls-4{stroke-miterlimit:10;}.cls-3,.cls-4{fill:none;stroke-width:3px;}.cls-4{stroke:#bd7d15;}</style></defs><title>performance_2</title><g id="Layer_2" data-name="Layer 2"><path class="cls-1" d="M221.52,42.15c-57.16-10.41-88.82,0-105.37,7.49C79.31,66.27,59.26,94.39,53,103.91c-18,27.36-21.71,52.79-25,77.33-3.11,23-11.06,88.7,24.72,159,9.84,19.33,28,53.53,66,81.88,67.72,50.59,150.07,40.64,175.13,36.39,21.91-3.72,121.78-20.66,163.76-106.9,27.05-55.57,15.69-110.36,11.37-127.37C432.5,80.58,243.68,46.19,221.52,42.15Z"/><path class="cls-2" d="M252,50.94C142,50.94,53,140,53,249.94S142,449,252,449s199-89.1,199-199S361.87,50.94,252,50.94Z"/><path class="cls-3" d="M241.2,126.75h0A11.35,11.35,0,0,1,231.91,138a115,115,0,0,0-69.15,186,11.23,11.23,0,0,1-.81,15l-.07.07a11.24,11.24,0,0,1-16.64-.78,137.68,137.68,0,0,1,82.89-222.6A11.23,11.23,0,0,1,241.2,126.75Z"/><path class="cls-4" d="M331,154.72l-.08.08a11.22,11.22,0,0,1-14.27,1.35A114.13,114.13,0,0,0,271.94,138a11.22,11.22,0,0,1-9.25-11.07v-.12A11.28,11.28,0,0,1,276,115.67a136.36,136.36,0,0,1,53.48,21.8A11.26,11.26,0,0,1,331,154.72Z"/><path class="cls-4" d="M364.87,229.22a114.29,114.29,0,0,0-19.52-45.14,11.24,11.24,0,0,1,1.18-14.52l.08-.08a11.27,11.27,0,0,1,17.12,1.4,136.88,136.88,0,0,1,23.35,53.89A11.28,11.28,0,0,1,376,238.23h-.13A11.21,11.21,0,0,1,364.87,229.22Z"/><path class="cls-4" d="M387.93,272.79a137.28,137.28,0,0,1-29.22,65.4,11.3,11.3,0,0,1-16.75.91l-.07-.07a11.27,11.27,0,0,1-.74-15.1,114.57,114.57,0,0,0,24.47-54.79,11.22,11.22,0,0,1,11.11-9.44h.08A11.3,11.3,0,0,1,387.93,272.79Z"/><path class="cls-3" d="M271.37,323.58a19.58,19.58,0,1,1-30.14-16.49V213.52A10.72,10.72,0,0,1,252,202.79h0a10.73,10.73,0,0,1,10.73,10.73v93.79A19.54,19.54,0,0,1,271.37,323.58Z"/></g></svg>