<svg xmlns="http://www.w3.org/2000/svg" xmlns:xlink="http://www.w3.org/1999/xlink" width="448.437" height="344.879" viewBox="0 0 448.437 344.879"><defs><style>.a{fill:url(#a);}</style><linearGradient id="a" x1="0.239" y1="-0.166" x2="0.896" y2="1.221" gradientUnits="objectBoundingBox"><stop offset="0" stop-color="#d0ddee" stop-opacity="0.4"/><stop offset="1" stop-color="#f9e9e3" stop-opacity="0.451"/></linearGradient></defs><path class="a" d="M14070.641,867.129h-.006c-8.162,0-16.558-.171-24.954-.509-8.03-.323-16.275-.807-24.5-1.438-7.845-.6-15.884-1.354-23.895-2.234-7.608-.837-15.389-1.812-23.124-2.9-26.76-3.758-54.212-9-81.591-15.572-10.758-2.583-21.528-5.382-32.014-8.317-8.393-2.349-16.619-4.79-24.452-7.255-13.265-4.174-21.021-7.05-21.1-7.078V598.08c.012.007,1.536.864,4.409,2.12a115.589,115.589,0,0,0,12.878,4.665,155.4,155.4,0,0,0,20.82,4.665,184.906,184.906,0,0,0,28.233,2.12,230.082,230.082,0,0,0,64.118-9.6c6.236-1.815,12.589-3.913,18.881-6.237,6.591-2.434,13.3-5.183,19.941-8.171,6.934-3.121,13.984-6.588,20.957-10.306,7.264-3.873,14.643-8.126,21.935-12.641,4.786-2.964,9.534-5.741,14.114-8.255,4.447-2.442,8.869-4.708,13.141-6.735,4.138-1.964,8.259-3.762,12.247-5.344,3.852-1.528,7.7-2.9,11.432-4.082,3.594-1.136,7.193-2.129,10.7-2.95,3.359-.787,6.739-1.442,10.047-1.947,3.147-.481,6.334-.842,9.474-1.074,2.959-.218,5.979-.329,8.979-.329,3.339,0,6.659.13,10.15.4,3.11.239,6.284.583,9.7,1.051,6.45.884,12.623,2.056,18.593,3.19h0l.306.058c5.944,1.129,12.09,2.3,18.273,3.154,3.326.462,6.4.8,9.408,1.036,3.371.264,6.565.392,9.767.392a114.617,114.617,0,0,0,31.354-4.4c2.9-.814,5.88-1.759,8.845-2.808,3.057-1.082,6.2-2.31,9.343-3.65,3.232-1.378,6.561-2.916,9.894-4.571,3.42-1.7,6.95-3.573,10.493-5.572V823.975c-1,.557-2.014,1.108-3,1.637-7.123,3.809-14.582,7.408-22.173,10.695-7.38,3.2-15.085,6.186-22.9,8.886-7.589,2.622-15.491,5.042-23.486,7.195-7.753,2.087-15.8,3.979-23.931,5.622-7.866,1.591-16.02,2.993-24.23,4.167-7.937,1.135-16.144,2.087-24.391,2.83-7.957.717-16.168,1.259-24.405,1.612C14086.989,866.957,14078.82,867.129,14070.641,867.129Z" transform="translate(-13815.004 -522.249)"/></svg>