<svg xmlns="http://www.w3.org/2000/svg" xmlns:xlink="http://www.w3.org/1999/xlink" width="496.475" height="418.966" viewBox="0 0 496.475 418.966"><defs><style>.a{opacity:0.61;fill:url(#a);}</style><linearGradient id="a" x1="-0.06" y1="-0.299" x2="0.701" y2="1.075" gradientUnits="objectBoundingBox"><stop offset="0" stop-color="#e1eeff"/><stop offset="1" stop-color="#f9e9e3"/></linearGradient></defs><path class="a" d="M18804,361.654l.271-.148c1.4-50.628,111.938-91.507,248.094-91.507,137.027,0,248.109,41.405,248.109,92.481,0,.5-.012,1-.031,1.492l.031.012V606.7c-.014-.008-1.7-.938-4.883-2.3a129.447,129.447,0,0,0-14.258-5.061,175.2,175.2,0,0,0-23.049-5.06,208.87,208.87,0,0,0-31.26-2.3,259.562,259.562,0,0,0-70.986,10.419c-6.9,1.969-13.937,4.245-20.9,6.765-7.3,2.641-14.723,5.623-22.074,8.865-7.678,3.385-15.484,7.146-23.2,11.179-8.043,4.2-16.213,8.817-24.285,13.714-5.3,3.215-10.555,6.227-15.627,8.954-4.924,2.649-9.818,5.107-14.547,7.307-4.582,2.129-9.143,4.08-13.559,5.8-4.266,1.659-8.525,3.148-12.658,4.429-3.977,1.232-7.963,2.31-11.846,3.2-3.719.854-7.459,1.564-11.123,2.113-3.482.521-7.012.912-10.486,1.164-3.277.237-6.621.356-9.941.356-3.7,0-7.373-.141-11.238-.432-3.443-.259-6.957-.632-10.74-1.139-7.143-.959-13.977-2.23-20.586-3.46h0l-.338-.062c-6.582-1.225-13.385-2.491-20.23-3.421-3.684-.5-7.09-.869-10.418-1.124-3.73-.287-7.268-.426-10.811-.426a129.359,129.359,0,0,0-34.715,4.777c-3.215.883-6.508,1.909-9.789,3.047-3.387,1.174-6.867,2.506-10.346,3.959-3.58,1.5-7.264,3.163-10.953,4.958-3.787,1.844-7.7,3.877-11.617,6.045Z" transform="translate(-18803.998 -269.999)"/></svg>