<svg id="Layer_1" data-name="Layer 1" xmlns="http://www.w3.org/2000/svg" xmlns:xlink="http://www.w3.org/1999/xlink" viewBox="0 0 839.31 593.38"><defs><style>.cls-1{fill:#15376a;}.cls-2{fill:#f7be97;}.cls-3{fill:#3d2559;}.cls-4{fill:#493566;}.cls-5{fill:#acacad;}.cls-6{fill:#edb48e;}.cls-7{fill:#282524;}.cls-20,.cls-8{fill:#cecece;}.cls-9{fill:#708389;}.cls-10{fill:#e9f5ff;}.cls-11{fill:#723939;}.cls-12{fill:#a27f68;}.cls-13{fill:#b5917c;}.cls-14{fill:#172b4d;}.cls-15{fill:#e2bdb0;}.cls-16{fill:#fcd0be;}.cls-17{fill:#cf9e76;}.cls-18{fill:#ffd638;}.cls-19{fill:#8c715d;}.cls-20{stroke:#798aa7;stroke-width:2.41px;}.cls-20,.cls-25{stroke-linecap:round;stroke-linejoin:round;}.cls-21{fill:#47c98e;}.cls-22{fill:#453163;}.cls-23{fill:#59ce99;}.cls-24{fill:#27375c;}.cls-25{fill:none;stroke:#acacad;stroke-width:5.63px;}.cls-26{fill:url(#linear-gradient);}</style><linearGradient id="linear-gradient" x1="150.35" y1="-127.34" x2="150.35" y2="-128.34" gradientTransform="matrix(11.59, 0, 0, -31.36, -1634.38, -3842.16)" gradientUnits="userSpaceOnUse"><stop offset="0" stop-color="#f9b8a3"/><stop offset="0.2" stop-color="#f8b59f"/><stop offset="0.38" stop-color="#f7ac93"/><stop offset="0.51" stop-color="#f7a387"/><stop offset="0.83" stop-color="#f38059"/><stop offset="0.92" stop-color="#f16a3c"/><stop offset="1" stop-color="#f05a28"/></linearGradient></defs><title>characterp2assets</title><g id="Group_6708" data-name="Group 6708"><path id="Path_5279" data-name="Path 5279" class="cls-1" d="M605.22,33.84S594.66,48.2,595.93,51c1.11,2.48,5,2.35,5.22,2.35s3-1.58,3-1.58S609.46,36.38,605.22,33.84Z"/><g id="Group_6707" data-name="Group 6707"><path id="Path_5280" data-name="Path 5280" class="cls-2" d="M605.74,62.1l-1.57-10.3-8.23-.87,3.9,12.8Z"/></g><path id="Path_5281" data-name="Path 5281" class="cls-1" d="M622.58,33S611.11,46.59,612.19,49.5c.94,2.55,4.85,2.67,5,2.69s3.11-1.38,3.11-1.38S626.65,35.77,622.58,33Z"/><path id="Path_5282" data-name="Path 5282" class="cls-2" d="M621.24,61.19l-.9-10.38-8.15-1.41,3,13Z"/><path id="Path_5283" data-name="Path 5283" class="cls-3" d="M534.36,62.92s14.34,7.67,17.94,14.13,3.19,11,11.44,15,9.92,6.62,9.92,6.62l-3.45,18.58s-33.22.18-37.63-3.24-22-9.78-19.09-32c5.12-3.71,9.12-6.73,9.12-6.73"/><path id="Path_5284" data-name="Path 5284" class="cls-2" d="M508.87,71s-7,5.16-10.17,9,8,6.57,8,6.57,4.45-4.28,6.8-4.56S508.87,71,508.87,71Z"/><path id="Path_5285" data-name="Path 5285" class="cls-4" d="M521.4,63.63c-3.2.19-10.85,5.37-12.34,7S513.49,82,513.49,82l9.12-6.73S524.59,63.44,521.4,63.63Z"/><path id="Path_5286" data-name="Path 5286" class="cls-5" d="M607.35,95.71l-7.53-32.08,8.7-3.15,22.36,41.12s3.5,16.44-8.86,17.33"/><path id="Path_5287" data-name="Path 5287" class="cls-6" d="M529.05,54.2s1.57,7.22,5.3,8.72-4.8,15.77-8.9,16-4.19-8-3-12.69l1.2-4.72"/><path id="Path_5288" data-name="Path 5288" class="cls-7" d="M522.26,63.71s-6,5.89-9.54,3.21.25-18.62-1.29-20.28,8.78-5.91,8.82-3.77S522.26,63.71,522.26,63.71Z"/><path id="Path_5289" data-name="Path 5289" class="cls-8" d="M570.05,86.61s19.26,2.14,26,5.33,22.13,2.74,22.13,2.74l-2.92-32.83L624.35,60l16.32,43.87s1.14,16.77-11.23,15.9-59.23-2.45-59.23-2.45Z"/><ellipse id="Ellipse_516" data-name="Ellipse 516" class="cls-2" cx="527.46" cy="52.09" rx="13.79" ry="10.65" transform="translate(438.07 574.53) rotate(-85.93)"/><path id="Path_5290" data-name="Path 5290" class="cls-9" d="M514.25,79.65,469.9,76.51c-2.3-.16-4.13,2.34-3.63,5l5.88,30.46a3.52,3.52,0,0,0,3.1,3l43.48,2.38c2.25.12,4-2.28,3.6-4.86l-5-29.7A3.56,3.56,0,0,0,514.25,79.65Z"/><path id="Path_5291" data-name="Path 5291" class="cls-2" d="M544.8,74.85s7,16.47-1.76,24.85c-10.24,9.78-23.68,14.24-23.68,14.24s-4-1.1-5.79.82-.28,3.08-.28,3.08l9.91-.35s23.45-4.46,27-8.3,9.4-12,9.48-19S544.8,74.85,544.8,74.85Z"/><path id="Path_5292" data-name="Path 5292" class="cls-7" d="M511.28,46.23a9.06,9.06,0,0,1,3.17-8.64c4.4-3.87,1.64-10.43,13.13-8.62,9.7,1.51,13.62,19.58,18.42,22.4s20.68-.82,29.36,6.11.62,11.81,3,17.51,16.43,13.69,8.58,23.83-20-.81-21.78-2-26.34-18.32-28.62-26.68S529.17,32.16,511.28,46.23Z"/><circle id="Ellipse_517" data-name="Ellipse 517" class="cls-10" cx="493.98" cy="98.69" r="4.49"/></g><g id="Group_6709" data-name="Group 6709"><path id="Path_5293" data-name="Path 5293" class="cls-11" d="M775.8,313.78a33.59,33.59,0,0,1-3.54,8.67,74.62,74.62,0,0,1-26.41,29.95,32,32,0,0,0,7.09,10.25c14.19,13,35.87,7.49,38.23,6.7,14.19-9.86,18.13-28,11.43-40.6A30.73,30.73,0,0,0,775.8,313.78Z"/><path id="Path_5294" data-name="Path 5294" class="cls-12" d="M772.26,326c1.18,0,2.36,0,3.15-.79a5,5,0,0,0,1.58-2.75,22.54,22.54,0,0,0,1.18-7.1l15.37,2c0,1.18-.39,2.37-.39,3.94a24.33,24.33,0,0,0-.4,5.52,4.59,4.59,0,0,0,2,2.76A31.94,31.94,0,0,1,772.26,326Z"/><path id="Path_5295" data-name="Path 5295" class="cls-12" d="M767.13,325.2c4.73.4,9.86,1.19,15,2,6.31.78,11.83,2,17.74,3.15l-2,8.67-24.44,3.55-8.67-14.19Z"/><path id="Path_5296" data-name="Path 5296" class="cls-13" d="M793.15,321.26a53.47,53.47,0,0,1-17.35-3.15c-1.18-.39-3.54-1.57-3.94-3.15a23.22,23.22,0,0,0,.4-2.76v-2.36a5.56,5.56,0,0,1,.79-2.76l-1.19-1.19c-.39-.39-.78-.78-.78-1.18,0-.79,1.57-1.57,2.75-3.55a5.51,5.51,0,0,0,.79-2.36,30.49,30.49,0,0,1,5.52-8.28h0A14.83,14.83,0,0,1,792,286.19h0a15,15,0,0,1,11.43,7.09l.4.79a27.8,27.8,0,0,1,1.18,3.15h0a15.15,15.15,0,0,1-6.31,14.59l-2.76,2Z"/><path id="Path_5297" data-name="Path 5297" class="cls-11" d="M805.36,307.47c-2.76,5.52-5.51,6.7-7.09,11.83a16.4,16.4,0,0,0,1.18,10.64,16.9,16.9,0,0,1-13-2.76c-6.7-4.73-9.07-15.37-4.73-25.62a10,10,0,0,1-3.16-10.64,10.26,10.26,0,0,1,5.52-4.34c6.31-2.36,16.95-1.18,21.28,7.1A16.75,16.75,0,0,1,805.36,307.47Z"/><path id="Path_5298" data-name="Path 5298" class="cls-14" d="M815.22,528.57a30.62,30.62,0,0,0-.4,13.4l3.16,1.58.78-1.58,1.19,2.37a30.73,30.73,0,0,0,6.3,2.76c1.58.39,3.55.79,5.52,1.18,2.76,0,7.09-.39,7.49-2s-1.58-1.58-4.73-3.94a36.93,36.93,0,0,1-5.52-5.52,24,24,0,0,1-3.55-7.09l-.39-2Z"/><path id="Path_5299" data-name="Path 5299" class="cls-14" d="M773.44,527a11,11,0,0,1-2.36,7.09c-4.73,5.91-15.77,5.13-15.77,7.89,0,.39,0,.78.39.78,12.22,1.19,16.95.4,18.13-.39.79-.79,2-.79,3.16-.79a2.2,2.2,0,0,1,2,1.18h8.27a65.34,65.34,0,0,0-.39-9.06,20.24,20.24,0,0,0-.79-5.13Z"/><path id="Path_5300" data-name="Path 5300" class="cls-15" d="M765.56,393.39c-.4,3.94-.79,9.85-.79,16.95-.79,24.43,2,41,3.55,65.42,1.18,14.19,2.36,31.93,3.94,53.21h14.19c0-3.55-.4-9.07,0-15.77.78-14.19,2.36-20.1,2-31.13a69.36,69.36,0,0,0-2.37-18.13l7.89-38.23a25.22,25.22,0,0,0,15.37-13,24,24,0,0,0-3.16-24.43Z"/><path id="Path_5301" data-name="Path 5301" class="cls-16" d="M774.23,393.39c2.76,7.49,5.52,15.37,8.28,22.86,5.51,15.76,11,31.53,16.15,46.9l12.22,68.18,14.19-2-6.3-70.55c-.4-7.48-3.95-53.2-5.52-59.91a8.22,8.22,0,0,1-.4-2.36,27.36,27.36,0,0,0-4.33-9.06l-2.76,1.58Z"/><path id="Path_5302" data-name="Path 5302" class="cls-12" d="M821.92,411.91l-2.37-6.3L831,409.55l-.39,2c0,.39-.39.79-.79,1.18a3.73,3.73,0,0,1-5.12.79l-.4-.39a1.2,1.2,0,0,1-1.57,0C822.31,412.7,822.31,412.31,821.92,411.91Z"/><path id="Path_5303" data-name="Path 5303" class="cls-12" d="M821.92,397.33a31.43,31.43,0,0,0-2.37,8.67L831,409.94a3.55,3.55,0,0,0-.39-2c0-.79-.39-1.58-.39-2.36a11.49,11.49,0,0,0-.4-6.31,12.15,12.15,0,0,0-2-3.94l-5.91-.79Z"/><path id="Path_5304" data-name="Path 5304" class="cls-17" d="M702.5,274.36a12.52,12.52,0,0,0,1.18,5.52,14.07,14.07,0,0,0,2.76,3.94,8.22,8.22,0,0,0,3.94,2.37c2.36.79,5.91.39,6.7-.79.39-.79-.39-1.58-1.18-3.55a23.17,23.17,0,0,1-1.58-3.15,23.55,23.55,0,0,0-.79-2.76c-.79-1.58-1.18-1.58-1.58-2.76-.78-2.36,1.19-4.33.4-5.12s-3.94-.4-5.91.39A9.92,9.92,0,0,0,702.5,274.36Z"/><path id="Path_5305" data-name="Path 5305" class="cls-18" d="M735.6,321.26c5.52.79,11,1.58,16.56,2,7.09.79,13.79,1.58,20.5,2.37,0,.79.79,8.28,5.91,10.25a11.19,11.19,0,0,0,8.67-.79,48.57,48.57,0,0,0,12.22-5.52,61.55,61.55,0,0,1,12.21,7.1c11,7.49,20.5,13.4,23.65,24a63.73,63.73,0,0,1,0,17.34c-.4,6.31-1.18,13-2,19.32a15.28,15.28,0,0,1-8.28,1.18,12.34,12.34,0,0,1-4.73-2q.6-7.69,1.18-15.37c.4-5.13.79-10.25,1.58-15.38A72,72,0,0,0,805,351.22a71.13,71.13,0,0,1-4.73,22.07c1.58,2.76,3.16,5.13,4.73,7.89,1.18,2,2.37,3.94,3.55,5.51a53.18,53.18,0,0,1-28,8.67A63.58,63.58,0,0,1,763.19,393l1.58-26c-1.18-1.58-2.36-3.55-3.55-5.52a14.17,14.17,0,0,1-2.36-7.88,29.17,29.17,0,0,1,1.58-6.31c.78-2.36,1.57-4.34,2-5.91-3.55-.4-8.28-1.18-13.8-2-17-3.16-20.1-5.13-21.68-6.31-2.36-2.36-4.33-6.3-7.88-14.19a142.22,142.22,0,0,1-6.7-18.13c-2-5.52-3.55-11-4.73-15.37l8.67-3.15c3.55,5.52,6.7,11.82,10.25,18.13C730.09,307.86,733.24,315,735.6,321.26Z"/></g><g id="Group_6712" data-name="Group 6712"><path id="Path_5306" data-name="Path 5306" class="cls-19" d="M142.65,242.76a19.17,19.17,0,0,1-18.07,4.35,31.28,31.28,0,0,0-.59-19l15.17-3.73Z"/><path id="Path_5307" data-name="Path 5307" class="cls-19" d="M184.1,251.87c-1.7-.44-2.85-3.53-2.06-5.84a5.58,5.58,0,0,1,3.07-3.11c1.41-.74,1.87-.12,3.6-.56,3.46-.85,5.13-3.82,5.89-3.32a2.16,2.16,0,0,1,.13,1.46.77.77,0,0,1,.55.35c.25.47-.37,1.2-.66,1.54a62.39,62.39,0,0,1-5.5,6.22C186.34,250.93,184.93,252.11,184.1,251.87Z"/><path id="Path_5308" data-name="Path 5308" class="cls-20" d="M201,210.88l-3.72,73.85L187.3,275,190,217.84Z"/><path id="Path_5309" data-name="Path 5309" class="cls-14" d="M65.72,415.48c-4.51,2.75-9.2,5.43-14.14,8-1.18.63-2.37,1.24-3.54,1.83l.4,3.06a1.56,1.56,0,0,1,1.31.46,1.7,1.7,0,0,1-.67,2.29l2.8,12.07,1,0a16.92,16.92,0,0,1,1.12-7,18.44,18.44,0,0,1,7.24-8.63A21.83,21.83,0,0,1,68,424.45Z"/><path id="Path_5310" data-name="Path 5310" class="cls-14" d="M98.6,436.66c-2.71,4.54-5.6,9.09-8.76,13.7-.76,1.11-1.52,2.2-2.29,3.27l1.78,2.53a1.57,1.57,0,0,1,1.38-.21,1.69,1.69,0,0,1,.47,2.33l8.1,9.38.85-.48a17,17,0,0,1-2.29-6.75,18.41,18.41,0,0,1,2.38-11,22.13,22.13,0,0,1,4.53-5.87Z"/><path id="Path_5311" data-name="Path 5311" class="cls-19" d="M195.54,247.73a5.19,5.19,0,0,0-2.67.84c-1.3.87-5.57,3.53-4.86,4.92.27.65,1.53.76,2.15.72,1.2-.12,1.66-1.68,3-2a2.81,2.81,0,0,0,.75-.22c.74-.25,1.11-.38,1.13-.56s-.89-.53-1-1.06,2.77-1.86,2.49-2.33S195.78,247.74,195.54,247.73Z"/><path id="Path_5312" data-name="Path 5312" class="cls-19" d="M188.14,258.55c-1.41-1.05-1.33-4.35.26-6.2a5.6,5.6,0,0,1,4-1.75c1.58-.16,1.78.59,3.55.82,3.52.5,6.18-1.64,6.7-.9a2.16,2.16,0,0,1-.42,1.41.75.75,0,0,1,.38.53c.06.52-.79,1-1.18,1.18a62.76,62.76,0,0,1-7.42,3.73C190.57,258.5,188.82,259.07,188.14,258.55Z"/><path id="Path_5313" data-name="Path 5313" class="cls-21" d="M132.62,243.61a69.61,69.61,0,0,0,28.93,9.46c1.65.14,20.55-6.53,20.55-6.53l2.58,5.52s-25.25,14-33.8,13.7-21.43-4.1-21.43-4.1l-5-9.32Z"/><path id="Path_5314" data-name="Path 5314" class="cls-3" d="M65.85,426.34l-2.34-10.81a429.74,429.74,0,0,1,49.76-25.41c36.53-15.54,19.7,6.22,19.7,6.22Z"/><path id="Path_5315" data-name="Path 5315" class="cls-3" d="M117.86,388.26s-.88-63.15,2.72-74.59,11.77-3.88,11.77-3.88,19,21.9,20.07,24.6-18.6,63.7-18.6,63.7Z"/><path id="Path_5316" data-name="Path 5316" class="cls-22" d="M104.67,444.32l-6.87-7.17s26.78-33.94,39.23-46c4.62-4.45,20.48,3.42,22.8,4.91s-25.05,29-54.52,48.08Z"/><path id="Path_5317" data-name="Path 5317" class="cls-22" d="M137,391.19s-13-64.16-14-76,36.39-5.33,36.39-5.33,10.53,60.81.52,87.53C156.64,406.26,137,391.19,137,391.19Z"/><path id="Path_5318" data-name="Path 5318" class="cls-23" d="M146.37,238.67c.6.14,6.36.76,7.15,1.18s3.84,4.76,4.25,5.69c2.43,5.52,2.19,10.47,2.35,16.06.12,4.49-1,11.29-1.09,12.75-.85,9.72-3.77,19.79.77,35.21a6.49,6.49,0,0,1,.27,2.8c-.78,5.8-11.45,5.91-21.5,4.69a156.73,156.73,0,0,1-15.5-2.78c-1.17-.27-2-.47-2.31-.56l-.18,0s.6.16,1.38-8.5a62.14,62.14,0,0,0,.25-7.09c-.74-3.82-.64-5.32-2-10.77-1.33-5.27-3.1-15.34-4.53-19-3.28-8.44,1.88-21.2,1.88-21.2h0s4.35-3.9,9.53-8.07c.33-.26,6.71-1.59,7.13-1.64C140.9,236.63,144,238.14,146.37,238.67Z"/><g id="Group_6710" data-name="Group 6710"><path id="Path_5319" data-name="Path 5319" class="cls-24" d="M123.41,224.82a16.27,16.27,0,0,1-8.16-4.74,16.48,16.48,0,0,1,14.95-27.37,5.62,5.62,0,0,1,9.43,5.77,5.31,5.31,0,0,1,.42,1.56,24,24,0,0,1-3.27,17Z"/><path id="Path_5320" data-name="Path 5320" class="cls-19" d="M139.42,198.53a38.49,38.49,0,0,0,2.66,5.29,9.58,9.58,0,0,0,1.4,2.15,32,32,0,0,0,4.59,5.27l-2.8,1.83,1.43,10.7a34.3,34.3,0,0,1-12.28,5.54c-3.74.89-7.52,1.8-10.21-.1a14.2,14.2,0,0,1-2.28-2.55,19,19,0,0,0-1.41-1.57c-.61-.62-1.44-1.52-2.57-2.56a9.46,9.46,0,0,0,4.44-.59,5.41,5.41,0,0,0,3.57-2.51c.89-2.1-1.33-4.1-.28-5.42a2.06,2.06,0,0,1,1.95-.6c2,.46,3,4.5,3,4.5l2.7-1.22a11.44,11.44,0,0,1-.43-5.45c.48-2.8,1.81-3.4,2-6s-1.15-3.49-.52-4.8S135.94,198.64,139.42,198.53Z"/></g><rect id="Rectangle_3273" data-name="Rectangle 3273" class="cls-5" x="93.47" y="243.26" width="28.53" height="81.36" rx="9.69" ry="9.69"/><path id="Path_5321" data-name="Path 5321" class="cls-25" d="M123.52,250.43s5.25-9.44,10.28-10a30.42,30.42,0,0,1,19,3.91c3.45,2.26,4.71,13.42,4.71,13.42s-.64,15.69-3.9,25.2-4.46,16-12.84,22.17c-6.61,4.87-17.71,5.51-18.46,6s-2.86-56.85-2.86-56.85Z"/><path id="Path_5322" data-name="Path 5322" class="cls-21" d="M161.77,262.94s8.85-.28,14.44-3.48,11-5.76,11-5.76l5.59,4.23s-20.86,19.6-28.71,17.45c-.63-.17-3.71-7.42-3-9.93Z"/><path id="Path_5323" data-name="Path 5323" class="cls-21" d="M143,241.62c6.14.13,21.23,18.61,21.23,18.61s8,7.59,7.18,10.73-5,6.05-8.62,4.4-17.06-6.69-22.14-12.8-7-11.36-6.33-13.87S137.61,241.5,143,241.62Z"/><rect id="Rectangle_3274" data-name="Rectangle 3274" class="cls-8" x="93.47" y="257.26" width="28.53" height="1.47"/><rect id="Rectangle_3275" data-name="Rectangle 3275" class="cls-8" x="93.47" y="259.91" width="28.53" height="1.47"/><rect id="Rectangle_3276" data-name="Rectangle 3276" class="cls-8" x="93.47" y="308.07" width="28.53" height="1.47"/><rect id="Rectangle_3277" data-name="Rectangle 3277" class="cls-8" x="93.47" y="310.72" width="28.53" height="1.47"/><g id="Group_6711" data-name="Group 6711"><path id="Path_5325" data-name="Path 5325" class="cls-26" d="M102.84,342.63A5.59,5.59,0,0,1,104,340c-2.54,6.19,3.14,15.85,4.3,17.71-1.65-3,2.16-7.8,3.14-11.28s-2.26-12.17-2.26-12.17c3.16,3.38,3.61,10.7,3.61,10.7s2.37-6.76-1.24-12.59a22.89,22.89,0,0,1-1.42-2.68,7,7,0,0,1-.25,1.17s-.19-3.08-1.52-4.5c0,0,1.37,3.6,1,5.12s-2.14,3.65-1.24,4.88c0,0-3.08-4.69-1.9-7.59a2.47,2.47,0,0,0-.47,1.09,5.89,5.89,0,0,1-.25-3.3,31.22,31.22,0,0,1-1.8,4.2A14.51,14.51,0,0,0,102.84,342.63Z"/></g></g></svg>