<svg id="Layer_1" data-name="Layer 1" xmlns="http://www.w3.org/2000/svg" viewBox="0 0 839.31 593.38"><defs><style>.cls-1{fill:#47c98e;}.cls-1,.cls-2,.cls-3,.cls-4,.cls-5{stroke:#fff;stroke-miterlimit:10;stroke-width:3.71px;}.cls-2{fill:#ffd638;}.cls-3{fill:#f0533b;}.cls-4{fill:#fcd0be;}.cls-5{fill:#ceb7ba;}</style></defs><title>cubep2assets</title><path id="Path_5251" data-name="Path 5251" class="cls-1" d="M707.7,145.74H562.34l-10-21.28,130.71-.54Z"/><path id="Path_5252" data-name="Path 5252" class="cls-1" d="M683.08,123.91l-130.71.54-6-12.81H669.24Z"/><path id="Path_5253" data-name="Path 5253" class="cls-1" d="M669.24,111.64H546.37l-6-12.86H654.75Z"/><path id="Path_5254" data-name="Path 5254" class="cls-1" d="M546.37,111.64H426.42l4.38-12.86H540.35Z"/><path id="Path_5255" data-name="Path 5255" class="cls-1" d="M421.88,125l-7.07,20.75H266.63l23-20.2Z"/><path id="Path_5256" data-name="Path 5256" class="cls-1" d="M426.42,111.64,421.87,125l-132.25.55,15.82-13.9Z"/><path id="Path_5257" data-name="Path 5257" class="cls-1" d="M430.8,98.78l-4.38,12.86h-121l14.63-12.86Z"/><path id="Path_5258" data-name="Path 5258" class="cls-2" d="M417.48,288.6H274.12l-1.61-30.75-1.09-20.71-4.79-91.4H414.81l1.65,88.1Z"/><path id="Path_5260" data-name="Path 5260" class="cls-3" d="M746.66,241.64l-5.9,116.89-65.49,26.73,1.94-96.66H702.7l1.22-34.9Z"/><path id="Path_5261" data-name="Path 5261" class="cls-3" d="M740.76,358.53l-5.6,110.88-62.25,32.82,2.35-117Z"/><path id="Path_5262" data-name="Path 5262" class="cls-3" d="M675.27,385.27l-2.36,117-78.49,41.39,2.1-126.19Z"/><path id="Path_5263" data-name="Path 5263" class="cls-3" d="M596.51,417.43l-2.09,126.19L505.89,590.3V454.43Z"/><path id="Path_5264" data-name="Path 5264" class="cls-4" d="M308.53,391.88,230.06,367l-5.89-119.87,48.34,10.71,1.61,30.75h32Z"/><path id="Path_5265" data-name="Path 5265" class="cls-4" d="M505.89,454.43V590.3L398.33,546.75l1-126.09Z"/><path id="Path_5266" data-name="Path 5266" class="cls-4" d="M399.37,420.66l-1,126.09-87-35.22-2.8-119.65Z"/><path id="Path_5267" data-name="Path 5267" class="cls-4" d="M311.33,511.53l-75.67-30.62L230.06,367l78.47,24.87Z"/><path id="Path_5268" data-name="Path 5268" class="cls-5" d="M272.51,257.85l-48.34-10.72,47.25-10Z"/><path id="Path_5269" data-name="Path 5269" class="cls-2" d="M707.7,145.74,704.65,233l-.73,20.75-1.22,34.9H558.59l1.47-56.14h0l2.27-86.72Z"/><path id="Path_5270" data-name="Path 5270" class="cls-5" d="M580.22,288.6l-74.33,21-94.63-21Z"/><path id="Path_5271" data-name="Path 5271" class="cls-5" d="M746.65,241.64,703.92,253.7l.72-20.75Z"/><path id="Path_5272" data-name="Path 5272" class="cls-2" d="M562.33,145.74l-2.27,86.72h0l-1.47,56.14H417.48l-1-54.76-1.65-88.1Z"/><path id="Path_5273" data-name="Path 5273" class="cls-1" d="M552.37,124.45,421.88,125l4.55-13.35H546.37Z"/><path id="Path_5274" data-name="Path 5274" class="cls-1" d="M562.33,145.74H414.81L421.88,125l130.49-.54Z"/><path id="Path_5275" data-name="Path 5275" class="cls-3" d="M677.21,288.6l-1.94,96.67-78.76,32.16,2.14-128.83Z"/><path id="Path_5276" data-name="Path 5276" class="cls-4" d="M400.45,288.6l-1.08,132.06-90.84-28.78-2.4-103.28Z"/><path id="Path_5277" data-name="Path 5277" class="cls-4" d="M505.89,309.57V454.43L399.37,420.66l1.08-132.06h10.81Z"/><path id="Path_5278" data-name="Path 5278" class="cls-3" d="M598.65,288.6l-2.14,128.83-90.62,37V309.57l74.32-21Z"/></svg>