<svg id="Layer_1" data-name="Layer 1" xmlns="http://www.w3.org/2000/svg" viewBox="0 0 669.76 544.88"><defs><style>.cls-1,.cls-23{fill:#fcd0be;}.cls-1,.cls-12,.cls-2,.cls-3,.cls-4,.cls-5,.cls-6,.cls-7{stroke:#fff;stroke-miterlimit:10;}.cls-1,.cls-4,.cls-5,.cls-6,.cls-7{stroke-width:3px;}.cls-2{fill:#47c98e;}.cls-12,.cls-2,.cls-3{stroke-width:4px;}.cls-3,.cls-4{fill:#f0533b;}.cls-5{fill:#f26649;}.cls-6{fill:none;}.cls-7{fill:#ceb7ba;}.cls-8{fill:#162b4c;}.cls-9{fill:#8893a5;}.cls-10{fill:#f7be97;}.cls-11{fill:#3d2559;}.cls-12,.cls-24{fill:#ffd638;}.cls-13{fill:#f7b229;}.cls-14{fill:#130b2e;}.cls-15{fill:#172b4d;}.cls-16{fill:#5e6c84;}.cls-17{fill:#d39871;}.cls-18{fill:#d91348;}.cls-19{fill:#e2a379;}.cls-20{fill:#d38e6c;}.cls-21{fill:#a7c3d3;}.cls-22{fill:#e2bdb0;}</style></defs><title>Artboard 1 copycube1</title><g id="Group_6125" data-name="Group 6125"><path id="Path_4670" data-name="Path 4670" class="cls-1" d="M255.46,443.45,185.6,405.32l-8.67-83.63L249.28,357Z"/><path id="Path_4671" data-name="Path 4671" class="cls-1" d="M249.28,357l-72.35-35.28-9.5-91.54,75,31.66Z"/><path id="Path_4672" data-name="Path 4672" class="cls-1" d="M242.45,261.81l-75-31.66L157,129.47l77.93,27.27Z"/><path id="Path_4673" data-name="Path 4673" class="cls-1" d="M332.14,485.27l-76.68-41.82L249.28,357l79.83,38.91Z"/><path id="Path_4674" data-name="Path 4674" class="cls-1" d="M418.92,439.65l-1.54,92.13-85.24-46.51-3-89.39Z"/><path id="Path_4675" data-name="Path 4675" class="cls-1" d="M329.11,395.88,249.28,357l-6.83-95.16,83.33,35.1Z"/><path id="Path_4676" data-name="Path 4676" class="cls-2" d="M313.19,124.78l-78.29,32L157,129.47,236.21,101Z"/><path id="Path_4677" data-name="Path 4677" class="cls-2" d="M383,96.27l-69.85,28.51-77-23.82,71.87-25.9,69.08,19.55Z"/><path id="Path_4678" data-name="Path 4678" class="cls-1" d="M325.78,296.92l-83.33-35.1L234.9,156.74,322,187.15Z"/><path id="Path_4679" data-name="Path 4679" class="cls-1" d="M422.54,222.31v.42l-1.9,113.45-.71.48-94.15-39.74L322,187.15h0Z"/><path id="Path_4680" data-name="Path 4680" class="cls-3" d="M548.47,340l-.77,11.76-5,72.94-55.12,47.1,2.91-87.2h0Z"/><path id="Path_4681" data-name="Path 4681" class="cls-3" d="M490.5,384.65l-2.91,87.2-70.21,59.93,1.54-92.13Z"/><path id="Path_4682" data-name="Path 4682" class="cls-1" d="M420.64,336.18l-1.72,103.47-89.81-43.77-3.33-99,94.15,39.74Z"/><path id="Path_4683" data-name="Path 4683" class="cls-4" d="M493.76,288.07l-3.2,95-.06,1.54h0l-71.58,55,1.72-103.47Z"/><path id="Path_4684" data-name="Path 4684" class="cls-3" d="M554.71,248,548.47,340l-58,44.61.06-1.54,3.2-95Z"/><path id="Path_4685" data-name="Path 4685" class="cls-3" d="M497.39,181.8l-3.63,106.27-73.12,48.11,1.9-113.45Z"/><path id="Path_4686" data-name="Path 4686" class="cls-5" d="M546.15,105.77l-45.5,23.64-18.29-5.17L431.93,44.77l60.41-22.93Z"/><path id="Path_4687" data-name="Path 4687" class="cls-5" d="M556.37,223.86l5.23-77.22-61-17.23,45.5-23.64L602.76,194Z"/><path id="Path_4688" data-name="Path 4688" class="cls-5" d="M658.18,280.46,608,322.34l-52.69-83,1.07-15.44L602.76,194Z"/><line id="Line_139" data-name="Line 139" class="cls-6" x1="489.37" y1="135.29" x2="487.35" y2="136.3"/><path id="Path_4689" data-name="Path 4689" class="cls-3" d="M561.6,146.64l-5.23,77.22L555.3,239.3l-.59,8.67-61,40.1,3.63-106.27,15.92-8.73Z"/><path id="Path_4690" data-name="Path 4690" class="cls-7" d="M608,322.34,547.7,351.8l.77-11.76L554.71,248l.59-8.67Z"/><path id="Path_4691" data-name="Path 4691" class="cls-2" d="M398.9,151.27,322,187.15h0L234.9,156.74l78.29-32Z"/><path id="Path_4692" data-name="Path 4692" class="cls-2" d="M466.44,119.79,398.9,151.27l-85.71-26.49L383,96.27Z"/><path id="Path_4693" data-name="Path 4693" class="cls-2" d="M422.54,222.73v-.42L322,187.15l76.86-35.88,98.49,30.53Z"/><path id="Path_4694" data-name="Path 4694" class="cls-2" d="M561.6,146.64l-48.3,26.43-15.91,8.73L398.9,151.27l67.54-31.48h0l15.92,4.46,18.29,5.16Z"/><path id="Path_4695" data-name="Path 4695" class="cls-7" d="M482.36,124.25l-15.91-4.46h0L383,96.27l-5.88-1.66,54.77-49.84Z"/></g><g id="Group_6151" data-name="Group 6151"><g id="_Clipping_Path_12" data-name=" Clipping Path 12"><g id="Group_6126" data-name="Group 6126"><path id="Path_4696" data-name="Path 4696" class="cls-8" d="M537.84,452.42c2.2-2.31,5.34-1,8.2-2.91a8.29,8.29,0,0,0,3.26-5.28l6.36-1.84.42,12.47-19.72.59A6.35,6.35,0,0,1,537.84,452.42Z"/></g></g><g id="Group_6128" data-name="Group 6128"><g id="Group_6127" data-name="Group 6127"><rect id="Rectangle_3157" data-name="Rectangle 3157" class="cls-9" x="536.26" y="453.71" width="20.43" height="1.37" transform="translate(-14.83 18.46) rotate(-1.91)"/></g></g><g id="_Clipping_Path_12-2" data-name=" Clipping Path 12"><g id="Group_6129" data-name="Group 6129"><path id="Path_4697" data-name="Path 4697" class="cls-8" d="M666.32,463.29c-3-1.18-3-4.57-5.77-6.47a8.5,8.5,0,0,0-6.11-1.07l-4-5.23,11.4-5,8,18.06A5.62,5.62,0,0,1,666.32,463.29Z"/></g></g><g id="Group_6131" data-name="Group 6131"><g id="Group_6130" data-name="Group 6130"><rect id="Rectangle_3158" data-name="Rectangle 3158" class="cls-9" x="664.28" y="444.29" width="1.37" height="20.43" transform="translate(-127.12 308.35) rotate(-23.9)"/></g></g><g id="Group_6133" data-name="Group 6133"><g id="Group_6132" data-name="Group 6132"><path id="Path_4698" data-name="Path 4698" class="cls-10" d="M541.88,356a13.34,13.34,0,0,0-2.62-5.17c-1.84-2.25-2.73-1.72-5.76-4.57-.3-.36-1.31-1.25-1.72-1s-.18.41-.18.59a10.38,10.38,0,0,0,2.73,4.34c-1.18-.65-2.43-1.25-3.74-1.9-1.6-.71-3.15-1.43-4.57-2a3.53,3.53,0,0,0-1.37-.12,1.6,1.6,0,0,0-.59.24c-.89.71,1.6,6.3,1.84,6.83.46.64,1,1.25,1.48,1.84a13.49,13.49,0,0,0,2.74,2.14,36.63,36.63,0,0,0,4.15,1.6,14.17,14.17,0,0,1,2,.95l.48.3,3.92,2.08Z"/></g></g><g id="Group_6135" data-name="Group 6135"><g id="Group_6134" data-name="Group 6134"><path id="Path_4699" data-name="Path 4699" class="cls-11" d="M584.88,393.44c-1,.66-41-1-43.54,0a9.4,9.4,0,0,0-5.11,8.5c0,5.1,13,43,13,43h6.48s2.73-20.91,1.72-30C557,410.84,580,414.46,589,416a5.68,5.68,0,0,0,5.59-2.31l6.41-9L592.55,398Z"/></g></g><g id="Group_6137" data-name="Group 6137"><g id="Group_6136" data-name="Group 6136"><path id="Path_4700" data-name="Path 4700" class="cls-11" d="M625.69,403s-5.17,23.82-16.52,39.62-22.63,7.36-22.63,2.85,0-19.78,6.77-33.38,9-15.86,13-15.26S623,400.15,625.69,403Z"/></g></g><g id="Group_6140" data-name="Group 6140"><g id="Group_6139" data-name="Group 6139"><g id="Group_6138" data-name="Group 6138"><path id="Path_4701" data-name="Path 4701" class="cls-12" d="M601.87,330.66s34,37.3,24.06,72.41c-5.47,19.18-32-.89-38.44-6.24-.83-.71-3-2.32-2.85-3.39.66-4.1,2.26-15.62,0-24.59-2.85-11.28-9-26-2.85-31.66s7.6-8.79,20.08-6.53"/></g></g></g><g id="Group_6142" data-name="Group 6142"><g id="Group_6141" data-name="Group 6141"><path id="Path_4702" data-name="Path 4702" class="cls-11" d="M654.14,447.73s-44.37-6.77-45-7.36-17.52,8.49-17.52,8.49l2.56,3.09,61.89,4.22Z"/></g></g><g id="Group_6145" data-name="Group 6145"><g id="Group_6144" data-name="Group 6144"><g id="Group_6143" data-name="Group 6143"><path id="Path_4703" data-name="Path 4703" class="cls-13" d="M584.88,339.68s-14.43,11.05-20.61,17.82c-6.06,6.6-9,20.38-7.9,20.38S576,370.93,583,363c0,0,7-2.85,9.27-10.22S590,339.68,584.88,339.68Z"/></g></g></g><g id="Group_6148" data-name="Group 6148"><g id="Group_6147" data-name="Group 6147"><g id="Group_6146" data-name="Group 6146"><path id="Path_4704" data-name="Path 4704" class="cls-13" d="M561.42,364.34l-18.36-8.8-6.77,5.11s16.4,19.78,20.91,17,5.11-10.75,5.11-10.75Z"/></g></g></g><g id="Group_6150" data-name="Group 6150"><g id="Group_6149" data-name="Group 6149"><path id="Path_4705" data-name="Path 4705" class="cls-10" d="M568.55,305.77s1.36,23,7.54,24.23,10.16,1.6,14-7.6S583.75,303,583.75,303Z"/></g></g><path id="Path_4706" data-name="Path 4706" class="cls-10" d="M584.11,330.12l.18.42a6.35,6.35,0,0,0,8.41,3.15l.14-.06h0a2.75,2.75,0,0,0,1.29-3.66,2.88,2.88,0,0,0-.22-.38l-2.79-4a2.71,2.71,0,0,0-3.76-.67l-.1.07-2.32,1.73A2.79,2.79,0,0,0,584.11,330.12Z"/><path id="Path_4707" data-name="Path 4707" class="cls-10" d="M568.55,305s-1.73,9.86,0,11.82-2.44,6.3-2.44,6.3h3.33l5.46,6.3,10-2.62,1.37-12.23Z"/><path id="Path_4708" data-name="Path 4708" class="cls-14" d="M575.91,311a6.64,6.64,0,0,0-6.95-.3c-1.48.83-3.21,1.3-4.45.35-2.68-2-2.26-8.31,1.18-8.79s13.43-2,17.17-1,5.82,3,8.79,7.6-.12,11.46,0,13.31a14.21,14.21,0,0,1-.83,4.33.88.88,0,0,1-1.1.6.83.83,0,0,1-.27-.12L586,324.59a.9.9,0,0,1-.36-.53,30.24,30.24,0,0,1-.65-3.39c-.24-1.84.24-4-.77-4.34C583.63,316.22,579.24,313.25,575.91,311Z"/><path id="Path_4709" data-name="Path 4709" class="cls-14" d="M587.79,324.9h0a5.33,5.33,0,0,1-5.35-5.3v-7h5.35Z"/></g><g id="Group_6198" data-name="Group 6198"><g id="Group_6169" data-name="Group 6169"><g id="Group_6168" data-name="Group 6168"><path id="Path_4715" data-name="Path 4715" class="cls-10" d="M346.63,376l10.63-1.67a3,3,0,0,1-2.2,2l-2.13.66-.24,2a2,2,0,0,1-.83,1.42,8.49,8.49,0,0,1-1.13.95,5.24,5.24,0,0,1-1.37,0l-1.07.48a1.22,1.22,0,0,1-1.66-.36.5.5,0,0,1-.12-.24L344.25,380s-1.24-1.55-.71-2.5c.24-.41.71-.65,1.72-1A4,4,0,0,1,346.63,376Z"/></g></g><g id="Group_6171" data-name="Group 6171"><g id="Group_6170" data-name="Group 6170"><path id="Path_4716" data-name="Path 4716" class="cls-15" d="M360.53,386l14.32,4.1a1.32,1.32,0,0,0,1.68-.81,1,1,0,0,0,0-.14h0l6.53-22.69a1.36,1.36,0,0,0-.89-1.71l-.06,0s-.11-.06-.23-.06l-15-1.72a1.43,1.43,0,0,0-1.55,1l-5.82,20.26a1.49,1.49,0,0,0,1,1.78Z"/></g></g><g id="Group_6173" data-name="Group 6173"><g id="Group_6172" data-name="Group 6172"><path id="Path_4717" data-name="Path 4717" class="cls-16" d="M361,384.59l5.82-20.26,15,1.73-6.54,22.69Z"/></g></g><g id="Group_6175" data-name="Group 6175"><g id="Group_6174" data-name="Group 6174"><path id="Path_4718" data-name="Path 4718" class="cls-10" d="M375.62,386.07V381.2a6.29,6.29,0,0,1,.71-2.91,7.9,7.9,0,0,0,.89-1.54c.48-1.13.48-2,.83-2.08s.66.89.72.95a4.07,4.07,0,0,1,0,2.08,9.8,9.8,0,0,0,0,3.74Z"/></g></g><g id="Group_6177" data-name="Group 6177"><g id="Group_6176" data-name="Group 6176"><path id="Path_4719" data-name="Path 4719" class="cls-10" d="M375.86,387.5a5.6,5.6,0,0,1,.65-5.76c.42-.66,1.31-1.07,2.38-2.44.35-.41.59-.83.77-1.06l.83-3.5c.71,1.59,1.25,2.85,1.54,3.74h0a18.76,18.76,0,0,1,.66,3.15v.77a2.56,2.56,0,0,1-.6,1.6,47.45,47.45,0,0,1-3.8,4.57h-.18A5.58,5.58,0,0,1,375.86,387.5Z"/></g></g><g id="Group_6179" data-name="Group 6179"><g id="Group_6178" data-name="Group 6178"><path id="Path_4720" data-name="Path 4720" class="cls-17" d="M310.46,362.73c.36,1.13-.83,2-.89,4.63a10.94,10.94,0,0,0,.89,4.34c-6.95,2.67-12.83,2.91-14.32.48a8.36,8.36,0,0,1-.47-4.64,10.51,10.51,0,0,1,1.07-5.4C299.53,358.16,309.57,359.64,310.46,362.73Z"/></g></g><g id="Group_6181" data-name="Group 6181"><g id="Group_6180" data-name="Group 6180"><path id="Path_4721" data-name="Path 4721" class="cls-18" d="M345.39,381.26a3.42,3.42,0,0,0,1.9-3.38,3.23,3.23,0,0,0-1.37-2l-26.73,2.37L293,372.89l-3.69,12.3a121.2,121.2,0,0,0,26.2,3.38S335.05,386.79,345.39,381.26Z"/></g></g><g id="Group_6184" data-name="Group 6184"><g id="Group_6183" data-name="Group 6183"><g id="Group_6182" data-name="Group 6182"><path id="Path_4722" data-name="Path 4722" class="cls-11" d="M288,415.3a18.14,18.14,0,0,1,1.13-2.55,17.2,17.2,0,0,1,1.84-2.86c.65,0,1.6.3,2.91.42a13.44,13.44,0,0,1,2.37.18c2.62.18,7.66.35,21.68.47a27.49,27.49,0,0,1,2.32,2.85,26.26,26.26,0,0,1,4.34,10.52c5.52,30.11,5.76,41.52,5.76,41.52s.71,21,.89,43.71a5.62,5.62,0,0,1-1.37,2,6.8,6.8,0,0,1-4.81,1.73,10.48,10.48,0,0,1-5.82-1.55,83.42,83.42,0,0,1-3.8-12.47,57.18,57.18,0,0,1-1.84-13A48.1,48.1,0,0,1,315,473.81,108.6,108.6,0,0,0,300.78,445q-.9,17.37-2,35.1c-.54,8.61-1.13,17.11-1.73,25.6a8,8,0,0,1-5.52,1.72,8.15,8.15,0,0,1-4.28-1.66A79.84,79.84,0,0,1,286.1,473c-.3-3.86-.65-7.84-1.07-11.88-.35-3.56-.77-7-1.24-10.33-.72-5.05-1.49-17.29,1.3-27.57C285.75,421.18,287.29,417,288,415.3Z"/></g></g></g><g id="Group_6186" data-name="Group 6186"><g id="Group_6185" data-name="Group 6185"><path id="Path_4723" data-name="Path 4723" class="cls-15" d="M331.37,507a33.55,33.55,0,0,1-13.72,2c1.48,5.11,2.79,9.39,3.68,12a61.81,61.81,0,0,1,3.74,15.62v2.86h6.24l1-.95,1.66.89H349.9c1,0,1.66-.84,1.37-1.55L345,536.12a16.13,16.13,0,0,1-7.43-4.4,19,19,0,0,1-4.27-7.78,23.84,23.84,0,0,1-1.07-4.93c-.3-2-.3-3.15-.48-6.06C331.66,510.45,331.49,508.44,331.37,507Z"/></g></g><g id="Group_6188" data-name="Group 6188"><g id="Group_6187" data-name="Group 6187"><path id="Path_4724" data-name="Path 4724" class="cls-15" d="M291,504a41.6,41.6,0,0,1-5.47-.3c.54,4.4,1.13,7.9,1.6,10.28a64.88,64.88,0,0,1,1.66,14,24,24,0,0,1-.17,4,11.13,11.13,0,0,0,2.43.48,16.56,16.56,0,0,0,4.87,0l.54-1.31,2.2,1.13,12-.53a2,2,0,0,0,.35-1.13,2.29,2.29,0,0,0-2.31-1.67,11.32,11.32,0,0,1-6.42-3.14c-2.79-2.74-3.15-6.78-4-14.62-.3-3.14-.41-5.88-.47-7.78A51.28,51.28,0,0,1,291,504Z"/></g></g><g id="Group_6191" data-name="Group 6191"><g id="Group_6190" data-name="Group 6190"><g id="Group_6189" data-name="Group 6189"><path id="Path_4725" data-name="Path 4725" class="cls-18" d="M285,382.57a8.93,8.93,0,0,1,5.34-10.51h0a47,47,0,0,1,35.23,1.84,53.26,53.26,0,0,1,12.47,9,65.9,65.9,0,0,1,9.38,10.57c4.7-1.13,9.86-2.61,15.27-4.46,4.4-1.54,8.49-3.14,12.24-4.81a43.65,43.65,0,0,1,3.14,3.8l1.73,2.26c-3.39,2.44-6.24,4.34-8.14,5.58-15.33,10-21.86,11.11-26.43,10.81a8.15,8.15,0,0,1-2.73-.41c-3.5-2.38-7.13-5-10.82-8s-9.38-7.72-9.38-5.7a19.29,19.29,0,0,1-2.2,6.24c-1.19,3.38,3.15,18,4.4,22.45a35.26,35.26,0,0,1-16.87,7.66,35.75,35.75,0,0,1-24.29-5.46l4.33-10.63a75.34,75.34,0,0,0,.54-10.4,77.88,77.88,0,0,0-1.43-12.83C286.34,387.62,285.81,385.12,285,382.57Z"/></g></g></g><g id="Group_6193" data-name="Group 6193"><g id="Group_6192" data-name="Group 6192"><path id="Path_4726" data-name="Path 4726" class="cls-19" d="M306.89,344a32.08,32.08,0,0,1,5.11,8c0,.36.18.54.89.95s1.73.54,1.55,1.13-1.31,1.31-1.43,1.72l1.07,7.67-3.15,1.24-10.39,4c0-.41,3.92-10.81,3.92-11.4s0-1.84.53-2.14a37.52,37.52,0,0,0,2.14-7.18,3.27,3.27,0,0,0,0-2.14A5.27,5.27,0,0,0,306.89,344Z"/></g></g><g id="Group_6195" data-name="Group 6195"><g id="Group_6194" data-name="Group 6194"><path id="Path_4727" data-name="Path 4727" class="cls-14" d="M289.67,363.68a10.42,10.42,0,0,0,7.66,3.8,8.92,8.92,0,0,0,8.49-6.83,22.14,22.14,0,0,1-.35-4.81c.18-1.19.59-2.85,1.25-2.91s1.12,1.66,1.54,1.54.42-2,.42-3.15c0-4.69,1-4.93.59-6.83a9.36,9.36,0,0,0-5.11-5.7,12.24,12.24,0,0,0-10.57.78,16,16,0,0,0-7.6,16.51A13.15,13.15,0,0,0,289.67,363.68Z"/></g></g><g id="Group_6197" data-name="Group 6197"><g id="Group_6196" data-name="Group 6196"><path id="Path_4728" data-name="Path 4728" class="cls-14" d="M281.53,351.57a6.35,6.35,0,0,0,4.63,2.25,5.39,5.39,0,0,0,5.11-4,12.35,12.35,0,0,1-.18-2.85c0-.71.36-1.72.78-1.72s.65,1,.95,1,.23-1.13.23-1.78c0-2.79.6-3,.36-4a5.59,5.59,0,0,0-3.15-3.39,7.4,7.4,0,0,0-6.23.48,9.61,9.61,0,0,0-4.52,9.92A7.6,7.6,0,0,0,281.53,351.57Z"/></g></g></g><g id="Group_6213" data-name="Group 6213"><g id="Group_6199" data-name="Group 6199"><path id="Path_4729" data-name="Path 4729" class="cls-20" d="M133.34,297.36a19.76,19.76,0,0,0,6.52,2.88,46.82,46.82,0,0,0,7,.41c3.64.1,5.48,0,6.46-1.29a1,1,0,0,0,.12-.79c-.21-1.35-5.25-.16-6.84-2.37a3.59,3.59,0,0,1-.32-2.9,45.78,45.78,0,0,1,2.49-6.07,12.41,12.41,0,0,0,2.31-7.07,6.65,6.65,0,0,0-.48-1.76c-.09-1.24-.73-2.75-1.16-2.9s-1.24.09-3.82,4.08a50.48,50.48,0,0,1-6,9.24,12.51,12.51,0,0,1-4.51,2.7Z"/></g><g id="Group_6200" data-name="Group 6200"><path id="Path_4730" data-name="Path 4730" class="cls-15" d="M83.43,461.47a39.29,39.29,0,0,0,3.91,13.31,34.62,34.62,0,0,0,14.09,15.75,31.58,31.58,0,0,0,12.79,4l-.23,1.8-23.15,2a3.21,3.21,0,0,0-4.07-1.86,3,3,0,0,0-1.2,2.35l-5.79-.07c-.75-2.33-1.58-4.71-2.46-7.1-3.49-9.88-7.25-19.27-11.11-28.41Z"/></g><g id="Group_6201" data-name="Group 6201"><path id="Path_4731" data-name="Path 4731" class="cls-15" d="M37.8,459.84a40.77,40.77,0,0,0-11.22,8.24,34.37,34.37,0,0,0-9.95,18.63,31.72,31.72,0,0,0,.64,13.36l-1.76.42L5.75,479.43A3.2,3.2,0,0,0,6.1,475a3,3,0,0,0-2.59-.35l-1.87-5.47c1.92-1.51,3.89-3.13,5.81-4.7,8.05-6.64,15.62-13.36,22.89-20.13Z"/></g><g id="Group_6202" data-name="Group 6202"><path id="Path_4732" data-name="Path 4732" class="cls-21" d="M65,296.92s55.32,2.25,72.16-6.55c1.2-.62.54,9.49.54,9.49S103.87,313.78,92.45,314s-26.42,2.15-26.19.29S65,296.92,65,296.92Z"/></g><g id="Group_6203" data-name="Group 6203"><path id="Path_4733" data-name="Path 4733" class="cls-22" d="M35.53,359.57s4.86,40.4,2.83,57.28-17.67,21.5-15.78,31.49c2.09,11.17,12.75,18.71,17.79,16.74S55.43,454.62,56.72,451s5.57-72.59,5.57-72.59-11.78-18.59-19.24-18.73Z"/></g><g id="Group_6204" data-name="Group 6204"><path id="Path_4734" data-name="Path 4734" class="cls-23" d="M76.28,376.49S85,398.16,87.13,421.66s9.77,35.71,4.94,43.2c-5.11,7.92-26.21,14.58-31.62,8.77s-13.54-41.88-15.86-62.27c-2.45-21.34-14.11-52.45-1.25-48.29S76.28,376.49,76.28,376.49Z"/></g><g id="Group_6205" data-name="Group 6205"><path id="Path_4735" data-name="Path 4735" class="cls-20" d="M80,257.74c.83.71,4.56,15-.66,22.8s-16.47,3.06-18.56,1.24-2.25-19.32.24-20.33S80,257.74,80,257.74Z"/></g><g id="Group_6206" data-name="Group 6206"><path id="Path_4736" data-name="Path 4736" class="cls-11" d="M67.48,287.63a26.37,26.37,0,0,0-25.84,24c-1.06,12-3,29.64-5.49,37.14-4,11.84-3.37,14-2.83,15.69s43.92,21.58,46,14.4S81.6,330.07,83,327.59a45.73,45.73,0,0,1,1.62-4.88c1.93-4.72.63-4.51-1.17-12.31-1.87-8,1.23-12.3-4.3-12.09C77.17,298.38,71.83,287.56,67.48,287.63Z"/></g><g id="Group_6207" data-name="Group 6207"><path id="Path_4737" data-name="Path 4737" class="cls-21" d="M71.62,301.63s2.7,26.62,0,32.05-11.25,6.09-13.71.78-4.19-31.75-.5-35.16,11.17-4.66,13.69.64"/></g><g id="Group_6208" data-name="Group 6208"><path id="Path_4738" data-name="Path 4738" class="cls-14" d="M77.87,260.81s3.22-.83,4-3.74-4-10.63-10.86-8.77-16.2-.83-20.23,5.41-4,16-3.28,17.75,5.82,10.91,7.35,12.29-1-15.48,3.88-18.56S75,260,77.87,260.81Z"/></g><g id="Group_6209" data-name="Group 6209"><path id="Path_4739" data-name="Path 4739" class="cls-21" d="M102.54,327.11c-.88.24-41.56,4.58-46.11,1.68,0,0,2.1,12.07,7,14.41s40-7.46,39.77-9.7S102.54,327.11,102.54,327.11Z"/></g><g id="Group_6210" data-name="Group 6210"><path id="Path_4740" data-name="Path 4740" class="cls-24" d="M113.1,357.1a2.05,2.05,0,0,0,1.93-2.19v0l-2.7-46.21a2.06,2.06,0,0,0-2.2-1.93h0a2,2,0,0,0-1.94,2.06.92.92,0,0,0,0,.16l2.7,46.21a2.08,2.08,0,0,0,2.2,1.94Z"/></g><g id="Group_6211" data-name="Group 6211"><path id="Path_4741" data-name="Path 4741" class="cls-20" d="M118.77,325l-6.37-1.63,5.3,10.94,1.91-.73a4.22,4.22,0,0,0,1.28-5.84c-.07-.1-.14-.21-.22-.31a4.23,4.23,0,0,0-.51-.44,1.38,1.38,0,0,0-1.39-2Z"/></g><g id="Group_6212" data-name="Group 6212"><path id="Path_4742" data-name="Path 4742" class="cls-20" d="M104.25,326.81a26.18,26.18,0,0,1,8.21-3.5l5.3,10.95a7.64,7.64,0,0,1-2,0,23.19,23.19,0,0,0-2.5-.07,14.49,14.49,0,0,1-6.41.45,14.1,14.1,0,0,1-4.14-1.37l-1.55-5.91Z"/></g><path id="Path_4743" data-name="Path 4743" class="cls-20" d="M63.83,280.55l-3.39,11.14,8.87.81.93-11.44Z"/><path id="Path_4744" data-name="Path 4744" class="cls-20" d="M80.39,266.05A14.21,14.21,0,0,0,84,273.42c3.3,3.76-3.81,1.64-3.81,1.64Z"/><circle id="Ellipse_461" data-name="Ellipse 461" class="cls-14" cx="52.41" cy="263.01" r="8.79"/><circle id="Ellipse_462" data-name="Ellipse 462" class="cls-14" cx="54.07" cy="251.81" r="8.79"/><circle id="Ellipse_463" data-name="Ellipse 463" class="cls-14" cx="62.9" cy="251.19" r="8.79"/><circle id="Ellipse_464" data-name="Ellipse 464" class="cls-14" cx="75.34" cy="246.8" r="8.79"/><circle id="Ellipse_465" data-name="Ellipse 465" class="cls-14" cx="59.36" cy="264.43" r="8.79"/><circle id="Ellipse_466" data-name="Ellipse 466" class="cls-14" cx="49.67" cy="273.15" r="11.35"/><circle id="Ellipse_467" data-name="Ellipse 467" class="cls-14" cx="56.96" cy="279.49" r="8.79"/></g></svg>