<svg id="Layer_1" data-name="Layer 1" xmlns="http://www.w3.org/2000/svg" viewBox="0 0 700.83 599.46"><defs><style>.cls-1{fill:#eef3f8;}.cls-2{fill:#9bb6ce;}.cls-3{fill:#d0ddee;}.cls-4{fill:#abc2db;}.cls-5{opacity:0.63;}.cls-10,.cls-6{fill:none;}.cls-7{fill:#47c98e;}.cls-10,.cls-7,.cls-8,.cls-9{stroke:#fff;stroke-miterlimit:10;stroke-width:2.24px;}.cls-8{fill:#fcd0be;}.cls-9{fill:#ffd638;}</style></defs><title>cubeserviceassets</title><g id="Group_6414" data-name="Group 6414"><path id="Path_5063" data-name="Path 5063" class="cls-1" d="M699.61,547.28l-94-133.44H101.52l-94,133.44Z"/><path id="Path_5064" data-name="Path 5064" class="cls-2" d="M700.61,546.57l-1-1.42-1.22-1.74L607.46,414.27l-.8-1.13a1.27,1.27,0,0,0-.42-.38,1.3,1.3,0,0,0-.58-.14H101.48a1.21,1.21,0,0,0-1,.52l-92.95,132-1,1.42a1.23,1.23,0,0,0-.08,1.27,1.22,1.22,0,0,0,1.09.66h692l.27,0,.09,0a1,1,0,0,0,.21-.08,1.19,1.19,0,0,0,.6-.72.27.27,0,0,0,0-.12,1,1,0,0,0,0-.25A1.2,1.2,0,0,0,700.61,546.57ZM9.92,546.05l91.56-130,.67-1H605l1.21,1.72,91,129.27Z"/></g><g id="Group_6415" data-name="Group 6415"><path id="Path_5065" data-name="Path 5065" class="cls-2" d="M392.66,488.28H319.53a.92.92,0,0,1-.92-.92.73.73,0,0,1,0-.25l9.93-35.52a.91.91,0,0,1,.89-.67h53.25a.91.91,0,0,1,.89.67l9.93,35.52a.9.9,0,0,1-.63,1.13.73.73,0,0,1-.25,0Zm-71.92-1.84h70.71L382,452.75H330.16Z"/></g><g id="Group_6418" data-name="Group 6418"><g id="Group_6416" data-name="Group 6416"><path id="Path_5066" data-name="Path 5066" class="cls-2" d="M336.44,479.44a1.32,1.32,0,0,1-1.32-1.32,1.24,1.24,0,0,1,0-.27l3.54-17a1.34,1.34,0,0,1,1.29-1.06h32a1.34,1.34,0,0,1,1.29,1.05l3.69,17a1.31,1.31,0,0,1-1,1.57,1.27,1.27,0,0,1-.28,0Z"/></g><g id="Group_6417" data-name="Group 6417"><path id="Path_5067" data-name="Path 5067" class="cls-3" d="M372,461a.1.1,0,0,1,.1.07l3.69,17.05a.1.1,0,0,1-.08.12h-39.3a.11.11,0,0,1-.1-.1v0l3.55-17.05A.1.1,0,0,1,340,461h32m0-2.45H340a2.54,2.54,0,0,0-2.48,2l-3.55,17a2.55,2.55,0,0,0,2,3,3.15,3.15,0,0,0,.52.05h39.28a2.55,2.55,0,0,0,2.55-2.54,2.48,2.48,0,0,0-.06-.54l-3.69-17a2.55,2.55,0,0,0-2.49-2Z"/></g></g><g id="Group_6419" data-name="Group 6419"><path id="Path_5068" data-name="Path 5068" class="cls-2" d="M321.25,466.57,249.91,437.5h-165v-1.83H250.09a.84.84,0,0,1,.35.07l71.5,29.13Z"/></g><g id="Group_6420" data-name="Group 6420"><path id="Path_5069" data-name="Path 5069" class="cls-2" d="M319.62,472.4l-73.14-29.52H81.16V441h165.5a.83.83,0,0,1,.34.07l73.31,29.59Z"/></g><g id="Group_6421" data-name="Group 6421"><path id="Path_5070" data-name="Path 5070" class="cls-2" d="M317.61,479.57l-75.3-30.94H77.11v-1.84H242.49a1,1,0,0,1,.35.07l75.47,31Z"/></g><g id="Group_6422" data-name="Group 6422"><path id="Path_5071" data-name="Path 5071" class="cls-2" d="M488.72,456.42H454.17v-1.83H488.4l37.1-28.94a.89.89,0,0,1,.56-.2h87.65v1.84H526.38l-37.1,28.94A1,1,0,0,1,488.72,456.42Z"/></g><g id="Group_6423" data-name="Group 6423"><path id="Path_5072" data-name="Path 5072" class="cls-2" d="M489.52,463.15h-33v-1.83h32.69L528,431.18a.83.83,0,0,1,.56-.19H618.2v1.83H528.88L490.09,463A.85.85,0,0,1,489.52,463.15Z"/></g><g id="Group_6424" data-name="Group 6424"><path id="Path_5073" data-name="Path 5073" class="cls-2" d="M490.61,469.42H458.23v-1.84h32.06l39.17-30.81a.89.89,0,0,1,.56-.2h91.52v1.84h-91.2l-39.16,30.81A1,1,0,0,1,490.61,469.42Z"/></g><g id="Group_6425" data-name="Group 6425"><circle id="Ellipse_496" data-name="Ellipse 496" class="cls-2" cx="454.17" cy="455.5" r="2.5"/></g><g id="Group_6426" data-name="Group 6426"><circle id="Ellipse_497" data-name="Ellipse 497" class="cls-2" cx="320.58" cy="464.99" r="2.5"/></g><g id="Group_6427" data-name="Group 6427"><circle id="Ellipse_498" data-name="Ellipse 498" class="cls-2" cx="319.1" cy="471.55" r="2.5"/></g><g id="Group_6428" data-name="Group 6428"><circle id="Ellipse_499" data-name="Ellipse 499" class="cls-2" cx="316.78" cy="478.34" r="2.5"/></g><g id="Group_6429" data-name="Group 6429"><circle id="Ellipse_500" data-name="Ellipse 500" class="cls-2" cx="456.51" cy="462.24" r="2.5"/></g><g id="Group_6430" data-name="Group 6430"><circle id="Ellipse_501" data-name="Ellipse 501" class="cls-2" cx="458.23" cy="468.5" r="2.5"/></g><g id="Group_6431" data-name="Group 6431"><circle id="Ellipse_502" data-name="Ellipse 502" class="cls-2" cx="572.52" cy="468.5" r="2.5"/></g><g id="Group_6432" data-name="Group 6432"><circle id="Ellipse_503" data-name="Ellipse 503" class="cls-2" cx="568.59" cy="474.49" r="2.5"/></g><g id="Group_6438" data-name="Group 6438"><path id="Path_5077" data-name="Path 5077" class="cls-2" d="M492.61,501.49H97.22v-1.83H492.3l41.08-31.88a.89.89,0,0,1,.56-.2h38.58v1.84H534.26L493.18,501.3A1,1,0,0,1,492.61,501.49Z"/></g><g id="Group_6439" data-name="Group 6439"><path id="Path_5078" data-name="Path 5078" class="cls-2" d="M496,507.48H94v-1.83H495.72l41.07-31.88a.89.89,0,0,1,.56-.2h31.24v1.84H537.67L496.6,507.29A1,1,0,0,1,496,507.48Z"/></g><g id="Group_6440" data-name="Group 6440"><rect id="Rectangle_3198" data-name="Rectangle 3198" class="cls-4" x="318.08" y="440.93" width="72.15" height="3.08"/></g><g id="Group_6441" data-name="Group 6441"><path id="Path_5079" data-name="Path 5079" class="cls-3" d="M318.06,440.93l2.34-4.34h67.5l2.34,4.34"/></g><g id="Group_6444" data-name="Group 6444"><path id="Path_5082" data-name="Path 5082" class="cls-3" d="M321.14,434.48l2.34-4.35H385l2.34,4.35"/></g><g id="Group_6446" data-name="Group 6446"><rect id="Rectangle_3199" data-name="Rectangle 3199" class="cls-4" x="321.14" y="434.52" width="66.09" height="2.07"/></g><g id="Group_6447" data-name="Group 6447"><circle id="Ellipse_504" data-name="Ellipse 504" class="cls-2" cx="416.86" cy="444.64" r="2.5"/></g><g id="Group_6448" data-name="Group 6448"><circle id="Ellipse_505" data-name="Ellipse 505" class="cls-2" cx="427.48" cy="453.86" r="2.5"/></g><g id="Group_6449" data-name="Group 6449"><circle id="Ellipse_506" data-name="Ellipse 506" class="cls-2" cx="422.25" cy="449.48" r="2.5"/></g><g id="Group_6450" data-name="Group 6450"><rect id="Rectangle_3200" data-name="Rectangle 3200" class="cls-2" x="415.94" y="413.84" width="1.83" height="30.8"/></g><g id="Group_6451" data-name="Group 6451"><rect id="Rectangle_3201" data-name="Rectangle 3201" class="cls-2" x="421.33" y="413.84" width="1.83" height="35.64"/></g><g id="Group_6452" data-name="Group 6452"><rect id="Rectangle_3202" data-name="Rectangle 3202" class="cls-2" x="426.57" y="413.84" width="1.83" height="40.02"/></g><g id="Group_6453" data-name="Group 6453"><circle id="Ellipse_507" data-name="Ellipse 507" class="cls-2" cx="156.65" cy="472.19" r="2.5"/></g><g id="Group_6454" data-name="Group 6454"><circle id="Ellipse_508" data-name="Ellipse 508" class="cls-2" cx="147.86" cy="482.82" r="2.5"/></g><g id="Group_6455" data-name="Group 6455"><circle id="Ellipse_509" data-name="Ellipse 509" class="cls-2" cx="152.47" cy="477.42" r="2.5"/></g><g id="Group_6456" data-name="Group 6456"><rect id="Rectangle_3203" data-name="Rectangle 3203" class="cls-2" x="110.39" y="481.9" width="37.47" height="1.83"/></g><g id="Group_6457" data-name="Group 6457" class="cls-5"><rect id="Rectangle_3204" data-name="Rectangle 3204" class="cls-2" x="114.08" y="476.51" width="38.4" height="1.83"/></g><g id="Group_6458" data-name="Group 6458" class="cls-5"><rect id="Rectangle_3205" data-name="Rectangle 3205" class="cls-2" x="117.34" y="471.27" width="39.31" height="1.83"/></g><g id="Group_6470" data-name="Group 6470"><path id="Path_5094" data-name="Path 5094" class="cls-1" d="M699.61,133.44,632.89,66.73H74.28L7.56,133.44Z"/><path id="Path_5095" data-name="Path 5095" class="cls-2" d="M700.81,133.21h0a.57.57,0,0,0-.07-.22,2,2,0,0,0-.1-.21h0a1.19,1.19,0,0,0-.15-.18l-.08-.08L633.76,65.86a1.23,1.23,0,0,0-.87-.36H74.28a1.22,1.22,0,0,0-.86.36L6.7,132.58a1.23,1.23,0,0,0,.87,2.09h692a1.22,1.22,0,0,0,1.13-.76,1.4,1.4,0,0,0,.1-.47A.85.85,0,0,0,700.81,133.21Zm-690.3-1L74.79,68h557.6l64.26,64.27Z"/></g><g id="Group_6474" data-name="Group 6474"><path id="Path_5099" data-name="Path 5099" class="cls-3" d="M156.41,124l31-50.35h13.21L176.7,124Z"/></g><g id="Group_6475" data-name="Group 6475"><rect id="Rectangle_3206" data-name="Rectangle 3206" class="cls-3" x="338.2" y="73.61" width="20.29" height="50.36"/></g><g id="Group_6476" data-name="Group 6476"><path id="Path_5100" data-name="Path 5100" class="cls-3" d="M489.07,124,476.94,73.62h17.62L509.36,124Z"/></g><g id="Group_6477" data-name="Group 6477"><path id="Path_5101" data-name="Path 5101" class="cls-3" d="M208.54,124H188.25L202,93.38h17.53Z"/></g><g id="Group_6478" data-name="Group 6478"><path id="Path_5102" data-name="Path 5102" class="cls-3" d="M326,124H305.75l2.36-30.59h18.1Z"/></g><g id="Group_6479" data-name="Group 6479"><path id="Path_5103" data-name="Path 5103" class="cls-3" d="M476.94,124H456.66l-4.45-30.59H470.4Z"/></g><g id="Group_6483" data-name="Group 6483"><path id="Path_5107" data-name="Path 5107" class="cls-3" d="M221.54,124h45L272,97.65H230.59Z"/></g><g id="Group_6484" data-name="Group 6484"><path id="Path_5108" data-name="Path 5108" class="cls-3" d="M370.4,124h45l-2.8-26.32H369.91Z"/></g><g id="Group_6485" data-name="Group 6485"><path id="Path_5109" data-name="Path 5109" class="cls-3" d="M233.09,90h40.38l3.45-17.38h-37.4Z"/></g><g id="Group_6486" data-name="Group 6486"><path id="Path_5110" data-name="Path 5110" class="cls-3" d="M522.59,124h45L553.45,97.65H513.39Z"/></g><g id="Group_6489" data-name="Group 6489"><path id="Path_5113" data-name="Path 5113" class="cls-3" d="M369.91,90h42.14l-1.67-16.34H369.57Z"/></g><g id="Group_6490" data-name="Group 6490"><line id="Line_144" data-name="Line 144" class="cls-6" x1="283.48" y1="123.97" x2="290.42" y2="73.33"/><path id="Path_5114" data-name="Path 5114" class="cls-3" d="M283.48,125.2l-.17,0a1.22,1.22,0,0,1-1.05-1.37l6.95-50.64a1.22,1.22,0,0,1,2.42.33l-6.95,50.64A1.23,1.23,0,0,1,283.48,125.2Z"/></g><g id="Group_6491" data-name="Group 6491"><line id="Line_145" data-name="Line 145" class="cls-6" x1="429.52" y1="123.97" x2="423.98" y2="74.31"/><path id="Path_5115" data-name="Path 5115" class="cls-3" d="M429.52,125.2a1.23,1.23,0,0,1-1.22-1.09l-5.54-49.67a1.22,1.22,0,0,1,2.43-.27l5.54,49.67a1.22,1.22,0,0,1-1.08,1.35h-.13Z"/></g><g id="Group_6492" data-name="Group 6492"><line id="Line_146" data-name="Line 146" class="cls-6" x1="441.25" y1="123.97" x2="437.12" y2="89.95"/><path id="Path_5116" data-name="Path 5116" class="cls-3" d="M441.25,125.19a1.23,1.23,0,0,1-1.21-1.07l-4.13-34a1.22,1.22,0,0,1,2.43-.3l4.13,34a1.22,1.22,0,0,1-1.07,1.36Z"/></g><g id="Group_6493" data-name="Group 6493"><line id="Line_147" data-name="Line 147" class="cls-6" x1="581.6" y1="123.97" x2="556.85" y2="74.31"/><path id="Path_5117" data-name="Path 5117" class="cls-3" d="M581.6,125.2a1.25,1.25,0,0,1-1.1-.68L555.75,74.85a1.22,1.22,0,0,1,2.19-1.09l24.75,49.67a1.23,1.23,0,0,1-.55,1.64,1.47,1.47,0,0,1-.54.13Z"/></g><g id="Group_6494" data-name="Group 6494"><line id="Line_148" data-name="Line 148" class="cls-6" x1="593.34" y1="123.97" x2="575.66" y2="89.95"/><path id="Path_5118" data-name="Path 5118" class="cls-3" d="M593.34,125.19a1.23,1.23,0,0,1-1.09-.65l-17.68-34a1.22,1.22,0,0,1,2.17-1.13l17.68,34a1.22,1.22,0,0,1-.52,1.65,1.24,1.24,0,0,1-.56.13Z"/></g><g id="Group_6495" data-name="Group 6495"><line id="Line_149" data-name="Line 149" class="cls-6" x1="295.41" y1="123.97" x2="298.33" y2="93.38"/><path id="Path_5119" data-name="Path 5119" class="cls-3" d="M295.42,125.19h-.12a1.22,1.22,0,0,1-1.1-1.33l2.91-30.59a1.23,1.23,0,0,1,2.44.23l-2.92,30.59A1.22,1.22,0,0,1,295.42,125.19Z"/></g><g id="Group_6624" data-name="Group 6624"><path id="Path_5173" data-name="Path 5173" class="cls-7" d="M380.63,204.81l-26.07,6.62-28.05-7,26-6Z"/><path id="Path_5174" data-name="Path 5174" class="cls-7" d="M410,211.44l-25.59,7.38h0l-29.83-7.4,26.07-6.61Z"/><path id="Path_5175" data-name="Path 5175" class="cls-7" d="M445.42,219.45,420,227.65h0l-35.57-8.82L410,211.45Z"/><path id="Path_5176" data-name="Path 5176" class="cls-7" d="M420,227.65l-30.47,9.81-35.4-9.89,30.31-8.75h0Z"/><path id="Path_5177" data-name="Path 5177" class="cls-7" d="M354.56,211.42,324,219.17l-27.66-7.73,30.15-7Z"/><path id="Path_5178" data-name="Path 5178" class="cls-7" d="M324,219.17,289.25,228l-27.5-8.54,34.61-8Z"/><path id="Path_5179" data-name="Path 5179" class="cls-7" d="M354.07,227.57l-34.31,9.9h0L289.25,228,324,219.17Z"/><path id="Path_5180" data-name="Path 5180" class="cls-8" d="M445.42,219.45l-2.93,41.49-24.92,10.44,2.4-43.73Z"/><path id="Path_5181" data-name="Path 5181" class="cls-8" d="M442.49,260.94l-2.7,38.24h0l-24.43,12.3,2.2-40.11Z"/><path id="Path_5182" data-name="Path 5182" class="cls-8" d="M387.15,325.69l-1,38.19h0L355.24,382.3V341.77Z"/><path id="Path_5183" data-name="Path 5183" class="cls-8" d="M415.37,311.49l-2,36.18-27.23,16.22,1-38.2Z"/><path id="Path_5184" data-name="Path 5184" class="cls-8" d="M439.8,299.18l-2.41,34.19-24,14.3,2-36.19Z"/><path id="Path_5185" data-name="Path 5185" class="cls-9" d="M355.23,341.77v40.54l-32.94-18.42-.77-38.47Z"/><path id="Path_5186" data-name="Path 5186" class="cls-9" d="M322.29,363.89l-27.14-15.17-1.81-37,28.18,13.67Z"/><path id="Path_5187" data-name="Path 5187" class="cls-9" d="M295.15,348.72,270,334.65l-5.26-73.71,26.68,10.77,1.95,40Z"/><path id="Path_5188" data-name="Path 5188" class="cls-9" d="M291.39,271.7l-26.68-10.76-3-41.49,27.5,8.54Z"/><path id="Path_5189" data-name="Path 5189" class="cls-7" d="M389.48,237.46l-34.25,11-35.47-11,34.31-9.9Z"/><path id="Path_5190" data-name="Path 5190" class="cls-8" d="M389.48,237.46l-1.22,46.18-33,13.82v-49Z"/><path id="Path_5191" data-name="Path 5191" class="cls-8" d="M420,227.65l-2.4,43.73-29.3,12.27,1.22-46.19L420,227.65Z"/><path id="Path_5192" data-name="Path 5192" class="cls-7" d="M384.38,218.82l-30.31,8.75L324,219.17l30.54-7.75Z"/><path id="Path_5193" data-name="Path 5193" class="cls-9" d="M355.23,297.46v44.3l-33.71-16.35-.84-41.89Z"/><path id="Path_5194" data-name="Path 5194" class="cls-9" d="M355.23,248.48v49l-34.55-13.94-.92-46.06h0Z"/><path id="Path_5195" data-name="Path 5195" class="cls-9" d="M320.68,283.52l-29.29-11.81L289.25,228l30.51,9.47Z"/><path id="Path_5196" data-name="Path 5196" class="cls-9" d="M321.52,325.41l-28.18-13.67-1.95-40,29.29,11.82Z"/><line id="Line_150" data-name="Line 150" class="cls-10" x1="442.5" y1="260.94" x2="442.49" y2="260.94"/><line id="Line_151" data-name="Line 151" class="cls-10" x1="439.8" y1="299.18" x2="439.8" y2="299.18"/><path id="Path_5197" data-name="Path 5197" class="cls-8" d="M417.57,271.38l-2.2,40.11-28.21,14.2,1.1-42.05Z"/><path id="Path_5198" data-name="Path 5198" class="cls-8" d="M388.26,283.64l-1.11,42.05-31.92,16.08v-44.3Z"/><line id="Line_152" data-name="Line 152" class="cls-10" x1="293.34" y1="311.74" x2="267.45" y2="299.18"/></g></svg>