<svg id="Layer_1" data-name="Layer 1" xmlns="http://www.w3.org/2000/svg" viewBox="0 0 807.73 519.65"><defs><style>.cls-1{fill:#995a44;}.cls-2{fill:#f2bdaa;}.cls-3{fill:#4e587f;}.cls-21,.cls-25,.cls-4{fill:#47c98e;}.cls-18,.cls-22,.cls-26,.cls-5{fill:#fcd0be;}.cls-6{fill:#ece0d3;}.cls-7{fill:#e48868;}.cls-8{fill:#393762;}.cls-9{fill:#a7c3d3;}.cls-10{fill:#3d2559;}.cls-11{fill:#719baa;}.cls-12{fill:#503a70;}.cls-13{fill:#e6e7e8;}.cls-14{fill:#231f20;}.cls-15,.cls-16{fill:#5fa2b7;}.cls-15,.cls-17,.cls-18,.cls-19,.cls-20,.cls-21,.cls-22,.cls-23,.cls-24,.cls-25,.cls-26,.cls-27,.cls-28{stroke:#fff;stroke-miterlimit:10;}.cls-15{stroke-width:0.25px;}.cls-17{fill:#ff8c80;}.cls-17,.cls-21,.cls-22,.cls-23,.cls-24{stroke-width:0.42px;}.cls-18,.cls-19,.cls-20{stroke-width:0.22px;}.cls-19{fill:#95efc4;}.cls-20,.cls-24,.cls-28{fill:none;}.cls-23{fill:#f0533b;}.cls-25,.cls-26,.cls-27,.cls-28{stroke-width:2.24px;}.cls-27{fill:#ffd638;}</style></defs><title>Artboard 1work</title><g id="Group_6284" data-name="Group 6284"><g id="Group_6259" data-name="Group 6259"><g id="Group_6258" data-name="Group 6258"><path id="Path_4782" data-name="Path 4782" class="cls-1" d="M214.58,162.14l-1.43-5-.25-.64a17.53,17.53,0,0,1-.63-2.47,43.11,43.11,0,0,0-.88-5.16,14.2,14.2,0,0,0-1.82-3.63,17.26,17.26,0,0,0-1.76-2.14c-.55-.39-6.37-4.52-7.37-3.69a1.91,1.91,0,0,0-.4.65,3.49,3.49,0,0,0-.15,1.57c.28,1.77.71,3.71,1.18,5.7q.6,2.49,1.28,4.74a11.67,11.67,0,0,0-4.3-4.16c-.18-.05-.35-.37-.72,0s.42,1.75.78,2.2c2.52,4.08,1.71,5,3.87,7.65a15.84,15.84,0,0,0,5.27,4.2Z"/></g></g><g id="Group_6260" data-name="Group 6260"><path id="Path_4783" data-name="Path 4783" class="cls-2" d="M279,247c5.14-1.12,9.25-18.09-11.1-31.46S242,197.85,242,197.85s.21-9.81-7.45-11.56.32-8.52-8-10.61l-10.17-13.82-12.74-.68,9.42,19s-2.06,6,4.41,10.33,1.8,14.44,9.64,20.24S252,252.87,279,247Z"/></g><g id="Group_6275" data-name="Group 6275"><g id="Group_6274" data-name="Group 6274"><g id="Group_6263" data-name="Group 6263"><g id="Group_6262" data-name="Group 6262"><g id="Group_6261" data-name="Group 6261"><path id="Path_4785" data-name="Path 4785" class="cls-1" d="M278,220,271.8,206s-5.29,1.43-7.61-.81c-.87-.85-1.76-5.35-2.2-11-.05-.67-.1-1.35-.14-2s-2.94,1.23-3,.49c-.05-1.52,2.8-5.76,2.83-7.29.13-7.09,1.16-13.95,3.81-16.54,6.05-5.91,27.23-6.78,30.12,3.51a29.73,29.73,0,0,1-8.33,29.9L293,216.8Z"/></g></g></g><g id="Group_6265" data-name="Group 6265"><g id="Group_6264" data-name="Group 6264"><path id="Path_4786" data-name="Path 4786" class="cls-3" d="M245.58,505.73l.75,6.88s-15.67,5.73-15.69,7h25.63l-2.46-13.92Z"/></g></g><g id="Group_6267" data-name="Group 6267"><g id="Group_6266" data-name="Group 6266"><path id="Path_4787" data-name="Path 4787" class="cls-3" d="M355.85,480.17l5.59,4.39s-4.31,16.64-3.33,17.6l14.11-20.43-11.84-8.11Z"/></g></g><g id="Group_6269" data-name="Group 6269"><g id="Group_6268" data-name="Group 6268"><path id="Path_4788" data-name="Path 4788" class="cls-4" d="M278.92,398.85s8.28,34.67,9.28,36,68.07,47.56,68.07,47.56l7-7.7-51.43-57.64L311.19,348Z"/></g></g><g id="Group_6271" data-name="Group 6271"><g id="Group_6270" data-name="Group 6270"><path id="Path_4789" data-name="Path 4789" class="cls-4" d="M258.81,310.1l1.24,21.63s-8.45,61.07-8.78,66-7.6,109.39-7.6,109.39h12.25l25-99.2s42-56.59,37.49-76.37S300,302.4,300,302.4Z"/></g></g><g id="Group_6273" data-name="Group 6273"><g id="Group_6272" data-name="Group 6272"><path id="Path_4790" data-name="Path 4790" class="cls-5" d="M318.18,317.68l-63.37,5.69,8.42-28S256,272.07,254.35,265c-2.73-11.69-2.73-11.69,5.06-26s7-13.52,7-13.52l-2.46-7.08,27.49-13.9,2.44,9.68s11,14.88,13.84,20.21,4,58.49,3.61,63Z"/></g></g></g></g><g id="Group_6276" data-name="Group 6276"><path id="Path_4791" data-name="Path 4791" class="cls-6" d="M327.46,306.92l-77.34-13.71-6.71,42.88L321.92,348Z"/></g><g id="Group_6278" data-name="Group 6278"><g id="Group_6277" data-name="Group 6277"><path id="Path_4792" data-name="Path 4792" class="cls-1" d="M262.2,329.47c1.85-.36,3-4.53,3.41-7.1,2.43-.53,5.88-3.77,8.26-4.52-4,13.28-4.3,20.23-5.1,21.75-1.75,3.37-2.86,5.15-5,3.15s-3.94,2-5.45,0-4.16,2.22-4.86-.5,3.68-6.46,3.68-6.46S255.1,330.87,262.2,329.47Z"/></g></g><g id="Group_6279" data-name="Group 6279"><path id="Path_4793" data-name="Path 4793" class="cls-2" d="M300.73,242.77c2.31,8.22-27.45,86.48-27.45,86.48L260.53,326s4.85-17.93,4.07-24.49-.7-9,4.57-14.65,2.51-27.48,6.08-36.18S299.13,237.07,300.73,242.77Z"/></g><g id="Group_6280" data-name="Group 6280"><path id="Path_4794" data-name="Path 4794" class="cls-7" d="M273,288a.55.55,0,0,0,.52-.36c2.17-5.68,1.77-11.88,1.39-17.88-.1-1.59-.2-3.18-.25-4.76a75.47,75.47,0,0,1,2.82-23.25,12.38,12.38,0,0,1,2.46-5.17c1.15-1.24,3.17-2.08,4.81-1.3a.55.55,0,1,0,.48-1h0c-2.22-1.06-4.72.06-6.11,1.55a13.33,13.33,0,0,0-2.72,5.62,76.76,76.76,0,0,0-2.86,23.59c.05,1.59.15,3.19.26,4.8.37,5.88.76,12-1.32,17.41a.55.55,0,0,0,.32.72h0A.34.34,0,0,0,273,288Z"/></g><g id="Group_6281" data-name="Group 6281"><path id="Path_4795" data-name="Path 4795" class="cls-7" d="M282.45,301.28a.56.56,0,0,0,.52-.36c1.82-4.82,3.5-8.78,5.12-12.62,3.57-8.46,6.66-15.77,9-27.4a.55.55,0,0,0-.45-.65.56.56,0,0,0-.64.42c-2.34,11.52-5.27,18.44-9,27.2-1.63,3.85-3.3,7.82-5.14,12.66a.56.56,0,0,0,.33.72h0A.64.64,0,0,0,282.45,301.28Z"/></g><g id="Group_6283" data-name="Group 6283"><g id="Group_6282" data-name="Group 6282"><path id="Path_4796" data-name="Path 4796" class="cls-8" d="M312.53,176.12a30,30,0,0,1-2.81,11.81c-3.11,6.81-8.74,14.65-17,14.16-4.15-.25-6.8-2.76-9.86-5.15a76.92,76.92,0,0,1-10.38-9.2c-1.73-2-3.07-4.14-4.66-6.16-3.84-4.89-12.15-3.58-15.16-9.39-3.17-6.1,1.38-12.49,5.65-17,11-11.68,27.93-12.41,40.44-3.77A32.42,32.42,0,0,1,311.87,170,23.5,23.5,0,0,1,312.53,176.12Z"/></g></g></g><g id="Group_6308" data-name="Group 6308"><g id="Group_6286" data-name="Group 6286"><g id="Group_6285" data-name="Group 6285"><path id="Path_4797" data-name="Path 4797" class="cls-7" d="M148.73,121.94l1.64-5.67.27-.73a17.3,17.3,0,0,0,.72-2.81,50.31,50.31,0,0,1,1-5.87,16.41,16.41,0,0,1,2.08-4.14,18.82,18.82,0,0,1,2-2.44c.63-.45,7.26-5.15,8.4-4.21a2.23,2.23,0,0,1,.46.75,4,4,0,0,1,.17,1.79c-.33,2-.81,4.22-1.35,6.49-.46,1.89-.94,3.69-1.46,5.39a13.5,13.5,0,0,1,4.9-4.74c.2,0,.4-.41.82,0s-.47,2-.89,2.51c-2.87,4.65-2,5.73-4.4,8.71a18,18,0,0,1-6,4.79Z"/></g></g><g id="Group_6287" data-name="Group 6287"><path id="Path_4798" data-name="Path 4798" class="cls-9" d="M101.9,299.87c-.54-5-1.61-9.22-2.24-14.16H33.08C31.79,290,36.3,294,35.88,297.1c-1.49,10.9,7.68,36.64,7.68,36.64L46,347.9l3.26,53.68s-2.83,26.24-4.48,47q-.37,4.8-.37,9.42a24,24,0,0,0,.12,2.4c.47,16,5.74,30.85,6,47.6l8.13,2s3.12-27.58,6.33-52h0c.54-4.12,1.09-8.15,1.62-11.94-.07.84-.14,1.7-.21,2.52C66.14,451.82,66,455,66,458c0,.81,0,1.61.12,2.41.47,16,5.74,30.85,6,47.6l8.14,2s3.11-27.59,6.32-52h0c2.3-17.46,4.64-33.27,5.93-36.16,2-4.51,5.63-43.47,9.41-70.88h0C103.46,340.55,103,310.13,101.9,299.87Z"/></g><g id="Group_6296" data-name="Group 6296"><g id="Group_6288" data-name="Group 6288"><path id="Path_4799" data-name="Path 4799" class="cls-8" d="M72.07,505.48l-2.6,14.17H98.36l-15.87-7.09-1.68-7.08Z"/></g><g id="Group_6289" data-name="Group 6289"><path id="Path_4800" data-name="Path 4800" class="cls-10" d="M28,259.78s-.13,25.33,2.16,27.79h0l5.73,9.53,66,2.78.9-9.34,3.26-2.18a8,8,0,0,0,3.41-8.35l-16.9-43.32s-1.12-13.74-.24-20.43S77.1,173,74,168.92s-15.35-4.83-20.55,0-19.32,26-20.52,30.44S28,259.78,28,259.78Z"/></g><g id="Group_6290" data-name="Group 6290"><path id="Path_4801" data-name="Path 4801" class="cls-10" d="M58.52,164.87c-6.88,1.67-36.64,18.93-39.42,24.49S-6.3,255.22,1.71,262s32.7-3.1,32.7-3.1l3.28-35.74Z"/></g><g id="Group_6292" data-name="Group 6292"><path id="Path_4803" data-name="Path 4803" class="cls-11" d="M73.78,327.34a.71.71,0,0,1-.53-.24,27.2,27.2,0,0,1-6.33-14.57.69.69,0,0,1,.61-.77h0a.71.71,0,0,1,.77.62,25.8,25.8,0,0,0,6,13.81.7.7,0,0,1-.53,1.15Z"/></g><g id="Group_6293" data-name="Group 6293"><path id="Path_4804" data-name="Path 4804" class="cls-8" d="M50.45,505.48l-2.61,14.17H76.73l-15.87-7.09-1.68-7.08Z"/></g><g id="Group_6294" data-name="Group 6294"><path id="Path_4805" data-name="Path 4805" class="cls-11" d="M68.08,442l-.16,0a.7.7,0,0,1-.52-.84c.15-.6,14.86-60.31,17.39-71.58s1.14-58.22,1.13-58.69a.66.66,0,0,1,.19-.5l7.07-7.51a.71.71,0,0,1,1,.08.69.69,0,0,1,0,.88l-6.89,7.3c.13,4.35,1.31,47.73-1.16,58.75-2.54,11.28-17.25,71-17.39,71.6A.71.71,0,0,1,68.08,442Z"/></g><g id="Group_6295" data-name="Group 6295"><path id="Path_4806" data-name="Path 4806" class="cls-12" d="M37.69,292a.7.7,0,0,1,0-1.39l61.57-.36h0a.71.71,0,0,1,.62.78.69.69,0,0,1-.62.61L37.69,292Z"/></g></g><g id="Group_6297" data-name="Group 6297"><path id="Path_4807" data-name="Path 4807" class="cls-10" d="M101.94,206.41c7.07-7.16,26.58-24.4,32.88-33.22,5.94-8.33,23.8-49.44,23.8-49.44l-9.82-9.51L120.29,154.3s-20.21,12.46-31.05,17C95.83,183.26,94.65,194.87,101.94,206.41Z"/></g><g id="Group_6298" data-name="Group 6298"><path id="Path_4808" data-name="Path 4808" class="cls-10" d="M64.32,165.57c55.55,3.76,58.49,8.66,43.25,26.31l-8.3,67L79.7,230.1Z"/></g><g id="Group_6299" data-name="Group 6299"><path id="Path_4809" data-name="Path 4809" class="cls-12" d="M27.11,242.45h-.05l-9.4-.67A.7.7,0,0,1,17,241a.69.69,0,0,1,.71-.65h0l9.4.67a.71.71,0,0,1,.59.8.69.69,0,0,1-.64.59Z"/></g><g id="Group_6300" data-name="Group 6300"><path id="Path_4810" data-name="Path 4810" class="cls-12" d="M23.81,242a.71.71,0,0,1-.28-.06.7.7,0,0,1-.35-.92h0A177.27,177.27,0,0,0,35,202.66a24,24,0,0,0,.55-7.26,8.3,8.3,0,0,0-3.2-5.93.71.71,0,0,1-.07-1,.72.72,0,0,1,.87-.15,9.69,9.69,0,0,1,3.78,6.9,24.79,24.79,0,0,1-.56,7.68,178.86,178.86,0,0,1-11.92,38.65A.69.69,0,0,1,23.81,242Z"/></g><g id="Group_6301" data-name="Group 6301"><path id="Path_4811" data-name="Path 4811" class="cls-12" d="M96.28,249a.69.69,0,0,1-.6-.35L67.22,199.09a.7.7,0,0,1,1.2-.69L96.89,248a.69.69,0,0,1-.27,1,.66.66,0,0,1-.33.09Z"/></g><g id="Group_6305" data-name="Group 6305"><g id="Group_6303" data-name="Group 6303"><g id="Group_6302" data-name="Group 6302"><path id="Path_4812" data-name="Path 4812" class="cls-7" d="M79.08,173.09l4-15.28s5.74,1.56,8.26-.88c1.06-1,2-5.48,2.44-12.53,0-.75,2.85.77,2.88,0,0-1.5-5-8.35-4.57-11.13,1.62-10.2.76-12.93-2.2-15.82-6.57-6.42-29.58-7.36-32.72,3.82S55,137.86,60.71,153.74l-3.48,15.84Z"/></g></g><g id="Group_6304" data-name="Group 6304"><path id="Path_4813" data-name="Path 4813" class="cls-8" d="M94.34,103.46a4.46,4.46,0,0,1-1.51,3.64c.75-2.37-1.67-4.87-4.16-4.9s-4.21,1.43-5.6,3.5c.61-1.09,2.49-.8,3,.34A2.75,2.75,0,0,1,85,109.29a6.13,6.13,0,0,1-3.6.83,35.11,35.11,0,0,1-8.62-1.57A33.78,33.78,0,0,0,64.1,107,11.46,11.46,0,0,0,56,109.9a7.85,7.85,0,0,0-1.45,8.59c-7.36,3-2.26,15.86,0,21.54s6.14,13.72,6.14,13.72l7.53-7.37s-5.75-6.68-3.22-9.69,5.16,1.67,5.16,1.67.83,14.2,2.81,15,13.55,9.19,18.49,7.35,2.27-16.33,2.27-16.33l-7.26-.84a12.85,12.85,0,0,1-11.37-13.22h0s7.87,2.62,9.3-4c5.48-.79,12.11-3,14.2-8.19S99,106.4,94.34,103.46Z"/></g><ellipse id="Ellipse_483" data-name="Ellipse 483" class="cls-7" cx="68.33" cy="170.98" rx="8.78" ry="11.33" transform="translate(-112.3 206.69) rotate(-79.4)"/></g><g id="Group_6306" data-name="Group 6306"><path id="Path_4814" data-name="Path 4814" class="cls-13" d="M41.11,227l1.33,27.72c.1,2,1.53,3.58,3.2,3.5L59,257.57c1.68-.08,2.95-1.78,2.86-3.8l-1.34-27.72c-.1-2-1.53-3.58-3.2-3.5L44,223.19C42.28,223.27,41,225,41.11,227Z"/><ellipse id="Ellipse_484" data-name="Ellipse 484" class="cls-14" cx="44.09" cy="229.25" rx="1.01" ry="1.1" transform="translate(-10.99 2.39) rotate(-2.76)"/><ellipse id="Ellipse_485" data-name="Ellipse 485" class="cls-14" cx="43.94" cy="226.17" rx="1.01" ry="1.1" transform="translate(-10.84 2.38) rotate(-2.76)"/></g><g id="Group_6307" data-name="Group 6307"><path id="Path_4815" data-name="Path 4815" class="cls-7" d="M28.45,244.29l6.24-5.7s5-6.9,7-7.44l.92,4.58s15.11-2,15.48-1.41l2.08,3.49-4.54,1.57s1.68,1.74,1.49,2.5a6.06,6.06,0,0,1-.93,1.69,15,15,0,0,1,.7,3.88c0,2-3.66.18-4.4,1.91S40.9,252.3,39.36,252.3s-15.51,3.45-15.51,3.45Z"/></g></g><path id="Path_4816" data-name="Path 4816" class="cls-1" d="M264.12,200.05l16.66-21.84L274,206.27Z"/><g id="Group_6310" data-name="Group 6310"><path id="Path_4817" data-name="Path 4817" class="cls-15" d="M390.69,188.47,377.59,190l-12.69-1.25,13.54-1.45Z"/><path id="Path_4818" data-name="Path 4818" class="cls-16" d="M404.45,189.78l-12.62,1.6L377.59,190l13.1-1.51Z"/><path id="Path_4819" data-name="Path 4819" class="cls-15" d="M377.59,190l-12.82,1.49h0l-12.48-1.38,12.61-1.35Z"/><path id="Path_4820" data-name="Path 4820" class="cls-15" d="M420.66,191.34,409,193.06h0l-17.12-1.68,12.62-1.6Z"/><path id="Path_4821" data-name="Path 4821" class="cls-15" d="M364.76,191.47l-15.25,1.77h0L337,191.72l15.29-1.63Z"/><path id="Path_4822" data-name="Path 4822" class="cls-15" d="M391.83,191.38l-13,1.65h0l-14-1.56L377.59,190Z"/><path id="Path_4823" data-name="Path 4823" class="cls-15" d="M396.13,195l-14.67,2.16L363.63,195,378.81,193h0Z"/><path id="Path_4824" data-name="Path 4824" class="cls-15" d="M378.81,193,363.63,195l-14.12-1.71,15.25-1.77h0Z"/><path id="Path_4825" data-name="Path 4825" class="cls-15" d="M409,193.06,396.13,195,378.81,193l13-1.65Z"/><path id="Path_4826" data-name="Path 4826" class="cls-17" d="M395.59,237.26l-.25,19.88-14,5.44.05-20.8Z"/><path id="Path_4827" data-name="Path 4827" class="cls-17" d="M396.13,195l-.28,21.56-14.45,3.34h0l.06-22.74Z"/><path id="Path_4828" data-name="Path 4828" class="cls-17" d="M409,193.06l-.27,20.48-12.84,3,.28-21.56L409,193.06Z"/><path id="Path_4829" data-name="Path 4829" class="cls-17" d="M408.44,233.19l-.25,19-12.85,5,.25-19.88Z"/><path id="Path_4830" data-name="Path 4830" class="cls-18" d="M420.08,210.91,419,248l-10.78,4.18.24-19,.25-19.65Z"/><path id="Path_4831" data-name="Path 4831" class="cls-18" d="M420.66,191.34l-.58,19.57-11.39,2.63.27-20.48Z"/><path id="Path_4832" data-name="Path 4832" class="cls-19" d="M350,214.14l-12.51-2.27-.5-20.15,12.51,1.52Z"/><path id="Path_4833" data-name="Path 4833" class="cls-19" d="M364.12,237.33l-13.65-3.54L350,214.14l13.87,2.52h0Z"/><path id="Path_4834" data-name="Path 4834" class="cls-19" d="M350.47,233.79,338,230.54l-.46-18.67L350,214.14Z"/><path id="Path_4835" data-name="Path 4835" class="cls-19" d="M350.93,253.32l-12.5-3.81-.47-19,12.51,3.25Z"/><path id="Path_4836" data-name="Path 4836" class="cls-19" d="M364.34,257.41l-13.41-4.09-.46-19.53,13.64,3.54Z"/><path id="Path_4837" data-name="Path 4837" class="cls-19" d="M381.35,241.78l-.05,20.8-17-5.17-.22-20.08,17.18,4.46Z"/><path id="Path_4838" data-name="Path 4838" class="cls-19" d="M363.88,216.66,350,214.14l-.5-20.9h0L363.63,195Z"/><path id="Path_4839" data-name="Path 4839" class="cls-19" d="M381.46,197.11l-.06,22.74-17.52-3.18h0L363.63,195Z"/><path id="Path_4840" data-name="Path 4840" class="cls-17" d="M395.85,216.51l-.26,20.75-14.24,4.52,0-21.93h0Z"/><path id="Path_4841" data-name="Path 4841" class="cls-19" d="M381.4,219.85l0,21.93-.05,0-17.18-4.47-.24-20.66Z"/><path id="Path_4842" data-name="Path 4842" class="cls-17" d="M408.69,213.54l-.25,19.65-12.85,4.07.26-20.75Z"/><line id="Line_140" data-name="Line 140" class="cls-20" x1="419.52" y1="229.68" x2="408.44" y2="233.19"/></g><g id="Group_6311" data-name="Group 6311"><path id="Path_4843" data-name="Path 4843" class="cls-21" d="M749.71,128.77l-24.62,2.85-23.84-2.33,25.44-2.72Z"/><path id="Path_4844" data-name="Path 4844" class="cls-21" d="M775.57,131.25l-23.72,3-26.76-2.62,24.62-2.86Z"/><path id="Path_4845" data-name="Path 4845" class="cls-21" d="M725.09,131.62l-24.1,2.8h0l-23.43-2.6,23.7-2.53Z"/><path id="Path_4846" data-name="Path 4846" class="cls-21" d="M806,134.16l-22,3.24h0l-32.16-3.16,23.71-3Z"/><path id="Path_4847" data-name="Path 4847" class="cls-21" d="M701,134.42l-28.66,3.32h0l-23.5-2.85,28.73-3.07Z"/><path id="Path_4848" data-name="Path 4848" class="cls-21" d="M751.85,134.25l-24.47,3.09h0L701,134.42l24.1-2.8Z"/><path id="Path_4849" data-name="Path 4849" class="cls-21" d="M759.92,141,732.36,145,698.86,141l28.52-3.61h0Z"/><path id="Path_4850" data-name="Path 4850" class="cls-21" d="M727.38,137.34,698.86,141l-26.53-3.21L701,134.42h0Z"/><path id="Path_4851" data-name="Path 4851" class="cls-21" d="M784,137.4,759.92,141l-32.54-3.61,24.47-3.09Z"/><path id="Path_4852" data-name="Path 4852" class="cls-22" d="M758.91,220.46l-.47,37.35L732.06,268l.1-39.09Z"/><path id="Path_4853" data-name="Path 4853" class="cls-22" d="M759.92,141l-.52,40.51-27.15,6.28h0l.11-42.73Z"/><path id="Path_4854" data-name="Path 4854" class="cls-22" d="M784,137.4l-.5,38.48-24.13,5.58.52-40.51L784,137.4Z"/><path id="Path_4855" data-name="Path 4855" class="cls-22" d="M783.05,212.8l-.46,35.66-24.15,9.35.47-37.36Z"/><path id="Path_4856" data-name="Path 4856" class="cls-22" d="M804.92,170.94l-2.07,69.68-20.26,7.84.46-35.66.48-36.92Z"/><path id="Path_4857" data-name="Path 4857" class="cls-22" d="M806,134.16l-1.09,36.77-21.38,4.95.5-38.48Z"/><path id="Path_4858" data-name="Path 4858" class="cls-23" d="M673.26,177l-23.5-4.27-.93-37.85,23.5,2.85Z"/><path id="Path_4859" data-name="Path 4859" class="cls-23" d="M699.77,220.59l-25.63-6.66L673.26,177l26.07,4.74h0Z"/><path id="Path_4860" data-name="Path 4860" class="cls-23" d="M674.14,213.93l-23.52-6.11-.86-35.08,23.5,4.27Z"/><path id="Path_4861" data-name="Path 4861" class="cls-23" d="M675,250.63l-23.5-7.16-.88-35.65,23.52,6.11Z"/><path id="Path_4862" data-name="Path 4862" class="cls-23" d="M700.2,258.32,675,250.63l-.86-36.7,25.63,6.66Z"/><path id="Path_4863" data-name="Path 4863" class="cls-23" d="M732.15,228.94l-.1,39.08-31.85-9.7-.43-37.73L732.05,229Z"/><path id="Path_4864" data-name="Path 4864" class="cls-23" d="M699.33,181.75,673.26,177l-.93-39.27h0L698.86,141Z"/><path id="Path_4865" data-name="Path 4865" class="cls-23" d="M732.36,145l-.11,42.73-32.92-6h0l-.47-40.8Z"/><path id="Path_4866" data-name="Path 4866" class="cls-22" d="M759.4,181.46l-.49,39-26.76,8.49.1-41.2h0Z"/><path id="Path_4867" data-name="Path 4867" class="cls-23" d="M732.25,187.74l-.1,41.2-.1,0-32.29-8.39-.44-38.83Z"/><path id="Path_4868" data-name="Path 4868" class="cls-22" d="M783.53,175.88l-.48,36.92-24.14,7.66.49-39Z"/><line id="Line_141" data-name="Line 141" class="cls-24" x1="803.87" y1="206.2" x2="783.05" y2="212.8"/></g><g id="Group_6312" data-name="Group 6312"><path id="Path_4869" data-name="Path 4869" class="cls-25" d="M584.58,61l-44.06,5.1-42.69-4.18L543.37,57Z"/><path id="Path_4870" data-name="Path 4870" class="cls-25" d="M630.87,65.38l-42.45,5.37-47.9-4.7L584.59,61Z"/><path id="Path_4871" data-name="Path 4871" class="cls-25" d="M540.51,66.05l-43.14,5h0L455.41,66.4l42.42-4.53Z"/><path id="Path_4872" data-name="Path 4872" class="cls-25" d="M685.37,70.6,646,76.4h0l-57.58-5.65,42.45-5.37Z"/><path id="Path_4873" data-name="Path 4873" class="cls-25" d="M497.36,71.05,446.06,77h0L404,71.89l51.44-5.49Z"/><path id="Path_4874" data-name="Path 4874" class="cls-25" d="M588.42,70.75l-43.81,5.54h0l-47.23-5.24,43.14-5Z"/><path id="Path_4875" data-name="Path 4875" class="cls-25" d="M602.86,82.75,553.52,90l-60-7.27,51-6.46h0Z"/><path id="Path_4876" data-name="Path 4876" class="cls-25" d="M544.6,76.29l-51,6.46L446.06,77l51.3-5.94h0Z"/><path id="Path_4877" data-name="Path 4877" class="cls-25" d="M646,76.4l-43.14,6.35-58.25-6.46,43.81-5.54Z"/><path id="Path_4878" data-name="Path 4878" class="cls-26" d="M601.06,225.08,600.21,292,553,310.24l.17-70Z"/><path id="Path_4879" data-name="Path 4879" class="cls-26" d="M602.86,82.75l-.92,72.52-48.61,11.25h0l.19-76.5Z"/><path id="Path_4880" data-name="Path 4880" class="cls-26" d="M646,76.4l-.89,68.88-43.19,10,.92-72.52L646,76.4Z"/><path id="Path_4881" data-name="Path 4881" class="cls-26" d="M644.27,211.38l-.82,63.83L600.21,292l.85-66.87Z"/><path id="Path_4882" data-name="Path 4882" class="cls-26" d="M683.41,136.43,679.7,261.17l-36.26,14,.83-63.83.85-66.1Z"/><path id="Path_4883" data-name="Path 4883" class="cls-26" d="M685.37,70.6l-2,65.83-38.28,8.85L646,76.4Z"/><path id="Path_4884" data-name="Path 4884" class="cls-27" d="M447.72,147.3l-42.07-7.65L404,71.89,446.06,77Z"/><path id="Path_4885" data-name="Path 4885" class="cls-27" d="M495.18,225.31,449.29,213.4l-1.57-66.09,46.67,8.48h0Z"/><path id="Path_4886" data-name="Path 4886" class="cls-27" d="M449.29,213.4l-42.1-10.94-1.55-62.81,42.08,7.65Z"/><path id="Path_4887" data-name="Path 4887" class="cls-27" d="M450.84,279.1l-42.07-12.82-1.58-63.82,42.1,10.94Z"/><path id="Path_4888" data-name="Path 4888" class="cls-27" d="M496,292.85,450.84,279.1l-1.55-65.7,45.89,11.92Z"/><path id="Path_4889" data-name="Path 4889" class="cls-27" d="M553.15,240.27l-.17,70-57-17.39-.77-67.54,57.8,15Z"/><path id="Path_4890" data-name="Path 4890" class="cls-27" d="M494.39,155.79l-46.67-8.49L446.06,77h0l47.49,5.76Z"/><path id="Path_4891" data-name="Path 4891" class="cls-27" d="M553.52,90l-.19,76.5L494.39,155.8h0l-.83-73Z"/><path id="Path_4892" data-name="Path 4892" class="cls-26" d="M601.94,155.27l-.88,69.8-47.91,15.19.18-73.75h0Z"/><path id="Path_4893" data-name="Path 4893" class="cls-27" d="M553.32,166.52l-.17,73.75-.17,0-57.8-15-.8-69.51Z"/><path id="Path_4894" data-name="Path 4894" class="cls-26" d="M645.13,145.28l-.86,66.1-43.21,13.7.88-69.8Z"/><line id="Line_142" data-name="Line 142" class="cls-28" x1="681.53" y1="199.56" x2="644.27" y2="211.38"/></g></svg>