<svg xmlns="http://www.w3.org/2000/svg" width="49.415" height="85.475" viewBox="0 0 49.415 85.475"><defs><style>.a{fill:#1c9868;}</style></defs><g transform="translate(-772.864 -808.263)"><path class="a" d="M55.466,64.351v2.23h.561A2.671,2.671,0,0,0,58.7,63.91V54.341a2.671,2.671,0,0,0-2.671-2.671H42.671A2.671,2.671,0,0,0,40,54.341V63.91a2.671,2.671,0,0,0,2.417,2.671V64.438a6.524,6.524,0,0,1,.267-1.93V54.341H56.026V63.91h-.588C55.446,64.057,55.466,64.2,55.466,64.351Z" transform="translate(746.219 791.096)"/><path class="a" d="M58.711,44H34.671A2.671,2.671,0,0,0,32,46.671V66.7a2.671,2.671,0,0,0,2.671,2.671h5.135V66.7H34.671V46.671h24.04a1.336,1.336,0,1,0,0-2.671Z" transform="translate(748.877 793.645)"/><path class="a" d="M67.389,69.041V38.671A2.671,2.671,0,0,0,64.717,36H35.336a1.336,1.336,0,1,0,0,2.671H64.717V67.2A6.6,6.6,0,0,1,67.389,69.041Z" transform="translate(748.212 796.302)"/><path class="a" d="M69.415,74.79V8.013A8.013,8.013,0,0,0,61.4,0H28.013A8.013,8.013,0,0,0,20,8.013V74.79A8.013,8.013,0,0,0,28.013,82.8h7.466a8.053,8.053,0,0,1-.12-1.289,7.953,7.953,0,0,1,.107-1.382H28.013a5.342,5.342,0,0,1-5.342-5.342V8.013a5.342,5.342,0,0,1,5.342-5.342h4.32a1.336,1.336,0,0,0,.06.174l1.088,2.431c.935,2.2,2.457,3.412,4.294,3.412H51.6a5.2,5.2,0,0,0,4.674-3.472c.434-1.336.788-2.344.795-2.351a1.336,1.336,0,0,0,.06-.194H61.4a5.342,5.342,0,0,1,5.342,5.342V74.79a5.342,5.342,0,0,1-2.351,4.421,7.853,7.853,0,0,1,.347,2.21c0,.22,0,.441,0,.668a8.013,8.013,0,0,0,4.674-7.3ZM53.742,4.4a2.538,2.538,0,0,1-2.15,1.609H37.769c-.935,0-1.549-1.115-1.843-1.81l-.688-1.529H54.317C54.17,3.1,53.969,3.7,53.742,4.4Z" transform="translate(752.864 808.263)"/><path class="a" d="M43.149,103.053c0,2.237,1.376,4.007,3.072,4.007H64.177a2.624,2.624,0,0,0,1.863-.821,4.881,4.881,0,0,0-.127-6.437c1.856-11.419,1.115-16.026.9-17.015a3.893,3.893,0,0,0-3.88-3.686,4.007,4.007,0,0,0-1.523.307,3.893,3.893,0,0,0-3.74-2.871h0a3.84,3.84,0,0,0-1.336.247A3.893,3.893,0,0,0,52.6,73.952h0a3.94,3.94,0,0,0-1.282.214l-.047-5.342A3.9,3.9,0,0,0,47.4,64.97h0a3.82,3.82,0,0,0-3.826,3.866L43.7,84.689a7.806,7.806,0,0,0-3.279-2.624,3.806,3.806,0,0,0-2.978.16,3.078,3.078,0,0,0-1.8,1.816c-.668,1.783.04,4.207,2.2,7.406l5.6,9.876a5.256,5.256,0,0,0-.28,1.716Zm20.961,1.336H46.274a1.85,1.85,0,0,1-.454-1.336,1.876,1.876,0,0,1,.4-1.336H64.07a1.89,1.89,0,0,1,.447,1.336,1.856,1.856,0,0,1-.407,1.336ZM40.124,90.058l-.06-.087c-2.21-3.279-2.057-4.621-1.957-4.948a.467.467,0,0,1,.194-.287.628.628,0,0,0,.254-.107,1.115,1.115,0,0,1,.968-.06c1.629.568,3.512,3.686,4.32,5.516a1.336,1.336,0,0,0,2.544-.414.668.668,0,0,0,0-.134h0L46.22,68.783a1.149,1.149,0,0,1,.327-.828,1.162,1.162,0,0,1,.835-.341,1.242,1.242,0,0,1,1.215,1.2l.18,20.748A1.336,1.336,0,0,0,50.113,90.9h0a1.336,1.336,0,0,0,1.336-1.336v-.1l-.107-11.686a1.062,1.062,0,0,1,.327-.768,1.3,1.3,0,0,1,.928-.381h0a1.215,1.215,0,0,1,1.235,1.182V80.4l.073,9.2a1.336,1.336,0,0,0,1.336,1.336h0a1.336,1.336,0,0,0,1.336-1.336v-.628c0-.047-.06-8.681-.06-8.681a1.142,1.142,0,0,1,1.155-1.068,1.215,1.215,0,0,1,1.215,1.209v2.611l.06,6.5a1.336,1.336,0,0,0,1.336,1.336h0a1.336,1.336,0,0,0,1.229-.835,1.409,1.409,0,0,0,.107-.534l-.053-6.537a1.162,1.162,0,0,1,.347-.721,1.469,1.469,0,0,1,1.008-.447,1.222,1.222,0,0,1,1.215,1.2,1.2,1.2,0,0,0,.047.341c0,.047,1,4.06-.875,15.739H46.167a2.491,2.491,0,0,0-.848.167Z" transform="translate(747.745 786.678)"/></g></svg>