<svg xmlns="http://www.w3.org/2000/svg" width="94.172" height="94.172" viewBox="0 0 94.172 94.172"><defs><style>.a,.b{fill:#1c9868;}.a{fill-rule:evenodd;}</style></defs><g transform="translate(-460.914 -1215.692)"><path class="a" d="M88.286,0H5.886A5.9,5.9,0,0,0,0,5.886v82.4a5.9,5.9,0,0,0,5.886,5.886h82.4a5.9,5.9,0,0,0,5.886-5.886V5.886A5.9,5.9,0,0,0,88.286,0ZM5.886,2.943h82.4a2.946,2.946,0,0,1,2.943,2.943V8.829H2.943V5.886A2.946,2.946,0,0,1,5.886,2.943Zm82.4,88.286H5.886a2.946,2.946,0,0,1-2.943-2.943V11.772H91.229V88.286A2.946,2.946,0,0,1,88.286,91.229Z" transform="translate(460.914 1215.693)"/><circle class="b" cx="1.471" cy="1.471" r="1.471" transform="translate(544.788 1220.107)"/><circle class="b" cx="1.471" cy="1.471" r="1.471" transform="translate(538.903 1220.107)"/><path class="b" d="M2.712,23.348H22.636a.711.711,0,0,0,.712-.712V11.251a.711.711,0,0,0-.712-.712H14.809V2.712A.711.711,0,0,0,14.1,2H2.712A.711.711,0,0,0,2,2.712V22.636A.711.711,0,0,0,2.712,23.348Zm4.27-1.423v-4.27H9.828v4.27Zm14.944-9.962v9.962H14.809V11.962ZM3.423,3.423h9.962v18.5H11.251v-4.27h.712V16.232H4.846v1.423h.712v4.27H3.423Z" transform="translate(483.652 1242.652)"/><path class="b" d="M50.329,40.251H42.5V31.712A.711.711,0,0,0,41.79,31H33.251a.711.711,0,0,0-.712.712v8.539H24.712a.711.711,0,0,0-.712.712V52.348a.711.711,0,0,0,.712.712H50.329a.711.711,0,0,0,.712-.712V40.962A.711.711,0,0,0,50.329,40.251ZM25.423,41.674h7.116v9.962H25.423Zm8.539-.712V32.423h7.116V51.636H39.655V48.078a.711.711,0,0,0-.712-.712H36.1a.711.711,0,0,0-.712.712v3.558H33.962Zm2.846,10.674V48.79h1.423v2.846Zm12.809,0H42.5V41.674h7.116Z" transform="translate(477.307 1234.288)"/><rect class="b" width="1.423" height="1.423" transform="translate(488.498 1247.498)"/><rect class="b" width="1.423" height="1.423" transform="translate(491.345 1247.498)"/><rect class="b" width="1.423" height="1.423" transform="translate(494.191 1247.498)"/><rect class="b" width="1.423" height="1.423" transform="translate(488.498 1250.345)"/><rect class="b" width="1.423" height="1.423" transform="translate(491.345 1250.345)"/><rect class="b" width="1.423" height="1.423" transform="translate(494.191 1250.345)"/><rect class="b" width="1.423" height="1.423" transform="translate(488.498 1253.191)"/><rect class="b" width="1.423" height="1.423" transform="translate(491.345 1253.191)"/><rect class="b" width="1.423" height="1.423" transform="translate(494.191 1253.191)"/><rect class="b" width="1.423" height="1.423" transform="translate(499.884 1256.038)"/><rect class="b" width="1.423" height="1.423" transform="translate(502.73 1256.038)"/><rect class="b" width="1.423" height="1.423" transform="translate(499.884 1258.884)"/><rect class="b" width="1.423" height="1.423" transform="translate(502.73 1258.884)"/><rect class="b" width="1.423" height="1.423" transform="translate(512.693 1268.135)"/><rect class="b" width="1.423" height="1.423" transform="translate(515.539 1268.135)"/><rect class="b" width="1.423" height="1.423" transform="translate(512.693 1270.981)"/><rect class="b" width="1.423" height="1.423" transform="translate(515.539 1270.981)"/><rect class="b" width="1.423" height="1.423" transform="translate(512.693 1273.828)"/><rect class="b" width="1.423" height="1.423" transform="translate(515.539 1273.828)"/><rect class="b" width="1.423" height="1.423" transform="translate(512.693 1276.674)"/><rect class="b" width="1.423" height="1.423" transform="translate(515.539 1276.674)"/><rect class="b" width="1.423" height="1.423" transform="translate(521.232 1277.385)"/><rect class="b" width="1.423" height="1.423" transform="translate(524.078 1277.385)"/><rect class="b" width="1.423" height="1.423" transform="translate(521.232 1280.232)"/><rect class="b" width="1.423" height="1.423" transform="translate(524.078 1280.232)"/><rect class="b" width="1.423" height="1.423" transform="translate(504.154 1277.385)"/><rect class="b" width="1.423" height="1.423" transform="translate(507 1277.385)"/><rect class="b" width="1.423" height="1.423" transform="translate(504.154 1280.232)"/><rect class="b" width="1.423" height="1.423" transform="translate(507 1280.232)"/><rect class="b" width="1.423" height="1.423" transform="translate(499.884 1248.922)"/><rect class="b" width="1.423" height="1.423" transform="translate(502.73 1248.922)"/><rect class="b" width="1.423" height="1.423" transform="translate(505.577 1248.922)"/><rect class="b" width="1.423" height="1.423" transform="translate(508.423 1248.922)"/><rect class="b" width="1.423" height="1.423" transform="translate(511.27 1248.922)"/><rect class="b" width="1.423" height="1.423" transform="translate(514.116 1248.922)"/><rect class="b" width="1.423" height="1.423" transform="translate(516.962 1248.922)"/><rect class="b" width="1.423" height="1.423" transform="translate(519.809 1248.922)"/><rect class="b" width="1.423" height="1.423" transform="translate(522.655 1248.922)"/><rect class="b" width="1.423" height="1.423" transform="translate(522.655 1251.768)"/><rect class="b" width="1.423" height="1.423" transform="translate(522.655 1254.614)"/><rect class="b" width="1.423" height="1.423" transform="translate(522.655 1257.461)"/><rect class="b" width="1.423" height="1.423" transform="translate(522.655 1260.307)"/><rect class="b" width="1.423" height="1.423" transform="translate(522.655 1263.154)"/><rect class="b" width="1.423" height="1.423" transform="translate(522.655 1266)"/><rect class="b" width="1.423" height="1.423" transform="translate(522.655 1268.846)"/><rect class="b" width="1.423" height="1.423" transform="translate(522.655 1271.693)"/><rect class="b" width="1.423" height="1.423" transform="translate(489.922 1267.423)"/><rect class="b" width="1.423" height="1.423" transform="translate(489.922 1270.27)"/><rect class="b" width="1.423" height="1.423" transform="translate(489.922 1273.116)"/><rect class="b" width="1.423" height="1.423" transform="translate(489.922 1275.962)"/><rect class="b" width="1.423" height="1.423" transform="translate(489.922 1278.809)"/><rect class="b" width="1.423" height="1.423" transform="translate(489.922 1281.655)"/><rect class="b" width="1.423" height="1.423" transform="translate(492.768 1281.655)"/><rect class="b" width="1.423" height="1.423" transform="translate(495.614 1281.655)"/><rect class="b" width="1.423" height="1.423" transform="translate(498.461 1281.655)"/></g></svg>