<svg xmlns="http://www.w3.org/2000/svg" width="94.172" height="94.172" viewBox="0 0 94.172 94.172"><defs><style>.a,.b{fill:#1c9868;}.a{fill-rule:evenodd;}</style></defs><g transform="translate(-461.2 -803.692)"><g transform="translate(461.2 803.693)"><path class="a" d="M88.286,0H5.886A5.9,5.9,0,0,0,0,5.886v82.4a5.9,5.9,0,0,0,5.886,5.886h82.4a5.9,5.9,0,0,0,5.886-5.886V5.886A5.9,5.9,0,0,0,88.286,0ZM5.886,2.943h82.4a2.946,2.946,0,0,1,2.943,2.943V8.829H2.943V5.886A2.946,2.946,0,0,1,5.886,2.943Zm82.4,88.286H5.886a2.946,2.946,0,0,1-2.943-2.943V11.772H91.229V88.286A2.946,2.946,0,0,1,88.286,91.229Z"/><circle class="b" cx="1.471" cy="1.471" r="1.471" transform="translate(83.874 4.414)"/><circle class="b" cx="1.471" cy="1.471" r="1.471" transform="translate(77.989 4.414)"/><path class="a" d="M101.07,82.911l-5.811-3.06a1.471,1.471,0,0,0-1.371,2.6l3.339,1.758-3.339,1.758a1.471,1.471,0,1,0,1.371,2.6l5.811-3.06a1.471,1.471,0,0,0,0-2.6Z" transform="translate(-24.605 -21.058)"/><path class="a" d="M102.075,58.875h-1.1a1.471,1.471,0,1,0,0,2.943h1.1a1.471,1.471,0,1,0,0-2.943Z" transform="translate(-26.296 -15.559)"/><path class="a" d="M77.5,60.346a1.472,1.472,0,0,0,1.471,1.471h2.207a1.471,1.471,0,1,0,0-2.943H78.969A1.472,1.472,0,0,0,77.5,60.346Z" transform="translate(-20.481 -15.559)"/><path class="a" d="M56.965,61.818h2.207a1.471,1.471,0,1,0,0-2.943H56.965a1.471,1.471,0,1,0,0,2.943Z" transform="translate(-14.666 -15.559)"/><path class="a" d="M45.963,61.818H48.17a1.471,1.471,0,0,0,0-2.943H45.963a1.471,1.471,0,1,0,0,2.943Z" transform="translate(-11.758 -15.559)"/><path class="a" d="M33.489,60.346a1.472,1.472,0,0,0,1.471,1.471h2.207a1.471,1.471,0,0,0,0-2.943H34.961A1.472,1.472,0,0,0,33.489,60.346Z" transform="translate(-8.851 -15.559)"/><path class="a" d="M89.969,61.818h2.208a1.471,1.471,0,0,0,0-2.943H89.969a1.471,1.471,0,0,0,0,2.943Z" transform="translate(-23.388 -15.559)"/><path class="a" d="M67.967,61.818h2.207a1.471,1.471,0,1,0,0-2.943H67.967a1.471,1.471,0,0,0,0,2.943Z" transform="translate(-17.573 -15.559)"/><path class="a" d="M25.459,61.818h1.1a1.471,1.471,0,0,0,0-2.943h-1.1a1.471,1.471,0,1,0,0,2.943Z" transform="translate(-6.339 -15.559)"/><path class="a" d="M102.075,71.351h-1.1a1.471,1.471,0,0,0,0,2.943h1.1a1.471,1.471,0,0,0,0-2.943Z" transform="translate(-26.296 -18.856)"/><path class="a" d="M37.168,74.293a1.471,1.471,0,0,0,0-2.943H34.961a1.471,1.471,0,1,0,0,2.943Z" transform="translate(-8.851 -18.856)"/><path class="a" d="M82.647,72.822a1.472,1.472,0,0,0-1.471-1.471H78.969a1.471,1.471,0,0,0,0,2.943h2.207A1.472,1.472,0,0,0,82.647,72.822Z" transform="translate(-20.481 -18.856)"/><path class="a" d="M60.643,72.822a1.472,1.472,0,0,0-1.471-1.471H56.965a1.471,1.471,0,0,0,0,2.943h2.207A1.472,1.472,0,0,0,60.643,72.822Z" transform="translate(-14.666 -18.856)"/><path class="a" d="M93.649,72.822a1.472,1.472,0,0,0-1.471-1.471H89.969a1.471,1.471,0,0,0,0,2.943h2.208A1.472,1.472,0,0,0,93.649,72.822Z" transform="translate(-23.388 -18.856)"/><path class="a" d="M71.645,72.822a1.472,1.472,0,0,0-1.471-1.471H67.967a1.471,1.471,0,0,0,0,2.943h2.207A1.472,1.472,0,0,0,71.645,72.822Z" transform="translate(-17.573 -18.856)"/><path class="a" d="M49.641,72.822a1.472,1.472,0,0,0-1.471-1.471H45.963a1.471,1.471,0,0,0,0,2.943H48.17A1.472,1.472,0,0,0,49.641,72.822Z" transform="translate(-11.758 -18.856)"/><path class="a" d="M26.562,74.293a1.471,1.471,0,0,0,0-2.943h-1.1a1.471,1.471,0,0,0,0,2.943Z" transform="translate(-6.339 -18.856)"/><path class="a" d="M85.29,83.828h-1.1a1.471,1.471,0,0,0,0,2.943h1.1a1.471,1.471,0,1,0,0-2.943Z" transform="translate(-21.86 -22.154)"/><path class="a" d="M74.677,83.828H72.29a1.471,1.471,0,1,0,0,2.943h2.387a1.471,1.471,0,0,0,0-2.943Z" transform="translate(-18.716 -22.154)"/><path class="a" d="M62.78,83.828H60.392a1.471,1.471,0,0,0,0,2.943H62.78a1.471,1.471,0,0,0,0-2.943Z" transform="translate(-15.572 -22.154)"/><path class="a" d="M50.882,83.828H48.495a1.471,1.471,0,0,0,0,2.943h2.388a1.471,1.471,0,0,0,0-2.943Z" transform="translate(-12.427 -22.154)"/><path class="a" d="M38.985,83.828H36.6a1.471,1.471,0,0,0,0,2.943h2.387a1.471,1.471,0,0,0,0-2.943Z" transform="translate(-9.283 -22.154)"/><path class="a" d="M27.55,83.828h-1.1a1.471,1.471,0,0,0,0,2.943h1.1a1.471,1.471,0,0,0,0-2.943Z" transform="translate(-6.6 -22.154)"/><path class="a" d="M31.663,46.337a1.472,1.472,0,0,0-.627-1.984L27.661,42.6l3.375-1.755a1.471,1.471,0,1,0-1.358-2.611l-5.887,3.06a1.472,1.472,0,0,0,0,2.611l5.887,3.06a1.472,1.472,0,0,0,1.984-.627Z" transform="translate(-6.078 -10.06)"/><path class="a" d="M92.177,46.337a1.472,1.472,0,0,0,1.984.627l5.886-3.06a1.471,1.471,0,0,0,0-2.611l-5.886-3.06A1.471,1.471,0,1,0,92.8,40.843L96.179,42.6,92.8,44.352A1.472,1.472,0,0,0,92.177,46.337Z" transform="translate(-24.317 -10.06)"/><path class="a" d="M49.989,45.181h1.1a1.471,1.471,0,0,0,0-2.943h-1.1a1.471,1.471,0,0,0,0,2.943Z" transform="translate(-12.822 -11.163)"/><path class="a" d="M62.885,42.238H60.421a1.471,1.471,0,0,0,0,2.943h2.464a1.471,1.471,0,1,0,0-2.943Z" transform="translate(-15.579 -11.163)"/><path class="a" d="M72.7,45.181h2.464a1.471,1.471,0,1,0,0-2.943H72.7a1.471,1.471,0,0,0,0,2.943Z" transform="translate(-18.825 -11.163)"/><path class="a" d="M86.086,42.238h-1.1a1.471,1.471,0,0,0,0,2.943h1.1a1.471,1.471,0,1,0,0-2.943Z" transform="translate(-22.07 -11.163)"/><path class="a" d="M41.109,47.582a1.045,1.045,0,0,0-1.049,1,1.072,1.072,0,1,0,1.049-1Z" transform="translate(-10.587 -12.575)"/><path class="a" d="M40.954,38a1.368,1.368,0,0,0-1.438,1.14s.484,4.215.562,4.84c.016.128.027.137.192.137q.7,0,1.407,0c.165,0,.175-.008.19-.139.062-.486.125-.974.187-1.461.093-.729.19-1.46.28-2.19a8.085,8.085,0,0,0,.126-1.017,1.7,1.7,0,0,0-.009-.17A1.385,1.385,0,0,0,40.954,38Z" transform="translate(-10.443 -10.043)"/></g></g></svg>