<svg xmlns="http://www.w3.org/2000/svg" width="94.172" height="94.172" viewBox="0 0 94.172 94.172"><defs><style>.a,.b{fill:#1c9868;}.a{fill-rule:evenodd;}</style></defs><g transform="translate(-749.914 -1215.692)"><path class="a" d="M88.286,0H5.886A5.9,5.9,0,0,0,0,5.886v82.4a5.9,5.9,0,0,0,5.886,5.886h82.4a5.9,5.9,0,0,0,5.886-5.886V5.886A5.9,5.9,0,0,0,88.286,0ZM5.886,2.943h82.4a2.946,2.946,0,0,1,2.943,2.943V8.829H2.943V5.886A2.946,2.946,0,0,1,5.886,2.943Zm82.4,88.286H5.886a2.946,2.946,0,0,1-2.943-2.943V11.772H91.229V88.286A2.946,2.946,0,0,1,88.286,91.229Z" transform="translate(749.914 1215.693)"/><circle class="b" cx="1.471" cy="1.471" r="1.471" transform="translate(833.788 1220.107)"/><circle class="b" cx="1.471" cy="1.471" r="1.471" transform="translate(827.903 1220.107)"/><path class="b" d="M22,14.187A12.187,12.187,0,1,0,34.187,2,12.2,12.2,0,0,0,22,14.187Zm22.94,0A10.753,10.753,0,1,1,34.187,3.434,10.765,10.765,0,0,1,44.94,14.187Z" transform="translate(767.841 1242.494)"/><path class="b" d="M36.3,7V8.491A5.022,5.022,0,0,0,32,13.452a.716.716,0,0,0,.356.619l8.225,4.8a3.585,3.585,0,0,1-7.147-.4H32a5.022,5.022,0,0,0,4.3,4.961v1.491h1.434V23.431a5.022,5.022,0,0,0,4.3-4.961.716.716,0,0,0-.356-.619l-8.225-4.8a3.585,3.585,0,0,1,7.147.4h1.434a5.022,5.022,0,0,0-4.3-4.961V7Z" transform="translate(765.009 1241.078)"/><path class="b" d="M2.717,52.336H8.452a.716.716,0,0,0,.717-.717v-.543L24.7,54.47a.739.739,0,0,0,.153.016.724.724,0,0,0,.184-.024L35.876,51.6a.721.721,0,0,0,.4-.274l8.2-11.382A2.77,2.77,0,0,0,40.13,36.5l-6.984,8.731-8.782,1.756a.718.718,0,0,1-.858-.7V45.61a.721.721,0,0,1,.567-.7l7.392-1.584a2.626,2.626,0,0,0-.724-5.188l-8.614.574L15.776,37.3a.724.724,0,0,0-.422.034L9.169,39.807V38.715A.716.716,0,0,0,8.452,38H2.717A.716.716,0,0,0,2,38.715v12.9A.716.716,0,0,0,2.717,52.336Zm12.965-13.59,6.235,1.386a.773.773,0,0,0,.2.015l8.716-.581a1.17,1.17,0,0,1,.894.319,1.182,1.182,0,0,1,.379.871,1.2,1.2,0,0,1-.943,1.166l-7.392,1.584a2.16,2.16,0,0,0-1.7,2.1v.676a2.151,2.151,0,0,0,2.573,2.108l9.038-1.807a.72.72,0,0,0,.419-.254L41.25,37.4a1.336,1.336,0,0,1,2-.1,1.349,1.349,0,0,1,.075,1.776l-8.065,11.2L24.834,53.033,9.169,49.608V41.351Zm-12.248.686h4.3V50.9h-4.3Z" transform="translate(773.503 1233.02)"/></g></svg>