<svg xmlns="http://www.w3.org/2000/svg" width="94.172" height="94.172" viewBox="0 0 94.172 94.172"><defs><style>.a,.b{fill:#1c9868;}.a{fill-rule:evenodd;}.c{fill:none;stroke:#1c9868;stroke-linecap:round;stroke-width:4px;}</style></defs><g transform="translate(-1039.485 -803.692)"><path class="a" d="M88.286,0H5.886A5.9,5.9,0,0,0,0,5.886v82.4a5.9,5.9,0,0,0,5.886,5.886h82.4a5.9,5.9,0,0,0,5.886-5.886V5.886A5.9,5.9,0,0,0,88.286,0ZM5.886,2.943h82.4a2.946,2.946,0,0,1,2.943,2.943V8.829H2.943V5.886A2.946,2.946,0,0,1,5.886,2.943Zm82.4,88.286H5.886a2.946,2.946,0,0,1-2.943-2.943V11.772H91.229V88.286A2.946,2.946,0,0,1,88.286,91.229Z" transform="translate(1039.485 803.693)"/><circle class="b" cx="1.471" cy="1.471" r="1.471" transform="translate(1123.36 808.107)"/><circle class="b" cx="1.471" cy="1.471" r="1.471" transform="translate(1117.474 808.107)"/><circle class="b" cx="6" cy="6" r="6" transform="translate(1062.571 835)"/><circle class="b" cx="6" cy="6" r="6" transform="translate(1098.571 835)"/><line class="c" y1="10" x2="48" transform="translate(1063.071 865.5)"/></g></svg>