<svg xmlns="http://www.w3.org/2000/svg" width="94.172" height="94.172" viewBox="0 0 94.172 94.172"><defs><style>.a,.b{fill:#1c9868;}.b{fill-rule:evenodd;}</style></defs><g transform="translate(-171.914 -803.692)"><path class="a" d="M20.668,72.8h0a13.37,13.37,0,0,0,1.477,3.022h0a3.47,3.47,0,0,0,5.194,4.593h0a13.036,13.036,0,0,0,3.2,1.123h0a3.47,3.47,0,0,0,3.47,3.242h.207A3.463,3.463,0,0,0,37.468,81.1h0a13.029,13.029,0,0,0,3.015-1.464h0a3.463,3.463,0,0,0,4.593-5.174h0a13.37,13.37,0,0,0,1.09-3.175h0a3.479,3.479,0,0,0-.421-6.946h0a12.875,12.875,0,0,0-1.477-3.022h0a3.474,3.474,0,1,0-5.208-4.6h0a13.2,13.2,0,0,0-3.175-1.1h0a3.47,3.47,0,0,0-6.926.435h0a13.37,13.37,0,0,0-3.022,1.471h0a3.464,3.464,0,1,0-4.593,5.188,13.016,13.016,0,0,0-1.09,3.175h0a3.469,3.469,0,1,0,.421,6.926Zm-.254-4.258,1.076-.067A1.337,1.337,0,0,0,22.734,67.3a10.422,10.422,0,0,1,1.437-4.2,1.337,1.337,0,0,0-.261-1.7l-.8-.7a.789.789,0,0,1,.475-1.377.755.755,0,0,1,.568.194l.809.715a1.337,1.337,0,0,0,1.711.047,10.616,10.616,0,0,1,4.011-1.952,1.337,1.337,0,0,0,1.016-1.364l-.067-1.076a.8.8,0,0,1,1.584-.1l.067,1.09a1.337,1.337,0,0,0,1.183,1.27,10.435,10.435,0,0,1,4.2,1.451,1.337,1.337,0,0,0,1.725-.281l.669-.816a.791.791,0,1,1,1.183,1.05l-.715.809a1.337,1.337,0,0,0-.04,1.718,10.275,10.275,0,0,1,1.952,4.011A1.337,1.337,0,0,0,44.821,67.1l1.09-.067A.8.8,0,0,1,46,68.623l-1.076.067a1.337,1.337,0,0,0-1.25,1.177,10.609,10.609,0,0,1-1.444,4.212,1.337,1.337,0,0,0,.261,1.691l.816.722a.789.789,0,0,1,.067,1.116h0a.785.785,0,0,1-1.11.074l-.829-.735a1.337,1.337,0,0,0-1.711-.087A10.415,10.415,0,0,1,35.716,78.8a1.337,1.337,0,0,0-.983,1.4l.067,1.076a.782.782,0,0,1-.194.575.8.8,0,0,1-1.39-.475l-.067-1.09a1.337,1.337,0,0,0-1.177-1.243A10.435,10.435,0,0,1,27.761,77.6a1.337,1.337,0,0,0-1.7.254l-.715.809a.8.8,0,0,1-1.19-1.05l.715-.809a1.337,1.337,0,0,0,.047-1.711,10.6,10.6,0,0,1-1.952-4.011,1.337,1.337,0,0,0-1.377-1.016l-1.09.067a.8.8,0,0,1-.829-.749.789.789,0,0,1,.742-.836Z" transform="translate(171.573 790.17)"/><path class="a" d="M33.362,79.47A7.868,7.868,0,0,0,41.778,66.2a7.868,7.868,0,0,0-8.416,13.27ZM34.3,68.814a5.167,5.167,0,0,1,3.3-1.163,5.1,5.1,0,0,1,2.761.8,5.194,5.194,0,1,1-6.063.374Z" transform="translate(167.242 785.921)"/><path class="a" d="M65.851,61.149h.114A13.37,13.37,0,0,0,67.3,64.224h0A3.47,3.47,0,0,0,72.336,69h0a13.016,13.016,0,0,0,3.142,1.2h0a3.47,3.47,0,0,0,3.476,3.342h.087a3.463,3.463,0,0,0,3.376-3.556h0a13.009,13.009,0,0,0,3.062-1.337h0a3.383,3.383,0,0,0,2.473.949,3.463,3.463,0,0,0,2.293-5.976h0a13.37,13.37,0,0,0,1.2-3.135h0a3.471,3.471,0,0,0-.167-6.939h0a12.882,12.882,0,0,0-1.37-3.075h0a3.47,3.47,0,0,0-.127-4.893h0a3.376,3.376,0,0,0-2.453-.929A3.436,3.436,0,0,0,84.9,45.72h0a13.229,13.229,0,0,0-3.135-1.21h0a3.477,3.477,0,0,0-6.952.18h0a13.37,13.37,0,0,0-3.068,1.337h0a3.473,3.473,0,0,0-4.78,5.04,13.016,13.016,0,0,0-1.2,3.135h0a3.47,3.47,0,1,0,.087,6.939Zm-.568-4.011a.782.782,0,0,1,.555-.247h1.076a1.337,1.337,0,0,0,1.277-1.143A10.429,10.429,0,0,1,69.775,51.6a1.337,1.337,0,0,0-.2-1.7l-.775-.749A.789.789,0,0,1,69.882,48l.782.742a1.337,1.337,0,0,0,1.711.107,10.609,10.609,0,0,1,4.085-1.792A1.337,1.337,0,0,0,77.49,45.72V44.644a.8.8,0,1,1,1.591-.04v1.09a1.337,1.337,0,0,0,1.13,1.284,10.455,10.455,0,0,1,4.145,1.6,1.337,1.337,0,0,0,1.7-.194l.789-.816a.782.782,0,0,1,.548-.247.816.816,0,0,1,.562.214h0a.789.789,0,0,1,0,1.1l-.709.809a1.337,1.337,0,0,0-.107,1.718,10.275,10.275,0,0,1,1.812,4.051,1.337,1.337,0,0,0,1.337,1.063h1.1a.782.782,0,1,1,.04,1.564H90.352a1.337,1.337,0,0,0-1.29,1.13,10.616,10.616,0,0,1-1.591,4.158,1.337,1.337,0,0,0,.2,1.7l.789.749a.789.789,0,0,1,0,1.116h0a.789.789,0,0,1-1.116,0l-.8-.762a1.337,1.337,0,0,0-1.7-.053,10.415,10.415,0,0,1-4.058,1.8,1.337,1.337,0,0,0-1.063,1.337v1.076a.782.782,0,0,1-.214.568.8.8,0,0,1-.568.247.782.782,0,0,1-.782-.755v-1.09a1.337,1.337,0,0,0-1.15-1.284A10.442,10.442,0,0,1,72.85,66.19a1.337,1.337,0,0,0-1.7.194l-.742.782a.8.8,0,0,1-1.15-1.09L70,65.294a1.337,1.337,0,0,0,.14-1.718,10.609,10.609,0,0,1-1.812-4.064,1.337,1.337,0,0,0-1.337-1.063H65.9a.8.8,0,0,1-.789-.782.782.782,0,0,1,.167-.535Z" transform="translate(156.539 793.9)"/><path class="a" d="M78.436,68.078a7.868,7.868,0,1,0-1.871-10.826A7.868,7.868,0,0,0,78.436,68.078Zm1.337-10.616a3.715,3.715,0,1,1-.033,0Z" transform="translate(152.283 789.685)"/><path class="b" d="M88.286,0H5.886A5.9,5.9,0,0,0,0,5.886v82.4a5.9,5.9,0,0,0,5.886,5.886h82.4a5.9,5.9,0,0,0,5.886-5.886V5.886A5.9,5.9,0,0,0,88.286,0ZM5.886,2.943h82.4a2.946,2.946,0,0,1,2.943,2.943V8.829H2.943V5.886A2.946,2.946,0,0,1,5.886,2.943Zm82.4,88.286H5.886a2.946,2.946,0,0,1-2.943-2.943V11.772H91.229V88.286A2.946,2.946,0,0,1,88.286,91.229Z" transform="translate(171.914 803.693)"/><circle class="a" cx="1.471" cy="1.471" r="1.471" transform="translate(255.788 808.107)"/><circle class="a" cx="1.471" cy="1.471" r="1.471" transform="translate(249.903 808.107)"/></g></svg>