<svg xmlns="http://www.w3.org/2000/svg" xmlns:xlink="http://www.w3.org/1999/xlink" width="1281.637" height="1136.469" viewBox="0 0 1281.637 1136.469"><defs><style>.a{opacity:0.8;fill:url(#a);}</style><linearGradient id="a" x1="-0.06" y1="-0.299" x2="0.701" y2="1.075" gradientUnits="objectBoundingBox"><stop offset="0" stop-color="#e1eeff"/><stop offset="1" stop-color="#f9e9e3"/></linearGradient></defs><path class="a" d="M18804,466.392c.2-.106.4-.211.6-.316C18807.688,357.592,19051.945,270,19352.8,270c302.781,0,548.236,88.721,548.236,198.164,0,1.069-.021,2.133-.07,3.2l.07.025V991.473c-.029-.018-3.76-2.011-10.789-4.928a291.93,291.93,0,0,0-31.506-10.845,397.452,397.452,0,0,0-50.928-10.842,475.7,475.7,0,0,0-69.072-4.928c-50.5,0-103.277,7.509-156.855,22.325-15.256,4.218-30.8,9.1-46.193,14.5-16.123,5.659-32.533,12.048-48.781,19-16.961,7.254-34.213,15.312-51.268,23.953-17.771,9.006-35.824,18.891-53.66,29.386-11.707,6.888-23.328,13.343-34.533,19.186-10.879,5.676-21.689,10.943-32.145,15.656-10.119,4.563-20.2,8.742-29.955,12.419-9.432,3.556-18.838,6.746-27.973,9.49-8.787,2.641-17.594,4.948-26.176,6.858-8.215,1.83-16.482,3.351-24.578,4.527-7.691,1.117-15.494,1.954-23.172,2.495-7.242.508-14.631.763-21.967.763-8.166,0-16.295-.3-24.834-.927-7.609-.555-15.373-1.354-23.73-2.442-15.781-2.055-30.885-4.779-45.486-7.414l-.008,0-.752-.134c-14.543-2.626-29.574-5.338-44.7-7.331-8.133-1.075-15.664-1.862-23.016-2.409-8.244-.615-16.059-.912-23.891-.912a294.166,294.166,0,0,0-76.705,10.236c-7.105,1.892-14.381,4.09-21.629,6.529-7.486,2.516-15.178,5.37-22.861,8.483-7.91,3.205-16.051,6.778-24.2,10.625-8.369,3.95-17.006,8.308-25.672,12.954Z" transform="translate(-18310.76 4552.519) rotate(-14)"/></svg>