<svg xmlns="http://www.w3.org/2000/svg" xmlns:xlink="http://www.w3.org/1999/xlink" width="766.267" height="758.327" viewBox="0 0 766.267 758.327"><defs><style>.a{opacity:0.4;}.b{fill:url(#a);}</style><linearGradient id="a" x1="0.5" x2="0.5" y2="1" gradientUnits="objectBoundingBox"><stop offset="0" stop-color="#e1eeff"/><stop offset="1" stop-color="#f9ede9"/></linearGradient></defs><g class="a" transform="translate(766.267 758.327) rotate(180)"><path class="b" d="M157.7,6.13c31.7-4.312,28.059-9.7,59.314-2.9s61.376,22.957,80.057,48.924c12.957,18.011,19.786,39.612,30.121,59.246,39.036,74.163,136.3,101.133,157.8,110.229s83.467,18.809,146.475,23.343,113-3.856,131.239,31.057c9.8,18.755-3.845,82.289-2.741,103.42,2.443,46.775-8.022,96.941-41.193,130.01-18.5,18.442-42.538,30.152-66.513,40.522-86.482,37.407-178.392,61.776-263.1,103.038-70.841,34.506-137.559,81.111-214.834,96.528-30.555,6.1-113.048,18.187-156.752-4.187s9.014-32.234,0-62.059c-8.911-29.487-.666-61.031,5.738-91.161,7.165-33.708,12-68.274,8.974-102.6-2.747-31.123-11.884-61.292-17.29-92.065C-3.267,293.554,5.929,271.16,32.282,168.988,15.846,134.75-11.2,115.937,12.41,91.564c4.715-18.546,40.55,8.487,81.981-39.406s62.686-29.772,80.656-31.869" transform="translate(0 0)"/></g></svg>