<?xml version="1.0" encoding="utf-8"?>
<!-- Generator: Adobe Illustrator 16.0.0, SVG Export Plug-In . SVG Version: 6.00 Build 0)  -->
<!DOCTYPE svg PUBLIC "-//W3C//DTD SVG 1.1//EN" "http://www.w3.org/Graphics/SVG/1.1/DTD/svg11.dtd">
<svg version="1.1" id="Layer_1" xmlns="http://www.w3.org/2000/svg" xmlns:xlink="http://www.w3.org/1999/xlink" x="0px" y="0px"
	 width="107.751px" height="29.607px" viewBox="6.823 14.339 107.751 29.607" enable-background="new 6.823 14.339 107.751 29.607"
	 xml:space="preserve">
<g>
	<g transform="matrix(1.2336554 0 0 1.2336554 6.822743 14.338759)">
		<path fill="#4B9E99" d="M18,20.6l6,0.9L18,24L0,18L18,20.6V0l6,2.5v19L18,20.6z"/>
		<path fill="#4B9E99" d="M6,4l2.3,0.5v3.6L12,5.5v3l-3.8,2l3.8,2V15.5l-3.8-2.6v3.599L6,17l-4-3.5V12l2.3-1.5L2,9V7.5L6,4z
			 M3.2,8.1L6,9.5V6L3.2,8.1z M6,15v-3.5l-2.8,1.4L6,15z M12,5.5l3,1v8L12,15.5V5.5z"/>
	</g>
	<g transform="scale(1.076111 .92927216)">
		<path fill="#4B9E99" d="M48.616,34.202h-2.29l-0.664-2.076h-3.318l-0.657,2.076H39.41l3.396-9.33h2.492L48.616,34.202z
			 M45.181,30.513l-1.002-3.136c-0.074-0.234-0.126-0.514-0.157-0.839h-0.052c-0.022,0.273-0.076,0.544-0.163,0.813l-1.015,3.162
			H45.181z"/>
		<path fill="#4B9E99" d="M51.661,33.428h-0.026v3.839h-2.056V27.54h2.056v1.002h0.026c0.507-0.777,1.221-1.165,2.14-1.165
			c0.863,0,1.529,0.297,1.997,0.892c0.473,0.59,0.709,1.395,0.709,2.413c0,1.111-0.275,2.002-0.826,2.675
			c-0.546,0.672-1.275,1.008-2.186,1.008C52.694,34.364,52.082,34.053,51.661,33.428z M51.603,30.695v0.534
			c0,0.46,0.121,0.835,0.364,1.125c0.243,0.291,0.562,0.436,0.956,0.436c0.469,0,0.831-0.18,1.087-0.54
			c0.26-0.365,0.39-0.879,0.39-1.542c0-1.171-0.455-1.757-1.366-1.757c-0.421,0-0.765,0.16-1.035,0.481
			C51.735,29.75,51.603,30.17,51.603,30.695z"/>
		<path fill="#4B9E99" d="M59.937,33.428h-0.026v3.839h-2.055V27.54h2.055v1.002h0.026c0.507-0.777,1.221-1.165,2.141-1.165
			c0.863,0,1.528,0.297,1.997,0.892c0.473,0.59,0.709,1.395,0.709,2.413c0,1.111-0.275,2.002-0.826,2.675
			c-0.546,0.672-1.276,1.008-2.186,1.008C60.969,34.364,60.357,34.053,59.937,33.428z M59.878,30.695v0.534
			c0,0.46,0.122,0.835,0.365,1.125c0.243,0.291,0.562,0.436,0.956,0.436c0.468,0,0.831-0.18,1.087-0.54
			c0.26-0.365,0.39-0.879,0.39-1.542c0-1.171-0.456-1.757-1.367-1.757c-0.421,0-0.766,0.16-1.035,0.481
			C60.011,29.75,59.878,30.17,59.878,30.695z"/>
		<path fill="#4B9E99" d="M73.021,33.87c-0.682,0.33-1.57,0.494-2.667,0.494c-1.432,0-2.557-0.42-3.378-1.261
			c-0.819-0.842-1.229-1.964-1.229-3.364c0-1.492,0.459-2.702,1.379-3.631c0.924-0.928,2.121-1.392,3.591-1.392
			c0.911,0,1.679,0.115,2.303,0.345v2.023c-0.624-0.373-1.336-0.56-2.134-0.56c-0.877,0-1.584,0.275-2.122,0.827
			c-0.537,0.551-0.807,1.297-0.807,2.238c0,0.902,0.254,1.622,0.761,2.16c0.508,0.534,1.191,0.8,2.049,0.8
			c0.82,0,1.57-0.199,2.251-0.598V33.87z"/>
		<path fill="#4B9E99" d="M80.446,31.456h-4.347c0.07,0.967,0.679,1.451,1.829,1.451c0.733,0,1.377-0.174,1.932-0.521v1.483
			c-0.615,0.33-1.416,0.494-2.4,0.494c-1.075,0-1.91-0.296-2.506-0.891c-0.594-0.599-0.891-1.431-0.891-2.498
			c0-1.106,0.321-1.983,0.964-2.629c0.642-0.646,1.43-0.969,2.368-0.969c0.972,0,1.721,0.288,2.251,0.865
			c0.534,0.577,0.8,1.36,0.8,2.349V31.456z M78.539,30.194c0-0.954-0.386-1.432-1.158-1.432c-0.329,0-0.616,0.137-0.859,0.41
			c-0.238,0.273-0.383,0.614-0.436,1.021H78.539z"/>
		<path fill="#4B9E99" d="M88.103,34.202h-2.049V30.5c0-1.033-0.368-1.548-1.106-1.548c-0.356,0-0.649,0.137-0.878,0.41
			s-0.345,0.62-0.345,1.041v3.8h-2.055V27.54h2.055v1.054h0.026c0.49-0.811,1.203-1.217,2.14-1.217c1.476,0,2.212,0.915,2.212,2.745
			V34.202z"/>
		<path fill="#4B9E99" d="M93.764,34.124c-0.303,0.16-0.761,0.24-1.373,0.24c-1.449,0-2.173-0.752-2.173-2.257v-3.051h-1.08V27.54
			h1.08v-1.438l2.05-0.585v2.023h1.496v1.516h-1.496v2.693c0,0.694,0.275,1.041,0.827,1.041c0.216,0,0.439-0.063,0.67-0.189V34.124z
			"/>
		<path fill="#4B9E99" d="M100.901,31.456h-4.346c0.069,0.967,0.679,1.451,1.828,1.451c0.733,0,1.378-0.174,1.933-0.521v1.483
			c-0.616,0.33-1.417,0.494-2.401,0.494c-1.076,0-1.911-0.296-2.505-0.891c-0.594-0.599-0.891-1.431-0.891-2.498
			c0-1.106,0.321-1.983,0.962-2.629c0.643-0.646,1.432-0.969,2.369-0.969c0.972,0,1.722,0.288,2.251,0.865
			c0.534,0.577,0.8,1.36,0.8,2.349V31.456z M98.995,30.194c0-0.954-0.386-1.432-1.158-1.432c-0.329,0-0.615,0.137-0.858,0.41
			c-0.239,0.273-0.385,0.614-0.436,1.021H98.995z"/>
		<path fill="#4B9E99" d="M106.471,29.394c-0.247-0.134-0.535-0.202-0.866-0.202c-0.447,0-0.795,0.165-1.047,0.494
			c-0.251,0.325-0.378,0.77-0.378,1.334v3.182h-2.055V27.54h2.055v1.236h0.026c0.326-0.902,0.911-1.353,1.757-1.353
			c0.217,0,0.386,0.026,0.507,0.078V29.394z"/>
	</g>
</g>
</svg>
