<?xml version="1.0" encoding="utf-8"?>
<!-- Generator: Adobe Illustrator 16.0.0, SVG Export Plug-In . SVG Version: 6.00 Build 0)  -->
<!DOCTYPE svg PUBLIC "-//W3C//DTD SVG 1.1//EN" "http://www.w3.org/Graphics/SVG/1.1/DTD/svg11.dtd">
<svg version="1.1" id="Layer_1" xmlns="http://www.w3.org/2000/svg" xmlns:xlink="http://www.w3.org/1999/xlink" x="0px" y="0px"
	 width="100.007px" height="28.856px" viewBox="9.993 15.568 100.007 28.856" enable-background="new 9.993 15.568 100.007 28.856"
	 xml:space="preserve">
<path fill="#4E9B99" d="M27.56,38.785c-2.157,0-3.905-1.748-3.905-3.905h7.8c0,2.157-1.748,3.905-3.905,3.905H27.56z M18.832,30.055
	c-1.331-0.001-2.411,1.077-2.412,2.408c0,0.002,0,0.004,0,0.006h4.823c0.001-1.332-1.077-2.412-2.408-2.413
	C18.833,30.056,18.833,30.056,18.832,30.055 M36.306,30.056c-1.331-0.001-2.411,1.078-2.411,2.409c0,0.001,0,0.002,0,0.002h4.822
	c0.001-1.33-1.078-2.41-2.409-2.411C36.307,30.056,36.306,30.056,36.306,30.056 M27.559,18.556c0.534,0,1.027-0.285,1.294-0.747
	s0.267-1.032,0-1.494s-0.76-0.747-1.294-0.747c-0.825,0-1.494,0.67-1.494,1.494S26.735,18.556,27.559,18.556 M42.026,40.8
	c-0.482,0.543-1.164,0.868-1.89,0.9c-3.014,0.14-7.643,0.308-12.573,0.308S18.003,41.84,15,41.7c-0.726-0.032-1.408-0.356-1.89-0.9
	c-0.483-0.539-0.728-1.251-0.68-1.973c0.16-2.412,0.374-4.546,0.64-6.345c0.393-2.67,0.985-5.38,1.4-7.185
	c0.268-1.159,1.269-2.002,2.457-2.071c2.186-0.136,5.806-0.298,10.637-0.298s8.45,0.162,10.637,0.298
	c1.188,0.069,2.188,0.912,2.456,2.071c0.428,1.804,1.02,4.516,1.4,7.185c0.265,1.799,0.48,3.934,0.64,6.345
	c0.05,0.724-0.195,1.436-0.679,1.976 M44.444,32.132c-0.406-2.753-1.012-5.537-1.45-7.388c-0.509-2.195-2.404-3.792-4.653-3.923
	c-2.22-0.138-5.894-0.303-10.787-0.303c-4.893,0-8.566,0.165-10.786,0.303c-2.25,0.131-4.144,1.729-4.653,3.923
	c-0.438,1.85-1.045,4.634-1.45,7.388c-0.274,1.863-0.496,4.062-0.66,6.54c-0.094,1.369,0.37,2.718,1.287,3.738
	c0.913,1.027,2.204,1.643,3.577,1.701c4.226,0.201,8.456,0.305,12.686,0.313c4.976,0,9.645-0.17,12.686-0.313
	c1.373-0.059,2.664-0.674,3.576-1.701c0.917-1.021,1.381-2.369,1.287-3.738C44.941,36.195,44.719,33.996,44.444,32.132
	 M59.597,33.954c0-1.62-1.113-2.733-2.428-2.733s-2.43,1.113-2.43,2.733s1.113,2.733,2.43,2.733s2.43-1.113,2.43-2.733
	 M62.434,33.954c0,2.935-2.228,5.159-4.758,5.159c-1.922,0-2.935-1.416-2.935-1.416v1.215h-2.72v-14.17h2.732v5.465
	c0,0,1.013-1.417,2.935-1.417c2.53,0,4.757,2.228,4.757,5.16 M64.568,38.91H67.3V29h-2.733L64.568,38.91z M65.885,27.676
	c-0.9,0-1.518-0.607-1.518-1.518c0-0.911,0.607-1.518,1.518-1.518c1,0,1.618,0.607,1.618,1.518c0,0.911-0.606,1.518-1.62,1.518
	H65.885z M71.249,26.056h2.431v3.138H75.7v2.428h-2.03v3.946c0,0.609,0.506,1.115,1.215,1.115c0.607,0,1.012-0.203,1.012-0.203V38.8
	c0,0-0.799,0.304-1.821,0.304c-2.024,0-3.138-1.113-3.138-3.439v-4.049h-1.72v-2.427h0.9c0.606,0,1.112-0.507,1.112-1.316
	L71.249,26.056z M84.2,31.623c0,0-0.304-0.1-0.9-0.1c-1.417,0-2.327,0.899-2.327,2.629v4.757H78.24V29h2.732v1.215
	c0,0,1.012-1.316,2.834-1.316h0.403L84.2,31.623z M85.82,38.91h2.732V29H85.82V38.91z M87.137,27.676
	c-0.9,0-1.519-0.607-1.519-1.518c0-0.911,0.606-1.518,1.519-1.518c1.012,0,1.619,0.607,1.619,1.518
	C88.756,27.069,88.148,27.676,87.137,27.676z M96.749,31.926c0,0-0.606-0.8-1.618-0.8c-0.8,0-1.215,0.405-1.215,0.8
	c0,1.418,4.555,0.7,4.555,4.049c0,1.719-1.418,3.137-3.947,3.137c-2.834,0-4.049-1.82-4.049-1.82l1.519-1.518
	c0,0,0.8,1.113,2.124,1.113c0.9,0,1.316-0.404,1.316-0.9c0-1.518-4.554-0.771-4.554-4.051c0-1.518,1.62-3.137,3.845-3.137
	c2.328,0,3.44,1.518,3.44,1.518l-1.416,1.619V31.926z M102.719,32.939h4.555c-0.203-1.014-1.012-1.822-2.228-1.822
	C103.831,31.117,103.021,31.917,102.719,32.939z M102.719,34.861c0.202,1.013,1.113,1.923,2.631,1.923
	c1.719,0,2.629-1.214,2.629-1.214l1.418,1.82c0,0-1.519,1.719-4.25,1.719c-2.936,0-5.263-2.326-5.263-5.159s2.327-5.16,5.16-5.16
	S110,30.916,110,33.75c0,0.7-0.1,1.113-0.1,1.113L102.719,34.861z"/>
</svg>
