<?xml version="1.0" encoding="utf-8"?>
<!-- Generator: Adobe Illustrator 16.0.0, SVG Export Plug-In . SVG Version: 6.00 Build 0)  -->
<!DOCTYPE svg PUBLIC "-//W3C//DTD SVG 1.1//EN" "http://www.w3.org/Graphics/SVG/1.1/DTD/svg11.dtd">
<svg version="1.1" id="Layer_1" xmlns="http://www.w3.org/2000/svg" xmlns:xlink="http://www.w3.org/1999/xlink" x="0px" y="0px"
	 width="256px" height="248px" viewBox="0 0 256 248" enable-background="new 0 0 256 248" xml:space="preserve">
<path fill="#4E9B99" d="M216.43,65.967c-10.699,0-20.4,4.255-27.522,11.156l-45.162-32.34c0.282-1.18,0.446-2.406,0.446-3.674
	c0-8.741-7.086-15.828-15.828-15.828c-8.741,0-15.828,7.087-15.828,15.828c0,8.742,7.087,15.828,15.828,15.828
	c3.06,0,5.91-0.884,8.33-2.388L191.98,94.78c4.31-8.99,13.815-15.99,24.451-15.99c14.771,0,26.746,11.974,26.746,26.745
	c0,11.804-7.646,21.822-18.257,25.369l3.629,12.31c15.927-5.118,27.45-20.052,27.45-37.68c0-21.852-17.714-39.568-39.568-39.568"/>
<path fill="#4E9B99" d="M89.565,27.53c-3.231,10.171-2.116,20.68,2.293,29.534L47.478,90.23c-1.056-0.641-2.184-1.156-3.36-1.534
	c-8.31-2.64-17.186,1.957-19.825,10.267c-2.64,8.31,1.957,17.187,10.266,19.826c8.31,2.64,17.187-1.956,19.827-10.266
	c0.889-2.8,0.974-5.794,0.245-8.64l54.942-40.407c-7.245-6.812-11.03-17.963-7.818-28.074c4.46-14.042,19.46-21.81,33.503-17.349
	c11.221,3.564,18.436,13.86,18.605,25.017l12.797,0.267c-0.057-16.685-10.773-32.152-27.53-37.475
	C118.356-4.737,96.164,6.754,89.565,27.53"/>
<path fill="#4E9B99" d="M16.264,134.488c8.247,6.039,18.516,8.641,28.644,7.258l17.508,52.324c-0.935,0.788-1.774,1.685-2.499,2.67
	c-5.09,6.976-3.514,16.792,3.52,21.924c7.034,5.133,16.862,3.639,21.952-3.338c5.091-6.977,3.515-16.791-3.519-21.924
	c-2.368-1.729-5.17-2.762-8.093-2.985L52.718,125.85c-8.703,4.645-20.428,4.649-28.987-1.596
	c-11.885-8.673-14.548-25.26-5.947-37.047c6.874-9.42,18.86-12.925,29.463-9.528l4.248-11.953C35.7,60.459,17.73,65.61,7.465,79.676
	C-5.26,97.116-1.321,121.656,16.264,134.488"/>
<path fill="#4E9B99" d="M218.85,195.98c-3.26-10.09-10.25-17.937-18.959-22.541l16.896-52.489c1.229-0.093,2.444-0.329,3.62-0.703
	c8.285-2.677,12.843-11.53,10.181-19.772c-2.663-8.244-11.539-12.756-19.825-10.08c-8.285,2.677-12.845,11.53-10.182,19.773
	c0.898,2.779,2.563,5.248,4.801,7.124l-21.294,64.454c9.835,1.311,19.366,8.13,22.606,18.16c4.5,13.93-3.203,28.889-17.205,33.412
	c-11.188,3.615-23.014-0.528-29.609-9.447l-10.563,7.191c9.703,13.451,27.371,19.746,44.08,14.349
	C214.109,238.719,225.506,216.588,218.85,195.98"/>
<path fill="#4E9B99" d="M96.273,238.32c8.584-6.28,13.87-15.389,15.533-25.105l55.211-0.563c0.473,1.137,1.076,2.213,1.799,3.209
	c5.131,7.014,14.976,8.539,21.988,3.408c7.014-5.129,8.538-14.975,3.408-21.987c-5.131-7.013-14.975-8.539-21.988-3.408
	c-2.362,1.729-4.192,4.087-5.281,6.806l-67.966,0.172c1.819,9.742-1.698,20.938-10.231,27.181
	c-11.85,8.67-28.485,6.092-37.155-5.759c-6.928-9.469-6.673-21.994-0.245-31.068L41.21,183.46
	c-9.772,13.453-10.252,32.2,0.093,46.34C54.13,247.333,78.741,251.146,96.273,238.32"/>
</svg>
