<?xml version="1.0" encoding="utf-8"?>
<!-- Generator: Adobe Illustrator 16.0.0, SVG Export Plug-In . SVG Version: 6.00 Build 0)  -->
<!DOCTYPE svg PUBLIC "-//W3C//DTD SVG 1.1//EN" "http://www.w3.org/Graphics/SVG/1.1/DTD/svg11.dtd">
<svg version="1.1" id="Layer_1" xmlns="http://www.w3.org/2000/svg" xmlns:xlink="http://www.w3.org/1999/xlink" x="0px" y="0px"
	 width="97.266px" height="31.612px" viewBox="11.921 15.419 97.266 31.612" enable-background="new 11.921 15.419 97.266 31.612"
	 xml:space="preserve">
<path fill="#FFC24A" d="M11.921,40.945l0.191-0.268l9.057-17.185l0.019-0.182l-3.992-7.499c-0.334-0.628-1.276-0.47-1.386,0.233
	L11.921,40.945z"/>
<g>
	<path id="D" fill="#20B7AF" d="M12.034,40.741l0.145-0.282l8.961-17.005l-3.981-7.53c-0.331-0.622-1.171-0.463-1.281,0.233
		L12.034,40.741z"/>
</g>
<g>
</g>
<path fill="#F4BD62" d="M24.099,28.983l2.973-3.044l-2.974-5.676c-0.282-0.538-1.07-0.539-1.35,0l-1.589,3.031v0.258L24.099,28.983z
	"/>
<g>
	<path id="C" fill="#6BC1BC" d="M24.046,28.856l2.89-2.959l-2.89-5.503c-0.274-0.523-0.941-0.577-1.212-0.054l-1.597,3.076
		l-0.048,0.157L24.046,28.856z"/>
</g>
<path fill="#366B68" d="M21.168,23.276l-9.247,17.669l0.086-0.087l0.315-0.128l11.589-11.546l0.146-0.4L21.168,23.276z"/>
<path fill="#4E9B99" d="M34.86,40.953l-2.972-18.306c-0.093-0.573-0.682-0.81-1.092-0.399L12.034,40.993l10.313,5.764
	c0.654,0.365,1.451,0.365,2.105,0L34.86,40.953z"/>
<path fill="#4E9B99" d="M42.9,38.236h-1.785V24.345h8.1v1.707H42.9v4.559h5.705v1.67H42.9V38.236z M52.353,26.343
	c-0.246,0.246-0.543,0.37-0.892,0.37c-0.336,0.006-0.659-0.128-0.892-0.37c-0.241-0.234-0.375-0.557-0.37-0.892
	c-0.006-0.336,0.128-0.659,0.37-0.892c0.234-0.241,0.557-0.375,0.892-0.37c0.336-0.006,0.659,0.128,0.892,0.37
	c0.241,0.234,0.375,0.556,0.37,0.892C52.729,25.787,52.595,26.11,52.353,26.343z M52.353,38.236h-1.785V28.73h1.785V38.236z
	 M56.206,38.236H54.42V28.73h1.707v1.552h0.077c0.18-0.517,0.553-0.944,1.116-1.28s1.1-0.505,1.64-0.505s0.977,0.078,1.34,0.233
	l-0.68,1.67c-0.233-0.1-0.55-0.136-0.95-0.136c-0.647,0-1.22,0.255-1.717,0.765c-0.497,0.512-0.747,1.181-0.747,2.009v5.2V38.236z
	 M64.994,38.537c-1.436,0-2.604-0.479-3.502-1.436c-0.899-0.959-1.35-2.166-1.35-3.629c0-1.384,0.436-2.574,1.299-3.57
	c0.865-0.996,2-1.494,3.348-1.494c1.4,0,2.538,0.46,3.386,1.378c0.849,0.918,1.271,2.146,1.271,3.688l-0.021,0.33h-7.5
	c0.052,0.957,0.372,1.713,0.96,2.27c0.551,0.541,1.295,0.842,2.067,0.834c1.28,0,2.147-0.543,2.601-1.631l1.6,0.66
	c-0.301,0.737-0.822,1.355-1.533,1.854s-1.585,0.747-2.62,0.747L64.994,38.537z M67.555,32.337c-0.041-0.543-0.289-1.06-0.748-1.552
	s-1.142-0.737-2.047-0.737c-0.66,0-1.232,0.207-1.717,0.62s-0.818,0.971-1,1.67h5.5L67.555,32.337z M75.917,38.537
	c-0.726,0-1.375-0.155-1.95-0.467c-0.574-0.311-1.006-0.697-1.3-1.164H72.6v1.32h-1.707V24.345h1.785v4.385L72.6,30.05h0.078
	c0.285-0.466,0.715-0.854,1.301-1.164c0.584-0.31,1.226-0.466,1.949-0.466c1.23,0,2.301,0.485,3.182,1.455
	c0.883,0.971,1.341,2.173,1.341,3.6c0,1.428-0.446,2.641-1.341,3.601c-0.894,0.96-1.952,1.454-3.182,1.454L75.917,38.537z
	 M75.617,36.906c0.828,0,1.54-0.313,2.134-0.939c0.595-0.626,0.892-1.458,0.892-2.492c0-1.035-0.297-1.867-0.892-2.494
	c-0.594-0.626-1.308-0.939-2.134-0.939c-0.816-0.016-1.599,0.323-2.145,0.93c-0.588,0.631-0.883,1.455-0.883,2.504
	c0,1.047,0.294,1.881,0.883,2.502c0.59,0.621,1.303,0.933,2.145,0.933V36.906z M85.13,38.537c-1,0-1.853-0.301-2.532-0.873
	c-0.679-0.573-1.02-1.352-1.02-2.301c0-1.034,0.4-1.846,1.203-2.434c0.803-0.59,1.792-0.884,2.97-0.884
	c1.048,0,1.908,0.194,2.58,0.582v-0.272c0-0.699-0.24-1.258-0.718-1.678c-0.479-0.42-1.067-0.63-1.766-0.63
	c-0.519,0-0.988,0.123-1.408,0.37c-0.398,0.222-0.705,0.58-0.862,1.01l-1.63-0.699c0.22-0.569,0.652-1.096,1.3-1.58
	s1.5-0.728,2.56-0.728c1.217,0,2.226,0.356,3.027,1.067c0.803,0.711,1.203,1.714,1.203,3.007v5.743H88.34v-1.32h-0.078
	c-0.712,1.086-1.753,1.63-3.123,1.63L85.13,38.537z M85.43,36.906c0.737,0,1.407-0.274,2.008-0.824
	c0.602-0.551,0.902-1.2,0.902-1.95c-0.504-0.413-1.26-0.62-2.27-0.62c-0.867,0-1.521,0.188-1.961,0.563
	c-0.439,0.375-0.659,0.815-0.659,1.319c0,0.467,0.2,0.834,0.603,1.106c0.401,0.272,0.859,0.408,1.377,0.408V36.906z M95.23,38.537
	c-1.061,0-1.938-0.26-2.631-0.775c-0.675-0.496-1.201-1.168-1.522-1.941l1.601-0.659c0.504,1.2,1.364,1.784,2.579,1.784
	c0.556,0,1.013-0.123,1.368-0.369c0.355-0.247,0.534-0.57,0.534-0.971c0-0.619-0.433-1.039-1.3-1.26l-1.92-0.466
	c-0.608-0.155-1.185-0.45-1.728-0.883S91.4,32,91.4,31.252c0-0.84,0.371-1.523,1.115-2.047s1.627-0.786,2.65-0.786
	c0.84,0,1.6,0.2,2.25,0.572c0.65,0.372,1.132,0.928,1.417,1.64l-1.552,0.641c-0.35-0.84-1.074-1.26-2.174-1.26
	c-0.529,0-0.977,0.1-1.34,0.33c-0.363,0.229-0.543,0.517-0.543,0.892c0,0.543,0.42,0.912,1.26,1.106l1.883,0.446
	c0.892,0.207,1.552,0.563,1.98,1.066c0.428,0.504,0.639,1.074,0.639,1.707c0,0.854-0.35,1.565-1.047,2.135
	c-0.698,0.568-1.599,0.854-2.697,0.854L95.23,38.537z M104.736,38.537c-1.436,0-2.604-0.479-3.502-1.436
	c-0.897-0.959-1.35-2.166-1.35-3.629c0-1.384,0.436-2.574,1.301-3.57c0.863-0.996,2-1.494,3.347-1.494
	c1.399,0,2.538,0.46,3.386,1.378s1.27,2.146,1.27,3.688v0.33h-7.5c0.051,0.957,0.373,1.713,0.961,2.27
	c0.551,0.541,1.293,0.841,2.065,0.834c1.28,0,2.147-0.543,2.601-1.631l1.6,0.66c-0.301,0.737-0.822,1.355-1.533,1.854
	s-1.585,0.747-2.619,0.747L104.736,38.537z M107.297,32.337c-0.04-0.543-0.288-1.06-0.747-1.552s-1.142-0.737-2.047-0.737
	c-0.629-0.011-1.24,0.21-1.717,0.621c-0.485,0.414-0.818,0.97-1,1.67h5.5L107.297,32.337z"/>
</svg>
