<?xml version="1.0" encoding="utf-8"?>
<!-- Generator: Adobe Illustrator 16.0.0, SVG Export Plug-In . SVG Version: 6.00 Build 0)  -->
<!DOCTYPE svg PUBLIC "-//W3C//DTD SVG 1.1//EN" "http://www.w3.org/Graphics/SVG/1.1/DTD/svg11.dtd">
<svg version="1.1" id="Layer_1" xmlns="http://www.w3.org/2000/svg" xmlns:xlink="http://www.w3.org/1999/xlink" x="0px" y="0px"
	 width="294.393px" height="40.803px" viewBox="9.608 10 294.393 40.803" enable-background="new 9.608 10 294.393 40.803"
	 xml:space="preserve">
<g>
	<path fill="#4E9B99" d="M186.949,23.007l4.116,10.806h-7.976L186.949,23.007z M185.406,19.405l-9.005,23.669h3.345l2.316-6.432
		h10.034l2.315,6.432h3.345l-9.005-23.669H185.406L185.406,19.405z M234.03,43.074h3.087V19.405h-3.087V43.074z M202.374,29.181
		c1.03-1.544,3.087-2.83,5.146-2.83c4.116,0,6.175,2.83,6.175,6.947v10.034h-3.087v-9.52c0-3.346-1.8-4.63-4.116-4.63
		c-2.573,0-4.374,2.573-4.374,4.888v9.004h-3.087V26.609h3.087l0.257,2.573L202.374,29.181z M216.27,38.188
		c0-3.603,3.345-5.66,7.204-5.66c2.315,0,3.859,0.515,4.374,1.029v-0.515c0-2.573-2.059-3.86-4.116-3.86
		c-1.8,0-3.345,0.771-3.86,2.316l-2.821-1.288c0.515-1.544,2.572-3.86,6.699-3.86c3.86,0,7.204,2.316,7.204,6.947v9.777h-2.83
		v-2.327h-0.257c-0.771,1.286-2.573,2.829-5.403,2.829c-3.345,0-6.175-2.057-6.175-5.402 M227.866,36.115
		c0,0-1.286-1.029-3.86-1.029c-3.087,0-4.373,1.8-4.373,3.087c0,1.8,1.8,2.573,3.345,2.573
		C225.293,40.746,227.865,38.688,227.866,36.115"/>
	<path fill="#4E9B99" d="M241.482,50.277l3.602-8.5l-6.432-14.922h3.087l4.888,11.32l4.889-11.32h3.087L244.57,50.277H241.482
		L241.482,50.277z M286.761,32.27c-0.772-2.061-2.572-3.346-4.373-3.346c-2.572,0-4.888,2.316-4.888,5.66s2.316,5.66,4.888,5.66
		c1.801,0,3.603-1.286,4.374-3.088l2.573,1.545c-1.286,2.83-3.859,4.63-6.947,4.63c-4.374,0-7.976-3.86-7.976-8.747
		c0-5.146,3.602-8.748,7.976-8.748c3.088,0,5.66,1.8,6.947,4.63l-2.573,1.8L286.761,32.27z"/>
	<path fill="#4E9B99" d="M297.825,43.589c4.116,0,6.175-2.315,6.175-5.146c0-6.176-9.005-3.86-9.005-7.461
		c0-1.286,1.03-2.058,2.83-2.058s3.602,0.772,4.374,2.058l1.8-1.799c-1.03-1.286-3.86-3.087-6.432-3.087
		c-3.86,0-5.917,2.316-5.917,5.146c0,5.916,9.262,3.859,9.262,6.947c0,1.543-1.03,2.572-3.087,2.572
		c-2.058,0-3.087-1.285-4.116-2.572l-2.316,1.799c1.545,1.545,3.86,3.603,6.433,3.603V43.589z M268.495,43.074h3.087V26.609h-3.087
		V43.074L268.495,43.074z"/>
	<path fill="#4E9B99" d="M269.782,18.633c1.286,0,2.059,1.03,2.059,2.058c0,1.286-1.03,2.058-2.059,2.058s-2.058-1.03-2.058-2.058
		S268.754,18.633,269.782,18.633z M265.409,40.503l0.516,2.315h-3.088c-2.829,0-4.115-2.058-4.115-5.146v-7.976h-3.087V26.61h3.087
		v-4.888h3.087v4.888h3.602v3.087h-3.602v8.5c0,2.315,1.8,2.315,3.602,2.315L265.409,40.503z"/>
	<path fill="#4E9B99" d="M75.793,28.924v3.859h9.006c-0.258,2.059-1.03,3.603-2.059,4.631c-1.286,1.285-3.345,2.83-6.947,2.83
		c-5.402,0-9.776-4.375-9.776-10.034c0-5.403,4.374-10.034,9.776-10.034c3.087,0,5.146,1.286,6.7,2.573l2.573-2.573
		c-2.316-2.058-5.146-3.86-9.262-3.86c-7.46,0-13.894,6.175-13.894,13.636c0,7.461,6.422,13.635,13.883,13.635
		c4.116,0,7.204-1.286,9.521-3.86c2.573-2.572,3.345-5.916,3.345-8.748c0-0.771,0-1.8-0.257-2.315h-12.6L75.793,28.924z
		 M98.692,25.847c-4.888,0-8.748,3.602-8.748,8.748c0,5.146,3.86,8.747,8.748,8.747s8.748-3.859,8.748-8.747
		C107.44,29.449,103.579,25.847,98.692,25.847z M98.692,39.997c-2.573,0-4.888-2.316-4.888-5.403s2.315-5.403,4.888-5.403
		s4.888,2.058,4.888,5.403C103.579,37.939,101.264,39.997,98.692,39.997z M140.886,27.647c-1.03-1.03-2.573-2.058-4.889-2.058
		c-4.374,0-8.232,3.86-8.232,8.748c0,4.888,3.859,8.747,8.232,8.747c2.059,0,3.86-1.03,4.63-2.059h0.258v1.287
		c0,3.344-1.801,5.146-4.631,5.146c-2.315,0-3.859-1.8-4.374-3.087l-3.345,1.285c1.03,2.316,3.603,5.146,7.718,5.146
		c4.631,0,8.5-2.572,8.5-9.262v-15.95h-3.602v2.058L140.886,27.647z M136.512,39.997c-2.573,0-4.63-2.316-4.63-5.403
		s2.058-5.403,4.63-5.403c2.571,0,4.63,2.316,4.63,5.403S139.083,39.997,136.512,39.997z M117.73,25.847
		c-4.888,0-8.748,3.602-8.748,8.748c0,5.146,3.86,8.747,8.748,8.747s8.748-3.859,8.748-8.747
		C126.735,29.449,122.617,25.847,117.73,25.847z M117.73,39.997c-2.573,0-4.888-2.316-4.888-5.403s2.315-5.403,4.888-5.403
		s4.888,2.058,4.888,5.403C122.617,37.939,120.302,39.997,117.73,39.997z M147.574,16.575h3.86v26.757h-3.86V16.575z
		 M161.983,39.986c-2.058,0-3.345-1.029-4.374-2.572l11.835-4.889l-0.515-1.029c-0.772-2.058-3.087-5.66-7.46-5.66
		c-4.631,0-8.233,3.602-8.233,8.748c0,4.888,3.86,8.747,8.748,8.747c4.116,0,6.432-2.573,7.46-3.86l-3.087-2.058
		C165.326,38.957,164.04,39.986,161.983,39.986L161.983,39.986z M161.726,29.181c1.544,0,2.83,0.772,3.345,2.058l-7.976,3.346
		C157.095,30.725,159.667,29.181,161.726,29.181L161.726,29.181z"/>
</g>
<g>
	<path fill="#65BAB6" d="M27.703,49.99H12.898c-1.817,0-3.29-1.473-3.29-3.291l0,0v-7.1c0-1.816,1.473-3.289,3.29-3.289l0,0h9.35
		V25.91c0-1.817,1.474-3.29,3.29-3.29l0,0h10.4v27.273h-8.226L27.703,49.99z"/>
	<path fill="#4E9B99" d="M46.318,49.99h-10.4v-36.7c0-1.817,1.474-3.29,3.29-3.29l0,0h7.101c1.816,0,3.29,1.473,3.29,3.29l0,0v33.42
		c-0.087,1.817-1.559,3.3-3.301,3.3L46.318,49.99z"/>
	<path fill="#327774" d="M49.522,36.311v10.389c0,1.818-1.473,3.291-3.29,3.291h-10.39V22.63L49.522,36.311z"/>
</g>
</svg>
