<?xml version="1.0" encoding="utf-8"?>
<!-- Generator: Adobe Illustrator 16.0.0, SVG Export Plug-In . SVG Version: 6.00 Build 0)  -->
<!DOCTYPE svg PUBLIC "-//W3C//DTD SVG 1.1//EN" "http://www.w3.org/Graphics/SVG/1.1/DTD/svg11.dtd">
<svg version="1.1" id="Layer_1" xmlns="http://www.w3.org/2000/svg" xmlns:xlink="http://www.w3.org/1999/xlink" x="0px" y="0px"
	 width="2500px" height="820px" viewBox="0 0 2500 820" enable-background="new 0 0 2500 820" xml:space="preserve">
<g>
	<g transform="translate(1.034 123.087)">
		<ellipse fill="#4E9B99" cx="113.876" cy="586.364" rx="108.542" ry="108.542"/>
		<ellipse fill="#4E9B99" cx="505.7" cy="587.55" rx="76.772" ry="76.772"/>
		<ellipse fill="#4E9B99" cx="828.681" cy="587.551" rx="34.855" ry="34.855"/>
	</g>
	<path fill="#4E9B99" d="M486.053,482.033c-19.085,0-33.22-14.838-33.22-33.22V307.451c0-48.766-23.321-86.227-75.626-86.227
		c-52.304,0-84.108,40.287-84.108,86.939v140.649c0,18.382-12.725,33.22-33.22,33.22c-19.792,0-33.22-14.838-33.22-33.22V307.451
		c0-48.766-25.444-86.227-77.754-86.227c-53.715,0-81.985,40.287-81.985,86.939v140.649c0,18.382-13.427,33.22-33.22,33.22
		c-19.084,0-33.225-14.838-33.225-33.22V197.898c0-19.787,12.725-33.923,33.22-33.923c22.619,0,33.22,15.546,33.22,33.923v22.618
		c19.085-37.461,57.957-59.372,99.66-59.372c50.889,0,89.058,25.444,108.142,62.906c27.563-42.406,67.851-62.906,118.031-62.906
		c85.524,0,126.52,58.669,126.52,141.362v146.297c0,18.387-13.423,33.225-33.215,33.225V482.033z M612.572,38.164
		c21.203,0,38.872,17.669,38.872,38.872s-17.669,38.872-38.872,38.872c-21.202,0-38.877-17.669-38.877-38.872
		S591.365,38.164,612.572,38.164z M612.572,482.038c-19.792,0-33.22-14.838-33.22-33.225V197.19c0-18.376,14.136-33.22,33.22-33.22
		c19.085,0,33.22,14.844,33.22,33.22v251.623c-0.01,18.382-13.432,33.22-33.22,33.22V482.038z M833.078,278.473l84.108-104.604
		c5.652-6.364,12.725-9.898,21.916-9.898c18.372,0,30.389,12.018,30.389,28.983c0,6.36-2.123,12.72-7.775,19.085l-92.592,110.26
		l94.007,110.959c4.945,5.657,7.771,11.31,7.771,19.793c0,16.268-14.135,28.978-29.686,28.978c-9.894,0-17.669-3.533-23.321-10.61
		l-84.816-105.303l-84.816,105.303c-5.657,7.063-13.428,10.61-23.326,10.61c-15.551,0-29.686-12.729-29.686-28.978
		c0-8.483,2.831-14.136,7.775-19.793l94.007-110.964l-92.592-110.255c-5.657-6.37-7.775-12.726-7.775-19.085
		c0-16.961,12.018-28.979,30.394-28.979c9.187,0,16.254,3.539,21.911,9.898L833.078,278.473L833.078,278.473z M1195.665,484.864
		c-47.355,0-86.228-24.727-108.846-60.777v156.908c0,18.382-13.428,33.21-33.22,33.21s-33.22-14.833-33.22-33.21V197.19
		c0-18.376,11.31-33.22,31.805-33.22c20.5,0,32.517,15.551,32.517,33.928v24.044c21.203-36.754,63.608-60.788,110.964-60.788
		c81.282,0,147.722,67.846,147.722,161.857C1343.387,420.543,1276.948,484.864,1195.665,484.864z M1182.242,216.28
		c-57.254,0-95.418,50.176-95.418,106.727c0,56.556,38.169,106.728,95.423,106.728c57.249,0,94.7-43.109,94.7-106.728
		C1276.948,259.398,1239.487,216.28,1182.242,216.28z M1693.961,448.813c0,18.382-12.72,33.22-33.22,33.22
		c-19.792,0-32.502-14.838-32.502-33.22v-15.551c-19.792,29.687-57.254,51.602-103.184,51.602
		c-98.971,0-156.21-72.087-156.21-161.862c0-88.345,63.623-161.853,163.273-161.853c101.782,0,161.861,66.436,161.861,161.853
		v125.812H1693.961L1693.961,448.813z M1531.397,217.69c-56.546,0-96.131,47.365-96.131,105.312
		c0,60.787,33.22,105.316,96.131,105.316c58.659,0,96.12-50.186,96.12-105.316C1627.517,257.978,1587.943,217.69,1531.397,217.69
		L1531.397,217.69z M1893.992,161.154c85.515,0,148.415,65.029,148.415,147.723v139.941c0.027,18.32-14.802,33.193-33.122,33.22
		c-0.032,0-0.064,0-0.098,0c-18.322,0.024-33.195-14.809-33.22-33.132c0-0.029,0-0.059,0-0.088V301.096
		c0-44.529-35.338-79.159-81.976-79.159c-46.652,0-81.292,34.62-81.292,79.159v147.722c0.026,18.32-14.803,33.193-33.122,33.22
		c-0.033,0-0.065,0-0.098,0c-18.322,0.024-33.195-14.809-33.22-33.132c0-0.029,0-0.059,0-0.088V308.872
		C1746.261,226.178,1808.459,161.154,1893.992,161.154z M2388.033,323.71c0,11.31-6.365,22.618-25.44,22.618h-211.331
		c3.529,48.771,36.75,85.515,95.408,85.515c36.759,0,58.67-12.725,81.99-34.631c5.662-5.652,13.428-10.611,21.911-10.611
		c14.839,0,27.567,10.611,27.567,27.568c0,7.058-3.539,13.423-8.479,19.074c-26.859,31.102-74.932,51.606-125.811,51.606
		c-105.321,0-161.164-73.517-161.164-161.867c0-92.592,67.152-161.853,158.318-161.853c89.077,0.024,147.029,72.111,147.029,162.585
		V323.71z M2241.018,214.167c-48.765,0-81.984,34.62-88.345,78.456h173.864c-5.646-42.42-37.461-78.456-85.514-78.456H2241.018z
		 M2465.777,482.033c-19.797,0-33.22-14.838-33.22-33.22V33.224c0-18.387,13.433-33.22,33.22-33.22
		c19.792,0,33.21,14.833,33.21,33.22v415.589C2498.996,467.195,2485.569,482.033,2465.777,482.033L2465.777,482.033z"/>
</g>
</svg>
