<?xml version="1.0" encoding="utf-8"?>
<!-- Generator: Adobe Illustrator 16.0.0, SVG Export Plug-In . SVG Version: 6.00 Build 0)  -->
<!DOCTYPE svg PUBLIC "-//W3C//DTD SVG 1.1//EN" "http://www.w3.org/Graphics/SVG/1.1/DTD/svg11.dtd">
<svg version="1.1" id="Layer_1" xmlns="http://www.w3.org/2000/svg" xmlns:xlink="http://www.w3.org/1999/xlink" x="0px" y="0px"
	 width="101.361px" height="28.129px" viewBox="9.326 15.935 101.361 28.129" enable-background="new 9.326 15.935 101.361 28.129"
	 xml:space="preserve">
<path fill="#4E9B99" d="M52.085,29.65l-1.687-0.363c-0.857-0.182-1.324-0.7-1.324-1.48c0-0.986,0.857-1.713,2.025-1.713
	c1.583,0,2.05,1.168,2.18,1.532c0.026,0.13,0.13,0.208,0.234,0.286c0.104,0.052,0.234,0.052,0.337,0.026l0.9-0.312
	c0.234-0.078,0.337-0.312,0.286-0.545c-0.234-0.805-1.1-2.7-3.946-2.7c-2.13,0-3.92,1.635-3.92,3.556c0,1.66,1.1,2.879,2.907,3.27
	l1.6,0.363c0.986,0.207,1.558,0.805,1.558,1.582c0,1.013-0.83,1.636-2.155,1.636c-1.558,0-2.336-1.038-2.518-2
	c-0.026-0.13-0.104-0.233-0.208-0.312c-0.112-0.058-0.24-0.076-0.363-0.053l-0.986,0.313c-0.208,0.078-0.337,0.285-0.312,0.492
	c0.312,1.584,1.6,3.297,4.387,3.297c2.336,0,4.1-1.531,4.1-3.555c-0.026-1.66-1.142-2.881-3.115-3.324L52.085,29.65z M60.235,28.015
	c-1.895,0-3.868,1.583-3.868,4.256c0,1.272,0.415,2.389,1.22,3.168c0.727,0.727,1.74,1.142,2.83,1.142
	c1.635,0,2.933-0.856,3.53-2.284c0.052-0.115,0.052-0.248,0-0.363c-0.053-0.104-0.156-0.207-0.26-0.233l-0.806-0.286
	c-0.233-0.078-0.467,0.025-0.545,0.234c-0.337,0.805-0.985,1.22-1.92,1.22c-1.116,0-1.973-0.753-2.13-1.87
	c0-0.025,0-0.053,0.026-0.078c0,0,0.026-0.025,0.078-0.025h5.27c0.233,0,0.44-0.183,0.44-0.416v-0.233c0-2.622-1.48-4.23-3.869-4.23
	H60.235z M62.154,31.208c0,0.026,0,0.052-0.025,0.078c0,0-0.025,0.026-0.078,0.026h-3.608c-0.026,0-0.052-0.026-0.078-0.026
	c0,0-0.026-0.026-0.026-0.078c0.176-0.889,0.964-1.523,1.87-1.506c1.1,0,1.8,0.57,1.947,1.506H62.154z M72.555,28.25h-0.959
	c-0.25,0.011-0.445,0.218-0.441,0.467c0,0.052-0.051,0.078-0.051,0.078c-0.026,0-0.053,0.026-0.078,0
	c-0.493-0.44-1.168-0.675-2.051-0.675c-2.154,0-3.711,1.66-3.711,3.92c0,2.26,1.557,3.92,3.711,3.92c0.805,0,1.506-0.26,2.025-0.728
	c0.025-0.025,0.078-0.025,0.078-0.025c0.025,0,0.052,0.025,0.052,0.078v0.337c0,1.583-0.7,2.3-2.18,2.3
	c-0.935,0-1.687-0.57-1.896-1.48c-0.025-0.104-0.104-0.207-0.207-0.285c-0.104-0.055-0.223-0.073-0.338-0.053l-0.935,0.209
	c-0.234,0.051-0.4,0.285-0.337,0.545c0.337,1.635,1.816,2.752,3.686,2.752c1.402,0,2.467-0.416,3.167-1.272
	c0.57-0.7,0.884-1.659,0.884-2.778V28.7c0.025-0.234-0.183-0.44-0.416-0.44L72.555,28.25z M69.2,34.324
	c-1.272,0-2.05-0.883-2.05-2.284s0.805-2.284,2.05-2.284c1.194,0,2.024,0.9,2.024,2.284S70.395,34.324,69.2,34.324z M83.893,28.04
	c-1.063,0-1.92,0.4-2.492,1.142c-0.025,0.026-0.051,0.052-0.078,0.052c-0.025,0-0.051-0.026-0.051-0.026
	c-0.467-0.727-1.299-1.168-2.258-1.168c-0.754,0-1.507,0.26-2,0.727c-0.053,0.026-0.078,0.026-0.104,0.026s-0.052-0.026-0.052-0.078
	c0-0.234-0.209-0.44-0.44-0.44h-0.935c-0.234,0-0.44,0.208-0.44,0.44v7.165c0,0.261,0.208,0.44,0.44,0.44h0.959
	c0.234,0,0.44-0.209,0.44-0.44v-4.387c0-1.064,0.65-1.765,1.601-1.765c1.271,0,1.453,0.986,1.453,1.583v4.57
	c0,0.26,0.209,0.439,0.44,0.439h0.96c0.234,0,0.439-0.207,0.439-0.439v-4.412c0-1.039,0.65-1.766,1.601-1.766
	c1.272,0,1.454,0.986,1.454,1.583v4.569c0,0.261,0.208,0.44,0.439,0.44h0.961c0.233,0,0.439-0.208,0.439-0.44V31.13
	c0.025-2.13-1.376-3.1-2.804-3.1L83.893,28.04z M92.098,28.015c-1.896,0-3.869,1.583-3.869,4.256c0,1.272,0.416,2.389,1.221,3.168
	c0.727,0.727,1.74,1.142,2.83,1.142c1.635,0,2.933-0.856,3.529-2.284c0.053-0.115,0.053-0.248,0-0.363
	c-0.052-0.104-0.156-0.207-0.26-0.233l-0.805-0.286c-0.234-0.078-0.467,0.025-0.545,0.234c-0.338,0.805-0.986,1.22-1.92,1.22
	c-1.116,0-1.973-0.753-2.131-1.87c0-0.025,0-0.053,0.026-0.078c0,0,0.026-0.025,0.078-0.025h5.271c0.233,0,0.439-0.183,0.439-0.416
	v-0.233c0.025-2.622-1.454-4.23-3.867-4.23H92.098z M90.332,31.313c-0.025,0-0.053-0.026-0.078-0.026c0,0-0.025-0.026-0.025-0.078
	c0.176-0.889,0.963-1.523,1.869-1.506c1.039,0,1.766,0.57,1.92,1.506c0,0.026,0,0.052-0.025,0.078c0,0-0.026,0.026-0.078,0.026
	H90.332z M101.65,28.04c-0.805,0-1.506,0.286-2.051,0.805c-0.025,0.026-0.078,0.026-0.104,0.026s-0.053-0.026-0.053-0.078v-0.052
	c0-0.234-0.207-0.44-0.439-0.44h-0.936c-0.233,0-0.439,0.208-0.439,0.44v7.165c0,0.26,0.208,0.439,0.439,0.439h0.961
	c0.234,0,0.439-0.207,0.439-0.439v-4.23c0-0.935,0.415-1.947,1.6-1.947c1.064,0,1.601,0.597,1.601,1.765v4.359
	c0,0.26,0.208,0.44,0.44,0.44h0.959c0.234,0,0.44-0.208,0.44-0.44V31.26c0.052-2-1.063-3.22-2.88-3.22H101.65z M109.109,29.962
	h1.117c0.233,0,0.439-0.208,0.439-0.44v-0.83c0-0.234-0.208-0.44-0.439-0.44H109.1c-0.052,0-0.078-0.052-0.078-0.078V26.28
	c0-0.234-0.207-0.44-0.439-0.44h-0.83c-0.234,0-0.439,0.208-0.439,0.44v0.986c0,0.467-0.183,1.012-1.013,1.012h-0.182
	c-0.234,0-0.44,0.208-0.44,0.44v0.83c0,0.234,0.209,0.44,0.44,0.44h0.935c0.053,0,0.104,0.052,0.104,0.078v3.972
	c0,1.454,0.884,2.362,2.337,2.362c0.399,0,0.7-0.053,0.856-0.078c0.209-0.053,0.338-0.234,0.338-0.44v-0.753
	c0-0.13-0.053-0.26-0.156-0.337c-0.104-0.077-0.234-0.13-0.338-0.104c-0.104,0-0.207,0.026-0.285,0.026c-0.65,0-0.9-0.233-0.9-0.883
	v-3.764c0.026-0.052,0.053-0.104,0.104-0.104L109.109,29.962z"/>
<g transform="matrix(.363899 0 0 .363899 9.326133 15.935306)">
	<path fill="#77D8D3" d="M51.9,52.798H4c-2.201,0-4-1.798-4-3.999s1.799-3.999,4-3.999h47.9c2.201,0,4,1.798,4,3.999
		S54.1,52.798,51.9,52.798z"/>
	<path fill="#4E9B99" d="M41.699,77.299c-3.899,0-7.8-0.601-11.499-1.701c-2.1-0.698-3.299-2.898-2.6-4.997
		c0.7-2.101,2.901-3.301,5.001-2.603c2.9,0.902,5.999,1.401,9.099,1.401c13.601,0,25.4-8.7,29.301-21.7c0.6-2.099,2.9-3.301,5-2.7
		s3.299,2.901,2.7,5.002C73.599,66.302,58.801,77.299,41.699,77.299z"/>
	<path fill="#77D8D3" d="M79.299,32.5H31.4c-2.199,0-4-1.801-4-4.001c0-2.199,1.801-3.999,4-3.999h47.9
		c2.201,0,4.001,1.799,4.001,3.999C83.301,30.7,81.5,32.5,79.299,32.5z"/>
	<path fill="#4E9B99" d="M8.5,32.5c-0.4,0-0.801-0.101-1.201-0.201c-2.1-0.6-3.299-2.9-2.7-5c5.1-16.3,19.9-27.3,37.1-27.3
		c3.901,0,7.801,0.601,11.501,1.701c2.1,0.699,3.299,2.9,2.6,5c-0.7,2.1-2.901,3.299-5.001,2.6C47.9,8.4,44.8,7.9,41.699,7.9
		c-13.599,0-25.399,8.7-29.3,21.7C11.8,31.4,10.201,32.5,8.5,32.5z"/>
	<g>
		<circle fill="#77D8D3" cx="65.4" cy="13.301" r="4"/>
		<circle fill="#77D8D3" cx="17.9" cy="64.1" r="4"/>
	</g>
</g>
</svg>
