<svg xmlns="http://www.w3.org/2000/svg" xmlns:xlink="http://www.w3.org/1999/xlink" width="1920.997" height="1275.951" viewBox="0 0 1920.997 1275.951"><defs><style>.a{fill:url(#a);}</style><linearGradient id="a" x1="0.239" y1="-0.166" x2="0.896" y2="1.221" gradientUnits="objectBoundingBox"><stop offset="0" stop-color="#d0ddee" stop-opacity="0.4"/><stop offset="1" stop-color="#f9e9e3" stop-opacity="0.451"/></linearGradient></defs><path class="a" d="M14910.1,1798.2h-.025c-34.967,0-70.934-.634-106.9-1.883-34.4-1.195-69.718-2.984-104.972-5.32-33.606-2.226-68.044-5.007-102.356-8.266-32.6-3.1-65.924-6.7-99.058-10.721-114.639-13.9-232.234-33.286-349.521-57.613-46.082-9.558-92.223-19.911-137.139-30.771-35.952-8.692-71.194-17.723-104.746-26.842-56.823-15.443-90.049-26.082-90.377-26.187V802.8c.053.025,6.582,3.2,18.891,7.845a547.22,547.22,0,0,0,55.168,17.258,756.44,756.44,0,0,0,89.187,17.258A914.873,914.873,0,0,0,14099.194,853c88.431,0,180.842-11.956,274.666-35.534,26.715-6.714,53.928-14.477,80.884-23.074,28.234-9,56.974-19.176,85.42-30.231,29.705-11.545,59.91-24.374,89.778-38.129,31.114-14.33,62.727-30.065,93.961-46.767,20.5-10.965,40.845-21.24,60.463-30.54,19.055-9.034,37.994-17.417,56.29-24.916,17.729-7.266,35.38-13.918,52.463-19.771,16.5-5.655,32.982-10.736,48.976-15.1,15.391-4.2,30.812-7.875,45.834-10.915,14.387-2.911,28.866-5.335,43.035-7.2,13.479-1.779,27.132-3.115,40.58-3.972,12.677-.808,25.619-1.218,38.469-1.218,14.3,0,28.526.483,43.48,1.475,13.327.885,26.921,2.157,41.558,3.89,27.633,3.271,54.076,7.607,79.649,11.8l.017,0,1.309.215c25.462,4.175,51.791,8.493,78.279,11.668,14.25,1.708,27.434,2.961,40.3,3.832,14.438.977,28.122,1.452,41.833,1.452a563.74,563.74,0,0,0,134.32-16.293c12.439-3.012,25.185-6.508,37.883-10.39,13.1-4,26.566-8.548,40.026-13.5,13.845-5.1,28.1-10.789,42.38-16.913,14.65-6.284,29.772-13.22,44.948-20.615v1116.3c-4.295,2.061-8.621,4.1-12.856,6.055-30.511,14.093-62.468,27.406-94.984,39.568-31.614,11.825-64.621,22.886-98.1,32.875-32.511,9.7-66.361,18.656-100.611,26.619-33.213,7.722-67.7,14.72-102.511,20.8-33.7,5.886-68.623,11.073-103.8,15.417-34,4.2-69.154,7.721-104.479,10.471-34.087,2.654-69.263,4.66-104.549,5.962C14980.128,1797.564,14945.135,1798.2,14910.1,1798.2Z" transform="translate(15736 1798.2) rotate(180)"/></svg>